<svg width="708" height="674" viewBox="0 0 708 674" fill="none" xmlns="http://www.w3.org/2000/svg">
<mask id="path-1-outside-1_1_134" maskUnits="userSpaceOnUse" x="11" y="18" width="678" height="634" fill="black">
<rect fill="white" x="11" y="18" width="678" height="634"/>
<path d="M239.997 636.2C237.33 636.2 234.664 635.4 231.997 633.8C229.33 632.733 227.997 630.6 227.997 627.4C227.997 624.733 228.797 622.333 230.397 620.2C231.997 618.6 233.597 616.733 235.197 614.6C253.33 595.933 270.397 576.2 286.397 555.4C302.397 535.133 317.597 514.333 331.997 493C359.197 453.533 384.797 413.533 408.797 373C432.797 332.467 455.197 290.6 475.997 247.4C481.864 234.6 487.997 220.2 494.397 204.2C501.33 188.2 506.93 171.933 511.197 155.4C515.997 138.333 518.397 122.867 518.397 109C518.397 87.1333 512.53 71.9333 500.797 63.4C489.064 54.3333 473.064 49.8 452.797 49.8C427.197 49.8 399.197 55.6666 368.797 67.4C338.93 78.6 308.797 93.5333 278.397 112.2C248.53 130.333 220.53 149.533 194.397 169.8C168.797 190.067 147.464 209 130.397 226.6C120.264 237.267 109.33 250.067 97.5969 265C85.8635 279.933 75.7302 295.933 67.1969 313C59.1969 329.533 55.1969 345.533 55.1969 361C55.1969 374.333 58.3969 384.2 64.7969 390.6C71.7302 397 80.5302 401 91.1969 402.6C101.864 404.2 112.53 405 123.197 405C136.53 405 150.93 403.667 166.397 401C182.397 398.333 196.264 393.8 207.997 387.4C210.13 386.333 211.464 385.8 211.997 385.8C215.197 385.8 216.797 387.667 216.797 391.4C216.797 397.267 212.264 402.333 203.197 406.6C194.13 410.333 183.464 413.533 171.197 416.2C158.93 418.333 147.197 419.933 135.997 421C125.33 422.067 117.864 422.6 113.597 422.6C103.464 422.6 91.7302 421.533 78.3969 419.4C65.0635 416.733 54.6635 411.4 47.1969 403.4C33.3302 388.467 26.3969 371.133 26.3969 351.4C26.3969 330.067 33.5969 307.933 47.9969 285C62.9302 262.067 82.6635 239.133 107.197 216.2C131.73 193.267 158.93 171.4 188.797 150.6C218.664 129.267 248.797 110.333 279.197 93.8C309.597 77.2666 338.13 63.9333 364.797 53.8C391.464 43.1333 413.597 37 431.197 35.4C435.997 34.3333 440.797 33.8 445.597 33.8C450.397 33.8 455.197 33.8 459.997 33.8C484.53 33.8 505.064 38.6 521.597 48.2C538.664 57.8 547.197 76.4666 547.197 104.2C547.197 125 541.864 150.067 531.197 179.4C520.53 208.733 506.664 239.933 489.597 273C473.064 305.533 455.197 338.067 435.997 370.6C416.797 402.6 398.397 432.2 380.797 459.4C363.197 486.6 348.53 509 336.797 526.6L355.197 510.6C377.064 491.4 397.864 471.133 417.597 449.8C437.33 427.933 456.797 406.333 475.997 385C498.397 359.933 520.53 334.6 542.397 309C564.797 283.4 586.664 257.533 607.997 231.4C611.73 226.6 616.797 221.267 623.197 215.4C629.597 209 636.264 205.8 643.197 205.8C650.13 205.8 654.664 208.733 656.797 214.6C658.93 220.467 659.997 226.067 659.997 231.4C659.997 238.333 659.197 245.267 657.597 252.2C655.997 259.133 653.864 266.067 651.197 273C644.797 291.667 637.597 313.267 629.597 337.8C622.13 361.8 615.73 386.067 610.397 410.6C605.064 434.6 602.397 456.467 602.397 476.2C602.397 479.933 602.664 485.267 603.197 492.2C604.264 499.133 606.13 505.533 608.797 511.4C611.464 516.733 615.197 519.4 619.997 519.4C625.864 519.4 631.197 515.667 635.997 508.2C640.797 500.2 644.797 490.6 647.997 479.4C651.197 468.2 653.597 457.8 655.197 448.2C657.33 438.067 658.397 430.6 658.397 425.8C658.397 418.867 657.33 414.067 655.197 411.4C653.597 408.2 652.797 405.533 652.797 403.4C652.797 400.2 654.397 398.6 657.597 398.6C662.397 398.6 665.864 402.333 667.997 409.8C670.13 417.267 671.464 425.267 671.997 433.8C673.064 442.333 673.597 448.2 673.597 451.4C673.597 459.933 671.997 471.133 668.797 485C666.13 498.867 661.33 511.4 654.397 522.6C647.997 533.267 638.93 538.6 627.197 538.6C618.13 538.6 610.13 535.133 603.197 528.2C596.797 520.733 592.264 512.733 589.597 504.2C587.464 496.733 585.864 489 584.797 481C584.264 473 583.997 465.533 583.997 458.6C583.997 430.867 587.197 401.8 593.597 371.4C599.997 341 607.73 312.733 616.797 286.6C618.93 280.733 621.864 272.2 625.597 261C629.33 249.267 631.197 240.733 631.197 235.4C631.197 233.267 630.664 232.2 629.597 232.2C628.53 232.2 626.93 233.533 624.797 236.2C622.664 238.867 621.33 240.467 620.797 241C577.597 294.333 533.33 345.8 487.997 395.4C468.264 416.733 448.264 438.333 427.997 460.2C408.264 482.067 387.464 502.867 365.597 522.6C355.997 531.133 346.397 539.667 336.797 548.2C327.197 557.267 317.864 566.333 308.797 575.4C305.064 578.6 301.33 581.8 297.597 585C294.397 588.733 291.197 592.2 287.997 595.4C285.864 597.533 283.73 599.667 281.597 601.8C279.464 604.467 277.597 607.133 275.997 609.8C272.264 615.667 267.197 621.533 260.797 627.4C254.397 633.267 247.464 636.2 239.997 636.2Z"/>
</mask>
<path d="M239.997 636.2C237.33 636.2 234.664 635.4 231.997 633.8C229.33 632.733 227.997 630.6 227.997 627.4C227.997 624.733 228.797 622.333 230.397 620.2C231.997 618.6 233.597 616.733 235.197 614.6C253.33 595.933 270.397 576.2 286.397 555.4C302.397 535.133 317.597 514.333 331.997 493C359.197 453.533 384.797 413.533 408.797 373C432.797 332.467 455.197 290.6 475.997 247.4C481.864 234.6 487.997 220.2 494.397 204.2C501.33 188.2 506.93 171.933 511.197 155.4C515.997 138.333 518.397 122.867 518.397 109C518.397 87.1333 512.53 71.9333 500.797 63.4C489.064 54.3333 473.064 49.8 452.797 49.8C427.197 49.8 399.197 55.6666 368.797 67.4C338.93 78.6 308.797 93.5333 278.397 112.2C248.53 130.333 220.53 149.533 194.397 169.8C168.797 190.067 147.464 209 130.397 226.6C120.264 237.267 109.33 250.067 97.5969 265C85.8635 279.933 75.7302 295.933 67.1969 313C59.1969 329.533 55.1969 345.533 55.1969 361C55.1969 374.333 58.3969 384.2 64.7969 390.6C71.7302 397 80.5302 401 91.1969 402.6C101.864 404.2 112.53 405 123.197 405C136.53 405 150.93 403.667 166.397 401C182.397 398.333 196.264 393.8 207.997 387.4C210.13 386.333 211.464 385.8 211.997 385.8C215.197 385.8 216.797 387.667 216.797 391.4C216.797 397.267 212.264 402.333 203.197 406.6C194.13 410.333 183.464 413.533 171.197 416.2C158.93 418.333 147.197 419.933 135.997 421C125.33 422.067 117.864 422.6 113.597 422.6C103.464 422.6 91.7302 421.533 78.3969 419.4C65.0635 416.733 54.6635 411.4 47.1969 403.4C33.3302 388.467 26.3969 371.133 26.3969 351.4C26.3969 330.067 33.5969 307.933 47.9969 285C62.9302 262.067 82.6635 239.133 107.197 216.2C131.73 193.267 158.93 171.4 188.797 150.6C218.664 129.267 248.797 110.333 279.197 93.8C309.597 77.2666 338.13 63.9333 364.797 53.8C391.464 43.1333 413.597 37 431.197 35.4C435.997 34.3333 440.797 33.8 445.597 33.8C450.397 33.8 455.197 33.8 459.997 33.8C484.53 33.8 505.064 38.6 521.597 48.2C538.664 57.8 547.197 76.4666 547.197 104.2C547.197 125 541.864 150.067 531.197 179.4C520.53 208.733 506.664 239.933 489.597 273C473.064 305.533 455.197 338.067 435.997 370.6C416.797 402.6 398.397 432.2 380.797 459.4C363.197 486.6 348.53 509 336.797 526.6L355.197 510.6C377.064 491.4 397.864 471.133 417.597 449.8C437.33 427.933 456.797 406.333 475.997 385C498.397 359.933 520.53 334.6 542.397 309C564.797 283.4 586.664 257.533 607.997 231.4C611.73 226.6 616.797 221.267 623.197 215.4C629.597 209 636.264 205.8 643.197 205.8C650.13 205.8 654.664 208.733 656.797 214.6C658.93 220.467 659.997 226.067 659.997 231.4C659.997 238.333 659.197 245.267 657.597 252.2C655.997 259.133 653.864 266.067 651.197 273C644.797 291.667 637.597 313.267 629.597 337.8C622.13 361.8 615.73 386.067 610.397 410.6C605.064 434.6 602.397 456.467 602.397 476.2C602.397 479.933 602.664 485.267 603.197 492.2C604.264 499.133 606.13 505.533 608.797 511.4C611.464 516.733 615.197 519.4 619.997 519.4C625.864 519.4 631.197 515.667 635.997 508.2C640.797 500.2 644.797 490.6 647.997 479.4C651.197 468.2 653.597 457.8 655.197 448.2C657.33 438.067 658.397 430.6 658.397 425.8C658.397 418.867 657.33 414.067 655.197 411.4C653.597 408.2 652.797 405.533 652.797 403.4C652.797 400.2 654.397 398.6 657.597 398.6C662.397 398.6 665.864 402.333 667.997 409.8C670.13 417.267 671.464 425.267 671.997 433.8C673.064 442.333 673.597 448.2 673.597 451.4C673.597 459.933 671.997 471.133 668.797 485C666.13 498.867 661.33 511.4 654.397 522.6C647.997 533.267 638.93 538.6 627.197 538.6C618.13 538.6 610.13 535.133 603.197 528.2C596.797 520.733 592.264 512.733 589.597 504.2C587.464 496.733 585.864 489 584.797 481C584.264 473 583.997 465.533 583.997 458.6C583.997 430.867 587.197 401.8 593.597 371.4C599.997 341 607.73 312.733 616.797 286.6C618.93 280.733 621.864 272.2 625.597 261C629.33 249.267 631.197 240.733 631.197 235.4C631.197 233.267 630.664 232.2 629.597 232.2C628.53 232.2 626.93 233.533 624.797 236.2C622.664 238.867 621.33 240.467 620.797 241C577.597 294.333 533.33 345.8 487.997 395.4C468.264 416.733 448.264 438.333 427.997 460.2C408.264 482.067 387.464 502.867 365.597 522.6C355.997 531.133 346.397 539.667 336.797 548.2C327.197 557.267 317.864 566.333 308.797 575.4C305.064 578.6 301.33 581.8 297.597 585C294.397 588.733 291.197 592.2 287.997 595.4C285.864 597.533 283.73 599.667 281.597 601.8C279.464 604.467 277.597 607.133 275.997 609.8C272.264 615.667 267.197 621.533 260.797 627.4C254.397 633.267 247.464 636.2 239.997 636.2Z" fill="white"/>
<path d="M231.997 633.8L239.714 620.938C239.028 620.526 238.311 620.17 237.568 619.873L231.997 633.8ZM230.397 620.2L219.79 609.593C219.288 610.095 218.823 610.632 218.397 611.2L230.397 620.2ZM235.197 614.6L224.438 604.148C223.994 604.605 223.579 605.09 223.197 605.6L235.197 614.6ZM286.397 555.4L274.624 546.105C274.585 546.155 274.546 546.204 274.508 546.254L286.397 555.4ZM331.997 493L319.646 484.488C319.619 484.528 319.591 484.568 319.564 484.608L331.997 493ZM408.797 373L395.89 365.358L395.89 365.358L408.797 373ZM475.997 247.4L489.512 253.907C489.553 253.822 489.593 253.736 489.633 253.65L475.997 247.4ZM494.397 204.2L480.634 198.236C480.577 198.366 480.522 198.497 480.47 198.629L494.397 204.2ZM511.197 155.4L496.757 151.339C496.728 151.443 496.7 151.547 496.673 151.652L511.197 155.4ZM500.797 63.4L491.625 75.2693C491.74 75.3582 491.857 75.4455 491.974 75.531L500.797 63.4ZM368.797 67.4L374.064 81.4449C374.109 81.4281 374.153 81.4111 374.198 81.3938L368.797 67.4ZM278.397 112.2L286.182 125.022C286.203 125.009 286.224 124.996 286.246 124.983L278.397 112.2ZM194.397 169.8L185.205 157.947C185.165 157.977 185.126 158.008 185.086 158.039L194.397 169.8ZM130.397 226.6L119.628 216.158C119.593 216.195 119.557 216.232 119.522 216.269L130.397 226.6ZM97.5969 265L109.392 274.267L109.392 274.267L97.5969 265ZM67.1969 313L53.7805 306.292C53.7514 306.35 53.7228 306.408 53.6945 306.467L67.1969 313ZM64.7969 390.6L54.1903 401.207C54.3316 401.348 54.4758 401.486 54.6227 401.622L64.7969 390.6ZM91.1969 402.6L93.422 387.766L93.422 387.766L91.1969 402.6ZM166.397 401L163.931 386.204C163.903 386.209 163.876 386.213 163.848 386.218L166.397 401ZM207.997 387.4L201.289 373.984C201.129 374.063 200.971 374.146 200.814 374.232L207.997 387.4ZM203.197 406.6L208.908 420.47C209.136 420.376 209.361 420.277 209.584 420.172L203.197 406.6ZM171.197 416.2L173.767 430.978C173.973 430.942 174.179 430.902 174.383 430.858L171.197 416.2ZM135.997 421L134.575 406.068C134.551 406.07 134.528 406.072 134.504 406.074L135.997 421ZM78.3969 419.4L75.4551 434.109C75.6451 434.147 75.8357 434.181 76.027 434.212L78.3969 419.4ZM47.1969 403.4L36.205 413.607C36.2137 413.616 36.2223 413.625 36.231 413.635L47.1969 403.4ZM47.9969 285L35.4269 276.815C35.3819 276.884 35.3374 276.954 35.2935 277.023L47.9969 285ZM107.197 216.2L96.9536 205.242L96.9536 205.242L107.197 216.2ZM188.797 150.6L197.369 162.909C197.418 162.875 197.467 162.841 197.515 162.806L188.797 150.6ZM364.797 53.8L370.125 67.8217C370.206 67.7909 370.287 67.7594 370.368 67.7271L364.797 53.8ZM431.197 35.4L432.555 50.3384C433.193 50.2804 433.826 50.1817 434.451 50.0428L431.197 35.4ZM521.597 48.2L514.065 61.1718C514.124 61.2062 514.183 61.2401 514.243 61.2736L521.597 48.2ZM531.197 179.4L517.1 174.274L517.1 174.274L531.197 179.4ZM489.597 273L476.268 266.12C476.253 266.148 476.239 266.176 476.225 266.204L489.597 273ZM435.997 370.6L448.859 378.317C448.878 378.286 448.897 378.255 448.915 378.224L435.997 370.6ZM336.797 526.6L324.316 518.279C320.149 524.53 321.249 532.9 326.889 537.862C332.529 542.824 340.971 542.849 346.64 537.919L336.797 526.6ZM355.197 510.6L365.04 521.919C365.058 521.903 365.076 521.887 365.094 521.872L355.197 510.6ZM417.597 449.8L428.608 459.986C428.65 459.94 428.692 459.895 428.733 459.849L417.597 449.8ZM475.997 385L487.146 395.034C487.158 395.021 487.17 395.008 487.182 394.995L475.997 385ZM542.397 309L531.108 299.122C531.069 299.167 531.03 299.212 530.991 299.258L542.397 309ZM607.997 231.4L619.617 240.886C619.691 240.794 619.765 240.702 619.837 240.609L607.997 231.4ZM623.197 215.4L633.333 226.457C633.493 226.31 633.65 226.16 633.803 226.007L623.197 215.4ZM657.597 252.2L672.213 255.573L672.213 255.573L657.597 252.2ZM651.197 273L637.197 267.615C637.131 267.787 637.068 267.961 637.008 268.135L651.197 273ZM629.597 337.8L615.336 333.15C615.315 333.214 615.294 333.279 615.274 333.344L629.597 337.8ZM610.397 410.6L625.04 413.854C625.045 413.831 625.05 413.809 625.055 413.786L610.397 410.6ZM603.197 492.2L588.241 493.35C588.27 493.729 588.314 494.106 588.371 494.481L603.197 492.2ZM608.797 511.4L595.141 517.607C595.218 517.776 595.298 517.943 595.38 518.108L608.797 511.4ZM635.997 508.2L648.615 516.311C648.698 516.181 648.78 516.05 648.859 515.917L635.997 508.2ZM647.997 479.4L633.574 475.279L633.574 475.279L647.997 479.4ZM655.197 448.2L640.519 445.11C640.475 445.317 640.436 445.525 640.401 445.734L655.197 448.2ZM655.197 411.4L641.781 418.108C642.253 419.053 642.824 419.945 643.484 420.77L655.197 411.4ZM667.997 409.8L653.574 413.921L653.574 413.921L667.997 409.8ZM671.997 433.8L657.026 434.736C657.045 435.045 657.074 435.353 657.113 435.661L671.997 433.8ZM668.797 485L654.181 481.627C654.14 481.806 654.102 481.987 654.067 482.167L668.797 485ZM654.397 522.6L641.643 514.705C641.606 514.764 641.57 514.823 641.535 514.883L654.397 522.6ZM603.197 528.2L591.808 537.962C592.058 538.253 592.319 538.535 592.59 538.807L603.197 528.2ZM589.597 504.2L575.174 508.321C575.208 508.439 575.243 508.557 575.28 508.674L589.597 504.2ZM584.797 481L569.83 481.998C569.852 482.327 569.885 482.655 569.928 482.982L584.797 481ZM593.597 371.4L578.919 368.31L578.919 368.31L593.597 371.4ZM616.797 286.6L602.7 281.474C602.675 281.544 602.65 281.613 602.626 281.683L616.797 286.6ZM625.597 261L639.827 265.743C639.849 265.678 639.87 265.613 639.891 265.548L625.597 261ZM620.797 241L610.19 230.394C609.82 230.763 609.47 231.152 609.141 231.559L620.797 241ZM487.997 395.4L499.008 405.586C499.029 405.564 499.049 405.542 499.069 405.52L487.997 395.4ZM427.997 460.2L416.995 450.004C416.95 450.052 416.905 450.101 416.861 450.151L427.997 460.2ZM365.597 522.6L375.562 533.811C375.59 533.786 375.618 533.761 375.646 533.736L365.597 522.6ZM336.797 548.2L326.831 536.989C326.719 537.089 326.607 537.191 326.498 537.295L336.797 548.2ZM308.797 575.4L318.559 586.789C318.85 586.539 319.132 586.278 319.403 586.007L308.797 575.4ZM297.597 585L287.835 573.611C287.252 574.111 286.708 574.655 286.208 575.238L297.597 585ZM287.997 595.4L298.603 606.007L298.604 606.007L287.997 595.4ZM281.597 601.8L270.99 591.193C270.599 591.585 270.23 591.997 269.884 592.43L281.597 601.8ZM275.997 609.8L288.652 617.853C288.722 617.742 288.792 617.63 288.859 617.517L275.997 609.8ZM239.997 621.2C240.083 621.2 240.16 621.207 240.222 621.216C240.283 621.225 240.313 621.234 240.307 621.233C240.297 621.23 240.102 621.17 239.714 620.938L224.279 646.662C228.885 649.426 234.188 651.2 239.997 651.2V621.2ZM237.568 619.873C238.755 620.348 240.462 621.443 241.717 623.45C242.896 625.337 242.997 626.945 242.997 627.4H212.997C212.997 631.055 213.765 635.33 216.277 639.35C218.865 643.49 222.572 646.185 226.426 647.727L237.568 619.873ZM242.997 627.4C242.997 627.591 242.964 627.933 242.827 628.343C242.69 628.754 242.512 629.047 242.397 629.2L218.397 611.2C214.85 615.93 212.997 621.488 212.997 627.4H242.997ZM241.004 630.807C243.185 628.626 245.244 626.204 247.197 623.6L223.197 605.6C221.95 607.263 220.809 608.574 219.79 609.593L241.004 630.807ZM245.956 625.052C264.494 605.968 281.938 585.799 298.286 564.546L274.508 546.254C258.856 566.601 242.166 585.898 224.438 604.148L245.956 625.052ZM298.17 564.695C314.4 544.136 329.82 523.035 344.43 501.392L319.564 484.608C305.373 505.631 290.393 526.13 274.624 546.105L298.17 564.695ZM344.348 501.512C371.74 461.767 397.526 421.477 421.704 380.642L395.89 365.358C372.068 405.59 346.654 445.3 319.646 484.488L344.348 501.512ZM421.704 380.642C445.927 339.733 468.529 297.487 489.512 253.907L462.482 240.893C441.865 283.713 419.667 325.2 395.89 365.358L421.704 380.642ZM489.633 253.65C495.622 240.583 501.852 225.951 508.324 209.771L480.47 198.629C474.142 214.449 468.105 228.617 462.361 241.15L489.633 253.65ZM508.16 210.164C515.398 193.462 521.255 176.455 525.721 159.148L496.673 151.652C492.606 167.412 487.262 182.938 480.634 198.236L508.16 210.164ZM525.637 159.461C530.711 141.421 533.397 124.559 533.397 109H503.397C503.397 121.174 501.283 135.246 496.757 151.339L525.637 159.461ZM533.397 109C533.397 84.8661 526.906 63.8412 509.619 51.2689L491.974 75.531C498.154 80.0255 503.397 89.4005 503.397 109H533.397ZM509.969 51.5307C494.794 39.8047 475.18 34.8 452.797 34.8V64.8C470.947 64.8 483.333 68.862 491.625 75.2693L509.969 51.5307ZM452.797 34.8C424.922 34.8 395.069 41.1814 363.396 53.4061L374.198 81.3938C403.325 70.1519 429.471 64.8 452.797 64.8V34.8ZM363.53 53.355C332.666 64.9291 301.672 80.3064 270.548 99.4174L286.246 124.983C315.922 106.76 345.195 92.2709 374.064 81.4449L363.53 53.355ZM270.612 99.3782C240.286 117.791 211.813 137.312 185.205 157.947L203.589 181.653C229.248 161.755 256.775 142.876 286.182 125.022L270.612 99.3782ZM185.086 158.039C159.129 178.589 137.273 197.962 119.628 216.158L141.165 237.042C157.654 220.038 178.464 201.545 203.707 181.561L185.086 158.039ZM119.522 216.269C108.989 227.356 97.7469 240.53 85.8021 255.733L109.392 274.267C120.914 259.603 131.539 247.177 141.272 236.931L119.522 216.269ZM85.8021 255.733C73.4403 271.466 62.7644 288.324 53.7805 306.292L80.6133 319.708C88.696 303.543 98.2868 288.401 109.392 274.267L85.8021 255.733ZM53.6945 306.467C44.892 324.658 40.1969 342.885 40.1969 361H70.1969C70.1969 348.182 73.5018 334.408 80.6993 319.533L53.6945 306.467ZM40.1969 361C40.1969 376.438 43.8835 390.9 54.1903 401.207L75.4035 379.993C72.9103 377.5 70.1969 372.228 70.1969 361H40.1969ZM54.6227 401.622C64.0691 410.342 75.7723 415.454 88.9718 417.434L93.422 387.766C85.2881 386.546 79.3913 383.658 74.9711 379.578L54.6227 401.622ZM88.9718 417.434C100.367 419.143 111.777 420 123.197 420V390C113.283 390 103.36 389.257 93.422 387.766L88.9718 417.434ZM123.197 420C137.518 420 152.78 418.569 168.945 415.782L163.848 386.218C149.08 388.764 135.542 390 123.197 390V420ZM168.863 415.796C186.174 412.911 201.7 407.921 215.18 400.568L200.814 374.232C190.827 379.679 178.62 383.756 163.931 386.204L168.863 415.796ZM214.705 400.816C215.608 400.365 216.055 400.172 216.168 400.127C216.228 400.103 215.998 400.2 215.568 400.323C215.344 400.387 214.954 400.49 214.443 400.583C213.969 400.669 213.105 400.8 211.997 400.8V370.8C209.767 370.8 207.995 371.286 207.326 371.477C206.429 371.733 205.632 372.03 205.026 372.273C203.805 372.761 202.519 373.368 201.289 373.984L214.705 400.816ZM211.997 400.8C210.629 400.8 207.063 400.293 204.208 396.962C202.967 395.514 202.359 394.069 202.074 393.071C201.801 392.115 201.797 391.489 201.797 391.4H231.797C231.797 387.739 231.062 382.193 226.986 377.438C222.531 372.24 216.565 370.8 211.997 370.8V400.8ZM201.797 391.4C201.797 390.877 201.909 390.343 202.091 389.905C202.259 389.499 202.391 389.405 202.218 389.598C201.772 390.097 200.31 391.381 196.81 393.028L209.584 420.172C219.944 415.297 231.797 406.451 231.797 391.4H201.797ZM197.486 392.73C189.425 396.049 179.64 399.014 168.01 401.542L174.383 430.858C187.287 428.053 198.835 424.618 208.908 420.47L197.486 392.73ZM168.627 401.422C156.701 403.496 145.352 405.041 134.575 406.068L137.419 435.932C149.042 434.826 161.159 433.171 173.767 430.978L168.627 401.422ZM134.504 406.074C123.814 407.143 117.028 407.6 113.597 407.6V437.6C118.699 437.6 126.847 436.99 137.489 435.926L134.504 406.074ZM113.597 407.6C104.468 407.6 93.5568 406.635 80.7667 404.588L76.027 434.212C89.9036 436.432 102.459 437.6 113.597 437.6V407.6ZM81.3386 404.691C70.327 402.489 63.0169 398.366 58.1627 393.165L36.231 413.635C46.3102 424.434 59.8001 430.978 75.4551 434.109L81.3386 404.691ZM58.1888 393.193C46.8053 380.934 41.3969 367.213 41.3969 351.4H11.3969C11.3969 375.054 19.8551 395.999 36.205 413.607L58.1888 393.193ZM41.3969 351.4C41.3969 333.557 47.4004 314.158 60.7002 292.976L35.2935 277.023C19.7933 301.709 11.3969 326.576 11.3969 351.4H41.3969ZM60.5668 293.185C74.7101 271.465 93.5997 249.443 117.44 227.158L96.9536 205.242C71.7274 228.823 51.1504 252.668 35.4269 276.815L60.5668 293.185ZM117.44 227.158C141.408 204.753 168.043 183.333 197.369 162.909L180.224 138.291C149.818 159.467 122.052 181.78 96.9536 205.242L117.44 227.158ZM197.515 162.806C226.915 141.806 256.531 123.202 286.363 106.977L272.03 80.6227C241.062 97.4649 210.412 116.727 180.078 138.394L197.515 162.806ZM286.363 106.977C316.291 90.7011 344.206 77.6711 370.125 67.8217L359.469 39.7782C332.055 50.1955 302.903 63.8322 272.03 80.6227L286.363 106.977ZM370.368 67.7271C396.416 57.3079 417.017 51.7509 432.555 50.3384L429.839 20.4616C410.177 22.249 386.511 28.9588 359.226 39.8728L370.368 67.7271ZM434.451 50.0428C438.209 49.2077 441.918 48.8 445.597 48.8V18.8C439.676 18.8 433.785 19.4589 427.943 20.7572L434.451 50.0428ZM445.597 48.8C445.606 48.8 445.616 48.8 445.625 48.8C445.634 48.8 445.644 48.8 445.653 48.8C445.663 48.8 445.672 48.8 445.681 48.8C445.691 48.8 445.7 48.8 445.709 48.8C445.719 48.8 445.728 48.8 445.738 48.8C445.747 48.8 445.756 48.8 445.766 48.8C445.775 48.8 445.784 48.8 445.794 48.8C445.803 48.8 445.813 48.8 445.822 48.8C445.831 48.8 445.841 48.8 445.85 48.8C445.859 48.8 445.869 48.8 445.878 48.8C445.888 48.8 445.897 48.8 445.906 48.8C445.916 48.8 445.925 48.8 445.934 48.8C445.944 48.8 445.953 48.8 445.963 48.8C445.972 48.8 445.981 48.8 445.991 48.8C446 48.8 446.009 48.8 446.019 48.8C446.028 48.8 446.038 48.8 446.047 48.8C446.056 48.8 446.066 48.8 446.075 48.8C446.084 48.8 446.094 48.8 446.103 48.8C446.113 48.8 446.122 48.8 446.131 48.8C446.141 48.8 446.15 48.8 446.159 48.8C446.169 48.8 446.178 48.8 446.188 48.8C446.197 48.8 446.206 48.8 446.216 48.8C446.225 48.8 446.234 48.8 446.244 48.8C446.253 48.8 446.263 48.8 446.272 48.8C446.281 48.8 446.291 48.8 446.3 48.8C446.309 48.8 446.319 48.8 446.328 48.8C446.338 48.8 446.347 48.8 446.356 48.8C446.366 48.8 446.375 48.8 446.384 48.8C446.394 48.8 446.403 48.8 446.413 48.8C446.422 48.8 446.431 48.8 446.441 48.8C446.45 48.8 446.459 48.8 446.469 48.8C446.478 48.8 446.488 48.8 446.497 48.8C446.506 48.8 446.516 48.8 446.525 48.8C446.534 48.8 446.544 48.8 446.553 48.8C446.563 48.8 446.572 48.8 446.581 48.8C446.591 48.8 446.6 48.8 446.609 48.8C446.619 48.8 446.628 48.8 446.638 48.8C446.647 48.8 446.656 48.8 446.666 48.8C446.675 48.8 446.684 48.8 446.694 48.8C446.703 48.8 446.713 48.8 446.722 48.8C446.731 48.8 446.741 48.8 446.75 48.8C446.759 48.8 446.769 48.8 446.778 48.8C446.788 48.8 446.797 48.8 446.806 48.8C446.816 48.8 446.825 48.8 446.834 48.8C446.844 48.8 446.853 48.8 446.863 48.8C446.872 48.8 446.881 48.8 446.891 48.8C446.9 48.8 446.909 48.8 446.919 48.8C446.928 48.8 446.938 48.8 446.947 48.8C446.956 48.8 446.966 48.8 446.975 48.8C446.984 48.8 446.994 48.8 447.003 48.8C447.013 48.8 447.022 48.8 447.031 48.8C447.041 48.8 447.05 48.8 447.059 48.8C447.069 48.8 447.078 48.8 447.088 48.8C447.097 48.8 447.106 48.8 447.116 48.8C447.125 48.8 447.134 48.8 447.144 48.8C447.153 48.8 447.163 48.8 447.172 48.8C447.181 48.8 447.191 48.8 447.2 48.8C447.209 48.8 447.219 48.8 447.228 48.8C447.238 48.8 447.247 48.8 447.256 48.8C447.266 48.8 447.275 48.8 447.284 48.8C447.294 48.8 447.303 48.8 447.313 48.8C447.322 48.8 447.331 48.8 447.341 48.8C447.35 48.8 447.359 48.8 447.369 48.8C447.378 48.8 447.388 48.8 447.397 48.8C447.406 48.8 447.416 48.8 447.425 48.8C447.434 48.8 447.444 48.8 447.453 48.8C447.463 48.8 447.472 48.8 447.481 48.8C447.491 48.8 447.5 48.8 447.509 48.8C447.519 48.8 447.528 48.8 447.538 48.8C447.547 48.8 447.556 48.8 447.566 48.8C447.575 48.8 447.584 48.8 447.594 48.8C447.603 48.8 447.613 48.8 447.622 48.8C447.631 48.8 447.641 48.8 447.65 48.8C447.659 48.8 447.669 48.8 447.678 48.8C447.688 48.8 447.697 48.8 447.706 48.8C447.716 48.8 447.725 48.8 447.734 48.8C447.744 48.8 447.753 48.8 447.763 48.8C447.772 48.8 447.781 48.8 447.791 48.8C447.8 48.8 447.809 48.8 447.819 48.8C447.828 48.8 447.838 48.8 447.847 48.8C447.856 48.8 447.866 48.8 447.875 48.8C447.884 48.8 447.894 48.8 447.903 48.8C447.913 48.8 447.922 48.8 447.931 48.8C447.941 48.8 447.95 48.8 447.959 48.8C447.969 48.8 447.978 48.8 447.988 48.8C447.997 48.8 448.006 48.8 448.016 48.8C448.025 48.8 448.034 48.8 448.044 48.8C448.053 48.8 448.063 48.8 448.072 48.8C448.081 48.8 448.091 48.8 448.1 48.8C448.109 48.8 448.119 48.8 448.128 48.8C448.138 48.8 448.147 48.8 448.156 48.8C448.166 48.8 448.175 48.8 448.184 48.8C448.194 48.8 448.203 48.8 448.213 48.8C448.222 48.8 448.231 48.8 448.241 48.8C448.25 48.8 448.259 48.8 448.269 48.8C448.278 48.8 448.288 48.8 448.297 48.8C448.306 48.8 448.316 48.8 448.325 48.8C448.334 48.8 448.344 48.8 448.353 48.8C448.363 48.8 448.372 48.8 448.381 48.8C448.391 48.8 448.4 48.8 448.409 48.8C448.419 48.8 448.428 48.8 448.438 48.8C448.447 48.8 448.456 48.8 448.466 48.8C448.475 48.8 448.484 48.8 448.494 48.8C448.503 48.8 448.513 48.8 448.522 48.8C448.531 48.8 448.541 48.8 448.55 48.8C448.559 48.8 448.569 48.8 448.578 48.8C448.588 48.8 448.597 48.8 448.606 48.8C448.616 48.8 448.625 48.8 448.634 48.8C448.644 48.8 448.653 48.8 448.663 48.8C448.672 48.8 448.681 48.8 448.691 48.8C448.7 48.8 448.709 48.8 448.719 48.8C448.728 48.8 448.738 48.8 448.747 48.8C448.756 48.8 448.766 48.8 448.775 48.8C448.784 48.8 448.794 48.8 448.803 48.8C448.813 48.8 448.822 48.8 448.831 48.8C448.841 48.8 448.85 48.8 448.859 48.8C448.869 48.8 448.878 48.8 448.888 48.8C448.897 48.8 448.906 48.8 448.916 48.8C448.925 48.8 448.934 48.8 448.944 48.8C448.953 48.8 448.963 48.8 448.972 48.8C448.981 48.8 448.991 48.8 449 48.8C449.009 48.8 449.019 48.8 449.028 48.8C449.038 48.8 449.047 48.8 449.056 48.8C449.066 48.8 449.075 48.8 449.084 48.8C449.094 48.8 449.103 48.8 449.113 48.8C449.122 48.8 449.131 48.8 449.141 48.8C449.15 48.8 449.159 48.8 449.169 48.8C449.178 48.8 449.188 48.8 449.197 48.8C449.206 48.8 449.216 48.8 449.225 48.8C449.234 48.8 449.244 48.8 449.253 48.8C449.263 48.8 449.272 48.8 449.281 48.8C449.291 48.8 449.3 48.8 449.309 48.8C449.319 48.8 449.328 48.8 449.338 48.8C449.347 48.8 449.356 48.8 449.366 48.8C449.375 48.8 449.384 48.8 449.394 48.8C449.403 48.8 449.413 48.8 449.422 48.8C449.431 48.8 449.441 48.8 449.45 48.8C449.459 48.8 449.469 48.8 449.478 48.8C449.488 48.8 449.497 48.8 449.506 48.8C449.516 48.8 449.525 48.8 449.534 48.8C449.544 48.8 449.553 48.8 449.563 48.8C449.572 48.8 449.581 48.8 449.591 48.8C449.6 48.8 449.609 48.8 449.619 48.8C449.628 48.8 449.638 48.8 449.647 48.8C449.656 48.8 449.666 48.8 449.675 48.8C449.684 48.8 449.694 48.8 449.703 48.8C449.713 48.8 449.722 48.8 449.731 48.8C449.741 48.8 449.75 48.8 449.759 48.8C449.769 48.8 449.778 48.8 449.788 48.8C449.797 48.8 449.806 48.8 449.816 48.8C449.825 48.8 449.834 48.8 449.844 48.8C449.853 48.8 449.863 48.8 449.872 48.8C449.881 48.8 449.891 48.8 449.9 48.8C449.909 48.8 449.919 48.8 449.928 48.8C449.938 48.8 449.947 48.8 449.956 48.8C449.966 48.8 449.975 48.8 449.984 48.8C449.994 48.8 450.003 48.8 450.013 48.8C450.022 48.8 450.031 48.8 450.041 48.8C450.05 48.8 450.059 48.8 450.069 48.8C450.078 48.8 450.088 48.8 450.097 48.8C450.106 48.8 450.116 48.8 450.125 48.8C450.134 48.8 450.144 48.8 450.153 48.8C450.163 48.8 450.172 48.8 450.181 48.8C450.191 48.8 450.2 48.8 450.209 48.8C450.219 48.8 450.228 48.8 450.238 48.8C450.247 48.8 450.256 48.8 450.266 48.8C450.275 48.8 450.284 48.8 450.294 48.8C450.303 48.8 450.313 48.8 450.322 48.8C450.331 48.8 450.341 48.8 450.35 48.8C450.359 48.8 450.369 48.8 450.378 48.8C450.388 48.8 450.397 48.8 450.406 48.8C450.416 48.8 450.425 48.8 450.434 48.8C450.444 48.8 450.453 48.8 450.463 48.8C450.472 48.8 450.481 48.8 450.491 48.8C450.5 48.8 450.509 48.8 450.519 48.8C450.528 48.8 450.538 48.8 450.547 48.8C450.556 48.8 450.566 48.8 450.575 48.8C450.584 48.8 450.594 48.8 450.603 48.8C450.613 48.8 450.622 48.8 450.631 48.8C450.641 48.8 450.65 48.8 450.659 48.8C450.669 48.8 450.678 48.8 450.688 48.8C450.697 48.8 450.706 48.8 450.716 48.8C450.725 48.8 450.734 48.8 450.744 48.8C450.753 48.8 450.763 48.8 450.772 48.8C450.781 48.8 450.791 48.8 450.8 48.8C450.809 48.8 450.819 48.8 450.828 48.8C450.838 48.8 450.847 48.8 450.856 48.8C450.866 48.8 450.875 48.8 450.884 48.8C450.894 48.8 450.903 48.8 450.913 48.8C450.922 48.8 450.931 48.8 450.941 48.8C450.95 48.8 450.959 48.8 450.969 48.8C450.978 48.8 450.988 48.8 450.997 48.8C451.006 48.8 451.016 48.8 451.025 48.8C451.034 48.8 451.044 48.8 451.053 48.8C451.063 48.8 451.072 48.8 451.081 48.8C451.091 48.8 451.1 48.8 451.109 48.8C451.119 48.8 451.128 48.8 451.138 48.8C451.147 48.8 451.156 48.8 451.166 48.8C451.175 48.8 451.184 48.8 451.194 48.8C451.203 48.8 451.213 48.8 451.222 48.8C451.231 48.8 451.241 48.8 451.25 48.8C451.259 48.8 451.269 48.8 451.278 48.8C451.288 48.8 451.297 48.8 451.306 48.8C451.316 48.8 451.325 48.8 451.334 48.8C451.344 48.8 451.353 48.8 451.363 48.8C451.372 48.8 451.381 48.8 451.391 48.8C451.4 48.8 451.409 48.8 451.419 48.8C451.428 48.8 451.438 48.8 451.447 48.8C451.456 48.8 451.466 48.8 451.475 48.8C451.484 48.8 451.494 48.8 451.503 48.8C451.513 48.8 451.522 48.8 451.531 48.8C451.541 48.8 451.55 48.8 451.559 48.8C451.569 48.8 451.578 48.8 451.588 48.8C451.597 48.8 451.606 48.8 451.616 48.8C451.625 48.8 451.634 48.8 451.644 48.8C451.653 48.8 451.663 48.8 451.672 48.8C451.681 48.8 451.691 48.8 451.7 48.8C451.709 48.8 451.719 48.8 451.728 48.8C451.738 48.8 451.747 48.8 451.756 48.8C451.766 48.8 451.775 48.8 451.784 48.8C451.794 48.8 451.803 48.8 451.813 48.8C451.822 48.8 451.831 48.8 451.841 48.8C451.85 48.8 451.859 48.8 451.869 48.8C451.878 48.8 451.888 48.8 451.897 48.8C451.906 48.8 451.916 48.8 451.925 48.8C451.934 48.8 451.944 48.8 451.953 48.8C451.963 48.8 451.972 48.8 451.981 48.8C451.991 48.8 452 48.8 452.009 48.8C452.019 48.8 452.028 48.8 452.038 48.8C452.047 48.8 452.056 48.8 452.066 48.8C452.075 48.8 452.084 48.8 452.094 48.8C452.103 48.8 452.113 48.8 452.122 48.8C452.131 48.8 452.141 48.8 452.15 48.8C452.159 48.8 452.169 48.8 452.178 48.8C452.188 48.8 452.197 48.8 452.206 48.8C452.216 48.8 452.225 48.8 452.234 48.8C452.244 48.8 452.253 48.8 452.263 48.8C452.272 48.8 452.281 48.8 452.291 48.8C452.3 48.8 452.309 48.8 452.319 48.8C452.328 48.8 452.338 48.8 452.347 48.8C452.356 48.8 452.366 48.8 452.375 48.8C452.384 48.8 452.394 48.8 452.403 48.8C452.413 48.8 452.422 48.8 452.431 48.8C452.441 48.8 452.45 48.8 452.459 48.8C452.469 48.8 452.478 48.8 452.488 48.8C452.497 48.8 452.506 48.8 452.516 48.8C452.525 48.8 452.534 48.8 452.544 48.8C452.553 48.8 452.563 48.8 452.572 48.8C452.581 48.8 452.591 48.8 452.6 48.8C452.609 48.8 452.619 48.8 452.628 48.8C452.638 48.8 452.647 48.8 452.656 48.8C452.666 48.8 452.675 48.8 452.684 48.8C452.694 48.8 452.703 48.8 452.713 48.8C452.722 48.8 452.731 48.8 452.741 48.8C452.75 48.8 452.759 48.8 452.769 48.8C452.778 48.8 452.788 48.8 452.797 48.8C452.806 48.8 452.816 48.8 452.825 48.8C452.834 48.8 452.844 48.8 452.853 48.8C452.863 48.8 452.872 48.8 452.881 48.8C452.891 48.8 452.9 48.8 452.909 48.8C452.919 48.8 452.928 48.8 452.938 48.8C452.947 48.8 452.956 48.8 452.966 48.8C452.975 48.8 452.984 48.8 452.994 48.8C453.003 48.8 453.013 48.8 453.022 48.8C453.031 48.8 453.041 48.8 453.05 48.8C453.059 48.8 453.069 48.8 453.078 48.8C453.088 48.8 453.097 48.8 453.106 48.8C453.116 48.8 453.125 48.8 453.134 48.8C453.144 48.8 453.153 48.8 453.163 48.8C453.172 48.8 453.181 48.8 453.191 48.8C453.2 48.8 453.209 48.8 453.219 48.8C453.228 48.8 453.238 48.8 453.247 48.8C453.256 48.8 453.266 48.8 453.275 48.8C453.284 48.8 453.294 48.8 453.303 48.8C453.313 48.8 453.322 48.8 453.331 48.8C453.341 48.8 453.35 48.8 453.359 48.8C453.369 48.8 453.378 48.8 453.388 48.8C453.397 48.8 453.406 48.8 453.416 48.8C453.425 48.8 453.434 48.8 453.444 48.8C453.453 48.8 453.463 48.8 453.472 48.8C453.481 48.8 453.491 48.8 453.5 48.8C453.509 48.8 453.519 48.8 453.528 48.8C453.538 48.8 453.547 48.8 453.556 48.8C453.566 48.8 453.575 48.8 453.584 48.8C453.594 48.8 453.603 48.8 453.613 48.8C453.622 48.8 453.631 48.8 453.641 48.8C453.65 48.8 453.659 48.8 453.669 48.8C453.678 48.8 453.688 48.8 453.697 48.8C453.706 48.8 453.716 48.8 453.725 48.8C453.734 48.8 453.744 48.8 453.753 48.8C453.763 48.8 453.772 48.8 453.781 48.8C453.791 48.8 453.8 48.8 453.809 48.8C453.819 48.8 453.828 48.8 453.838 48.8C453.847 48.8 453.856 48.8 453.866 48.8C453.875 48.8 453.884 48.8 453.894 48.8C453.903 48.8 453.913 48.8 453.922 48.8C453.931 48.8 453.941 48.8 453.95 48.8C453.959 48.8 453.969 48.8 453.978 48.8C453.988 48.8 453.997 48.8 454.006 48.8C454.016 48.8 454.025 48.8 454.034 48.8C454.044 48.8 454.053 48.8 454.063 48.8C454.072 48.8 454.081 48.8 454.091 48.8C454.1 48.8 454.109 48.8 454.119 48.8C454.128 48.8 454.138 48.8 454.147 48.8C454.156 48.8 454.166 48.8 454.175 48.8C454.184 48.8 454.194 48.8 454.203 48.8C454.213 48.8 454.222 48.8 454.231 48.8C454.241 48.8 454.25 48.8 454.259 48.8C454.269 48.8 454.278 48.8 454.288 48.8C454.297 48.8 454.306 48.8 454.316 48.8C454.325 48.8 454.334 48.8 454.344 48.8C454.353 48.8 454.363 48.8 454.372 48.8C454.381 48.8 454.391 48.8 454.4 48.8C454.409 48.8 454.419 48.8 454.428 48.8C454.438 48.8 454.447 48.8 454.456 48.8C454.466 48.8 454.475 48.8 454.484 48.8C454.494 48.8 454.503 48.8 454.513 48.8C454.522 48.8 454.531 48.8 454.541 48.8C454.55 48.8 454.559 48.8 454.569 48.8C454.578 48.8 454.588 48.8 454.597 48.8C454.606 48.8 454.616 48.8 454.625 48.8C454.634 48.8 454.644 48.8 454.653 48.8C454.663 48.8 454.672 48.8 454.681 48.8C454.691 48.8 454.7 48.8 454.709 48.8C454.719 48.8 454.728 48.8 454.738 48.8C454.747 48.8 454.756 48.8 454.766 48.8C454.775 48.8 454.784 48.8 454.794 48.8C454.803 48.8 454.813 48.8 454.822 48.8C454.831 48.8 454.841 48.8 454.85 48.8C454.859 48.8 454.869 48.8 454.878 48.8C454.888 48.8 454.897 48.8 454.906 48.8C454.916 48.8 454.925 48.8 454.934 48.8C454.944 48.8 454.953 48.8 454.963 48.8C454.972 48.8 454.981 48.8 454.991 48.8C455 48.8 455.009 48.8 455.019 48.8C455.028 48.8 455.038 48.8 455.047 48.8C455.056 48.8 455.066 48.8 455.075 48.8C455.084 48.8 455.094 48.8 455.103 48.8C455.113 48.8 455.122 48.8 455.131 48.8C455.141 48.8 455.15 48.8 455.159 48.8C455.169 48.8 455.178 48.8 455.188 48.8C455.197 48.8 455.206 48.8 455.216 48.8C455.225 48.8 455.234 48.8 455.244 48.8C455.253 48.8 455.263 48.8 455.272 48.8C455.281 48.8 455.291 48.8 455.3 48.8C455.309 48.8 455.319 48.8 455.328 48.8C455.338 48.8 455.347 48.8 455.356 48.8C455.366 48.8 455.375 48.8 455.384 48.8C455.394 48.8 455.403 48.8 455.413 48.8C455.422 48.8 455.431 48.8 455.441 48.8C455.45 48.8 455.459 48.8 455.469 48.8C455.478 48.8 455.488 48.8 455.497 48.8C455.506 48.8 455.516 48.8 455.525 48.8C455.534 48.8 455.544 48.8 455.553 48.8C455.563 48.8 455.572 48.8 455.581 48.8C455.591 48.8 455.6 48.8 455.609 48.8C455.619 48.8 455.628 48.8 455.638 48.8C455.647 48.8 455.656 48.8 455.666 48.8C455.675 48.8 455.684 48.8 455.694 48.8C455.703 48.8 455.713 48.8 455.722 48.8C455.731 48.8 455.741 48.8 455.75 48.8C455.759 48.8 455.769 48.8 455.778 48.8C455.788 48.8 455.797 48.8 455.806 48.8C455.816 48.8 455.825 48.8 455.834 48.8C455.844 48.8 455.853 48.8 455.863 48.8C455.872 48.8 455.881 48.8 455.891 48.8C455.9 48.8 455.909 48.8 455.919 48.8C455.928 48.8 455.938 48.8 455.947 48.8C455.956 48.8 455.966 48.8 455.975 48.8C455.984 48.8 455.994 48.8 456.003 48.8C456.013 48.8 456.022 48.8 456.031 48.8C456.041 48.8 456.05 48.8 456.059 48.8C456.069 48.8 456.078 48.8 456.088 48.8C456.097 48.8 456.106 48.8 456.116 48.8C456.125 48.8 456.134 48.8 456.144 48.8C456.153 48.8 456.163 48.8 456.172 48.8C456.181 48.8 456.191 48.8 456.2 48.8C456.209 48.8 456.219 48.8 456.228 48.8C456.238 48.8 456.247 48.8 456.256 48.8C456.266 48.8 456.275 48.8 456.284 48.8C456.294 48.8 456.303 48.8 456.313 48.8C456.322 48.8 456.331 48.8 456.341 48.8C456.35 48.8 456.359 48.8 456.369 48.8C456.378 48.8 456.388 48.8 456.397 48.8C456.406 48.8 456.416 48.8 456.425 48.8C456.434 48.8 456.444 48.8 456.453 48.8C456.463 48.8 456.472 48.8 456.481 48.8C456.491 48.8 456.5 48.8 456.509 48.8C456.519 48.8 456.528 48.8 456.538 48.8C456.547 48.8 456.556 48.8 456.566 48.8C456.575 48.8 456.584 48.8 456.594 48.8C456.603 48.8 456.613 48.8 456.622 48.8C456.631 48.8 456.641 48.8 456.65 48.8C456.659 48.8 456.669 48.8 456.678 48.8C456.688 48.8 456.697 48.8 456.706 48.8C456.716 48.8 456.725 48.8 456.734 48.8C456.744 48.8 456.753 48.8 456.763 48.8C456.772 48.8 456.781 48.8 456.791 48.8C456.8 48.8 456.809 48.8 456.819 48.8C456.828 48.8 456.838 48.8 456.847 48.8C456.856 48.8 456.866 48.8 456.875 48.8C456.884 48.8 456.894 48.8 456.903 48.8C456.913 48.8 456.922 48.8 456.931 48.8C456.941 48.8 456.95 48.8 456.959 48.8C456.969 48.8 456.978 48.8 456.988 48.8C456.997 48.8 457.006 48.8 457.016 48.8C457.025 48.8 457.034 48.8 457.044 48.8C457.053 48.8 457.063 48.8 457.072 48.8C457.081 48.8 457.091 48.8 457.1 48.8C457.109 48.8 457.119 48.8 457.128 48.8C457.138 48.8 457.147 48.8 457.156 48.8C457.166 48.8 457.175 48.8 457.184 48.8C457.194 48.8 457.203 48.8 457.213 48.8C457.222 48.8 457.231 48.8 457.241 48.8C457.25 48.8 457.259 48.8 457.269 48.8C457.278 48.8 457.288 48.8 457.297 48.8C457.306 48.8 457.316 48.8 457.325 48.8C457.334 48.8 457.344 48.8 457.353 48.8C457.363 48.8 457.372 48.8 457.381 48.8C457.391 48.8 457.4 48.8 457.409 48.8C457.419 48.8 457.428 48.8 457.438 48.8C457.447 48.8 457.456 48.8 457.466 48.8C457.475 48.8 457.484 48.8 457.494 48.8C457.503 48.8 457.513 48.8 457.522 48.8C457.531 48.8 457.541 48.8 457.55 48.8C457.559 48.8 457.569 48.8 457.578 48.8C457.588 48.8 457.597 48.8 457.606 48.8C457.616 48.8 457.625 48.8 457.634 48.8C457.644 48.8 457.653 48.8 457.663 48.8C457.672 48.8 457.681 48.8 457.691 48.8C457.7 48.8 457.709 48.8 457.719 48.8C457.728 48.8 457.738 48.8 457.747 48.8C457.756 48.8 457.766 48.8 457.775 48.8C457.784 48.8 457.794 48.8 457.803 48.8C457.813 48.8 457.822 48.8 457.831 48.8C457.841 48.8 457.85 48.8 457.859 48.8C457.869 48.8 457.878 48.8 457.888 48.8C457.897 48.8 457.906 48.8 457.916 48.8C457.925 48.8 457.934 48.8 457.944 48.8C457.953 48.8 457.963 48.8 457.972 48.8C457.981 48.8 457.991 48.8 458 48.8C458.009 48.8 458.019 48.8 458.028 48.8C458.038 48.8 458.047 48.8 458.056 48.8C458.066 48.8 458.075 48.8 458.084 48.8C458.094 48.8 458.103 48.8 458.113 48.8C458.122 48.8 458.131 48.8 458.141 48.8C458.15 48.8 458.159 48.8 458.169 48.8C458.178 48.8 458.188 48.8 458.197 48.8C458.206 48.8 458.216 48.8 458.225 48.8C458.234 48.8 458.244 48.8 458.253 48.8C458.263 48.8 458.272 48.8 458.281 48.8C458.291 48.8 458.3 48.8 458.309 48.8C458.319 48.8 458.328 48.8 458.338 48.8C458.347 48.8 458.356 48.8 458.366 48.8C458.375 48.8 458.384 48.8 458.394 48.8C458.403 48.8 458.413 48.8 458.422 48.8C458.431 48.8 458.441 48.8 458.45 48.8C458.459 48.8 458.469 48.8 458.478 48.8C458.488 48.8 458.497 48.8 458.506 48.8C458.516 48.8 458.525 48.8 458.534 48.8C458.544 48.8 458.553 48.8 458.563 48.8C458.572 48.8 458.581 48.8 458.591 48.8C458.6 48.8 458.609 48.8 458.619 48.8C458.628 48.8 458.638 48.8 458.647 48.8C458.656 48.8 458.666 48.8 458.675 48.8C458.684 48.8 458.694 48.8 458.703 48.8C458.713 48.8 458.722 48.8 458.731 48.8C458.741 48.8 458.75 48.8 458.759 48.8C458.769 48.8 458.778 48.8 458.788 48.8C458.797 48.8 458.806 48.8 458.816 48.8C458.825 48.8 458.834 48.8 458.844 48.8C458.853 48.8 458.863 48.8 458.872 48.8C458.881 48.8 458.891 48.8 458.9 48.8C458.909 48.8 458.919 48.8 458.928 48.8C458.938 48.8 458.947 48.8 458.956 48.8C458.966 48.8 458.975 48.8 458.984 48.8C458.994 48.8 459.003 48.8 459.013 48.8C459.022 48.8 459.031 48.8 459.041 48.8C459.05 48.8 459.059 48.8 459.069 48.8C459.078 48.8 459.088 48.8 459.097 48.8C459.106 48.8 459.116 48.8 459.125 48.8C459.134 48.8 459.144 48.8 459.153 48.8C459.163 48.8 459.172 48.8 459.181 48.8C459.191 48.8 459.2 48.8 459.209 48.8C459.219 48.8 459.228 48.8 459.238 48.8C459.247 48.8 459.256 48.8 459.266 48.8C459.275 48.8 459.284 48.8 459.294 48.8C459.303 48.8 459.313 48.8 459.322 48.8C459.331 48.8 459.341 48.8 459.35 48.8C459.359 48.8 459.369 48.8 459.378 48.8C459.388 48.8 459.397 48.8 459.406 48.8C459.416 48.8 459.425 48.8 459.434 48.8C459.444 48.8 459.453 48.8 459.463 48.8C459.472 48.8 459.481 48.8 459.491 48.8C459.5 48.8 459.509 48.8 459.519 48.8C459.528 48.8 459.538 48.8 459.547 48.8C459.556 48.8 459.566 48.8 459.575 48.8C459.584 48.8 459.594 48.8 459.603 48.8C459.613 48.8 459.622 48.8 459.631 48.8C459.641 48.8 459.65 48.8 459.659 48.8C459.669 48.8 459.678 48.8 459.688 48.8C459.697 48.8 459.706 48.8 459.716 48.8C459.725 48.8 459.734 48.8 459.744 48.8C459.753 48.8 459.763 48.8 459.772 48.8C459.781 48.8 459.791 48.8 459.8 48.8C459.809 48.8 459.819 48.8 459.828 48.8C459.838 48.8 459.847 48.8 459.856 48.8C459.866 48.8 459.875 48.8 459.884 48.8C459.894 48.8 459.903 48.8 459.913 48.8C459.922 48.8 459.931 48.8 459.941 48.8C459.95 48.8 459.959 48.8 459.969 48.8C459.978 48.8 459.988 48.8 459.997 48.8V18.8C459.988 18.8 459.978 18.8 459.969 18.8C459.959 18.8 459.95 18.8 459.941 18.8C459.931 18.8 459.922 18.8 459.913 18.8C459.903 18.8 459.894 18.8 459.884 18.8C459.875 18.8 459.866 18.8 459.856 18.8C459.847 18.8 459.838 18.8 459.828 18.8C459.819 18.8 459.809 18.8 459.8 18.8C459.791 18.8 459.781 18.8 459.772 18.8C459.763 18.8 459.753 18.8 459.744 18.8C459.734 18.8 459.725 18.8 459.716 18.8C459.706 18.8 459.697 18.8 459.688 18.8C459.678 18.8 459.669 18.8 459.659 18.8C459.65 18.8 459.641 18.8 459.631 18.8C459.622 18.8 459.613 18.8 459.603 18.8C459.594 18.8 459.584 18.8 459.575 18.8C459.566 18.8 459.556 18.8 459.547 18.8C459.538 18.8 459.528 18.8 459.519 18.8C459.509 18.8 459.5 18.8 459.491 18.8C459.481 18.8 459.472 18.8 459.463 18.8C459.453 18.8 459.444 18.8 459.434 18.8C459.425 18.8 459.416 18.8 459.406 18.8C459.397 18.8 459.388 18.8 459.378 18.8C459.369 18.8 459.359 18.8 459.35 18.8C459.341 18.8 459.331 18.8 459.322 18.8C459.313 18.8 459.303 18.8 459.294 18.8C459.284 18.8 459.275 18.8 459.266 18.8C459.256 18.8 459.247 18.8 459.238 18.8C459.228 18.8 459.219 18.8 459.209 18.8C459.2 18.8 459.191 18.8 459.181 18.8C459.172 18.8 459.163 18.8 459.153 18.8C459.144 18.8 459.134 18.8 459.125 18.8C459.116 18.8 459.106 18.8 459.097 18.8C459.088 18.8 459.078 18.8 459.069 18.8C459.059 18.8 459.05 18.8 459.041 18.8C459.031 18.8 459.022 18.8 459.013 18.8C459.003 18.8 458.994 18.8 458.984 18.8C458.975 18.8 458.966 18.8 458.956 18.8C458.947 18.8 458.938 18.8 458.928 18.8C458.919 18.8 458.909 18.8 458.9 18.8C458.891 18.8 458.881 18.8 458.872 18.8C458.863 18.8 458.853 18.8 458.844 18.8C458.834 18.8 458.825 18.8 458.816 18.8C458.806 18.8 458.797 18.8 458.788 18.8C458.778 18.8 458.769 18.8 458.759 18.8C458.75 18.8 458.741 18.8 458.731 18.8C458.722 18.8 458.713 18.8 458.703 18.8C458.694 18.8 458.684 18.8 458.675 18.8C458.666 18.8 458.656 18.8 458.647 18.8C458.638 18.8 458.628 18.8 458.619 18.8C458.609 18.8 458.6 18.8 458.591 18.8C458.581 18.8 458.572 18.8 458.563 18.8C458.553 18.8 458.544 18.8 458.534 18.8C458.525 18.8 458.516 18.8 458.506 18.8C458.497 18.8 458.488 18.8 458.478 18.8C458.469 18.8 458.459 18.8 458.45 18.8C458.441 18.8 458.431 18.8 458.422 18.8C458.413 18.8 458.403 18.8 458.394 18.8C458.384 18.8 458.375 18.8 458.366 18.8C458.356 18.8 458.347 18.8 458.338 18.8C458.328 18.8 458.319 18.8 458.309 18.8C458.3 18.8 458.291 18.8 458.281 18.8C458.272 18.8 458.263 18.8 458.253 18.8C458.244 18.8 458.234 18.8 458.225 18.8C458.216 18.8 458.206 18.8 458.197 18.8C458.188 18.8 458.178 18.8 458.169 18.8C458.159 18.8 458.15 18.8 458.141 18.8C458.131 18.8 458.122 18.8 458.113 18.8C458.103 18.8 458.094 18.8 458.084 18.8C458.075 18.8 458.066 18.8 458.056 18.8C458.047 18.8 458.038 18.8 458.028 18.8C458.019 18.8 458.009 18.8 458 18.8C457.991 18.8 457.981 18.8 457.972 18.8C457.963 18.8 457.953 18.8 457.944 18.8C457.934 18.8 457.925 18.8 457.916 18.8C457.906 18.8 457.897 18.8 457.888 18.8C457.878 18.8 457.869 18.8 457.859 18.8C457.85 18.8 457.841 18.8 457.831 18.8C457.822 18.8 457.813 18.8 457.803 18.8C457.794 18.8 457.784 18.8 457.775 18.8C457.766 18.8 457.756 18.8 457.747 18.8C457.738 18.8 457.728 18.8 457.719 18.8C457.709 18.8 457.7 18.8 457.691 18.8C457.681 18.8 457.672 18.8 457.663 18.8C457.653 18.8 457.644 18.8 457.634 18.8C457.625 18.8 457.616 18.8 457.606 18.8C457.597 18.8 457.588 18.8 457.578 18.8C457.569 18.8 457.559 18.8 457.55 18.8C457.541 18.8 457.531 18.8 457.522 18.8C457.513 18.8 457.503 18.8 457.494 18.8C457.484 18.8 457.475 18.8 457.466 18.8C457.456 18.8 457.447 18.8 457.438 18.8C457.428 18.8 457.419 18.8 457.409 18.8C457.4 18.8 457.391 18.8 457.381 18.8C457.372 18.8 457.363 18.8 457.353 18.8C457.344 18.8 457.334 18.8 457.325 18.8C457.316 18.8 457.306 18.8 457.297 18.8C457.288 18.8 457.278 18.8 457.269 18.8C457.259 18.8 457.25 18.8 457.241 18.8C457.231 18.8 457.222 18.8 457.213 18.8C457.203 18.8 457.194 18.8 457.184 18.8C457.175 18.8 457.166 18.8 457.156 18.8C457.147 18.8 457.138 18.8 457.128 18.8C457.119 18.8 457.109 18.8 457.1 18.8C457.091 18.8 457.081 18.8 457.072 18.8C457.063 18.8 457.053 18.8 457.044 18.8C457.034 18.8 457.025 18.8 457.016 18.8C457.006 18.8 456.997 18.8 456.988 18.8C456.978 18.8 456.969 18.8 456.959 18.8C456.95 18.8 456.941 18.8 456.931 18.8C456.922 18.8 456.913 18.8 456.903 18.8C456.894 18.8 456.884 18.8 456.875 18.8C456.866 18.8 456.856 18.8 456.847 18.8C456.838 18.8 456.828 18.8 456.819 18.8C456.809 18.8 456.8 18.8 456.791 18.8C456.781 18.8 456.772 18.8 456.763 18.8C456.753 18.8 456.744 18.8 456.734 18.8C456.725 18.8 456.716 18.8 456.706 18.8C456.697 18.8 456.688 18.8 456.678 18.8C456.669 18.8 456.659 18.8 456.65 18.8C456.641 18.8 456.631 18.8 456.622 18.8C456.613 18.8 456.603 18.8 456.594 18.8C456.584 18.8 456.575 18.8 456.566 18.8C456.556 18.8 456.547 18.8 456.538 18.8C456.528 18.8 456.519 18.8 456.509 18.8C456.5 18.8 456.491 18.8 456.481 18.8C456.472 18.8 456.463 18.8 456.453 18.8C456.444 18.8 456.434 18.8 456.425 18.8C456.416 18.8 456.406 18.8 456.397 18.8C456.388 18.8 456.378 18.8 456.369 18.8C456.359 18.8 456.35 18.8 456.341 18.8C456.331 18.8 456.322 18.8 456.313 18.8C456.303 18.8 456.294 18.8 456.284 18.8C456.275 18.8 456.266 18.8 456.256 18.8C456.247 18.8 456.238 18.8 456.228 18.8C456.219 18.8 456.209 18.8 456.2 18.8C456.191 18.8 456.181 18.8 456.172 18.8C456.163 18.8 456.153 18.8 456.144 18.8C456.134 18.8 456.125 18.8 456.116 18.8C456.106 18.8 456.097 18.8 456.088 18.8C456.078 18.8 456.069 18.8 456.059 18.8C456.05 18.8 456.041 18.8 456.031 18.8C456.022 18.8 456.013 18.8 456.003 18.8C455.994 18.8 455.984 18.8 455.975 18.8C455.966 18.8 455.956 18.8 455.947 18.8C455.938 18.8 455.928 18.8 455.919 18.8C455.909 18.8 455.9 18.8 455.891 18.8C455.881 18.8 455.872 18.8 455.863 18.8C455.853 18.8 455.844 18.8 455.834 18.8C455.825 18.8 455.816 18.8 455.806 18.8C455.797 18.8 455.788 18.8 455.778 18.8C455.769 18.8 455.759 18.8 455.75 18.8C455.741 18.8 455.731 18.8 455.722 18.8C455.713 18.8 455.703 18.8 455.694 18.8C455.684 18.8 455.675 18.8 455.666 18.8C455.656 18.8 455.647 18.8 455.638 18.8C455.628 18.8 455.619 18.8 455.609 18.8C455.6 18.8 455.591 18.8 455.581 18.8C455.572 18.8 455.563 18.8 455.553 18.8C455.544 18.8 455.534 18.8 455.525 18.8C455.516 18.8 455.506 18.8 455.497 18.8C455.488 18.8 455.478 18.8 455.469 18.8C455.459 18.8 455.45 18.8 455.441 18.8C455.431 18.8 455.422 18.8 455.413 18.8C455.403 18.8 455.394 18.8 455.384 18.8C455.375 18.8 455.366 18.8 455.356 18.8C455.347 18.8 455.338 18.8 455.328 18.8C455.319 18.8 455.309 18.8 455.3 18.8C455.291 18.8 455.281 18.8 455.272 18.8C455.263 18.8 455.253 18.8 455.244 18.8C455.234 18.8 455.225 18.8 455.216 18.8C455.206 18.8 455.197 18.8 455.188 18.8C455.178 18.8 455.169 18.8 455.159 18.8C455.15 18.8 455.141 18.8 455.131 18.8C455.122 18.8 455.113 18.8 455.103 18.8C455.094 18.8 455.084 18.8 455.075 18.8C455.066 18.8 455.056 18.8 455.047 18.8C455.038 18.8 455.028 18.8 455.019 18.8C455.009 18.8 455 18.8 454.991 18.8C454.981 18.8 454.972 18.8 454.963 18.8C454.953 18.8 454.944 18.8 454.934 18.8C454.925 18.8 454.916 18.8 454.906 18.8C454.897 18.8 454.888 18.8 454.878 18.8C454.869 18.8 454.859 18.8 454.85 18.8C454.841 18.8 454.831 18.8 454.822 18.8C454.813 18.8 454.803 18.8 454.794 18.8C454.784 18.8 454.775 18.8 454.766 18.8C454.756 18.8 454.747 18.8 454.738 18.8C454.728 18.8 454.719 18.8 454.709 18.8C454.7 18.8 454.691 18.8 454.681 18.8C454.672 18.8 454.663 18.8 454.653 18.8C454.644 18.8 454.634 18.8 454.625 18.8C454.616 18.8 454.606 18.8 454.597 18.8C454.588 18.8 454.578 18.8 454.569 18.8C454.559 18.8 454.55 18.8 454.541 18.8C454.531 18.8 454.522 18.8 454.513 18.8C454.503 18.8 454.494 18.8 454.484 18.8C454.475 18.8 454.466 18.8 454.456 18.8C454.447 18.8 454.438 18.8 454.428 18.8C454.419 18.8 454.409 18.8 454.4 18.8C454.391 18.8 454.381 18.8 454.372 18.8C454.363 18.8 454.353 18.8 454.344 18.8C454.334 18.8 454.325 18.8 454.316 18.8C454.306 18.8 454.297 18.8 454.288 18.8C454.278 18.8 454.269 18.8 454.259 18.8C454.25 18.8 454.241 18.8 454.231 18.8C454.222 18.8 454.213 18.8 454.203 18.8C454.194 18.8 454.184 18.8 454.175 18.8C454.166 18.8 454.156 18.8 454.147 18.8C454.138 18.8 454.128 18.8 454.119 18.8C454.109 18.8 454.1 18.8 454.091 18.8C454.081 18.8 454.072 18.8 454.063 18.8C454.053 18.8 454.044 18.8 454.034 18.8C454.025 18.8 454.016 18.8 454.006 18.8C453.997 18.8 453.988 18.8 453.978 18.8C453.969 18.8 453.959 18.8 453.95 18.8C453.941 18.8 453.931 18.8 453.922 18.8C453.913 18.8 453.903 18.8 453.894 18.8C453.884 18.8 453.875 18.8 453.866 18.8C453.856 18.8 453.847 18.8 453.838 18.8C453.828 18.8 453.819 18.8 453.809 18.8C453.8 18.8 453.791 18.8 453.781 18.8C453.772 18.8 453.763 18.8 453.753 18.8C453.744 18.8 453.734 18.8 453.725 18.8C453.716 18.8 453.706 18.8 453.697 18.8C453.688 18.8 453.678 18.8 453.669 18.8C453.659 18.8 453.65 18.8 453.641 18.8C453.631 18.8 453.622 18.8 453.613 18.8C453.603 18.8 453.594 18.8 453.584 18.8C453.575 18.8 453.566 18.8 453.556 18.8C453.547 18.8 453.538 18.8 453.528 18.8C453.519 18.8 453.509 18.8 453.5 18.8C453.491 18.8 453.481 18.8 453.472 18.8C453.463 18.8 453.453 18.8 453.444 18.8C453.434 18.8 453.425 18.8 453.416 18.8C453.406 18.8 453.397 18.8 453.388 18.8C453.378 18.8 453.369 18.8 453.359 18.8C453.35 18.8 453.341 18.8 453.331 18.8C453.322 18.8 453.313 18.8 453.303 18.8C453.294 18.8 453.284 18.8 453.275 18.8C453.266 18.8 453.256 18.8 453.247 18.8C453.238 18.8 453.228 18.8 453.219 18.8C453.209 18.8 453.2 18.8 453.191 18.8C453.181 18.8 453.172 18.8 453.163 18.8C453.153 18.8 453.144 18.8 453.134 18.8C453.125 18.8 453.116 18.8 453.106 18.8C453.097 18.8 453.088 18.8 453.078 18.8C453.069 18.8 453.059 18.8 453.05 18.8C453.041 18.8 453.031 18.8 453.022 18.8C453.013 18.8 453.003 18.8 452.994 18.8C452.984 18.8 452.975 18.8 452.966 18.8C452.956 18.8 452.947 18.8 452.938 18.8C452.928 18.8 452.919 18.8 452.909 18.8C452.9 18.8 452.891 18.8 452.881 18.8C452.872 18.8 452.863 18.8 452.853 18.8C452.844 18.8 452.834 18.8 452.825 18.8C452.816 18.8 452.806 18.8 452.797 18.8C452.788 18.8 452.778 18.8 452.769 18.8C452.759 18.8 452.75 18.8 452.741 18.8C452.731 18.8 452.722 18.8 452.713 18.8C452.703 18.8 452.694 18.8 452.684 18.8C452.675 18.8 452.666 18.8 452.656 18.8C452.647 18.8 452.638 18.8 452.628 18.8C452.619 18.8 452.609 18.8 452.6 18.8C452.591 18.8 452.581 18.8 452.572 18.8C452.563 18.8 452.553 18.8 452.544 18.8C452.534 18.8 452.525 18.8 452.516 18.8C452.506 18.8 452.497 18.8 452.488 18.8C452.478 18.8 452.469 18.8 452.459 18.8C452.45 18.8 452.441 18.8 452.431 18.8C452.422 18.8 452.413 18.8 452.403 18.8C452.394 18.8 452.384 18.8 452.375 18.8C452.366 18.8 452.356 18.8 452.347 18.8C452.338 18.8 452.328 18.8 452.319 18.8C452.309 18.8 452.3 18.8 452.291 18.8C452.281 18.8 452.272 18.8 452.263 18.8C452.253 18.8 452.244 18.8 452.234 18.8C452.225 18.8 452.216 18.8 452.206 18.8C452.197 18.8 452.188 18.8 452.178 18.8C452.169 18.8 452.159 18.8 452.15 18.8C452.141 18.8 452.131 18.8 452.122 18.8C452.113 18.8 452.103 18.8 452.094 18.8C452.084 18.8 452.075 18.8 452.066 18.8C452.056 18.8 452.047 18.8 452.038 18.8C452.028 18.8 452.019 18.8 452.009 18.8C452 18.8 451.991 18.8 451.981 18.8C451.972 18.8 451.963 18.8 451.953 18.8C451.944 18.8 451.934 18.8 451.925 18.8C451.916 18.8 451.906 18.8 451.897 18.8C451.888 18.8 451.878 18.8 451.869 18.8C451.859 18.8 451.85 18.8 451.841 18.8C451.831 18.8 451.822 18.8 451.813 18.8C451.803 18.8 451.794 18.8 451.784 18.8C451.775 18.8 451.766 18.8 451.756 18.8C451.747 18.8 451.738 18.8 451.728 18.8C451.719 18.8 451.709 18.8 451.7 18.8C451.691 18.8 451.681 18.8 451.672 18.8C451.663 18.8 451.653 18.8 451.644 18.8C451.634 18.8 451.625 18.8 451.616 18.8C451.606 18.8 451.597 18.8 451.588 18.8C451.578 18.8 451.569 18.8 451.559 18.8C451.55 18.8 451.541 18.8 451.531 18.8C451.522 18.8 451.513 18.8 451.503 18.8C451.494 18.8 451.484 18.8 451.475 18.8C451.466 18.8 451.456 18.8 451.447 18.8C451.438 18.8 451.428 18.8 451.419 18.8C451.409 18.8 451.4 18.8 451.391 18.8C451.381 18.8 451.372 18.8 451.363 18.8C451.353 18.8 451.344 18.8 451.334 18.8C451.325 18.8 451.316 18.8 451.306 18.8C451.297 18.8 451.288 18.8 451.278 18.8C451.269 18.8 451.259 18.8 451.25 18.8C451.241 18.8 451.231 18.8 451.222 18.8C451.213 18.8 451.203 18.8 451.194 18.8C451.184 18.8 451.175 18.8 451.166 18.8C451.156 18.8 451.147 18.8 451.138 18.8C451.128 18.8 451.119 18.8 451.109 18.8C451.1 18.8 451.091 18.8 451.081 18.8C451.072 18.8 451.063 18.8 451.053 18.8C451.044 18.8 451.034 18.8 451.025 18.8C451.016 18.8 451.006 18.8 450.997 18.8C450.988 18.8 450.978 18.8 450.969 18.8C450.959 18.8 450.95 18.8 450.941 18.8C450.931 18.8 450.922 18.8 450.913 18.8C450.903 18.8 450.894 18.8 450.884 18.8C450.875 18.8 450.866 18.8 450.856 18.8C450.847 18.8 450.838 18.8 450.828 18.8C450.819 18.8 450.809 18.8 450.8 18.8C450.791 18.8 450.781 18.8 450.772 18.8C450.763 18.8 450.753 18.8 450.744 18.8C450.734 18.8 450.725 18.8 450.716 18.8C450.706 18.8 450.697 18.8 450.688 18.8C450.678 18.8 450.669 18.8 450.659 18.8C450.65 18.8 450.641 18.8 450.631 18.8C450.622 18.8 450.613 18.8 450.603 18.8C450.594 18.8 450.584 18.8 450.575 18.8C450.566 18.8 450.556 18.8 450.547 18.8C450.538 18.8 450.528 18.8 450.519 18.8C450.509 18.8 450.5 18.8 450.491 18.8C450.481 18.8 450.472 18.8 450.463 18.8C450.453 18.8 450.444 18.8 450.434 18.8C450.425 18.8 450.416 18.8 450.406 18.8C450.397 18.8 450.388 18.8 450.378 18.8C450.369 18.8 450.359 18.8 450.35 18.8C450.341 18.8 450.331 18.8 450.322 18.8C450.313 18.8 450.303 18.8 450.294 18.8C450.284 18.8 450.275 18.8 450.266 18.8C450.256 18.8 450.247 18.8 450.238 18.8C450.228 18.8 450.219 18.8 450.209 18.8C450.2 18.8 450.191 18.8 450.181 18.8C450.172 18.8 450.163 18.8 450.153 18.8C450.144 18.8 450.134 18.8 450.125 18.8C450.116 18.8 450.106 18.8 450.097 18.8C450.088 18.8 450.078 18.8 450.069 18.8C450.059 18.8 450.05 18.8 450.041 18.8C450.031 18.8 450.022 18.8 450.013 18.8C450.003 18.8 449.994 18.8 449.984 18.8C449.975 18.8 449.966 18.8 449.956 18.8C449.947 18.8 449.938 18.8 449.928 18.8C449.919 18.8 449.909 18.8 449.9 18.8C449.891 18.8 449.881 18.8 449.872 18.8C449.863 18.8 449.853 18.8 449.844 18.8C449.834 18.8 449.825 18.8 449.816 18.8C449.806 18.8 449.797 18.8 449.788 18.8C449.778 18.8 449.769 18.8 449.759 18.8C449.75 18.8 449.741 18.8 449.731 18.8C449.722 18.8 449.713 18.8 449.703 18.8C449.694 18.8 449.684 18.8 449.675 18.8C449.666 18.8 449.656 18.8 449.647 18.8C449.638 18.8 449.628 18.8 449.619 18.8C449.609 18.8 449.6 18.8 449.591 18.8C449.581 18.8 449.572 18.8 449.563 18.8C449.553 18.8 449.544 18.8 449.534 18.8C449.525 18.8 449.516 18.8 449.506 18.8C449.497 18.8 449.488 18.8 449.478 18.8C449.469 18.8 449.459 18.8 449.45 18.8C449.441 18.8 449.431 18.8 449.422 18.8C449.413 18.8 449.403 18.8 449.394 18.8C449.384 18.8 449.375 18.8 449.366 18.8C449.356 18.8 449.347 18.8 449.338 18.8C449.328 18.8 449.319 18.8 449.309 18.8C449.3 18.8 449.291 18.8 449.281 18.8C449.272 18.8 449.263 18.8 449.253 18.8C449.244 18.8 449.234 18.8 449.225 18.8C449.216 18.8 449.206 18.8 449.197 18.8C449.188 18.8 449.178 18.8 449.169 18.8C449.159 18.8 449.15 18.8 449.141 18.8C449.131 18.8 449.122 18.8 449.113 18.8C449.103 18.8 449.094 18.8 449.084 18.8C449.075 18.8 449.066 18.8 449.056 18.8C449.047 18.8 449.038 18.8 449.028 18.8C449.019 18.8 449.009 18.8 449 18.8C448.991 18.8 448.981 18.8 448.972 18.8C448.963 18.8 448.953 18.8 448.944 18.8C448.934 18.8 448.925 18.8 448.916 18.8C448.906 18.8 448.897 18.8 448.888 18.8C448.878 18.8 448.869 18.8 448.859 18.8C448.85 18.8 448.841 18.8 448.831 18.8C448.822 18.8 448.813 18.8 448.803 18.8C448.794 18.8 448.784 18.8 448.775 18.8C448.766 18.8 448.756 18.8 448.747 18.8C448.738 18.8 448.728 18.8 448.719 18.8C448.709 18.8 448.7 18.8 448.691 18.8C448.681 18.8 448.672 18.8 448.663 18.8C448.653 18.8 448.644 18.8 448.634 18.8C448.625 18.8 448.616 18.8 448.606 18.8C448.597 18.8 448.588 18.8 448.578 18.8C448.569 18.8 448.559 18.8 448.55 18.8C448.541 18.8 448.531 18.8 448.522 18.8C448.513 18.8 448.503 18.8 448.494 18.8C448.484 18.8 448.475 18.8 448.466 18.8C448.456 18.8 448.447 18.8 448.438 18.8C448.428 18.8 448.419 18.8 448.409 18.8C448.4 18.8 448.391 18.8 448.381 18.8C448.372 18.8 448.363 18.8 448.353 18.8C448.344 18.8 448.334 18.8 448.325 18.8C448.316 18.8 448.306 18.8 448.297 18.8C448.288 18.8 448.278 18.8 448.269 18.8C448.259 18.8 448.25 18.8 448.241 18.8C448.231 18.8 448.222 18.8 448.213 18.8C448.203 18.8 448.194 18.8 448.184 18.8C448.175 18.8 448.166 18.8 448.156 18.8C448.147 18.8 448.138 18.8 448.128 18.8C448.119 18.8 448.109 18.8 448.1 18.8C448.091 18.8 448.081 18.8 448.072 18.8C448.063 18.8 448.053 18.8 448.044 18.8C448.034 18.8 448.025 18.8 448.016 18.8C448.006 18.8 447.997 18.8 447.988 18.8C447.978 18.8 447.969 18.8 447.959 18.8C447.95 18.8 447.941 18.8 447.931 18.8C447.922 18.8 447.913 18.8 447.903 18.8C447.894 18.8 447.884 18.8 447.875 18.8C447.866 18.8 447.856 18.8 447.847 18.8C447.838 18.8 447.828 18.8 447.819 18.8C447.809 18.8 447.8 18.8 447.791 18.8C447.781 18.8 447.772 18.8 447.763 18.8C447.753 18.8 447.744 18.8 447.734 18.8C447.725 18.8 447.716 18.8 447.706 18.8C447.697 18.8 447.688 18.8 447.678 18.8C447.669 18.8 447.659 18.8 447.65 18.8C447.641 18.8 447.631 18.8 447.622 18.8C447.613 18.8 447.603 18.8 447.594 18.8C447.584 18.8 447.575 18.8 447.566 18.8C447.556 18.8 447.547 18.8 447.538 18.8C447.528 18.8 447.519 18.8 447.509 18.8C447.5 18.8 447.491 18.8 447.481 18.8C447.472 18.8 447.463 18.8 447.453 18.8C447.444 18.8 447.434 18.8 447.425 18.8C447.416 18.8 447.406 18.8 447.397 18.8C447.388 18.8 447.378 18.8 447.369 18.8C447.359 18.8 447.35 18.8 447.341 18.8C447.331 18.8 447.322 18.8 447.313 18.8C447.303 18.8 447.294 18.8 447.284 18.8C447.275 18.8 447.266 18.8 447.256 18.8C447.247 18.8 447.238 18.8 447.228 18.8C447.219 18.8 447.209 18.8 447.2 18.8C447.191 18.8 447.181 18.8 447.172 18.8C447.163 18.8 447.153 18.8 447.144 18.8C447.134 18.8 447.125 18.8 447.116 18.8C447.106 18.8 447.097 18.8 447.088 18.8C447.078 18.8 447.069 18.8 447.059 18.8C447.05 18.8 447.041 18.8 447.031 18.8C447.022 18.8 447.013 18.8 447.003 18.8C446.994 18.8 446.984 18.8 446.975 18.8C446.966 18.8 446.956 18.8 446.947 18.8C446.938 18.8 446.928 18.8 446.919 18.8C446.909 18.8 446.9 18.8 446.891 18.8C446.881 18.8 446.872 18.8 446.863 18.8C446.853 18.8 446.844 18.8 446.834 18.8C446.825 18.8 446.816 18.8 446.806 18.8C446.797 18.8 446.788 18.8 446.778 18.8C446.769 18.8 446.759 18.8 446.75 18.8C446.741 18.8 446.731 18.8 446.722 18.8C446.713 18.8 446.703 18.8 446.694 18.8C446.684 18.8 446.675 18.8 446.666 18.8C446.656 18.8 446.647 18.8 446.638 18.8C446.628 18.8 446.619 18.8 446.609 18.8C446.6 18.8 446.591 18.8 446.581 18.8C446.572 18.8 446.563 18.8 446.553 18.8C446.544 18.8 446.534 18.8 446.525 18.8C446.516 18.8 446.506 18.8 446.497 18.8C446.488 18.8 446.478 18.8 446.469 18.8C446.459 18.8 446.45 18.8 446.441 18.8C446.431 18.8 446.422 18.8 446.413 18.8C446.403 18.8 446.394 18.8 446.384 18.8C446.375 18.8 446.366 18.8 446.356 18.8C446.347 18.8 446.338 18.8 446.328 18.8C446.319 18.8 446.309 18.8 446.3 18.8C446.291 18.8 446.281 18.8 446.272 18.8C446.263 18.8 446.253 18.8 446.244 18.8C446.234 18.8 446.225 18.8 446.216 18.8C446.206 18.8 446.197 18.8 446.188 18.8C446.178 18.8 446.169 18.8 446.159 18.8C446.15 18.8 446.141 18.8 446.131 18.8C446.122 18.8 446.113 18.8 446.103 18.8C446.094 18.8 446.084 18.8 446.075 18.8C446.066 18.8 446.056 18.8 446.047 18.8C446.038 18.8 446.028 18.8 446.019 18.8C446.009 18.8 446 18.8 445.991 18.8C445.981 18.8 445.972 18.8 445.963 18.8C445.953 18.8 445.944 18.8 445.934 18.8C445.925 18.8 445.916 18.8 445.906 18.8C445.897 18.8 445.888 18.8 445.878 18.8C445.869 18.8 445.859 18.8 445.85 18.8C445.841 18.8 445.831 18.8 445.822 18.8C445.813 18.8 445.803 18.8 445.794 18.8C445.784 18.8 445.775 18.8 445.766 18.8C445.756 18.8 445.747 18.8 445.738 18.8C445.728 18.8 445.719 18.8 445.709 18.8C445.7 18.8 445.691 18.8 445.681 18.8C445.672 18.8 445.663 18.8 445.653 18.8C445.644 18.8 445.634 18.8 445.625 18.8C445.616 18.8 445.606 18.8 445.597 18.8V48.8ZM459.997 48.8C482.619 48.8 500.38 53.226 514.065 61.1718L529.129 35.2282C509.747 23.974 486.441 18.8 459.997 18.8V48.8ZM514.243 61.2736C524.736 67.1759 532.197 79.3632 532.197 104.2H562.197C562.197 73.57 552.591 48.4241 528.951 35.1264L514.243 61.2736ZM532.197 104.2C532.197 122.608 527.438 145.844 517.1 174.274L545.294 184.526C556.289 154.29 562.197 127.392 562.197 104.2H532.197ZM517.1 174.274C506.688 202.906 493.095 233.517 476.268 266.12L502.926 279.88C520.232 246.35 534.372 214.561 545.294 184.526L517.1 174.274ZM476.225 266.204C459.839 298.447 442.124 330.705 423.079 362.976L448.915 378.224C468.269 345.429 486.288 312.619 502.969 279.796L476.225 266.204ZM423.135 362.883C404.009 394.759 385.699 424.213 368.203 451.251L393.39 467.549C411.095 440.187 429.585 410.441 448.859 378.317L423.135 362.883ZM368.203 451.251C350.623 478.42 335.997 500.758 324.316 518.279L349.278 534.921C361.063 517.242 375.771 494.78 393.39 467.549L368.203 451.251ZM346.64 537.919L365.04 521.919L345.354 499.281L326.954 515.281L346.64 537.919ZM365.094 521.872C387.35 502.33 408.522 481.701 428.608 459.986L406.585 439.614C387.205 460.566 366.777 480.47 345.3 499.328L365.094 521.872ZM428.733 459.849C448.471 437.978 467.942 416.373 487.146 395.034L464.847 374.966C445.652 396.294 426.19 417.889 406.461 439.751L428.733 459.849ZM487.182 394.995C509.656 369.845 531.863 344.427 553.802 318.742L530.991 299.258C509.197 324.773 487.137 350.022 464.812 375.005L487.182 394.995ZM553.686 318.878C576.197 293.15 598.174 267.153 619.617 240.886L596.377 221.914C575.153 247.914 553.397 273.65 531.108 299.122L553.686 318.878ZM619.837 240.609C622.889 236.686 627.313 231.975 633.333 226.457L613.061 204.343C606.281 210.558 600.572 216.514 596.157 222.191L619.837 240.609ZM633.803 226.007C638.285 221.525 641.349 220.8 643.197 220.8V190.8C631.178 190.8 620.909 196.475 612.59 204.793L633.803 226.007ZM643.197 220.8C643.885 220.8 644.197 220.874 644.229 220.882C644.241 220.885 644.002 220.822 643.648 220.594C643.283 220.357 642.987 220.067 642.79 219.808C642.608 219.567 642.613 219.488 642.7 219.726L670.894 209.474C668.892 203.969 665.37 198.916 659.946 195.406C654.649 191.979 648.742 190.8 643.197 190.8V220.8ZM642.7 219.726C644.336 224.224 644.997 228.085 644.997 231.4H674.997C674.997 224.048 673.525 216.709 670.894 209.474L642.7 219.726ZM644.997 231.4C644.997 237.169 644.332 242.971 642.981 248.827L672.213 255.573C674.061 247.563 674.997 239.498 674.997 231.4H644.997ZM642.981 248.827C641.546 255.047 639.622 261.309 637.197 267.615L665.197 278.385C668.105 270.825 670.448 263.22 672.213 255.573L642.981 248.827ZM637.008 268.135C630.577 286.891 623.353 308.565 615.336 333.15L643.858 342.45C651.841 317.968 659.017 296.442 665.386 277.865L637.008 268.135ZM615.274 333.344C607.677 357.762 601.166 382.452 595.739 407.414L625.055 413.786C630.295 389.681 636.583 365.838 643.92 342.256L615.274 333.344ZM595.754 407.346C590.239 432.165 587.397 455.144 587.397 476.2H617.397C617.397 457.79 619.888 437.035 625.04 413.854L595.754 407.346ZM587.397 476.2C587.397 480.514 587.699 486.3 588.241 493.35L618.153 491.05C617.628 484.233 617.397 479.353 617.397 476.2H587.397ZM588.371 494.481C589.628 502.651 591.859 510.386 595.141 517.607L622.452 505.193C620.401 500.68 618.899 495.616 618.022 489.919L588.371 494.481ZM595.38 518.108C599.85 527.047 608.033 534.4 619.997 534.4V504.4C620.202 504.4 620.586 504.431 621.071 504.583C621.562 504.736 621.989 504.961 622.315 505.194C622.947 505.645 622.77 505.805 622.213 504.692L595.38 518.108ZM619.997 534.4C633.235 534.4 642.558 525.732 648.615 516.311L623.379 500.089C621.674 502.741 620.398 503.89 619.795 504.312C619.361 504.615 619.518 504.4 619.997 504.4V534.4ZM648.859 515.917C654.477 506.554 658.944 495.685 662.42 483.521L633.574 475.279C630.649 485.515 627.116 493.846 623.135 500.483L648.859 515.917ZM662.42 483.521C665.746 471.879 668.284 460.92 669.993 450.666L640.401 445.734C638.91 454.68 636.648 464.521 633.574 475.279L662.42 483.521ZM669.875 451.29C672.035 441.029 673.397 432.265 673.397 425.8H643.397C643.397 428.935 642.625 435.105 640.519 445.11L669.875 451.29ZM673.397 425.8C673.397 418.396 672.473 408.984 666.91 402.03L643.484 420.77C642.632 419.706 642.715 419.176 642.954 420.254C643.175 421.25 643.397 423.02 643.397 425.8H673.397ZM668.613 404.692C668.096 403.657 667.859 403.004 667.764 402.69C667.664 402.354 667.797 402.64 667.797 403.4H637.797C637.797 408.932 639.756 414.059 641.781 418.108L668.613 404.692ZM667.797 403.4C667.797 404.112 667.609 407.401 664.603 410.407C661.598 413.412 658.309 413.6 657.597 413.6V383.6C653.685 383.6 647.996 384.588 643.39 389.193C638.785 393.799 637.797 399.488 637.797 403.4H667.797ZM657.597 413.6C656.795 413.6 655.792 413.431 654.773 412.971C653.774 412.519 653.13 411.957 652.805 411.607C652.509 411.288 652.528 411.204 652.73 411.608C652.931 412.009 653.238 412.743 653.574 413.921L682.42 405.679C681.014 400.76 678.752 395.461 674.789 391.193C670.413 386.481 664.447 383.6 657.597 383.6V413.6ZM653.574 413.921C655.382 420.25 656.553 427.174 657.026 434.736L686.968 432.864C686.374 423.36 684.878 414.283 682.42 405.679L653.574 413.921ZM657.113 435.661C658.189 444.273 658.597 449.262 658.597 451.4H688.597C688.597 447.138 687.938 440.394 686.881 431.939L657.113 435.661ZM658.597 451.4C658.597 458.296 657.271 468.238 654.181 481.627L683.413 488.373C686.723 474.029 688.597 461.57 688.597 451.4H658.597ZM654.067 482.167C651.72 494.37 647.547 505.167 641.643 514.705L667.151 530.495C675.113 517.633 680.54 503.363 683.527 487.833L654.067 482.167ZM641.535 514.883C637.647 521.362 633.287 523.6 627.197 523.6V553.6C644.574 553.6 658.347 545.172 667.259 530.317L641.535 514.883ZM627.197 523.6C622.453 523.6 618.177 521.967 613.804 517.593L592.59 538.807C602.084 548.3 613.808 553.6 627.197 553.6V523.6ZM614.586 518.438C609.377 512.362 605.915 506.13 603.914 499.726L575.28 508.674C578.612 519.337 584.216 529.105 591.808 537.962L614.586 518.438ZM604.02 500.079C602.094 493.34 600.639 486.323 599.665 479.018L569.928 482.982C571.088 491.677 572.833 500.126 575.174 508.321L604.02 500.079ZM599.764 480.002C599.249 472.284 598.997 465.154 598.997 458.6H568.997C568.997 465.913 569.278 473.716 569.83 481.998L599.764 480.002ZM598.997 458.6C598.997 432.02 602.064 403.993 608.275 374.49L578.919 368.31C572.33 399.607 568.997 429.713 568.997 458.6H598.997ZM608.275 374.49C614.56 344.635 622.132 316.985 630.968 291.517L602.626 281.683C593.328 308.482 585.433 337.365 578.919 368.31L608.275 374.49ZM630.894 291.726C633.097 285.666 636.081 276.98 639.827 265.743L611.367 256.257C607.646 267.42 604.763 275.8 602.7 281.474L630.894 291.726ZM639.891 265.548C643.642 253.76 646.197 243.272 646.197 235.4H616.197C616.197 238.195 615.019 244.774 611.303 256.452L639.891 265.548ZM646.197 235.4C646.197 233.567 646.047 229.96 644.213 226.292C643.19 224.246 641.454 221.81 638.617 219.919C635.688 217.966 632.488 217.2 629.597 217.2V247.2C627.239 247.2 624.506 246.567 621.976 244.881C619.54 243.257 618.137 241.221 617.38 239.708C616.653 238.254 616.398 237.048 616.301 236.466C616.197 235.843 616.197 235.451 616.197 235.4H646.197ZM629.597 217.2C623.483 217.2 619.289 220.597 617.994 221.677C616.088 223.265 614.435 225.14 613.084 226.83L636.51 245.57C637.292 244.593 637.506 244.468 637.2 244.723C637.033 244.862 636.424 245.357 635.405 245.866C634.434 246.352 632.396 247.2 629.597 247.2V217.2ZM613.084 226.83C612.046 228.127 611.249 229.107 610.674 229.797C610.385 230.143 610.185 230.378 610.058 230.522C609.89 230.715 609.966 230.617 610.19 230.394L631.404 251.606C632.669 250.341 634.614 247.941 636.51 245.57L613.084 226.83ZM609.141 231.559C566.125 284.665 522.053 335.905 476.925 385.28L499.069 405.52C544.608 355.695 589.069 304.002 632.453 250.441L609.141 231.559ZM476.985 385.214C457.256 406.544 437.259 428.14 416.995 450.004L438.998 470.396C459.268 448.526 479.272 426.923 499.008 405.586L476.985 385.214ZM416.861 450.151C397.471 471.637 377.034 492.074 355.547 511.464L375.646 533.736C397.893 513.659 419.056 492.497 439.133 470.249L416.861 450.151ZM355.631 511.389C346.031 519.922 336.431 528.456 326.831 536.989L346.762 559.411C356.362 550.878 365.962 542.344 375.562 533.811L355.631 511.389ZM326.498 537.295C316.797 546.457 307.361 555.623 298.19 564.793L319.403 586.007C328.366 577.044 337.597 568.077 347.096 559.105L326.498 537.295ZM299.035 564.011C297.897 564.986 294.573 567.836 293.435 568.811C293.422 568.822 292.048 570 292.035 570.011C292.022 570.022 290.648 571.2 290.635 571.211C290.622 571.222 289.248 572.4 289.235 572.411C289.222 572.422 287.848 573.6 287.835 573.611L307.359 596.389C308.497 595.414 311.821 592.564 312.959 591.589C312.972 591.578 314.346 590.4 314.359 590.389C314.372 590.378 315.746 589.2 315.759 589.189C315.772 589.178 317.146 588 317.159 587.989C317.172 587.978 318.546 586.8 318.559 586.789L299.035 564.011ZM286.208 575.238C283.237 578.705 280.297 581.887 277.39 584.793L298.604 606.007C302.097 602.513 305.557 598.762 308.986 594.762L286.208 575.238ZM277.39 584.793C275.257 586.927 273.124 589.06 270.99 591.193L292.203 612.407C294.337 610.273 296.47 608.14 298.603 606.007L277.39 584.793ZM269.884 592.43C267.371 595.571 265.112 598.787 263.135 602.083L288.859 617.517C290.082 615.48 291.556 613.363 293.31 611.17L269.884 592.43ZM263.342 601.747C260.462 606.272 256.322 611.153 250.661 616.343L270.933 638.457C278.072 631.913 284.065 625.061 288.652 617.853L263.342 601.747ZM250.661 616.343C246.547 620.114 243.106 621.2 239.997 621.2V651.2C251.821 651.2 262.247 646.42 270.933 638.457L250.661 616.343Z" fill="black" mask="url(#path-1-outside-1_1_134)"/>
</svg>
