<svg width="649" height="604" viewBox="0 0 649 604" fill="none" xmlns="http://www.w3.org/2000/svg">
<mask id="path-1-outside-1_1_134" maskUnits="userSpaceOnUse" x="-6" y="-6" width="661" height="616" fill="black">
<rect fill="white" x="-6" y="-6" width="661" height="616"/>
<path d="M214.497 603.2C211.83 603.2 209.164 602.4 206.497 600.8C203.83 599.733 202.497 597.6 202.497 594.4C202.497 591.733 203.297 589.333 204.897 587.2C206.497 585.6 208.097 583.733 209.697 581.6C227.83 562.933 244.897 543.2 260.897 522.4C276.897 502.133 292.097 481.333 306.497 460C333.697 420.533 359.297 380.533 383.297 340C407.297 299.467 429.697 257.6 450.497 214.4C456.364 201.6 462.497 187.2 468.897 171.2C475.83 155.2 481.43 138.933 485.697 122.4C490.497 105.333 492.897 89.8667 492.897 76C492.897 54.1333 487.03 38.9333 475.297 30.4C463.564 21.3333 447.564 16.8 427.297 16.8C401.697 16.8 373.697 22.6666 343.297 34.4C313.43 45.6 283.297 60.5333 252.897 79.2C223.03 97.3333 195.03 116.533 168.897 136.8C143.297 157.067 121.964 176 104.897 193.6C94.7635 204.267 83.8302 217.067 72.0969 232C60.3635 246.933 50.2302 262.933 41.6969 280C33.6969 296.533 29.6969 312.533 29.6969 328C29.6969 341.333 32.8969 351.2 39.2969 357.6C46.2302 364 55.0302 368 65.6969 369.6C76.3635 371.2 87.0302 372 97.6969 372C111.03 372 125.43 370.667 140.897 368C156.897 365.333 170.764 360.8 182.497 354.4C184.63 353.333 185.964 352.8 186.497 352.8C189.697 352.8 191.297 354.667 191.297 358.4C191.297 364.267 186.764 369.333 177.697 373.6C168.63 377.333 157.964 380.533 145.697 383.2C133.43 385.333 121.697 386.933 110.497 388C99.8302 389.067 92.3635 389.6 88.0969 389.6C77.9635 389.6 66.2302 388.533 52.8969 386.4C39.5635 383.733 29.1635 378.4 21.6969 370.4C7.83021 355.467 0.896875 338.133 0.896875 318.4C0.896875 297.067 8.09688 274.933 22.4969 252C37.4302 229.067 57.1635 206.133 81.6969 183.2C106.23 160.267 133.43 138.4 163.297 117.6C193.164 96.2667 223.297 77.3333 253.697 60.8C284.097 44.2666 312.63 30.9333 339.297 20.8C365.964 10.1333 388.097 3.99998 405.697 2.39997C410.497 1.33332 415.297 0.799994 420.097 0.799994C424.897 0.799994 429.697 0.799994 434.497 0.799994C459.03 0.799994 479.564 5.6 496.097 15.2C513.164 24.8 521.697 43.4666 521.697 71.2C521.697 92 516.364 117.067 505.697 146.4C495.03 175.733 481.164 206.933 464.097 240C447.564 272.533 429.697 305.067 410.497 337.6C391.297 369.6 372.897 399.2 355.297 426.4C337.697 453.6 323.03 476 311.297 493.6L329.697 477.6C351.564 458.4 372.364 438.133 392.097 416.8C411.83 394.933 431.297 373.333 450.497 352C472.897 326.933 495.03 301.6 516.897 276C539.297 250.4 561.164 224.533 582.497 198.4C586.23 193.6 591.297 188.267 597.697 182.4C604.097 176 610.764 172.8 617.697 172.8C624.63 172.8 629.164 175.733 631.297 181.6C633.43 187.467 634.497 193.067 634.497 198.4C634.497 205.333 633.697 212.267 632.097 219.2C630.497 226.133 628.364 233.067 625.697 240C619.297 258.667 612.097 280.267 604.097 304.8C596.63 328.8 590.23 353.067 584.897 377.6C579.564 401.6 576.897 423.467 576.897 443.2C576.897 446.933 577.164 452.267 577.697 459.2C578.764 466.133 580.63 472.533 583.297 478.4C585.964 483.733 589.697 486.4 594.497 486.4C600.364 486.4 605.697 482.667 610.497 475.2C615.297 467.2 619.297 457.6 622.497 446.4C625.697 435.2 628.097 424.8 629.697 415.2C631.83 405.067 632.897 397.6 632.897 392.8C632.897 385.867 631.83 381.067 629.697 378.4C628.097 375.2 627.297 372.533 627.297 370.4C627.297 367.2 628.897 365.6 632.097 365.6C636.897 365.6 640.364 369.333 642.497 376.8C644.63 384.267 645.964 392.267 646.497 400.8C647.564 409.333 648.097 415.2 648.097 418.4C648.097 426.933 646.497 438.133 643.297 452C640.63 465.867 635.83 478.4 628.897 489.6C622.497 500.267 613.43 505.6 601.697 505.6C592.63 505.6 584.63 502.133 577.697 495.2C571.297 487.733 566.764 479.733 564.097 471.2C561.964 463.733 560.364 456 559.297 448C558.764 440 558.497 432.533 558.497 425.6C558.497 397.867 561.697 368.8 568.097 338.4C574.497 308 582.23 279.733 591.297 253.6C593.43 247.733 596.364 239.2 600.097 228C603.83 216.267 605.697 207.733 605.697 202.4C605.697 200.267 605.164 199.2 604.097 199.2C603.03 199.2 601.43 200.533 599.297 203.2C597.164 205.867 595.83 207.467 595.297 208C552.097 261.333 507.83 312.8 462.497 362.4C442.764 383.733 422.764 405.333 402.497 427.2C382.764 449.067 361.964 469.867 340.097 489.6C330.497 498.133 320.897 506.667 311.297 515.2C301.697 524.267 292.364 533.333 283.297 542.4C279.564 545.6 275.83 548.8 272.097 552C268.897 555.733 265.697 559.2 262.497 562.4C260.364 564.533 258.23 566.667 256.097 568.8C253.964 571.467 252.097 574.133 250.497 576.8C246.764 582.667 241.697 588.533 235.297 594.4C228.897 600.267 221.964 603.2 214.497 603.2Z"/>
</mask>
<path d="M214.497 603.2C211.83 603.2 209.164 602.4 206.497 600.8C203.83 599.733 202.497 597.6 202.497 594.4C202.497 591.733 203.297 589.333 204.897 587.2C206.497 585.6 208.097 583.733 209.697 581.6C227.83 562.933 244.897 543.2 260.897 522.4C276.897 502.133 292.097 481.333 306.497 460C333.697 420.533 359.297 380.533 383.297 340C407.297 299.467 429.697 257.6 450.497 214.4C456.364 201.6 462.497 187.2 468.897 171.2C475.83 155.2 481.43 138.933 485.697 122.4C490.497 105.333 492.897 89.8667 492.897 76C492.897 54.1333 487.03 38.9333 475.297 30.4C463.564 21.3333 447.564 16.8 427.297 16.8C401.697 16.8 373.697 22.6666 343.297 34.4C313.43 45.6 283.297 60.5333 252.897 79.2C223.03 97.3333 195.03 116.533 168.897 136.8C143.297 157.067 121.964 176 104.897 193.6C94.7635 204.267 83.8302 217.067 72.0969 232C60.3635 246.933 50.2302 262.933 41.6969 280C33.6969 296.533 29.6969 312.533 29.6969 328C29.6969 341.333 32.8969 351.2 39.2969 357.6C46.2302 364 55.0302 368 65.6969 369.6C76.3635 371.2 87.0302 372 97.6969 372C111.03 372 125.43 370.667 140.897 368C156.897 365.333 170.764 360.8 182.497 354.4C184.63 353.333 185.964 352.8 186.497 352.8C189.697 352.8 191.297 354.667 191.297 358.4C191.297 364.267 186.764 369.333 177.697 373.6C168.63 377.333 157.964 380.533 145.697 383.2C133.43 385.333 121.697 386.933 110.497 388C99.8302 389.067 92.3635 389.6 88.0969 389.6C77.9635 389.6 66.2302 388.533 52.8969 386.4C39.5635 383.733 29.1635 378.4 21.6969 370.4C7.83021 355.467 0.896875 338.133 0.896875 318.4C0.896875 297.067 8.09688 274.933 22.4969 252C37.4302 229.067 57.1635 206.133 81.6969 183.2C106.23 160.267 133.43 138.4 163.297 117.6C193.164 96.2667 223.297 77.3333 253.697 60.8C284.097 44.2666 312.63 30.9333 339.297 20.8C365.964 10.1333 388.097 3.99998 405.697 2.39997C410.497 1.33332 415.297 0.799994 420.097 0.799994C424.897 0.799994 429.697 0.799994 434.497 0.799994C459.03 0.799994 479.564 5.6 496.097 15.2C513.164 24.8 521.697 43.4666 521.697 71.2C521.697 92 516.364 117.067 505.697 146.4C495.03 175.733 481.164 206.933 464.097 240C447.564 272.533 429.697 305.067 410.497 337.6C391.297 369.6 372.897 399.2 355.297 426.4C337.697 453.6 323.03 476 311.297 493.6L329.697 477.6C351.564 458.4 372.364 438.133 392.097 416.8C411.83 394.933 431.297 373.333 450.497 352C472.897 326.933 495.03 301.6 516.897 276C539.297 250.4 561.164 224.533 582.497 198.4C586.23 193.6 591.297 188.267 597.697 182.4C604.097 176 610.764 172.8 617.697 172.8C624.63 172.8 629.164 175.733 631.297 181.6C633.43 187.467 634.497 193.067 634.497 198.4C634.497 205.333 633.697 212.267 632.097 219.2C630.497 226.133 628.364 233.067 625.697 240C619.297 258.667 612.097 280.267 604.097 304.8C596.63 328.8 590.23 353.067 584.897 377.6C579.564 401.6 576.897 423.467 576.897 443.2C576.897 446.933 577.164 452.267 577.697 459.2C578.764 466.133 580.63 472.533 583.297 478.4C585.964 483.733 589.697 486.4 594.497 486.4C600.364 486.4 605.697 482.667 610.497 475.2C615.297 467.2 619.297 457.6 622.497 446.4C625.697 435.2 628.097 424.8 629.697 415.2C631.83 405.067 632.897 397.6 632.897 392.8C632.897 385.867 631.83 381.067 629.697 378.4C628.097 375.2 627.297 372.533 627.297 370.4C627.297 367.2 628.897 365.6 632.097 365.6C636.897 365.6 640.364 369.333 642.497 376.8C644.63 384.267 645.964 392.267 646.497 400.8C647.564 409.333 648.097 415.2 648.097 418.4C648.097 426.933 646.497 438.133 643.297 452C640.63 465.867 635.83 478.4 628.897 489.6C622.497 500.267 613.43 505.6 601.697 505.6C592.63 505.6 584.63 502.133 577.697 495.2C571.297 487.733 566.764 479.733 564.097 471.2C561.964 463.733 560.364 456 559.297 448C558.764 440 558.497 432.533 558.497 425.6C558.497 397.867 561.697 368.8 568.097 338.4C574.497 308 582.23 279.733 591.297 253.6C593.43 247.733 596.364 239.2 600.097 228C603.83 216.267 605.697 207.733 605.697 202.4C605.697 200.267 605.164 199.2 604.097 199.2C603.03 199.2 601.43 200.533 599.297 203.2C597.164 205.867 595.83 207.467 595.297 208C552.097 261.333 507.83 312.8 462.497 362.4C442.764 383.733 422.764 405.333 402.497 427.2C382.764 449.067 361.964 469.867 340.097 489.6C330.497 498.133 320.897 506.667 311.297 515.2C301.697 524.267 292.364 533.333 283.297 542.4C279.564 545.6 275.83 548.8 272.097 552C268.897 555.733 265.697 559.2 262.497 562.4C260.364 564.533 258.23 566.667 256.097 568.8C253.964 571.467 252.097 574.133 250.497 576.8C246.764 582.667 241.697 588.533 235.297 594.4C228.897 600.267 221.964 603.2 214.497 603.2Z" fill="white"/>
<path d="M206.497 600.8L209.584 595.655L209.172 595.408L208.725 595.229L206.497 600.8ZM204.897 587.2L200.654 582.957L200.353 583.259L200.097 583.6L204.897 587.2ZM209.697 581.6L205.393 577.419L205.127 577.694L204.897 578L209.697 581.6ZM260.897 522.4L256.188 518.682L256.164 518.712L256.141 518.742L260.897 522.4ZM306.497 460L301.557 456.595L301.54 456.619L301.524 456.643L306.497 460ZM383.297 340L378.134 336.943L383.297 340ZM450.497 214.4L455.903 217.003L455.928 216.952L455.951 216.9L450.497 214.4ZM468.897 171.2L463.392 168.814L463.358 168.893L463.326 168.972L468.897 171.2ZM485.697 122.4L479.921 120.775L479.903 120.838L479.887 120.901L485.697 122.4ZM475.297 30.4L471.628 35.1477L471.697 35.2011L471.768 35.2524L475.297 30.4ZM343.297 34.4L345.404 40.018L345.431 40.0079L345.457 39.9975L343.297 34.4ZM252.897 79.2L256.011 84.3287L256.024 84.3209L256.036 84.313L252.897 79.2ZM168.897 136.8L165.22 132.059L165.196 132.077L165.173 132.096L168.897 136.8ZM104.897 193.6L100.589 189.423L100.568 189.445L100.547 189.467L104.897 193.6ZM72.0969 232L76.8148 235.707H76.8148L72.0969 232ZM41.6969 280L36.3303 277.317L36.3129 277.352L36.2959 277.387L41.6969 280ZM39.2969 357.6L35.0542 361.843L35.1391 361.927L35.2272 362.009L39.2969 357.6ZM65.6969 369.6L66.5869 363.666H66.5869L65.6969 369.6ZM140.897 368L139.91 362.082L139.894 362.084L139.877 362.087L140.897 368ZM182.497 354.4L179.814 349.033L179.718 349.081L179.624 349.133L182.497 354.4ZM177.697 373.6L179.981 379.148L180.118 379.092L180.252 379.029L177.697 373.6ZM145.697 383.2L146.725 389.111L146.849 389.09L146.971 389.063L145.697 383.2ZM110.497 388L109.928 382.027L109.914 382.028L109.9 382.03L110.497 388ZM52.8969 386.4L51.7202 392.283L51.8342 392.306L51.9489 392.325L52.8969 386.4ZM21.6969 370.4L17.3001 374.483L17.3053 374.488L17.3105 374.494L21.6969 370.4ZM22.4969 252L17.4689 248.726L17.4419 248.767L17.4155 248.809L22.4969 252ZM81.6969 183.2L77.5996 178.817L81.6969 183.2ZM163.297 117.6L166.726 122.524L166.755 122.503L166.784 122.482L163.297 117.6ZM339.297 20.8L341.428 26.4087L341.477 26.3902L341.525 26.3708L339.297 20.8ZM405.697 2.39997L406.24 8.37533L406.623 8.34052L406.998 8.2571L405.697 2.39997ZM496.097 15.2L493.084 20.3887L493.12 20.4093L493.155 20.4295L496.097 15.2ZM505.697 146.4L500.058 144.35L505.697 146.4ZM464.097 240L458.765 237.248L458.757 237.265L458.748 237.282L464.097 240ZM410.497 337.6L415.642 340.687L415.653 340.668L415.664 340.65L410.497 337.6ZM311.297 493.6L306.305 490.272L315.234 498.128L311.297 493.6ZM329.697 477.6L333.634 482.128L333.645 482.118L333.656 482.109L329.697 477.6ZM392.097 416.8L396.501 420.874L396.527 420.847L396.551 420.82L392.097 416.8ZM450.497 352L454.957 356.014L454.964 356.006L454.971 355.998L450.497 352ZM516.897 276L512.381 272.049L512.358 272.076L512.335 272.103L516.897 276ZM582.497 198.4L587.145 202.194L587.19 202.139L587.233 202.084L582.497 198.4ZM597.697 182.4L601.751 186.823L601.847 186.735L601.94 186.643L597.697 182.4ZM632.097 219.2L637.943 220.549V220.549L632.097 219.2ZM625.697 240L620.097 237.846L620.057 237.949L620.021 238.054L625.697 240ZM604.097 304.8L598.393 302.94L598.38 302.979L598.368 303.018L604.097 304.8ZM584.897 377.6L590.754 378.902L590.757 378.888L590.76 378.875L584.897 377.6ZM577.697 459.2L571.715 459.66L571.732 459.887L571.767 460.112L577.697 459.2ZM583.297 478.4L577.835 480.883L577.881 480.984L577.93 481.083L583.297 478.4ZM610.497 475.2L615.544 478.445L615.594 478.367L615.642 478.287L610.497 475.2ZM622.497 446.4L616.728 444.752L622.497 446.4ZM629.697 415.2L623.826 413.964L623.799 414.088L623.779 414.214L629.697 415.2ZM629.697 378.4L624.33 381.083L624.615 381.652L625.012 382.148L629.697 378.4ZM642.497 376.8L636.728 378.448V378.448L642.497 376.8ZM646.497 400.8L640.509 401.174L640.52 401.36L640.543 401.544L646.497 400.8ZM643.297 452L637.451 450.651L637.426 450.758L637.405 450.867L643.297 452ZM628.897 489.6L623.795 486.442L623.773 486.477L623.752 486.513L628.897 489.6ZM577.697 495.2L573.141 499.105L573.291 499.28L573.454 499.443L577.697 495.2ZM564.097 471.2L558.328 472.848L558.348 472.919L558.37 472.99L564.097 471.2ZM559.297 448L553.31 448.399L553.323 448.597L553.35 448.793L559.297 448ZM568.097 338.4L562.226 337.164V337.164L568.097 338.4ZM591.297 253.6L585.658 251.55L585.643 251.591L585.628 251.633L591.297 253.6ZM600.097 228L605.789 229.897L605.802 229.858L605.814 229.819L600.097 228ZM595.297 208L591.054 203.757L590.832 203.979L590.635 204.223L595.297 208ZM462.497 362.4L466.902 366.474L466.914 366.461L466.926 366.448L462.497 362.4ZM402.497 427.2L398.096 423.121L398.069 423.151L398.043 423.18L402.497 427.2ZM340.097 489.6L344.083 494.084L344.1 494.069L344.117 494.054L340.097 489.6ZM311.297 515.2L307.311 510.716L307.243 510.776L307.177 510.838L311.297 515.2ZM283.297 542.4L287.202 546.956L287.377 546.806L287.54 546.643L283.297 542.4ZM272.097 552L268.192 547.444L267.842 547.745L267.541 548.095L272.097 552ZM262.497 562.4L266.74 566.643H266.74L262.497 562.4ZM256.097 568.8L251.854 564.557L251.619 564.792L251.412 565.052L256.097 568.8ZM250.497 576.8L255.559 580.021L255.601 579.955L255.642 579.887L250.497 576.8ZM214.497 597.2C213.087 597.2 211.475 596.79 209.584 595.655L203.41 605.945C206.852 608.01 210.573 609.2 214.497 609.2V597.2ZM208.725 595.229C208.54 595.155 208.483 595.105 208.495 595.115C208.514 595.13 208.553 595.169 208.585 595.22C208.656 595.335 208.497 595.178 208.497 594.4H196.497C196.497 596.822 197.004 599.332 198.409 601.58C199.844 603.876 201.927 605.434 204.269 606.371L208.725 595.229ZM208.497 594.4C208.497 593.032 208.876 591.895 209.697 590.8L200.097 583.6C197.718 586.772 196.497 590.435 196.497 594.4H208.497ZM209.14 591.443C210.972 589.61 212.756 587.522 214.497 585.2L204.897 578C203.438 579.945 202.022 581.59 200.654 582.957L209.14 591.443ZM214.001 585.781C232.296 566.947 249.513 547.039 265.653 526.058L256.141 518.742C240.281 539.361 223.365 558.919 205.393 577.419L214.001 585.781ZM265.606 526.118C281.698 505.735 296.986 484.814 311.47 463.357L301.524 456.643C287.207 477.853 272.096 498.532 256.188 518.682L265.606 526.118ZM311.437 463.405C338.714 423.827 364.388 383.711 388.46 343.057L378.134 336.943C354.205 377.356 328.68 417.24 301.557 456.595L311.437 463.405ZM388.46 343.057C412.549 302.373 435.03 260.355 455.903 217.003L445.091 211.797C424.364 254.845 402.045 296.56 378.134 336.943L388.46 343.057ZM455.951 216.9C461.867 203.993 468.039 189.5 474.468 173.428L463.326 168.972C456.955 184.9 450.86 199.207 445.042 211.9L455.951 216.9ZM474.402 173.586C481.457 157.305 487.16 140.742 491.507 123.899L479.887 120.901C475.7 137.125 470.203 153.095 463.392 168.814L474.402 173.586ZM491.473 124.024C496.382 106.568 498.897 90.5437 498.897 76H486.897C486.897 89.1896 484.611 104.098 479.921 120.775L491.473 124.024ZM498.897 76C498.897 53.2264 492.781 35.6965 478.826 25.5476L471.768 35.2524C481.28 42.1702 486.897 55.0402 486.897 76H498.897ZM478.966 25.6523C465.856 15.5219 448.41 10.8 427.297 10.8V22.8C446.717 22.8 461.271 27.1448 471.628 35.1477L478.966 25.6523ZM427.297 10.8C400.787 10.8 372.046 16.8725 341.136 28.8025L345.457 39.9975C375.348 28.4608 402.607 22.8 427.297 22.8V10.8ZM341.19 28.782C310.924 40.1316 280.447 55.2425 249.757 74.087L256.036 84.313C286.147 65.8241 315.936 51.0683 345.404 40.018L341.19 28.782ZM249.783 74.0713C219.732 92.3163 191.543 111.645 165.22 132.059L172.574 141.541C198.517 121.422 226.328 102.35 256.011 84.3287L249.783 74.0713ZM165.173 132.096C139.43 152.475 117.887 171.585 100.589 189.423L109.204 197.777C126.04 180.415 147.164 161.658 172.621 141.504L165.173 132.096ZM100.547 189.467C90.2536 200.303 79.1969 213.252 67.379 228.293L76.8148 235.707C88.4636 220.881 99.2735 208.231 109.247 197.732L100.547 189.467ZM67.379 228.293C55.3942 243.546 45.0439 259.89 36.3303 277.317L47.0634 282.683C55.4165 265.977 65.3328 250.32 76.8148 235.707L67.379 228.293ZM36.2959 277.387C27.9749 294.583 23.6969 311.474 23.6969 328H35.6969C35.6969 313.593 39.4188 298.483 47.0978 282.613L36.2959 277.387ZM23.6969 328C23.6969 342.175 27.0915 353.88 35.0542 361.843L43.5395 353.357C38.7022 348.52 35.6969 340.491 35.6969 328H23.6969ZM35.2272 362.009C43.1658 369.337 53.127 373.782 64.8068 375.534L66.5869 363.666C56.9334 362.218 49.2947 358.663 43.3666 353.191L35.2272 362.009ZM64.8068 375.534C75.7648 377.177 86.729 378 97.6969 378V366C87.3314 366 76.9623 365.223 66.5869 363.666L64.8068 375.534ZM97.6969 378C111.426 378 126.17 376.628 141.916 373.913L139.877 362.087C124.69 364.706 110.635 366 97.6969 366V378ZM141.883 373.918C158.408 371.164 172.938 366.448 185.37 359.667L179.624 349.133C168.589 355.152 155.386 359.502 139.91 362.082L141.883 373.918ZM185.18 359.767C186.181 359.266 186.88 358.949 187.325 358.771C187.549 358.681 187.627 358.66 187.595 358.669C187.576 358.675 187.482 358.701 187.333 358.728C187.198 358.753 186.9 358.8 186.497 358.8V346.8C185.525 346.8 184.706 347.014 184.299 347.131C183.8 347.273 183.311 347.452 182.869 347.629C181.98 347.984 180.946 348.467 179.814 349.033L185.18 359.767ZM186.497 358.8C186.727 358.8 186.661 358.835 186.422 358.742C186.147 358.635 185.815 358.424 185.541 358.105C185.285 357.806 185.222 357.578 185.228 357.598C185.239 357.636 185.297 357.876 185.297 358.4H197.297C197.297 355.815 196.763 352.757 194.652 350.295C192.39 347.656 189.284 346.8 186.497 346.8V358.8ZM185.297 358.4C185.297 360.593 183.691 364.148 175.142 368.171L180.252 379.029C189.836 374.519 197.297 367.94 197.297 358.4H185.297ZM175.412 368.052C166.748 371.62 156.434 374.726 144.422 377.337L146.971 389.063C159.493 386.341 170.512 383.047 179.981 379.148L175.412 368.052ZM144.669 377.289C132.539 379.398 120.959 380.976 109.928 382.027L111.066 393.973C122.435 392.89 134.322 391.268 146.725 389.111L144.669 377.289ZM109.9 382.03C99.2236 383.097 92.0292 383.6 88.0969 383.6V395.6C92.6979 395.6 100.437 395.036 111.094 393.97L109.9 382.03ZM88.0969 383.6C78.3655 383.6 66.9609 382.574 53.8448 380.475L51.9489 392.325C65.4996 394.493 77.5616 395.6 88.0969 395.6V383.6ZM54.0736 380.517C41.6689 378.036 32.5049 373.186 26.0832 366.306L17.3105 374.494C25.8222 383.614 37.4582 389.431 51.7202 392.283L54.0736 380.517ZM26.0936 366.317C13.2202 352.454 6.89687 336.565 6.89687 318.4H-5.10313C-5.10313 339.702 2.44017 358.48 17.3001 374.483L26.0936 366.317ZM6.89687 318.4C6.89687 298.463 13.6183 277.423 27.5782 255.191L17.4155 248.809C2.57546 272.444 -5.10313 295.67 -5.10313 318.4H6.89687ZM27.5249 255.274C42.1421 232.826 61.538 210.257 85.7942 187.583L77.5996 178.817C52.7891 202.009 32.7183 225.307 17.4689 248.726L27.5249 255.274ZM85.7942 187.583C110.101 164.861 137.075 143.173 166.726 122.524L159.868 112.676C129.785 133.627 102.359 155.672 77.5996 178.817L85.7942 187.583ZM166.784 122.482C196.464 101.283 226.391 82.4807 256.564 66.0709L250.83 55.5291C220.203 72.186 189.863 91.2507 159.809 112.718L166.784 122.482ZM256.564 66.0709C286.774 49.6404 315.06 36.4284 341.428 26.4087L337.166 15.1913C310.2 25.4382 281.419 38.8928 250.83 55.5291L256.564 66.0709ZM341.525 26.3708C367.944 15.8031 389.465 9.90037 406.24 8.37533L405.154 -3.57539C386.729 -1.9004 363.983 4.4635 337.069 15.2291L341.525 26.3708ZM406.998 8.2571C411.382 7.28309 415.745 6.8 420.097 6.8V-5.20001C414.849 -5.20001 409.612 -4.61645 404.395 -3.45715L406.998 8.2571ZM420.097 6.8C420.106 6.8 420.116 6.8 420.125 6.8C420.134 6.8 420.144 6.8 420.153 6.8C420.163 6.8 420.172 6.8 420.181 6.8C420.191 6.8 420.2 6.8 420.209 6.8C420.219 6.8 420.228 6.8 420.238 6.8C420.247 6.8 420.256 6.8 420.266 6.8C420.275 6.8 420.284 6.8 420.294 6.8C420.303 6.8 420.312 6.8 420.322 6.8C420.331 6.8 420.341 6.8 420.35 6.8C420.359 6.8 420.369 6.8 420.378 6.8C420.388 6.8 420.397 6.8 420.406 6.8C420.416 6.8 420.425 6.8 420.434 6.8C420.444 6.8 420.453 6.8 420.463 6.8C420.472 6.8 420.481 6.8 420.491 6.8C420.5 6.8 420.509 6.8 420.519 6.8C420.528 6.8 420.538 6.8 420.547 6.8C420.556 6.8 420.566 6.8 420.575 6.8C420.584 6.8 420.594 6.8 420.603 6.8C420.613 6.8 420.622 6.8 420.631 6.8C420.641 6.8 420.65 6.8 420.659 6.8C420.669 6.8 420.678 6.8 420.688 6.8C420.697 6.8 420.706 6.8 420.716 6.8C420.725 6.8 420.734 6.8 420.744 6.8C420.753 6.8 420.763 6.8 420.772 6.8C420.781 6.8 420.791 6.8 420.8 6.8C420.809 6.8 420.819 6.8 420.828 6.8C420.838 6.8 420.847 6.8 420.856 6.8C420.866 6.8 420.875 6.8 420.884 6.8C420.894 6.8 420.903 6.8 420.913 6.8C420.922 6.8 420.931 6.8 420.941 6.8C420.95 6.8 420.959 6.8 420.969 6.8C420.978 6.8 420.988 6.8 420.997 6.8C421.006 6.8 421.016 6.8 421.025 6.8C421.034 6.8 421.044 6.8 421.053 6.8C421.062 6.8 421.072 6.8 421.081 6.8C421.091 6.8 421.1 6.8 421.109 6.8C421.119 6.8 421.128 6.8 421.138 6.8C421.147 6.8 421.156 6.8 421.166 6.8C421.175 6.8 421.184 6.8 421.194 6.8C421.203 6.8 421.213 6.8 421.222 6.8C421.231 6.8 421.241 6.8 421.25 6.8C421.259 6.8 421.269 6.8 421.278 6.8C421.288 6.8 421.297 6.8 421.306 6.8C421.316 6.8 421.325 6.8 421.334 6.8C421.344 6.8 421.353 6.8 421.363 6.8C421.372 6.8 421.381 6.8 421.391 6.8C421.4 6.8 421.409 6.8 421.419 6.8C421.428 6.8 421.438 6.8 421.447 6.8C421.456 6.8 421.466 6.8 421.475 6.8C421.484 6.8 421.494 6.8 421.503 6.8C421.513 6.8 421.522 6.8 421.531 6.8C421.541 6.8 421.55 6.8 421.559 6.8C421.569 6.8 421.578 6.8 421.588 6.8C421.597 6.8 421.606 6.8 421.616 6.8C421.625 6.8 421.634 6.8 421.644 6.8C421.653 6.8 421.663 6.8 421.672 6.8C421.681 6.8 421.691 6.8 421.7 6.8C421.709 6.8 421.719 6.8 421.728 6.8C421.738 6.8 421.747 6.8 421.756 6.8C421.766 6.8 421.775 6.8 421.784 6.8C421.794 6.8 421.803 6.8 421.812 6.8C421.822 6.8 421.831 6.8 421.841 6.8C421.85 6.8 421.859 6.8 421.869 6.8C421.878 6.8 421.888 6.8 421.897 6.8C421.906 6.8 421.916 6.8 421.925 6.8C421.934 6.8 421.944 6.8 421.953 6.8C421.963 6.8 421.972 6.8 421.981 6.8C421.991 6.8 422 6.8 422.009 6.8C422.019 6.8 422.028 6.8 422.038 6.8C422.047 6.8 422.056 6.8 422.066 6.8C422.075 6.8 422.084 6.8 422.094 6.8C422.103 6.8 422.113 6.8 422.122 6.8C422.131 6.8 422.141 6.8 422.15 6.8C422.159 6.8 422.169 6.8 422.178 6.8C422.188 6.8 422.197 6.8 422.206 6.8C422.216 6.8 422.225 6.8 422.234 6.8C422.244 6.8 422.253 6.8 422.263 6.8C422.272 6.8 422.281 6.8 422.291 6.8C422.3 6.8 422.309 6.8 422.319 6.8C422.328 6.8 422.338 6.8 422.347 6.8C422.356 6.8 422.366 6.8 422.375 6.8C422.384 6.8 422.394 6.8 422.403 6.8C422.413 6.8 422.422 6.8 422.431 6.8C422.441 6.8 422.45 6.8 422.459 6.8C422.469 6.8 422.478 6.8 422.488 6.8C422.497 6.8 422.506 6.8 422.516 6.8C422.525 6.8 422.534 6.8 422.544 6.8C422.553 6.8 422.563 6.8 422.572 6.8C422.581 6.8 422.591 6.8 422.6 6.8C422.609 6.8 422.619 6.8 422.628 6.8C422.638 6.8 422.647 6.8 422.656 6.8C422.666 6.8 422.675 6.8 422.684 6.8C422.694 6.8 422.703 6.8 422.713 6.8C422.722 6.8 422.731 6.8 422.741 6.8C422.75 6.8 422.759 6.8 422.769 6.8C422.778 6.8 422.788 6.8 422.797 6.8C422.806 6.8 422.816 6.8 422.825 6.8C422.834 6.8 422.844 6.8 422.853 6.8C422.863 6.8 422.872 6.8 422.881 6.8C422.891 6.8 422.9 6.8 422.909 6.8C422.919 6.8 422.928 6.8 422.938 6.8C422.947 6.8 422.956 6.8 422.966 6.8C422.975 6.8 422.984 6.8 422.994 6.8C423.003 6.8 423.013 6.8 423.022 6.8C423.031 6.8 423.041 6.8 423.05 6.8C423.059 6.8 423.069 6.8 423.078 6.8C423.088 6.8 423.097 6.8 423.106 6.8C423.116 6.8 423.125 6.8 423.134 6.8C423.144 6.8 423.153 6.8 423.163 6.8C423.172 6.8 423.181 6.8 423.191 6.8C423.2 6.8 423.209 6.8 423.219 6.8C423.228 6.8 423.238 6.8 423.247 6.8C423.256 6.8 423.266 6.8 423.275 6.8C423.284 6.8 423.294 6.8 423.303 6.8C423.313 6.8 423.322 6.8 423.331 6.8C423.341 6.8 423.35 6.8 423.359 6.8C423.369 6.8 423.378 6.8 423.388 6.8C423.397 6.8 423.406 6.8 423.416 6.8C423.425 6.8 423.434 6.8 423.444 6.8C423.453 6.8 423.463 6.8 423.472 6.8C423.481 6.8 423.491 6.8 423.5 6.8C423.509 6.8 423.519 6.8 423.528 6.8C423.538 6.8 423.547 6.8 423.556 6.8C423.566 6.8 423.575 6.8 423.584 6.8C423.594 6.8 423.603 6.8 423.613 6.8C423.622 6.8 423.631 6.8 423.641 6.8C423.65 6.8 423.659 6.8 423.669 6.8C423.678 6.8 423.688 6.8 423.697 6.8C423.706 6.8 423.716 6.8 423.725 6.8C423.734 6.8 423.744 6.8 423.753 6.8C423.763 6.8 423.772 6.8 423.781 6.8C423.791 6.8 423.8 6.8 423.809 6.8C423.819 6.8 423.828 6.8 423.838 6.8C423.847 6.8 423.856 6.8 423.866 6.8C423.875 6.8 423.884 6.8 423.894 6.8C423.903 6.8 423.913 6.8 423.922 6.8C423.931 6.8 423.941 6.8 423.95 6.8C423.959 6.8 423.969 6.8 423.978 6.8C423.988 6.8 423.997 6.8 424.006 6.8C424.016 6.8 424.025 6.8 424.034 6.8C424.044 6.8 424.053 6.8 424.063 6.8C424.072 6.8 424.081 6.8 424.091 6.8C424.1 6.8 424.109 6.8 424.119 6.8C424.128 6.8 424.138 6.8 424.147 6.8C424.156 6.8 424.166 6.8 424.175 6.8C424.184 6.8 424.194 6.8 424.203 6.8C424.213 6.8 424.222 6.8 424.231 6.8C424.241 6.8 424.25 6.8 424.259 6.8C424.269 6.8 424.278 6.8 424.288 6.8C424.297 6.8 424.306 6.8 424.316 6.8C424.325 6.8 424.334 6.8 424.344 6.8C424.353 6.8 424.363 6.8 424.372 6.8C424.381 6.8 424.391 6.8 424.4 6.8C424.409 6.8 424.419 6.8 424.428 6.8C424.438 6.8 424.447 6.8 424.456 6.8C424.466 6.8 424.475 6.8 424.484 6.8C424.494 6.8 424.503 6.8 424.513 6.8C424.522 6.8 424.531 6.8 424.541 6.8C424.55 6.8 424.559 6.8 424.569 6.8C424.578 6.8 424.588 6.8 424.597 6.8C424.606 6.8 424.616 6.8 424.625 6.8C424.634 6.8 424.644 6.8 424.653 6.8C424.663 6.8 424.672 6.8 424.681 6.8C424.691 6.8 424.7 6.8 424.709 6.8C424.719 6.8 424.728 6.8 424.738 6.8C424.747 6.8 424.756 6.8 424.766 6.8C424.775 6.8 424.784 6.8 424.794 6.8C424.803 6.8 424.813 6.8 424.822 6.8C424.831 6.8 424.841 6.8 424.85 6.8C424.859 6.8 424.869 6.8 424.878 6.8C424.888 6.8 424.897 6.8 424.906 6.8C424.916 6.8 424.925 6.8 424.934 6.8C424.944 6.8 424.953 6.8 424.963 6.8C424.972 6.8 424.981 6.8 424.991 6.8C425 6.8 425.009 6.8 425.019 6.8C425.028 6.8 425.038 6.8 425.047 6.8C425.056 6.8 425.066 6.8 425.075 6.8C425.084 6.8 425.094 6.8 425.103 6.8C425.113 6.8 425.122 6.8 425.131 6.8C425.141 6.8 425.15 6.8 425.159 6.8C425.169 6.8 425.178 6.8 425.188 6.8C425.197 6.8 425.206 6.8 425.216 6.8C425.225 6.8 425.234 6.8 425.244 6.8C425.253 6.8 425.263 6.8 425.272 6.8C425.281 6.8 425.291 6.8 425.3 6.8C425.309 6.8 425.319 6.8 425.328 6.8C425.338 6.8 425.347 6.8 425.356 6.8C425.366 6.8 425.375 6.8 425.384 6.8C425.394 6.8 425.403 6.8 425.413 6.8C425.422 6.8 425.431 6.8 425.441 6.8C425.45 6.8 425.459 6.8 425.469 6.8C425.478 6.8 425.488 6.8 425.497 6.8C425.506 6.8 425.516 6.8 425.525 6.8C425.534 6.8 425.544 6.8 425.553 6.8C425.563 6.8 425.572 6.8 425.581 6.8C425.591 6.8 425.6 6.8 425.609 6.8C425.619 6.8 425.628 6.8 425.638 6.8C425.647 6.8 425.656 6.8 425.666 6.8C425.675 6.8 425.684 6.8 425.694 6.8C425.703 6.8 425.713 6.8 425.722 6.8C425.731 6.8 425.741 6.8 425.75 6.8C425.759 6.8 425.769 6.8 425.778 6.8C425.788 6.8 425.797 6.8 425.806 6.8C425.816 6.8 425.825 6.8 425.834 6.8C425.844 6.8 425.853 6.8 425.863 6.8C425.872 6.8 425.881 6.8 425.891 6.8C425.9 6.8 425.909 6.8 425.919 6.8C425.928 6.8 425.938 6.8 425.947 6.8C425.956 6.8 425.966 6.8 425.975 6.8C425.984 6.8 425.994 6.8 426.003 6.8C426.013 6.8 426.022 6.8 426.031 6.8C426.041 6.8 426.05 6.8 426.059 6.8C426.069 6.8 426.078 6.8 426.088 6.8C426.097 6.8 426.106 6.8 426.116 6.8C426.125 6.8 426.134 6.8 426.144 6.8C426.153 6.8 426.163 6.8 426.172 6.8C426.181 6.8 426.191 6.8 426.2 6.8C426.209 6.8 426.219 6.8 426.228 6.8C426.238 6.8 426.247 6.8 426.256 6.8C426.266 6.8 426.275 6.8 426.284 6.8C426.294 6.8 426.303 6.8 426.313 6.8C426.322 6.8 426.331 6.8 426.341 6.8C426.35 6.8 426.359 6.8 426.369 6.8C426.378 6.8 426.388 6.8 426.397 6.8C426.406 6.8 426.416 6.8 426.425 6.8C426.434 6.8 426.444 6.8 426.453 6.8C426.463 6.8 426.472 6.8 426.481 6.8C426.491 6.8 426.5 6.8 426.509 6.8C426.519 6.8 426.528 6.8 426.538 6.8C426.547 6.8 426.556 6.8 426.566 6.8C426.575 6.8 426.584 6.8 426.594 6.8C426.603 6.8 426.613 6.8 426.622 6.8C426.631 6.8 426.641 6.8 426.65 6.8C426.659 6.8 426.669 6.8 426.678 6.8C426.688 6.8 426.697 6.8 426.706 6.8C426.716 6.8 426.725 6.8 426.734 6.8C426.744 6.8 426.753 6.8 426.763 6.8C426.772 6.8 426.781 6.8 426.791 6.8C426.8 6.8 426.809 6.8 426.819 6.8C426.828 6.8 426.838 6.8 426.847 6.8C426.856 6.8 426.866 6.8 426.875 6.8C426.884 6.8 426.894 6.8 426.903 6.8C426.913 6.8 426.922 6.8 426.931 6.8C426.941 6.8 426.95 6.8 426.959 6.8C426.969 6.8 426.978 6.8 426.988 6.8C426.997 6.8 427.006 6.8 427.016 6.8C427.025 6.8 427.034 6.8 427.044 6.8C427.053 6.8 427.063 6.8 427.072 6.8C427.081 6.8 427.091 6.8 427.1 6.8C427.109 6.8 427.119 6.8 427.128 6.8C427.138 6.8 427.147 6.8 427.156 6.8C427.166 6.8 427.175 6.8 427.184 6.8C427.194 6.8 427.203 6.8 427.213 6.8C427.222 6.8 427.231 6.8 427.241 6.8C427.25 6.8 427.259 6.8 427.269 6.8C427.278 6.8 427.288 6.8 427.297 6.8C427.306 6.8 427.316 6.8 427.325 6.8C427.334 6.8 427.344 6.8 427.353 6.8C427.363 6.8 427.372 6.8 427.381 6.8C427.391 6.8 427.4 6.8 427.409 6.8C427.419 6.8 427.428 6.8 427.438 6.8C427.447 6.8 427.456 6.8 427.466 6.8C427.475 6.8 427.484 6.8 427.494 6.8C427.503 6.8 427.513 6.8 427.522 6.8C427.531 6.8 427.541 6.8 427.55 6.8C427.559 6.8 427.569 6.8 427.578 6.8C427.588 6.8 427.597 6.8 427.606 6.8C427.616 6.8 427.625 6.8 427.634 6.8C427.644 6.8 427.653 6.8 427.663 6.8C427.672 6.8 427.681 6.8 427.691 6.8C427.7 6.8 427.709 6.8 427.719 6.8C427.728 6.8 427.738 6.8 427.747 6.8C427.756 6.8 427.766 6.8 427.775 6.8C427.784 6.8 427.794 6.8 427.803 6.8C427.813 6.8 427.822 6.8 427.831 6.8C427.841 6.8 427.85 6.8 427.859 6.8C427.869 6.8 427.878 6.8 427.888 6.8C427.897 6.8 427.906 6.8 427.916 6.8C427.925 6.8 427.934 6.8 427.944 6.8C427.953 6.8 427.963 6.8 427.972 6.8C427.981 6.8 427.991 6.8 428 6.8C428.009 6.8 428.019 6.8 428.028 6.8C428.038 6.8 428.047 6.8 428.056 6.8C428.066 6.8 428.075 6.8 428.084 6.8C428.094 6.8 428.103 6.8 428.113 6.8C428.122 6.8 428.131 6.8 428.141 6.8C428.15 6.8 428.159 6.8 428.169 6.8C428.178 6.8 428.188 6.8 428.197 6.8C428.206 6.8 428.216 6.8 428.225 6.8C428.234 6.8 428.244 6.8 428.253 6.8C428.263 6.8 428.272 6.8 428.281 6.8C428.291 6.8 428.3 6.8 428.309 6.8C428.319 6.8 428.328 6.8 428.338 6.8C428.347 6.8 428.356 6.8 428.366 6.8C428.375 6.8 428.384 6.8 428.394 6.8C428.403 6.8 428.413 6.8 428.422 6.8C428.431 6.8 428.441 6.8 428.45 6.8C428.459 6.8 428.469 6.8 428.478 6.8C428.488 6.8 428.497 6.8 428.506 6.8C428.516 6.8 428.525 6.8 428.534 6.8C428.544 6.8 428.553 6.8 428.563 6.8C428.572 6.8 428.581 6.8 428.591 6.8C428.6 6.8 428.609 6.8 428.619 6.8C428.628 6.8 428.638 6.8 428.647 6.8C428.656 6.8 428.666 6.8 428.675 6.8C428.684 6.8 428.694 6.8 428.703 6.8C428.713 6.8 428.722 6.8 428.731 6.8C428.741 6.8 428.75 6.8 428.759 6.8C428.769 6.8 428.778 6.8 428.788 6.8C428.797 6.8 428.806 6.8 428.816 6.8C428.825 6.8 428.834 6.8 428.844 6.8C428.853 6.8 428.863 6.8 428.872 6.8C428.881 6.8 428.891 6.8 428.9 6.8C428.909 6.8 428.919 6.8 428.928 6.8C428.938 6.8 428.947 6.8 428.956 6.8C428.966 6.8 428.975 6.8 428.984 6.8C428.994 6.8 429.003 6.8 429.013 6.8C429.022 6.8 429.031 6.8 429.041 6.8C429.05 6.8 429.059 6.8 429.069 6.8C429.078 6.8 429.088 6.8 429.097 6.8C429.106 6.8 429.116 6.8 429.125 6.8C429.134 6.8 429.144 6.8 429.153 6.8C429.163 6.8 429.172 6.8 429.181 6.8C429.191 6.8 429.2 6.8 429.209 6.8C429.219 6.8 429.228 6.8 429.238 6.8C429.247 6.8 429.256 6.8 429.266 6.8C429.275 6.8 429.284 6.8 429.294 6.8C429.303 6.8 429.313 6.8 429.322 6.8C429.331 6.8 429.341 6.8 429.35 6.8C429.359 6.8 429.369 6.8 429.378 6.8C429.388 6.8 429.397 6.8 429.406 6.8C429.416 6.8 429.425 6.8 429.434 6.8C429.444 6.8 429.453 6.8 429.463 6.8C429.472 6.8 429.481 6.8 429.491 6.8C429.5 6.8 429.509 6.8 429.519 6.8C429.528 6.8 429.538 6.8 429.547 6.8C429.556 6.8 429.566 6.8 429.575 6.8C429.584 6.8 429.594 6.8 429.603 6.8C429.613 6.8 429.622 6.8 429.631 6.8C429.641 6.8 429.65 6.8 429.659 6.8C429.669 6.8 429.678 6.8 429.688 6.8C429.697 6.8 429.706 6.8 429.716 6.8C429.725 6.8 429.734 6.8 429.744 6.8C429.753 6.8 429.763 6.8 429.772 6.8C429.781 6.8 429.791 6.8 429.8 6.8C429.809 6.8 429.819 6.8 429.828 6.8C429.838 6.8 429.847 6.8 429.856 6.8C429.866 6.8 429.875 6.8 429.884 6.8C429.894 6.8 429.903 6.8 429.913 6.8C429.922 6.8 429.931 6.8 429.941 6.8C429.95 6.8 429.959 6.8 429.969 6.8C429.978 6.8 429.988 6.8 429.997 6.8C430.006 6.8 430.016 6.8 430.025 6.8C430.034 6.8 430.044 6.8 430.053 6.8C430.063 6.8 430.072 6.8 430.081 6.8C430.091 6.8 430.1 6.8 430.109 6.8C430.119 6.8 430.128 6.8 430.138 6.8C430.147 6.8 430.156 6.8 430.166 6.8C430.175 6.8 430.184 6.8 430.194 6.8C430.203 6.8 430.213 6.8 430.222 6.8C430.231 6.8 430.241 6.8 430.25 6.8C430.259 6.8 430.269 6.8 430.278 6.8C430.288 6.8 430.297 6.8 430.306 6.8C430.316 6.8 430.325 6.8 430.334 6.8C430.344 6.8 430.353 6.8 430.363 6.8C430.372 6.8 430.381 6.8 430.391 6.8C430.4 6.8 430.409 6.8 430.419 6.8C430.428 6.8 430.438 6.8 430.447 6.8C430.456 6.8 430.466 6.8 430.475 6.8C430.484 6.8 430.494 6.8 430.503 6.8C430.513 6.8 430.522 6.8 430.531 6.8C430.541 6.8 430.55 6.8 430.559 6.8C430.569 6.8 430.578 6.8 430.588 6.8C430.597 6.8 430.606 6.8 430.616 6.8C430.625 6.8 430.634 6.8 430.644 6.8C430.653 6.8 430.663 6.8 430.672 6.8C430.681 6.8 430.691 6.8 430.7 6.8C430.709 6.8 430.719 6.8 430.728 6.8C430.738 6.8 430.747 6.8 430.756 6.8C430.766 6.8 430.775 6.8 430.784 6.8C430.794 6.8 430.803 6.8 430.813 6.8C430.822 6.8 430.831 6.8 430.841 6.8C430.85 6.8 430.859 6.8 430.869 6.8C430.878 6.8 430.888 6.8 430.897 6.8C430.906 6.8 430.916 6.8 430.925 6.8C430.934 6.8 430.944 6.8 430.953 6.8C430.963 6.8 430.972 6.8 430.981 6.8C430.991 6.8 431 6.8 431.009 6.8C431.019 6.8 431.028 6.8 431.038 6.8C431.047 6.8 431.056 6.8 431.066 6.8C431.075 6.8 431.084 6.8 431.094 6.8C431.103 6.8 431.113 6.8 431.122 6.8C431.131 6.8 431.141 6.8 431.15 6.8C431.159 6.8 431.169 6.8 431.178 6.8C431.188 6.8 431.197 6.8 431.206 6.8C431.216 6.8 431.225 6.8 431.234 6.8C431.244 6.8 431.253 6.8 431.263 6.8C431.272 6.8 431.281 6.8 431.291 6.8C431.3 6.8 431.309 6.8 431.319 6.8C431.328 6.8 431.338 6.8 431.347 6.8C431.356 6.8 431.366 6.8 431.375 6.8C431.384 6.8 431.394 6.8 431.403 6.8C431.413 6.8 431.422 6.8 431.431 6.8C431.441 6.8 431.45 6.8 431.459 6.8C431.469 6.8 431.478 6.8 431.488 6.8C431.497 6.8 431.506 6.8 431.516 6.8C431.525 6.8 431.534 6.8 431.544 6.8C431.553 6.8 431.563 6.8 431.572 6.8C431.581 6.8 431.591 6.8 431.6 6.8C431.609 6.8 431.619 6.8 431.628 6.8C431.638 6.8 431.647 6.8 431.656 6.8C431.666 6.8 431.675 6.8 431.684 6.8C431.694 6.8 431.703 6.8 431.713 6.8C431.722 6.8 431.731 6.8 431.741 6.8C431.75 6.8 431.759 6.8 431.769 6.8C431.778 6.8 431.788 6.8 431.797 6.8C431.806 6.8 431.816 6.8 431.825 6.8C431.834 6.8 431.844 6.8 431.853 6.8C431.863 6.8 431.872 6.8 431.881 6.8C431.891 6.8 431.9 6.8 431.909 6.8C431.919 6.8 431.928 6.8 431.938 6.8C431.947 6.8 431.956 6.8 431.966 6.8C431.975 6.8 431.984 6.8 431.994 6.8C432.003 6.8 432.013 6.8 432.022 6.8C432.031 6.8 432.041 6.8 432.05 6.8C432.059 6.8 432.069 6.8 432.078 6.8C432.088 6.8 432.097 6.8 432.106 6.8C432.116 6.8 432.125 6.8 432.134 6.8C432.144 6.8 432.153 6.8 432.163 6.8C432.172 6.8 432.181 6.8 432.191 6.8C432.2 6.8 432.209 6.8 432.219 6.8C432.228 6.8 432.238 6.8 432.247 6.8C432.256 6.8 432.266 6.8 432.275 6.8C432.284 6.8 432.294 6.8 432.303 6.8C432.313 6.8 432.322 6.8 432.331 6.8C432.341 6.8 432.35 6.8 432.359 6.8C432.369 6.8 432.378 6.8 432.388 6.8C432.397 6.8 432.406 6.8 432.416 6.8C432.425 6.8 432.434 6.8 432.444 6.8C432.453 6.8 432.463 6.8 432.472 6.8C432.481 6.8 432.491 6.8 432.5 6.8C432.509 6.8 432.519 6.8 432.528 6.8C432.538 6.8 432.547 6.8 432.556 6.8C432.566 6.8 432.575 6.8 432.584 6.8C432.594 6.8 432.603 6.8 432.613 6.8C432.622 6.8 432.631 6.8 432.641 6.8C432.65 6.8 432.659 6.8 432.669 6.8C432.678 6.8 432.688 6.8 432.697 6.8C432.706 6.8 432.716 6.8 432.725 6.8C432.734 6.8 432.744 6.8 432.753 6.8C432.763 6.8 432.772 6.8 432.781 6.8C432.791 6.8 432.8 6.8 432.809 6.8C432.819 6.8 432.828 6.8 432.838 6.8C432.847 6.8 432.856 6.8 432.866 6.8C432.875 6.8 432.884 6.8 432.894 6.8C432.903 6.8 432.913 6.8 432.922 6.8C432.931 6.8 432.941 6.8 432.95 6.8C432.959 6.8 432.969 6.8 432.978 6.8C432.988 6.8 432.997 6.8 433.006 6.8C433.016 6.8 433.025 6.8 433.034 6.8C433.044 6.8 433.053 6.8 433.063 6.8C433.072 6.8 433.081 6.8 433.091 6.8C433.1 6.8 433.109 6.8 433.119 6.8C433.128 6.8 433.138 6.8 433.147 6.8C433.156 6.8 433.166 6.8 433.175 6.8C433.184 6.8 433.194 6.8 433.203 6.8C433.213 6.8 433.222 6.8 433.231 6.8C433.241 6.8 433.25 6.8 433.259 6.8C433.269 6.8 433.278 6.8 433.288 6.8C433.297 6.8 433.306 6.8 433.316 6.8C433.325 6.8 433.334 6.8 433.344 6.8C433.353 6.8 433.363 6.8 433.372 6.8C433.381 6.8 433.391 6.8 433.4 6.8C433.409 6.8 433.419 6.8 433.428 6.8C433.438 6.8 433.447 6.8 433.456 6.8C433.466 6.8 433.475 6.8 433.484 6.8C433.494 6.8 433.503 6.8 433.513 6.8C433.522 6.8 433.531 6.8 433.541 6.8C433.55 6.8 433.559 6.8 433.569 6.8C433.578 6.8 433.588 6.8 433.597 6.8C433.606 6.8 433.616 6.8 433.625 6.8C433.634 6.8 433.644 6.8 433.653 6.8C433.663 6.8 433.672 6.8 433.681 6.8C433.691 6.8 433.7 6.8 433.709 6.8C433.719 6.8 433.728 6.8 433.738 6.8C433.747 6.8 433.756 6.8 433.766 6.8C433.775 6.8 433.784 6.8 433.794 6.8C433.803 6.8 433.813 6.8 433.822 6.8C433.831 6.8 433.841 6.8 433.85 6.8C433.859 6.8 433.869 6.8 433.878 6.8C433.888 6.8 433.897 6.8 433.906 6.8C433.916 6.8 433.925 6.8 433.934 6.8C433.944 6.8 433.953 6.8 433.963 6.8C433.972 6.8 433.981 6.8 433.991 6.8C434 6.8 434.009 6.8 434.019 6.8C434.028 6.8 434.038 6.8 434.047 6.8C434.056 6.8 434.066 6.8 434.075 6.8C434.084 6.8 434.094 6.8 434.103 6.8C434.113 6.8 434.122 6.8 434.131 6.8C434.141 6.8 434.15 6.8 434.159 6.8C434.169 6.8 434.178 6.8 434.188 6.8C434.197 6.8 434.206 6.8 434.216 6.8C434.225 6.8 434.234 6.8 434.244 6.8C434.253 6.8 434.263 6.8 434.272 6.8C434.281 6.8 434.291 6.8 434.3 6.8C434.309 6.8 434.319 6.8 434.328 6.8C434.338 6.8 434.347 6.8 434.356 6.8C434.366 6.8 434.375 6.8 434.384 6.8C434.394 6.8 434.403 6.8 434.413 6.8C434.422 6.8 434.431 6.8 434.441 6.8C434.45 6.8 434.459 6.8 434.469 6.8C434.478 6.8 434.488 6.8 434.497 6.8V-5.20001C434.488 -5.20001 434.478 -5.20001 434.469 -5.20001C434.459 -5.20001 434.45 -5.20001 434.441 -5.20001C434.431 -5.20001 434.422 -5.20001 434.413 -5.20001C434.403 -5.20001 434.394 -5.20001 434.384 -5.20001C434.375 -5.20001 434.366 -5.20001 434.356 -5.20001C434.347 -5.20001 434.338 -5.20001 434.328 -5.20001C434.319 -5.20001 434.309 -5.20001 434.3 -5.20001C434.291 -5.20001 434.281 -5.20001 434.272 -5.20001C434.263 -5.20001 434.253 -5.20001 434.244 -5.20001C434.234 -5.20001 434.225 -5.20001 434.216 -5.20001C434.206 -5.20001 434.197 -5.20001 434.188 -5.20001C434.178 -5.20001 434.169 -5.20001 434.159 -5.20001C434.15 -5.20001 434.141 -5.20001 434.131 -5.20001C434.122 -5.20001 434.113 -5.20001 434.103 -5.20001C434.094 -5.20001 434.084 -5.20001 434.075 -5.20001C434.066 -5.20001 434.056 -5.20001 434.047 -5.20001C434.038 -5.20001 434.028 -5.20001 434.019 -5.20001C434.009 -5.20001 434 -5.20001 433.991 -5.20001C433.981 -5.20001 433.972 -5.20001 433.963 -5.20001C433.953 -5.20001 433.944 -5.20001 433.934 -5.20001C433.925 -5.20001 433.916 -5.20001 433.906 -5.20001C433.897 -5.20001 433.888 -5.20001 433.878 -5.20001C433.869 -5.20001 433.859 -5.20001 433.85 -5.20001C433.841 -5.20001 433.831 -5.20001 433.822 -5.20001C433.813 -5.20001 433.803 -5.20001 433.794 -5.20001C433.784 -5.20001 433.775 -5.20001 433.766 -5.20001C433.756 -5.20001 433.747 -5.20001 433.738 -5.20001C433.728 -5.20001 433.719 -5.20001 433.709 -5.20001C433.7 -5.20001 433.691 -5.20001 433.681 -5.20001C433.672 -5.20001 433.663 -5.20001 433.653 -5.20001C433.644 -5.20001 433.634 -5.20001 433.625 -5.20001C433.616 -5.20001 433.606 -5.20001 433.597 -5.20001C433.588 -5.20001 433.578 -5.20001 433.569 -5.20001C433.559 -5.20001 433.55 -5.20001 433.541 -5.20001C433.531 -5.20001 433.522 -5.20001 433.513 -5.20001C433.503 -5.20001 433.494 -5.20001 433.484 -5.20001C433.475 -5.20001 433.466 -5.20001 433.456 -5.20001C433.447 -5.20001 433.438 -5.20001 433.428 -5.20001C433.419 -5.20001 433.409 -5.20001 433.4 -5.20001C433.391 -5.20001 433.381 -5.20001 433.372 -5.20001C433.363 -5.20001 433.353 -5.20001 433.344 -5.20001C433.334 -5.20001 433.325 -5.20001 433.316 -5.20001C433.306 -5.20001 433.297 -5.20001 433.288 -5.20001C433.278 -5.20001 433.269 -5.20001 433.259 -5.20001C433.25 -5.20001 433.241 -5.20001 433.231 -5.20001C433.222 -5.20001 433.213 -5.20001 433.203 -5.20001C433.194 -5.20001 433.184 -5.20001 433.175 -5.20001C433.166 -5.20001 433.156 -5.20001 433.147 -5.20001C433.138 -5.20001 433.128 -5.20001 433.119 -5.20001C433.109 -5.20001 433.1 -5.20001 433.091 -5.20001C433.081 -5.20001 433.072 -5.20001 433.063 -5.20001C433.053 -5.20001 433.044 -5.20001 433.034 -5.20001C433.025 -5.20001 433.016 -5.20001 433.006 -5.20001C432.997 -5.20001 432.988 -5.20001 432.978 -5.20001C432.969 -5.20001 432.959 -5.20001 432.95 -5.20001C432.941 -5.20001 432.931 -5.20001 432.922 -5.20001C432.913 -5.20001 432.903 -5.20001 432.894 -5.20001C432.884 -5.20001 432.875 -5.20001 432.866 -5.20001C432.856 -5.20001 432.847 -5.20001 432.838 -5.20001C432.828 -5.20001 432.819 -5.20001 432.809 -5.20001C432.8 -5.20001 432.791 -5.20001 432.781 -5.20001C432.772 -5.20001 432.763 -5.20001 432.753 -5.20001C432.744 -5.20001 432.734 -5.20001 432.725 -5.20001C432.716 -5.20001 432.706 -5.20001 432.697 -5.20001C432.688 -5.20001 432.678 -5.20001 432.669 -5.20001C432.659 -5.20001 432.65 -5.20001 432.641 -5.20001C432.631 -5.20001 432.622 -5.20001 432.613 -5.20001C432.603 -5.20001 432.594 -5.20001 432.584 -5.20001C432.575 -5.20001 432.566 -5.20001 432.556 -5.20001C432.547 -5.20001 432.538 -5.20001 432.528 -5.20001C432.519 -5.20001 432.509 -5.20001 432.5 -5.20001C432.491 -5.20001 432.481 -5.20001 432.472 -5.20001C432.463 -5.20001 432.453 -5.20001 432.444 -5.20001C432.434 -5.20001 432.425 -5.20001 432.416 -5.20001C432.406 -5.20001 432.397 -5.20001 432.388 -5.20001C432.378 -5.20001 432.369 -5.20001 432.359 -5.20001C432.35 -5.20001 432.341 -5.20001 432.331 -5.20001C432.322 -5.20001 432.313 -5.20001 432.303 -5.20001C432.294 -5.20001 432.284 -5.20001 432.275 -5.20001C432.266 -5.20001 432.256 -5.20001 432.247 -5.20001C432.238 -5.20001 432.228 -5.20001 432.219 -5.20001C432.209 -5.20001 432.2 -5.20001 432.191 -5.20001C432.181 -5.20001 432.172 -5.20001 432.163 -5.20001C432.153 -5.20001 432.144 -5.20001 432.134 -5.20001C432.125 -5.20001 432.116 -5.20001 432.106 -5.20001C432.097 -5.20001 432.088 -5.20001 432.078 -5.20001C432.069 -5.20001 432.059 -5.20001 432.05 -5.20001C432.041 -5.20001 432.031 -5.20001 432.022 -5.20001C432.013 -5.20001 432.003 -5.20001 431.994 -5.20001C431.984 -5.20001 431.975 -5.20001 431.966 -5.20001C431.956 -5.20001 431.947 -5.20001 431.938 -5.20001C431.928 -5.20001 431.919 -5.20001 431.909 -5.20001C431.9 -5.20001 431.891 -5.20001 431.881 -5.20001C431.872 -5.20001 431.863 -5.20001 431.853 -5.20001C431.844 -5.20001 431.834 -5.20001 431.825 -5.20001C431.816 -5.20001 431.806 -5.20001 431.797 -5.20001C431.788 -5.20001 431.778 -5.20001 431.769 -5.20001C431.759 -5.20001 431.75 -5.20001 431.741 -5.20001C431.731 -5.20001 431.722 -5.20001 431.713 -5.20001C431.703 -5.20001 431.694 -5.20001 431.684 -5.20001C431.675 -5.20001 431.666 -5.20001 431.656 -5.20001C431.647 -5.20001 431.638 -5.20001 431.628 -5.20001C431.619 -5.20001 431.609 -5.20001 431.6 -5.20001C431.591 -5.20001 431.581 -5.20001 431.572 -5.20001C431.563 -5.20001 431.553 -5.20001 431.544 -5.20001C431.534 -5.20001 431.525 -5.20001 431.516 -5.20001C431.506 -5.20001 431.497 -5.20001 431.488 -5.20001C431.478 -5.20001 431.469 -5.20001 431.459 -5.20001C431.45 -5.20001 431.441 -5.20001 431.431 -5.20001C431.422 -5.20001 431.413 -5.20001 431.403 -5.20001C431.394 -5.20001 431.384 -5.20001 431.375 -5.20001C431.366 -5.20001 431.356 -5.20001 431.347 -5.20001C431.338 -5.20001 431.328 -5.20001 431.319 -5.20001C431.309 -5.20001 431.3 -5.20001 431.291 -5.20001C431.281 -5.20001 431.272 -5.20001 431.263 -5.20001C431.253 -5.20001 431.244 -5.20001 431.234 -5.20001C431.225 -5.20001 431.216 -5.20001 431.206 -5.20001C431.197 -5.20001 431.188 -5.20001 431.178 -5.20001C431.169 -5.20001 431.159 -5.20001 431.15 -5.20001C431.141 -5.20001 431.131 -5.20001 431.122 -5.20001C431.113 -5.20001 431.103 -5.20001 431.094 -5.20001C431.084 -5.20001 431.075 -5.20001 431.066 -5.20001C431.056 -5.20001 431.047 -5.20001 431.038 -5.20001C431.028 -5.20001 431.019 -5.20001 431.009 -5.20001C431 -5.20001 430.991 -5.20001 430.981 -5.20001C430.972 -5.20001 430.963 -5.20001 430.953 -5.20001C430.944 -5.20001 430.934 -5.20001 430.925 -5.20001C430.916 -5.20001 430.906 -5.20001 430.897 -5.20001C430.888 -5.20001 430.878 -5.20001 430.869 -5.20001C430.859 -5.20001 430.85 -5.20001 430.841 -5.20001C430.831 -5.20001 430.822 -5.20001 430.813 -5.20001C430.803 -5.20001 430.794 -5.20001 430.784 -5.20001C430.775 -5.20001 430.766 -5.20001 430.756 -5.20001C430.747 -5.20001 430.738 -5.20001 430.728 -5.20001C430.719 -5.20001 430.709 -5.20001 430.7 -5.20001C430.691 -5.20001 430.681 -5.20001 430.672 -5.20001C430.663 -5.20001 430.653 -5.20001 430.644 -5.20001C430.634 -5.20001 430.625 -5.20001 430.616 -5.20001C430.606 -5.20001 430.597 -5.20001 430.588 -5.20001C430.578 -5.20001 430.569 -5.20001 430.559 -5.20001C430.55 -5.20001 430.541 -5.20001 430.531 -5.20001C430.522 -5.20001 430.513 -5.20001 430.503 -5.20001C430.494 -5.20001 430.484 -5.20001 430.475 -5.20001C430.466 -5.20001 430.456 -5.20001 430.447 -5.20001C430.438 -5.20001 430.428 -5.20001 430.419 -5.20001C430.409 -5.20001 430.4 -5.20001 430.391 -5.20001C430.381 -5.20001 430.372 -5.20001 430.363 -5.20001C430.353 -5.20001 430.344 -5.20001 430.334 -5.20001C430.325 -5.20001 430.316 -5.20001 430.306 -5.20001C430.297 -5.20001 430.288 -5.20001 430.278 -5.20001C430.269 -5.20001 430.259 -5.20001 430.25 -5.20001C430.241 -5.20001 430.231 -5.20001 430.222 -5.20001C430.213 -5.20001 430.203 -5.20001 430.194 -5.20001C430.184 -5.20001 430.175 -5.20001 430.166 -5.20001C430.156 -5.20001 430.147 -5.20001 430.138 -5.20001C430.128 -5.20001 430.119 -5.20001 430.109 -5.20001C430.1 -5.20001 430.091 -5.20001 430.081 -5.20001C430.072 -5.20001 430.063 -5.20001 430.053 -5.20001C430.044 -5.20001 430.034 -5.20001 430.025 -5.20001C430.016 -5.20001 430.006 -5.20001 429.997 -5.20001C429.988 -5.20001 429.978 -5.20001 429.969 -5.20001C429.959 -5.20001 429.95 -5.20001 429.941 -5.20001C429.931 -5.20001 429.922 -5.20001 429.913 -5.20001C429.903 -5.20001 429.894 -5.20001 429.884 -5.20001C429.875 -5.20001 429.866 -5.20001 429.856 -5.20001C429.847 -5.20001 429.838 -5.20001 429.828 -5.20001C429.819 -5.20001 429.809 -5.20001 429.8 -5.20001C429.791 -5.20001 429.781 -5.20001 429.772 -5.20001C429.763 -5.20001 429.753 -5.20001 429.744 -5.20001C429.734 -5.20001 429.725 -5.20001 429.716 -5.20001C429.706 -5.20001 429.697 -5.20001 429.688 -5.20001C429.678 -5.20001 429.669 -5.20001 429.659 -5.20001C429.65 -5.20001 429.641 -5.20001 429.631 -5.20001C429.622 -5.20001 429.613 -5.20001 429.603 -5.20001C429.594 -5.20001 429.584 -5.20001 429.575 -5.20001C429.566 -5.20001 429.556 -5.20001 429.547 -5.20001C429.538 -5.20001 429.528 -5.20001 429.519 -5.20001C429.509 -5.20001 429.5 -5.20001 429.491 -5.20001C429.481 -5.20001 429.472 -5.20001 429.463 -5.20001C429.453 -5.20001 429.444 -5.20001 429.434 -5.20001C429.425 -5.20001 429.416 -5.20001 429.406 -5.20001C429.397 -5.20001 429.388 -5.20001 429.378 -5.20001C429.369 -5.20001 429.359 -5.20001 429.35 -5.20001C429.341 -5.20001 429.331 -5.20001 429.322 -5.20001C429.313 -5.20001 429.303 -5.20001 429.294 -5.20001C429.284 -5.20001 429.275 -5.20001 429.266 -5.20001C429.256 -5.20001 429.247 -5.20001 429.238 -5.20001C429.228 -5.20001 429.219 -5.20001 429.209 -5.20001C429.2 -5.20001 429.191 -5.20001 429.181 -5.20001C429.172 -5.20001 429.163 -5.20001 429.153 -5.20001C429.144 -5.20001 429.134 -5.20001 429.125 -5.20001C429.116 -5.20001 429.106 -5.20001 429.097 -5.20001C429.088 -5.20001 429.078 -5.20001 429.069 -5.20001C429.059 -5.20001 429.05 -5.20001 429.041 -5.20001C429.031 -5.20001 429.022 -5.20001 429.013 -5.20001C429.003 -5.20001 428.994 -5.20001 428.984 -5.20001C428.975 -5.20001 428.966 -5.20001 428.956 -5.20001C428.947 -5.20001 428.938 -5.20001 428.928 -5.20001C428.919 -5.20001 428.909 -5.20001 428.9 -5.20001C428.891 -5.20001 428.881 -5.20001 428.872 -5.20001C428.863 -5.20001 428.853 -5.20001 428.844 -5.20001C428.834 -5.20001 428.825 -5.20001 428.816 -5.20001C428.806 -5.20001 428.797 -5.20001 428.788 -5.20001C428.778 -5.20001 428.769 -5.20001 428.759 -5.20001C428.75 -5.20001 428.741 -5.20001 428.731 -5.20001C428.722 -5.20001 428.713 -5.20001 428.703 -5.20001C428.694 -5.20001 428.684 -5.20001 428.675 -5.20001C428.666 -5.20001 428.656 -5.20001 428.647 -5.20001C428.638 -5.20001 428.628 -5.20001 428.619 -5.20001C428.609 -5.20001 428.6 -5.20001 428.591 -5.20001C428.581 -5.20001 428.572 -5.20001 428.563 -5.20001C428.553 -5.20001 428.544 -5.20001 428.534 -5.20001C428.525 -5.20001 428.516 -5.20001 428.506 -5.20001C428.497 -5.20001 428.488 -5.20001 428.478 -5.20001C428.469 -5.20001 428.459 -5.20001 428.45 -5.20001C428.441 -5.20001 428.431 -5.20001 428.422 -5.20001C428.413 -5.20001 428.403 -5.20001 428.394 -5.20001C428.384 -5.20001 428.375 -5.20001 428.366 -5.20001C428.356 -5.20001 428.347 -5.20001 428.338 -5.20001C428.328 -5.20001 428.319 -5.20001 428.309 -5.20001C428.3 -5.20001 428.291 -5.20001 428.281 -5.20001C428.272 -5.20001 428.263 -5.20001 428.253 -5.20001C428.244 -5.20001 428.234 -5.20001 428.225 -5.20001C428.216 -5.20001 428.206 -5.20001 428.197 -5.20001C428.188 -5.20001 428.178 -5.20001 428.169 -5.20001C428.159 -5.20001 428.15 -5.20001 428.141 -5.20001C428.131 -5.20001 428.122 -5.20001 428.113 -5.20001C428.103 -5.20001 428.094 -5.20001 428.084 -5.20001C428.075 -5.20001 428.066 -5.20001 428.056 -5.20001C428.047 -5.20001 428.038 -5.20001 428.028 -5.20001C428.019 -5.20001 428.009 -5.20001 428 -5.20001C427.991 -5.20001 427.981 -5.20001 427.972 -5.20001C427.963 -5.20001 427.953 -5.20001 427.944 -5.20001C427.934 -5.20001 427.925 -5.20001 427.916 -5.20001C427.906 -5.20001 427.897 -5.20001 427.888 -5.20001C427.878 -5.20001 427.869 -5.20001 427.859 -5.20001C427.85 -5.20001 427.841 -5.20001 427.831 -5.20001C427.822 -5.20001 427.813 -5.20001 427.803 -5.20001C427.794 -5.20001 427.784 -5.20001 427.775 -5.20001C427.766 -5.20001 427.756 -5.20001 427.747 -5.20001C427.738 -5.20001 427.728 -5.20001 427.719 -5.20001C427.709 -5.20001 427.7 -5.20001 427.691 -5.20001C427.681 -5.20001 427.672 -5.20001 427.663 -5.20001C427.653 -5.20001 427.644 -5.20001 427.634 -5.20001C427.625 -5.20001 427.616 -5.20001 427.606 -5.20001C427.597 -5.20001 427.588 -5.20001 427.578 -5.20001C427.569 -5.20001 427.559 -5.20001 427.55 -5.20001C427.541 -5.20001 427.531 -5.20001 427.522 -5.20001C427.513 -5.20001 427.503 -5.20001 427.494 -5.20001C427.484 -5.20001 427.475 -5.20001 427.466 -5.20001C427.456 -5.20001 427.447 -5.20001 427.438 -5.20001C427.428 -5.20001 427.419 -5.20001 427.409 -5.20001C427.4 -5.20001 427.391 -5.20001 427.381 -5.20001C427.372 -5.20001 427.363 -5.20001 427.353 -5.20001C427.344 -5.20001 427.334 -5.20001 427.325 -5.20001C427.316 -5.20001 427.306 -5.20001 427.297 -5.20001C427.288 -5.20001 427.278 -5.20001 427.269 -5.20001C427.259 -5.20001 427.25 -5.20001 427.241 -5.20001C427.231 -5.20001 427.222 -5.20001 427.213 -5.20001C427.203 -5.20001 427.194 -5.20001 427.184 -5.20001C427.175 -5.20001 427.166 -5.20001 427.156 -5.20001C427.147 -5.20001 427.138 -5.20001 427.128 -5.20001C427.119 -5.20001 427.109 -5.20001 427.1 -5.20001C427.091 -5.20001 427.081 -5.20001 427.072 -5.20001C427.063 -5.20001 427.053 -5.20001 427.044 -5.20001C427.034 -5.20001 427.025 -5.20001 427.016 -5.20001C427.006 -5.20001 426.997 -5.20001 426.988 -5.20001C426.978 -5.20001 426.969 -5.20001 426.959 -5.20001C426.95 -5.20001 426.941 -5.20001 426.931 -5.20001C426.922 -5.20001 426.913 -5.20001 426.903 -5.20001C426.894 -5.20001 426.884 -5.20001 426.875 -5.20001C426.866 -5.20001 426.856 -5.20001 426.847 -5.20001C426.838 -5.20001 426.828 -5.20001 426.819 -5.20001C426.809 -5.20001 426.8 -5.20001 426.791 -5.20001C426.781 -5.20001 426.772 -5.20001 426.763 -5.20001C426.753 -5.20001 426.744 -5.20001 426.734 -5.20001C426.725 -5.20001 426.716 -5.20001 426.706 -5.20001C426.697 -5.20001 426.688 -5.20001 426.678 -5.20001C426.669 -5.20001 426.659 -5.20001 426.65 -5.20001C426.641 -5.20001 426.631 -5.20001 426.622 -5.20001C426.613 -5.20001 426.603 -5.20001 426.594 -5.20001C426.584 -5.20001 426.575 -5.20001 426.566 -5.20001C426.556 -5.20001 426.547 -5.20001 426.538 -5.20001C426.528 -5.20001 426.519 -5.20001 426.509 -5.20001C426.5 -5.20001 426.491 -5.20001 426.481 -5.20001C426.472 -5.20001 426.463 -5.20001 426.453 -5.20001C426.444 -5.20001 426.434 -5.20001 426.425 -5.20001C426.416 -5.20001 426.406 -5.20001 426.397 -5.20001C426.388 -5.20001 426.378 -5.20001 426.369 -5.20001C426.359 -5.20001 426.35 -5.20001 426.341 -5.20001C426.331 -5.20001 426.322 -5.20001 426.313 -5.20001C426.303 -5.20001 426.294 -5.20001 426.284 -5.20001C426.275 -5.20001 426.266 -5.20001 426.256 -5.20001C426.247 -5.20001 426.238 -5.20001 426.228 -5.20001C426.219 -5.20001 426.209 -5.20001 426.2 -5.20001C426.191 -5.20001 426.181 -5.20001 426.172 -5.20001C426.163 -5.20001 426.153 -5.20001 426.144 -5.20001C426.134 -5.20001 426.125 -5.20001 426.116 -5.20001C426.106 -5.20001 426.097 -5.20001 426.088 -5.20001C426.078 -5.20001 426.069 -5.20001 426.059 -5.20001C426.05 -5.20001 426.041 -5.20001 426.031 -5.20001C426.022 -5.20001 426.013 -5.20001 426.003 -5.20001C425.994 -5.20001 425.984 -5.20001 425.975 -5.20001C425.966 -5.20001 425.956 -5.20001 425.947 -5.20001C425.938 -5.20001 425.928 -5.20001 425.919 -5.20001C425.909 -5.20001 425.9 -5.20001 425.891 -5.20001C425.881 -5.20001 425.872 -5.20001 425.863 -5.20001C425.853 -5.20001 425.844 -5.20001 425.834 -5.20001C425.825 -5.20001 425.816 -5.20001 425.806 -5.20001C425.797 -5.20001 425.788 -5.20001 425.778 -5.20001C425.769 -5.20001 425.759 -5.20001 425.75 -5.20001C425.741 -5.20001 425.731 -5.20001 425.722 -5.20001C425.713 -5.20001 425.703 -5.20001 425.694 -5.20001C425.684 -5.20001 425.675 -5.20001 425.666 -5.20001C425.656 -5.20001 425.647 -5.20001 425.638 -5.20001C425.628 -5.20001 425.619 -5.20001 425.609 -5.20001C425.6 -5.20001 425.591 -5.20001 425.581 -5.20001C425.572 -5.20001 425.563 -5.20001 425.553 -5.20001C425.544 -5.20001 425.534 -5.20001 425.525 -5.20001C425.516 -5.20001 425.506 -5.20001 425.497 -5.20001C425.488 -5.20001 425.478 -5.20001 425.469 -5.20001C425.459 -5.20001 425.45 -5.20001 425.441 -5.20001C425.431 -5.20001 425.422 -5.20001 425.413 -5.20001C425.403 -5.20001 425.394 -5.20001 425.384 -5.20001C425.375 -5.20001 425.366 -5.20001 425.356 -5.20001C425.347 -5.20001 425.338 -5.20001 425.328 -5.20001C425.319 -5.20001 425.309 -5.20001 425.3 -5.20001C425.291 -5.20001 425.281 -5.20001 425.272 -5.20001C425.263 -5.20001 425.253 -5.20001 425.244 -5.20001C425.234 -5.20001 425.225 -5.20001 425.216 -5.20001C425.206 -5.20001 425.197 -5.20001 425.188 -5.20001C425.178 -5.20001 425.169 -5.20001 425.159 -5.20001C425.15 -5.20001 425.141 -5.20001 425.131 -5.20001C425.122 -5.20001 425.113 -5.20001 425.103 -5.20001C425.094 -5.20001 425.084 -5.20001 425.075 -5.20001C425.066 -5.20001 425.056 -5.20001 425.047 -5.20001C425.038 -5.20001 425.028 -5.20001 425.019 -5.20001C425.009 -5.20001 425 -5.20001 424.991 -5.20001C424.981 -5.20001 424.972 -5.20001 424.963 -5.20001C424.953 -5.20001 424.944 -5.20001 424.934 -5.20001C424.925 -5.20001 424.916 -5.20001 424.906 -5.20001C424.897 -5.20001 424.888 -5.20001 424.878 -5.20001C424.869 -5.20001 424.859 -5.20001 424.85 -5.20001C424.841 -5.20001 424.831 -5.20001 424.822 -5.20001C424.813 -5.20001 424.803 -5.20001 424.794 -5.20001C424.784 -5.20001 424.775 -5.20001 424.766 -5.20001C424.756 -5.20001 424.747 -5.20001 424.738 -5.20001C424.728 -5.20001 424.719 -5.20001 424.709 -5.20001C424.7 -5.20001 424.691 -5.20001 424.681 -5.20001C424.672 -5.20001 424.663 -5.20001 424.653 -5.20001C424.644 -5.20001 424.634 -5.20001 424.625 -5.20001C424.616 -5.20001 424.606 -5.20001 424.597 -5.20001C424.588 -5.20001 424.578 -5.20001 424.569 -5.20001C424.559 -5.20001 424.55 -5.20001 424.541 -5.20001C424.531 -5.20001 424.522 -5.20001 424.513 -5.20001C424.503 -5.20001 424.494 -5.20001 424.484 -5.20001C424.475 -5.20001 424.466 -5.20001 424.456 -5.20001C424.447 -5.20001 424.438 -5.20001 424.428 -5.20001C424.419 -5.20001 424.409 -5.20001 424.4 -5.20001C424.391 -5.20001 424.381 -5.20001 424.372 -5.20001C424.363 -5.20001 424.353 -5.20001 424.344 -5.20001C424.334 -5.20001 424.325 -5.20001 424.316 -5.20001C424.306 -5.20001 424.297 -5.20001 424.288 -5.20001C424.278 -5.20001 424.269 -5.20001 424.259 -5.20001C424.25 -5.20001 424.241 -5.20001 424.231 -5.20001C424.222 -5.20001 424.213 -5.20001 424.203 -5.20001C424.194 -5.20001 424.184 -5.20001 424.175 -5.20001C424.166 -5.20001 424.156 -5.20001 424.147 -5.20001C424.138 -5.20001 424.128 -5.20001 424.119 -5.20001C424.109 -5.20001 424.1 -5.20001 424.091 -5.20001C424.081 -5.20001 424.072 -5.20001 424.063 -5.20001C424.053 -5.20001 424.044 -5.20001 424.034 -5.20001C424.025 -5.20001 424.016 -5.20001 424.006 -5.20001C423.997 -5.20001 423.988 -5.20001 423.978 -5.20001C423.969 -5.20001 423.959 -5.20001 423.95 -5.20001C423.941 -5.20001 423.931 -5.20001 423.922 -5.20001C423.913 -5.20001 423.903 -5.20001 423.894 -5.20001C423.884 -5.20001 423.875 -5.20001 423.866 -5.20001C423.856 -5.20001 423.847 -5.20001 423.838 -5.20001C423.828 -5.20001 423.819 -5.20001 423.809 -5.20001C423.8 -5.20001 423.791 -5.20001 423.781 -5.20001C423.772 -5.20001 423.763 -5.20001 423.753 -5.20001C423.744 -5.20001 423.734 -5.20001 423.725 -5.20001C423.716 -5.20001 423.706 -5.20001 423.697 -5.20001C423.688 -5.20001 423.678 -5.20001 423.669 -5.20001C423.659 -5.20001 423.65 -5.20001 423.641 -5.20001C423.631 -5.20001 423.622 -5.20001 423.613 -5.20001C423.603 -5.20001 423.594 -5.20001 423.584 -5.20001C423.575 -5.20001 423.566 -5.20001 423.556 -5.20001C423.547 -5.20001 423.538 -5.20001 423.528 -5.20001C423.519 -5.20001 423.509 -5.20001 423.5 -5.20001C423.491 -5.20001 423.481 -5.20001 423.472 -5.20001C423.463 -5.20001 423.453 -5.20001 423.444 -5.20001C423.434 -5.20001 423.425 -5.20001 423.416 -5.20001C423.406 -5.20001 423.397 -5.20001 423.388 -5.20001C423.378 -5.20001 423.369 -5.20001 423.359 -5.20001C423.35 -5.20001 423.341 -5.20001 423.331 -5.20001C423.322 -5.20001 423.313 -5.20001 423.303 -5.20001C423.294 -5.20001 423.284 -5.20001 423.275 -5.20001C423.266 -5.20001 423.256 -5.20001 423.247 -5.20001C423.238 -5.20001 423.228 -5.20001 423.219 -5.20001C423.209 -5.20001 423.2 -5.20001 423.191 -5.20001C423.181 -5.20001 423.172 -5.20001 423.163 -5.20001C423.153 -5.20001 423.144 -5.20001 423.134 -5.20001C423.125 -5.20001 423.116 -5.20001 423.106 -5.20001C423.097 -5.20001 423.088 -5.20001 423.078 -5.20001C423.069 -5.20001 423.059 -5.20001 423.05 -5.20001C423.041 -5.20001 423.031 -5.20001 423.022 -5.20001C423.013 -5.20001 423.003 -5.20001 422.994 -5.20001C422.984 -5.20001 422.975 -5.20001 422.966 -5.20001C422.956 -5.20001 422.947 -5.20001 422.938 -5.20001C422.928 -5.20001 422.919 -5.20001 422.909 -5.20001C422.9 -5.20001 422.891 -5.20001 422.881 -5.20001C422.872 -5.20001 422.863 -5.20001 422.853 -5.20001C422.844 -5.20001 422.834 -5.20001 422.825 -5.20001C422.816 -5.20001 422.806 -5.20001 422.797 -5.20001C422.788 -5.20001 422.778 -5.20001 422.769 -5.20001C422.759 -5.20001 422.75 -5.20001 422.741 -5.20001C422.731 -5.20001 422.722 -5.20001 422.713 -5.20001C422.703 -5.20001 422.694 -5.20001 422.684 -5.20001C422.675 -5.20001 422.666 -5.20001 422.656 -5.20001C422.647 -5.20001 422.638 -5.20001 422.628 -5.20001C422.619 -5.20001 422.609 -5.20001 422.6 -5.20001C422.591 -5.20001 422.581 -5.20001 422.572 -5.20001C422.563 -5.20001 422.553 -5.20001 422.544 -5.20001C422.534 -5.20001 422.525 -5.20001 422.516 -5.20001C422.506 -5.20001 422.497 -5.20001 422.488 -5.20001C422.478 -5.20001 422.469 -5.20001 422.459 -5.20001C422.45 -5.20001 422.441 -5.20001 422.431 -5.20001C422.422 -5.20001 422.413 -5.20001 422.403 -5.20001C422.394 -5.20001 422.384 -5.20001 422.375 -5.20001C422.366 -5.20001 422.356 -5.20001 422.347 -5.20001C422.338 -5.20001 422.328 -5.20001 422.319 -5.20001C422.309 -5.20001 422.3 -5.20001 422.291 -5.20001C422.281 -5.20001 422.272 -5.20001 422.263 -5.20001C422.253 -5.20001 422.244 -5.20001 422.234 -5.20001C422.225 -5.20001 422.216 -5.20001 422.206 -5.20001C422.197 -5.20001 422.188 -5.20001 422.178 -5.20001C422.169 -5.20001 422.159 -5.20001 422.15 -5.20001C422.141 -5.20001 422.131 -5.20001 422.122 -5.20001C422.113 -5.20001 422.103 -5.20001 422.094 -5.20001C422.084 -5.20001 422.075 -5.20001 422.066 -5.20001C422.056 -5.20001 422.047 -5.20001 422.038 -5.20001C422.028 -5.20001 422.019 -5.20001 422.009 -5.20001C422 -5.20001 421.991 -5.20001 421.981 -5.20001C421.972 -5.20001 421.963 -5.20001 421.953 -5.20001C421.944 -5.20001 421.934 -5.20001 421.925 -5.20001C421.916 -5.20001 421.906 -5.20001 421.897 -5.20001C421.888 -5.20001 421.878 -5.20001 421.869 -5.20001C421.859 -5.20001 421.85 -5.20001 421.841 -5.20001C421.831 -5.20001 421.822 -5.20001 421.812 -5.20001C421.803 -5.20001 421.794 -5.20001 421.784 -5.20001C421.775 -5.20001 421.766 -5.20001 421.756 -5.20001C421.747 -5.20001 421.738 -5.20001 421.728 -5.20001C421.719 -5.20001 421.709 -5.20001 421.7 -5.20001C421.691 -5.20001 421.681 -5.20001 421.672 -5.20001C421.663 -5.20001 421.653 -5.20001 421.644 -5.20001C421.634 -5.20001 421.625 -5.20001 421.616 -5.20001C421.606 -5.20001 421.597 -5.20001 421.588 -5.20001C421.578 -5.20001 421.569 -5.20001 421.559 -5.20001C421.55 -5.20001 421.541 -5.20001 421.531 -5.20001C421.522 -5.20001 421.513 -5.20001 421.503 -5.20001C421.494 -5.20001 421.484 -5.20001 421.475 -5.20001C421.466 -5.20001 421.456 -5.20001 421.447 -5.20001C421.438 -5.20001 421.428 -5.20001 421.419 -5.20001C421.409 -5.20001 421.4 -5.20001 421.391 -5.20001C421.381 -5.20001 421.372 -5.20001 421.363 -5.20001C421.353 -5.20001 421.344 -5.20001 421.334 -5.20001C421.325 -5.20001 421.316 -5.20001 421.306 -5.20001C421.297 -5.20001 421.288 -5.20001 421.278 -5.20001C421.269 -5.20001 421.259 -5.20001 421.25 -5.20001C421.241 -5.20001 421.231 -5.20001 421.222 -5.20001C421.213 -5.20001 421.203 -5.20001 421.194 -5.20001C421.184 -5.20001 421.175 -5.20001 421.166 -5.20001C421.156 -5.20001 421.147 -5.20001 421.138 -5.20001C421.128 -5.20001 421.119 -5.20001 421.109 -5.20001C421.1 -5.20001 421.091 -5.20001 421.081 -5.20001C421.072 -5.20001 421.062 -5.20001 421.053 -5.20001C421.044 -5.20001 421.034 -5.20001 421.025 -5.20001C421.016 -5.20001 421.006 -5.20001 420.997 -5.20001C420.988 -5.20001 420.978 -5.20001 420.969 -5.20001C420.959 -5.20001 420.95 -5.20001 420.941 -5.20001C420.931 -5.20001 420.922 -5.20001 420.913 -5.20001C420.903 -5.20001 420.894 -5.20001 420.884 -5.20001C420.875 -5.20001 420.866 -5.20001 420.856 -5.20001C420.847 -5.20001 420.838 -5.20001 420.828 -5.20001C420.819 -5.20001 420.809 -5.20001 420.8 -5.20001C420.791 -5.20001 420.781 -5.20001 420.772 -5.20001C420.763 -5.20001 420.753 -5.20001 420.744 -5.20001C420.734 -5.20001 420.725 -5.20001 420.716 -5.20001C420.706 -5.20001 420.697 -5.20001 420.688 -5.20001C420.678 -5.20001 420.669 -5.20001 420.659 -5.20001C420.65 -5.20001 420.641 -5.20001 420.631 -5.20001C420.622 -5.20001 420.613 -5.20001 420.603 -5.20001C420.594 -5.20001 420.584 -5.20001 420.575 -5.20001C420.566 -5.20001 420.556 -5.20001 420.547 -5.20001C420.538 -5.20001 420.528 -5.20001 420.519 -5.20001C420.509 -5.20001 420.5 -5.20001 420.491 -5.20001C420.481 -5.20001 420.472 -5.20001 420.463 -5.20001C420.453 -5.20001 420.444 -5.20001 420.434 -5.20001C420.425 -5.20001 420.416 -5.20001 420.406 -5.20001C420.397 -5.20001 420.388 -5.20001 420.378 -5.20001C420.369 -5.20001 420.359 -5.20001 420.35 -5.20001C420.341 -5.20001 420.331 -5.20001 420.322 -5.20001C420.312 -5.20001 420.303 -5.20001 420.294 -5.20001C420.284 -5.20001 420.275 -5.20001 420.266 -5.20001C420.256 -5.20001 420.247 -5.20001 420.238 -5.20001C420.228 -5.20001 420.219 -5.20001 420.209 -5.20001C420.2 -5.20001 420.191 -5.20001 420.181 -5.20001C420.172 -5.20001 420.163 -5.20001 420.153 -5.20001C420.144 -5.20001 420.134 -5.20001 420.125 -5.20001C420.116 -5.20001 420.106 -5.20001 420.097 -5.20001V6.8ZM434.497 6.8C458.266 6.8 477.69 11.4504 493.084 20.3887L499.11 10.0113C481.437 -0.250393 459.795 -5.20001 434.497 -5.20001V6.8ZM493.155 20.4295C507.592 28.5503 515.697 44.6253 515.697 71.2H527.697C527.697 42.308 518.735 21.0496 499.038 9.97054L493.155 20.4295ZM515.697 71.2C515.697 91.043 510.593 115.377 500.058 144.35L511.336 148.45C522.134 118.756 527.697 92.957 527.697 71.2H515.697ZM500.058 144.35C489.493 173.402 475.736 204.367 458.765 237.248L469.429 242.752C486.591 209.5 500.567 178.064 511.336 148.45L500.058 144.35ZM458.748 237.282C442.274 269.699 424.468 302.122 405.33 334.55L415.664 340.65C434.926 308.011 452.853 275.368 469.446 242.718L458.748 237.282ZM405.352 334.513C386.182 366.463 367.818 396.005 350.259 423.141L360.334 429.66C377.976 402.395 396.412 372.737 415.642 340.687L405.352 334.513ZM350.259 423.141C332.667 450.328 318.017 472.703 306.305 490.272L316.289 496.928C328.043 479.297 342.726 456.872 360.334 429.66L350.259 423.141ZM315.234 498.128L333.634 482.128L325.76 473.072L307.36 489.072L315.234 498.128ZM333.656 482.109C355.678 462.772 376.627 442.36 396.501 420.874L387.692 412.726C368.1 433.906 347.449 454.028 325.738 473.091L333.656 482.109ZM396.551 420.82C416.286 398.951 435.755 377.349 454.957 356.014L446.037 347.986C426.839 369.317 407.374 390.915 387.643 412.78L396.551 420.82ZM454.971 355.998C477.401 330.898 499.563 305.531 521.459 279.897L512.335 272.103C490.497 297.669 468.393 322.969 446.023 348.002L454.971 355.998ZM521.412 279.951C543.857 254.3 565.768 228.381 587.145 202.194L577.849 194.606C556.559 220.686 534.737 246.5 512.381 272.049L521.412 279.951ZM587.233 202.084C590.694 197.634 595.503 192.55 601.751 186.823L593.643 177.977C587.09 183.983 581.767 189.566 577.761 194.716L587.233 202.084ZM601.94 186.643C607.572 181.01 612.798 178.8 617.697 178.8V166.8C608.729 166.8 600.622 170.99 593.454 178.157L601.94 186.643ZM617.697 178.8C620.332 178.8 621.983 179.355 623.037 180.037C624.041 180.687 624.965 181.746 625.658 183.65L636.936 179.55C635.495 175.588 633.086 172.247 629.556 169.963C626.078 167.712 621.995 166.8 617.697 166.8V178.8ZM625.658 183.65C627.592 188.97 628.497 193.874 628.497 198.4H640.497C640.497 192.259 639.268 185.964 636.936 179.55L625.658 183.65ZM628.497 198.4C628.497 204.867 627.751 211.348 626.251 217.851L637.943 220.549C639.643 213.185 640.497 205.799 640.497 198.4H628.497ZM626.251 217.851C624.716 224.499 622.667 231.163 620.097 237.846L631.297 242.154C634.06 234.97 636.277 227.768 637.943 220.549L626.251 217.851ZM620.021 238.054C613.609 256.756 606.399 278.386 598.393 302.94L609.801 306.66C617.795 282.147 624.985 260.577 631.373 241.946L620.021 238.054ZM598.368 303.018C590.849 327.185 584.404 351.621 579.034 376.325L590.76 378.875C596.056 354.513 602.411 330.415 609.826 306.582L598.368 303.018ZM579.04 376.298C573.634 400.626 570.897 422.937 570.897 443.2H582.897C582.897 423.996 585.494 402.574 590.754 378.902L579.04 376.298ZM570.897 443.2C570.897 447.166 571.178 452.68 571.715 459.66L583.679 458.74C583.15 451.853 582.897 446.701 582.897 443.2H570.897ZM571.767 460.112C572.909 467.54 574.922 474.474 577.835 480.883L588.759 475.917C586.339 470.592 584.618 464.726 583.627 458.288L571.767 460.112ZM577.93 481.083C581.318 487.859 586.831 492.4 594.497 492.4V480.4C592.562 480.4 590.609 479.608 588.663 475.717L577.93 481.083ZM594.497 492.4C603.312 492.4 610.242 486.693 615.544 478.445L605.45 471.955C601.152 478.64 597.415 480.4 594.497 480.4V492.4ZM615.642 478.287C620.769 469.742 624.956 459.634 628.266 448.048L616.728 444.752C613.638 455.566 609.825 464.658 605.352 472.113L615.642 478.287ZM628.266 448.048C631.517 436.672 633.972 426.048 635.615 416.186L623.779 414.214C622.222 423.552 619.877 433.728 616.728 444.752L628.266 448.048ZM635.568 416.436C637.712 406.251 638.897 398.266 638.897 392.8H626.897C626.897 396.934 625.948 403.882 623.826 413.964L635.568 416.436ZM638.897 392.8C638.897 385.678 637.888 379.034 634.382 374.652L625.012 382.148C625.773 383.1 626.897 386.055 626.897 392.8H638.897ZM635.063 375.717C633.633 372.856 633.297 371.174 633.297 370.4H621.297C621.297 373.893 622.561 377.544 624.33 381.083L635.063 375.717ZM633.297 370.4C633.297 369.725 633.462 370.321 632.74 371.043C632.017 371.765 631.422 371.6 632.097 371.6V359.6C629.572 359.6 626.576 360.235 624.254 362.557C621.932 364.879 621.297 367.875 621.297 370.4H633.297ZM632.097 371.6C632.717 371.6 633.224 371.754 633.9 372.483C634.742 373.389 635.797 375.189 636.728 378.448L648.266 375.152C647.064 370.944 645.319 367.144 642.694 364.317C639.903 361.312 636.277 359.6 632.097 359.6V371.6ZM636.728 378.448C638.731 385.46 640 393.029 640.509 401.174L652.485 400.426C651.928 391.504 650.529 383.073 648.266 375.152L636.728 378.448ZM640.543 401.544C641.614 410.109 642.097 415.625 642.097 418.4H654.097C654.097 414.775 653.513 408.558 652.451 400.056L640.543 401.544ZM642.097 418.4C642.097 426.279 640.607 436.975 637.451 450.651L649.143 453.349C652.387 439.292 654.097 427.588 654.097 418.4H642.097ZM637.405 450.867C634.866 464.068 630.317 475.907 623.795 486.442L633.999 492.758C641.343 480.893 646.394 467.665 649.189 453.133L637.405 450.867ZM623.752 486.513C618.357 495.505 611.173 499.6 601.697 499.6V511.6C615.688 511.6 626.637 505.029 634.042 492.687L623.752 486.513ZM601.697 499.6C594.359 499.6 587.849 496.867 581.94 490.957L573.454 499.443C581.412 507.4 590.901 511.6 601.697 511.6V499.6ZM582.252 491.295C576.329 484.385 572.224 477.092 569.824 469.41L558.37 472.99C561.303 482.375 566.265 491.082 573.141 499.105L582.252 491.295ZM569.866 469.552C567.816 462.376 566.274 454.929 565.244 447.207L553.35 448.793C554.453 457.071 556.111 465.091 558.328 472.848L569.866 469.552ZM565.284 447.601C564.758 439.714 564.497 432.382 564.497 425.6H552.497C552.497 432.685 552.769 440.286 553.31 448.399L565.284 447.601ZM564.497 425.6C564.497 398.328 567.644 369.677 573.968 339.636L562.226 337.164C555.75 367.923 552.497 397.405 552.497 425.6H564.497ZM573.968 339.636C580.322 309.454 587.991 281.434 596.965 255.567L585.628 251.633C576.469 278.033 568.672 306.546 562.226 337.164L573.968 339.636ZM596.936 255.65C599.097 249.707 602.051 241.112 605.789 229.897L594.405 226.103C590.676 237.288 587.763 245.76 585.658 251.55L596.936 255.65ZM605.814 229.819C609.555 218.064 611.697 208.749 611.697 202.4H599.697C599.697 206.718 598.106 214.469 594.379 226.181L605.814 229.819ZM611.697 202.4C611.697 201.027 611.557 199.104 610.663 197.317C610.174 196.338 609.38 195.244 608.125 194.408C606.833 193.546 605.414 193.2 604.097 193.2V205.2C603.314 205.2 602.361 204.987 601.469 204.392C600.614 203.823 600.153 203.128 599.93 202.683C599.57 201.963 599.697 201.64 599.697 202.4H611.697ZM604.097 193.2C601.332 193.2 599.254 194.759 598.256 195.591C597.013 196.626 595.792 197.976 594.612 199.452L603.982 206.948C604.442 206.373 604.842 205.909 605.183 205.544C605.529 205.174 605.779 204.942 605.938 204.809C606.111 204.665 606.088 204.713 605.88 204.817C605.692 204.911 605.057 205.2 604.097 205.2V193.2ZM594.612 199.452C593.556 200.771 592.718 201.803 592.088 202.559C591.772 202.937 591.522 203.231 591.331 203.449C591.124 203.686 591.045 203.767 591.054 203.757L599.54 212.243C600.366 211.416 601.944 209.496 603.982 206.948L594.612 199.452ZM590.635 204.223C547.508 257.466 503.319 308.842 458.068 358.352L466.926 366.448C512.341 316.758 556.686 265.201 599.959 211.777L590.635 204.223ZM458.092 358.326C438.36 379.658 418.362 401.256 398.096 423.121L406.897 431.279C427.165 409.411 447.167 387.809 466.902 366.474L458.092 358.326ZM398.043 423.18C378.447 444.895 357.792 465.55 336.077 485.146L344.117 494.054C366.136 474.184 387.081 453.239 406.951 431.22L398.043 423.18ZM336.111 485.116C326.511 493.649 316.911 502.182 307.311 510.716L315.283 519.684C324.883 511.151 334.483 502.618 344.083 494.084L336.111 485.116ZM307.177 510.838C297.537 519.943 288.162 529.049 279.054 538.157L287.54 546.643C296.565 537.618 305.857 528.591 315.417 519.562L307.177 510.838ZM279.392 537.844C278.356 538.733 277.629 539.356 276.592 540.244C275.556 541.133 274.829 541.756 273.792 542.644C273.468 542.922 272.716 543.567 272.392 543.844C272.068 544.122 271.316 544.766 270.992 545.044C270.668 545.322 269.916 545.966 269.592 546.244C269.268 546.522 268.516 547.167 268.192 547.444L276.002 556.556C277.038 555.667 277.765 555.044 278.802 554.156C279.838 553.267 280.565 552.644 281.602 551.756C281.926 551.478 282.677 550.833 283.002 550.556C283.326 550.278 284.077 549.633 284.402 549.356C284.726 549.078 285.477 548.433 285.802 548.156C286.126 547.878 286.877 547.234 287.202 546.956L279.392 537.844ZM267.541 548.095C264.433 551.722 261.337 555.075 258.254 558.157L266.74 566.643C270.057 563.325 273.361 559.745 276.652 555.905L267.541 548.095ZM258.254 558.157C256.121 560.291 253.988 562.424 251.854 564.557L260.34 573.043C262.473 570.909 264.606 568.776 266.74 566.643L258.254 558.157ZM251.412 565.052C249.127 567.908 247.103 570.795 245.352 573.713L255.642 579.887C257.091 577.472 258.801 575.025 260.782 572.548L251.412 565.052ZM245.435 573.579C242.043 578.909 237.347 584.381 231.243 589.977L239.351 598.823C246.047 592.685 251.484 586.425 255.559 580.021L245.435 573.579ZM231.243 589.977C225.757 595.005 220.221 597.2 214.497 597.2V609.2C223.706 609.2 232.037 605.528 239.351 598.823L231.243 589.977Z" fill="black" mask="url(#path-1-outside-1_1_134)"/>
</svg>
