<svg width="649" height="604" viewBox="0 0 649 604" fill="none" xmlns="http://www.w3.org/2000/svg">
<path d="M214.497 603.2C211.83 603.2 209.164 602.4 206.497 600.8C203.83 599.733 202.497 597.6 202.497 594.4C202.497 591.733 203.297 589.333 204.897 587.2C206.497 585.6 208.097 583.733 209.697 581.6C227.83 562.933 244.897 543.2 260.897 522.4C276.897 502.133 292.097 481.333 306.497 460C333.697 420.533 359.297 380.533 383.297 340C407.297 299.467 429.697 257.6 450.497 214.4C456.364 201.6 462.497 187.2 468.897 171.2C475.83 155.2 481.43 138.933 485.697 122.4C490.497 105.333 492.897 89.8667 492.897 76C492.897 54.1333 487.03 38.9333 475.297 30.4C463.564 21.3333 447.564 16.8 427.297 16.8C401.697 16.8 373.697 22.6666 343.297 34.4C313.43 45.6 283.297 60.5333 252.897 79.2C223.03 97.3333 195.03 116.533 168.897 136.8C143.297 157.067 121.964 176 104.897 193.6C94.7635 204.267 83.8302 217.067 72.0969 232C60.3635 246.933 50.2302 262.933 41.6969 280C33.6969 296.533 29.6969 312.533 29.6969 328C29.6969 341.333 32.8969 351.2 39.2969 357.6C46.2302 364 55.0302 368 65.6969 369.6C76.3635 371.2 87.0302 372 97.6969 372C111.03 372 125.43 370.667 140.897 368C156.897 365.333 170.764 360.8 182.497 354.4C184.63 353.333 185.964 352.8 186.497 352.8C189.697 352.8 191.297 354.667 191.297 358.4C191.297 364.267 186.764 369.333 177.697 373.6C168.63 377.333 157.964 380.533 145.697 383.2C133.43 385.333 121.697 386.933 110.497 388C99.8302 389.067 92.3635 389.6 88.0969 389.6C77.9635 389.6 66.2302 388.533 52.8969 386.4C39.5635 383.733 29.1635 378.4 21.6969 370.4C7.83021 355.467 0.896875 338.133 0.896875 318.4C0.896875 297.067 8.09688 274.933 22.4969 252C37.4302 229.067 57.1635 206.133 81.6969 183.2C106.23 160.267 133.43 138.4 163.297 117.6C193.164 96.2667 223.297 77.3333 253.697 60.8C284.097 44.2666 312.63 30.9333 339.297 20.8C365.964 10.1333 388.097 3.99998 405.697 2.39997C410.497 1.33332 415.297 0.799994 420.097 0.799994C424.897 0.799994 429.697 0.799994 434.497 0.799994C459.03 0.799994 479.564 5.6 496.097 15.2C513.164 24.8 521.697 43.4666 521.697 71.2C521.697 92 516.364 117.067 505.697 146.4C495.03 175.733 481.164 206.933 464.097 240C447.564 272.533 429.697 305.067 410.497 337.6C391.297 369.6 372.897 399.2 355.297 426.4C337.697 453.6 323.03 476 311.297 493.6L329.697 477.6C351.564 458.4 372.364 438.133 392.097 416.8C411.83 394.933 431.297 373.333 450.497 352C472.897 326.933 495.03 301.6 516.897 276C539.297 250.4 561.164 224.533 582.497 198.4C586.23 193.6 591.297 188.267 597.697 182.4C604.097 176 610.764 172.8 617.697 172.8C624.63 172.8 629.164 175.733 631.297 181.6C633.43 187.467 634.497 193.067 634.497 198.4C634.497 205.333 633.697 212.267 632.097 219.2C630.497 226.133 628.364 233.067 625.697 240C619.297 258.667 612.097 280.267 604.097 304.8C596.63 328.8 590.23 353.067 584.897 377.6C579.564 401.6 576.897 423.467 576.897 443.2C576.897 446.933 577.164 452.267 577.697 459.2C578.764 466.133 580.63 472.533 583.297 478.4C585.964 483.733 589.697 486.4 594.497 486.4C600.364 486.4 605.697 482.667 610.497 475.2C615.297 467.2 619.297 457.6 622.497 446.4C625.697 435.2 628.097 424.8 629.697 415.2C631.83 405.067 632.897 397.6 632.897 392.8C632.897 385.867 631.83 381.067 629.697 378.4C628.097 375.2 627.297 372.533 627.297 370.4C627.297 367.2 628.897 365.6 632.097 365.6C636.897 365.6 640.364 369.333 642.497 376.8C644.63 384.267 645.964 392.267 646.497 400.8C647.564 409.333 648.097 415.2 648.097 418.4C648.097 426.933 646.497 438.133 643.297 452C640.63 465.867 635.83 478.4 628.897 489.6C622.497 500.267 613.43 505.6 601.697 505.6C592.63 505.6 584.63 502.133 577.697 495.2C571.297 487.733 566.764 479.733 564.097 471.2C561.964 463.733 560.364 456 559.297 448C558.764 440 558.497 432.533 558.497 425.6C558.497 397.867 561.697 368.8 568.097 338.4C574.497 308 582.23 279.733 591.297 253.6C593.43 247.733 596.364 239.2 600.097 228C603.83 216.267 605.697 207.733 605.697 202.4C605.697 200.267 605.164 199.2 604.097 199.2C603.03 199.2 601.43 200.533 599.297 203.2C597.164 205.867 595.83 207.467 595.297 208C552.097 261.333 507.83 312.8 462.497 362.4C442.764 383.733 422.764 405.333 402.497 427.2C382.764 449.067 361.964 469.867 340.097 489.6C330.497 498.133 320.897 506.667 311.297 515.2C301.697 524.267 292.364 533.333 283.297 542.4C279.564 545.6 275.83 548.8 272.097 552C268.897 555.733 265.697 559.2 262.497 562.4C260.364 564.533 258.23 566.667 256.097 568.8C253.964 571.467 252.097 574.133 250.497 576.8C246.764 582.667 241.697 588.533 235.297 594.4C228.897 600.267 221.964 603.2 214.497 603.2Z" fill="white"/>
</svg>
