<svg width="648" height="604" viewBox="0 0 648 604" fill="none" xmlns="http://www.w3.org/2000/svg">
<mask id="path-1-outside-1_1_134" maskUnits="userSpaceOnUse" x="-15" y="-15" width="678" height="634" fill="black">
<rect fill="white" x="-15" y="-15" width="678" height="634"/>
<path d="M213.997 603.2C211.33 603.2 208.664 602.4 205.997 600.8C203.33 599.733 201.997 597.6 201.997 594.4C201.997 591.733 202.797 589.333 204.397 587.2C205.997 585.6 207.597 583.733 209.197 581.6C227.33 562.933 244.397 543.2 260.397 522.4C276.397 502.133 291.597 481.333 305.997 460C333.197 420.533 358.797 380.533 382.797 340C406.797 299.467 429.197 257.6 449.997 214.4C455.864 201.6 461.997 187.2 468.397 171.2C475.33 155.2 480.93 138.933 485.197 122.4C489.997 105.333 492.397 89.8667 492.397 76C492.397 54.1333 486.53 38.9333 474.797 30.4C463.064 21.3333 447.064 16.8 426.797 16.8C401.197 16.8 373.197 22.6666 342.797 34.4C312.93 45.6 282.797 60.5333 252.397 79.2C222.53 97.3333 194.53 116.533 168.397 136.8C142.797 157.067 121.464 176 104.397 193.6C94.2635 204.267 83.3302 217.067 71.5969 232C59.8635 246.933 49.7302 262.933 41.1969 280C33.1969 296.533 29.1969 312.533 29.1969 328C29.1969 341.333 32.3969 351.2 38.7969 357.6C45.7302 364 54.5302 368 65.1969 369.6C75.8635 371.2 86.5302 372 97.1969 372C110.53 372 124.93 370.667 140.397 368C156.397 365.333 170.264 360.8 181.997 354.4C184.13 353.333 185.464 352.8 185.997 352.8C189.197 352.8 190.797 354.667 190.797 358.4C190.797 364.267 186.264 369.333 177.197 373.6C168.13 377.333 157.464 380.533 145.197 383.2C132.93 385.333 121.197 386.933 109.997 388C99.3302 389.067 91.8635 389.6 87.5969 389.6C77.4635 389.6 65.7302 388.533 52.3969 386.4C39.0635 383.733 28.6635 378.4 21.1969 370.4C7.33021 355.467 0.396875 338.133 0.396875 318.4C0.396875 297.067 7.59688 274.933 21.9969 252C36.9302 229.067 56.6635 206.133 81.1969 183.2C105.73 160.267 132.93 138.4 162.797 117.6C192.664 96.2667 222.797 77.3333 253.197 60.8C283.597 44.2666 312.13 30.9333 338.797 20.8C365.464 10.1333 387.597 3.99998 405.197 2.39997C409.997 1.33332 414.797 0.799994 419.597 0.799994C424.397 0.799994 429.197 0.799994 433.997 0.799994C458.53 0.799994 479.064 5.6 495.597 15.2C512.664 24.8 521.197 43.4666 521.197 71.2C521.197 92 515.864 117.067 505.197 146.4C494.53 175.733 480.664 206.933 463.597 240C447.064 272.533 429.197 305.067 409.997 337.6C390.797 369.6 372.397 399.2 354.797 426.4C337.197 453.6 322.53 476 310.797 493.6L329.197 477.6C351.064 458.4 371.864 438.133 391.597 416.8C411.33 394.933 430.797 373.333 449.997 352C472.397 326.933 494.53 301.6 516.397 276C538.797 250.4 560.664 224.533 581.997 198.4C585.73 193.6 590.797 188.267 597.197 182.4C603.597 176 610.264 172.8 617.197 172.8C624.13 172.8 628.664 175.733 630.797 181.6C632.93 187.467 633.997 193.067 633.997 198.4C633.997 205.333 633.197 212.267 631.597 219.2C629.997 226.133 627.864 233.067 625.197 240C618.797 258.667 611.597 280.267 603.597 304.8C596.13 328.8 589.73 353.067 584.397 377.6C579.064 401.6 576.397 423.467 576.397 443.2C576.397 446.933 576.664 452.267 577.197 459.2C578.264 466.133 580.13 472.533 582.797 478.4C585.464 483.733 589.197 486.4 593.997 486.4C599.864 486.4 605.197 482.667 609.997 475.2C614.797 467.2 618.797 457.6 621.997 446.4C625.197 435.2 627.597 424.8 629.197 415.2C631.33 405.067 632.397 397.6 632.397 392.8C632.397 385.867 631.33 381.067 629.197 378.4C627.597 375.2 626.797 372.533 626.797 370.4C626.797 367.2 628.397 365.6 631.597 365.6C636.397 365.6 639.864 369.333 641.997 376.8C644.13 384.267 645.464 392.267 645.997 400.8C647.064 409.333 647.597 415.2 647.597 418.4C647.597 426.933 645.997 438.133 642.797 452C640.13 465.867 635.33 478.4 628.397 489.6C621.997 500.267 612.93 505.6 601.197 505.6C592.13 505.6 584.13 502.133 577.197 495.2C570.797 487.733 566.264 479.733 563.597 471.2C561.464 463.733 559.864 456 558.797 448C558.264 440 557.997 432.533 557.997 425.6C557.997 397.867 561.197 368.8 567.597 338.4C573.997 308 581.73 279.733 590.797 253.6C592.93 247.733 595.864 239.2 599.597 228C603.33 216.267 605.197 207.733 605.197 202.4C605.197 200.267 604.664 199.2 603.597 199.2C602.53 199.2 600.93 200.533 598.797 203.2C596.664 205.867 595.33 207.467 594.797 208C551.597 261.333 507.33 312.8 461.997 362.4C442.264 383.733 422.264 405.333 401.997 427.2C382.264 449.067 361.464 469.867 339.597 489.6C329.997 498.133 320.397 506.667 310.797 515.2C301.197 524.267 291.864 533.333 282.797 542.4C279.064 545.6 275.33 548.8 271.597 552C268.397 555.733 265.197 559.2 261.997 562.4C259.864 564.533 257.73 566.667 255.597 568.8C253.464 571.467 251.597 574.133 249.997 576.8C246.264 582.667 241.197 588.533 234.797 594.4C228.397 600.267 221.464 603.2 213.997 603.2Z"/>
</mask>
<path d="M213.997 603.2C211.33 603.2 208.664 602.4 205.997 600.8C203.33 599.733 201.997 597.6 201.997 594.4C201.997 591.733 202.797 589.333 204.397 587.2C205.997 585.6 207.597 583.733 209.197 581.6C227.33 562.933 244.397 543.2 260.397 522.4C276.397 502.133 291.597 481.333 305.997 460C333.197 420.533 358.797 380.533 382.797 340C406.797 299.467 429.197 257.6 449.997 214.4C455.864 201.6 461.997 187.2 468.397 171.2C475.33 155.2 480.93 138.933 485.197 122.4C489.997 105.333 492.397 89.8667 492.397 76C492.397 54.1333 486.53 38.9333 474.797 30.4C463.064 21.3333 447.064 16.8 426.797 16.8C401.197 16.8 373.197 22.6666 342.797 34.4C312.93 45.6 282.797 60.5333 252.397 79.2C222.53 97.3333 194.53 116.533 168.397 136.8C142.797 157.067 121.464 176 104.397 193.6C94.2635 204.267 83.3302 217.067 71.5969 232C59.8635 246.933 49.7302 262.933 41.1969 280C33.1969 296.533 29.1969 312.533 29.1969 328C29.1969 341.333 32.3969 351.2 38.7969 357.6C45.7302 364 54.5302 368 65.1969 369.6C75.8635 371.2 86.5302 372 97.1969 372C110.53 372 124.93 370.667 140.397 368C156.397 365.333 170.264 360.8 181.997 354.4C184.13 353.333 185.464 352.8 185.997 352.8C189.197 352.8 190.797 354.667 190.797 358.4C190.797 364.267 186.264 369.333 177.197 373.6C168.13 377.333 157.464 380.533 145.197 383.2C132.93 385.333 121.197 386.933 109.997 388C99.3302 389.067 91.8635 389.6 87.5969 389.6C77.4635 389.6 65.7302 388.533 52.3969 386.4C39.0635 383.733 28.6635 378.4 21.1969 370.4C7.33021 355.467 0.396875 338.133 0.396875 318.4C0.396875 297.067 7.59688 274.933 21.9969 252C36.9302 229.067 56.6635 206.133 81.1969 183.2C105.73 160.267 132.93 138.4 162.797 117.6C192.664 96.2667 222.797 77.3333 253.197 60.8C283.597 44.2666 312.13 30.9333 338.797 20.8C365.464 10.1333 387.597 3.99998 405.197 2.39997C409.997 1.33332 414.797 0.799994 419.597 0.799994C424.397 0.799994 429.197 0.799994 433.997 0.799994C458.53 0.799994 479.064 5.6 495.597 15.2C512.664 24.8 521.197 43.4666 521.197 71.2C521.197 92 515.864 117.067 505.197 146.4C494.53 175.733 480.664 206.933 463.597 240C447.064 272.533 429.197 305.067 409.997 337.6C390.797 369.6 372.397 399.2 354.797 426.4C337.197 453.6 322.53 476 310.797 493.6L329.197 477.6C351.064 458.4 371.864 438.133 391.597 416.8C411.33 394.933 430.797 373.333 449.997 352C472.397 326.933 494.53 301.6 516.397 276C538.797 250.4 560.664 224.533 581.997 198.4C585.73 193.6 590.797 188.267 597.197 182.4C603.597 176 610.264 172.8 617.197 172.8C624.13 172.8 628.664 175.733 630.797 181.6C632.93 187.467 633.997 193.067 633.997 198.4C633.997 205.333 633.197 212.267 631.597 219.2C629.997 226.133 627.864 233.067 625.197 240C618.797 258.667 611.597 280.267 603.597 304.8C596.13 328.8 589.73 353.067 584.397 377.6C579.064 401.6 576.397 423.467 576.397 443.2C576.397 446.933 576.664 452.267 577.197 459.2C578.264 466.133 580.13 472.533 582.797 478.4C585.464 483.733 589.197 486.4 593.997 486.4C599.864 486.4 605.197 482.667 609.997 475.2C614.797 467.2 618.797 457.6 621.997 446.4C625.197 435.2 627.597 424.8 629.197 415.2C631.33 405.067 632.397 397.6 632.397 392.8C632.397 385.867 631.33 381.067 629.197 378.4C627.597 375.2 626.797 372.533 626.797 370.4C626.797 367.2 628.397 365.6 631.597 365.6C636.397 365.6 639.864 369.333 641.997 376.8C644.13 384.267 645.464 392.267 645.997 400.8C647.064 409.333 647.597 415.2 647.597 418.4C647.597 426.933 645.997 438.133 642.797 452C640.13 465.867 635.33 478.4 628.397 489.6C621.997 500.267 612.93 505.6 601.197 505.6C592.13 505.6 584.13 502.133 577.197 495.2C570.797 487.733 566.264 479.733 563.597 471.2C561.464 463.733 559.864 456 558.797 448C558.264 440 557.997 432.533 557.997 425.6C557.997 397.867 561.197 368.8 567.597 338.4C573.997 308 581.73 279.733 590.797 253.6C592.93 247.733 595.864 239.2 599.597 228C603.33 216.267 605.197 207.733 605.197 202.4C605.197 200.267 604.664 199.2 603.597 199.2C602.53 199.2 600.93 200.533 598.797 203.2C596.664 205.867 595.33 207.467 594.797 208C551.597 261.333 507.33 312.8 461.997 362.4C442.264 383.733 422.264 405.333 401.997 427.2C382.264 449.067 361.464 469.867 339.597 489.6C329.997 498.133 320.397 506.667 310.797 515.2C301.197 524.267 291.864 533.333 282.797 542.4C279.064 545.6 275.33 548.8 271.597 552C268.397 555.733 265.197 559.2 261.997 562.4C259.864 564.533 257.73 566.667 255.597 568.8C253.464 571.467 251.597 574.133 249.997 576.8C246.264 582.667 241.197 588.533 234.797 594.4C228.397 600.267 221.464 603.2 213.997 603.2Z" fill="white"/>
<path d="M205.997 600.8L213.714 587.938C213.028 587.526 212.311 587.17 211.568 586.873L205.997 600.8ZM204.397 587.2L193.79 576.593C193.288 577.095 192.823 577.632 192.397 578.2L204.397 587.2ZM209.197 581.6L198.438 571.148C197.994 571.605 197.579 572.09 197.197 572.6L209.197 581.6ZM260.397 522.4L248.624 513.105C248.585 513.155 248.546 513.204 248.508 513.254L260.397 522.4ZM305.997 460L293.646 451.488C293.619 451.528 293.591 451.568 293.564 451.608L305.997 460ZM382.797 340L369.89 332.358L369.89 332.358L382.797 340ZM449.997 214.4L463.512 220.907C463.553 220.822 463.593 220.736 463.633 220.65L449.997 214.4ZM468.397 171.2L454.634 165.236C454.577 165.366 454.522 165.497 454.47 165.629L468.397 171.2ZM485.197 122.4L470.757 118.339C470.728 118.443 470.7 118.547 470.673 118.652L485.197 122.4ZM474.797 30.4L465.625 42.2693C465.74 42.3582 465.857 42.4455 465.974 42.531L474.797 30.4ZM342.797 34.4L348.064 48.4449C348.109 48.4281 348.153 48.4111 348.198 48.3938L342.797 34.4ZM252.397 79.2L260.182 92.0218C260.203 92.0088 260.224 91.9957 260.246 91.9826L252.397 79.2ZM168.397 136.8L159.205 124.947C159.165 124.977 159.126 125.008 159.086 125.039L168.397 136.8ZM104.397 193.6L93.6284 183.158C93.5927 183.195 93.5572 183.232 93.5219 183.269L104.397 193.6ZM71.5969 232L83.3917 241.267L83.3917 241.267L71.5969 232ZM41.1969 280L27.7805 273.292C27.7514 273.35 27.7228 273.408 27.6945 273.467L41.1969 280ZM38.7969 357.6L28.1903 368.207C28.3316 368.348 28.4758 368.486 28.6227 368.622L38.7969 357.6ZM65.1969 369.6L67.422 354.766L67.422 354.766L65.1969 369.6ZM140.397 368L137.931 353.204C137.903 353.209 137.876 353.213 137.848 353.218L140.397 368ZM181.997 354.4L175.289 340.984C175.129 341.063 174.971 341.146 174.814 341.232L181.997 354.4ZM177.197 373.6L182.908 387.47C183.136 387.376 183.361 387.277 183.584 387.172L177.197 373.6ZM145.197 383.2L147.767 397.978C147.973 397.942 148.179 397.902 148.383 397.858L145.197 383.2ZM109.997 388L108.575 373.068C108.551 373.07 108.528 373.072 108.504 373.074L109.997 388ZM52.3969 386.4L49.4551 401.109C49.6451 401.147 49.8357 401.181 50.027 401.212L52.3969 386.4ZM21.1969 370.4L10.205 380.607C10.2137 380.616 10.2223 380.625 10.231 380.635L21.1969 370.4ZM21.9969 252L9.42691 243.815C9.38187 243.884 9.33741 243.954 9.29353 244.023L21.9969 252ZM81.1969 183.2L70.9536 172.242L70.9536 172.242L81.1969 183.2ZM162.797 117.6L171.369 129.909C171.418 129.875 171.467 129.841 171.515 129.806L162.797 117.6ZM338.797 20.8L344.125 34.8217C344.206 34.7909 344.287 34.7594 344.368 34.7271L338.797 20.8ZM405.197 2.39997L406.555 17.3384C407.193 17.2804 407.826 17.1817 408.451 17.0428L405.197 2.39997ZM495.597 15.2L488.065 28.1718C488.124 28.2062 488.183 28.2401 488.243 28.2736L495.597 15.2ZM505.197 146.4L491.1 141.274L491.1 141.274L505.197 146.4ZM463.597 240L450.268 233.12C450.253 233.148 450.239 233.176 450.225 233.204L463.597 240ZM409.997 337.6L422.859 345.317C422.878 345.286 422.897 345.255 422.915 345.224L409.997 337.6ZM310.797 493.6L298.316 485.279C294.149 491.53 295.249 499.9 300.889 504.862C306.529 509.824 314.971 509.849 320.64 504.919L310.797 493.6ZM329.197 477.6L339.04 488.919C339.058 488.903 339.076 488.887 339.094 488.872L329.197 477.6ZM391.597 416.8L402.608 426.986C402.65 426.94 402.692 426.895 402.733 426.849L391.597 416.8ZM449.997 352L461.146 362.034C461.158 362.021 461.17 362.008 461.182 361.995L449.997 352ZM516.397 276L505.108 266.122C505.069 266.167 505.03 266.212 504.991 266.258L516.397 276ZM581.997 198.4L593.617 207.886C593.691 207.794 593.765 207.702 593.837 207.609L581.997 198.4ZM597.197 182.4L607.333 193.457C607.493 193.31 607.65 193.16 607.803 193.007L597.197 182.4ZM631.597 219.2L646.213 222.573L646.213 222.573L631.597 219.2ZM625.197 240L611.197 234.615C611.131 234.787 611.068 234.961 611.008 235.135L625.197 240ZM603.597 304.8L589.336 300.15C589.315 300.214 589.294 300.279 589.274 300.344L603.597 304.8ZM584.397 377.6L599.04 380.854C599.045 380.831 599.05 380.809 599.055 380.786L584.397 377.6ZM577.197 459.2L562.241 460.35C562.27 460.729 562.314 461.106 562.371 461.481L577.197 459.2ZM582.797 478.4L569.141 484.607C569.218 484.776 569.298 484.943 569.38 485.108L582.797 478.4ZM609.997 475.2L622.615 483.311C622.698 483.181 622.78 483.05 622.859 482.917L609.997 475.2ZM621.997 446.4L607.574 442.279L607.574 442.279L621.997 446.4ZM629.197 415.2L614.519 412.11C614.475 412.317 614.436 412.525 614.401 412.734L629.197 415.2ZM629.197 378.4L615.781 385.108C616.253 386.053 616.824 386.945 617.484 387.77L629.197 378.4ZM641.997 376.8L627.574 380.921L627.574 380.921L641.997 376.8ZM645.997 400.8L631.026 401.736C631.045 402.045 631.074 402.353 631.113 402.661L645.997 400.8ZM642.797 452L628.181 448.627C628.14 448.806 628.102 448.987 628.067 449.167L642.797 452ZM628.397 489.6L615.643 481.705C615.606 481.764 615.57 481.823 615.535 481.883L628.397 489.6ZM577.197 495.2L565.808 504.962C566.058 505.253 566.319 505.535 566.59 505.807L577.197 495.2ZM563.597 471.2L549.174 475.321C549.208 475.439 549.243 475.557 549.28 475.674L563.597 471.2ZM558.797 448L543.83 448.998C543.852 449.327 543.885 449.655 543.928 449.982L558.797 448ZM567.597 338.4L552.919 335.31L552.919 335.31L567.597 338.4ZM590.797 253.6L576.7 248.474C576.675 248.544 576.65 248.613 576.626 248.683L590.797 253.6ZM599.597 228L613.827 232.743C613.849 232.678 613.87 232.613 613.891 232.548L599.597 228ZM594.797 208L584.19 197.394C583.82 197.763 583.47 198.152 583.141 198.559L594.797 208ZM461.997 362.4L473.008 372.586C473.029 372.564 473.049 372.542 473.069 372.52L461.997 362.4ZM401.997 427.2L390.995 417.004C390.95 417.052 390.905 417.101 390.861 417.151L401.997 427.2ZM339.597 489.6L349.562 500.811C349.59 500.786 349.618 500.761 349.646 500.736L339.597 489.6ZM310.797 515.2L300.831 503.989C300.719 504.089 300.607 504.191 300.498 504.295L310.797 515.2ZM282.797 542.4L292.559 553.789C292.85 553.539 293.132 553.278 293.403 553.007L282.797 542.4ZM271.597 552L261.835 540.611C261.252 541.111 260.708 541.655 260.208 542.238L271.597 552ZM261.997 562.4L272.603 573.007L272.604 573.007L261.997 562.4ZM255.597 568.8L244.99 558.193C244.599 558.585 244.23 558.997 243.884 559.43L255.597 568.8ZM249.997 576.8L262.652 584.853C262.722 584.742 262.792 584.63 262.859 584.517L249.997 576.8ZM213.997 588.2C214.083 588.2 214.16 588.207 214.222 588.216C214.283 588.225 214.313 588.234 214.307 588.233C214.297 588.23 214.102 588.17 213.714 587.938L198.279 613.662C202.885 616.426 208.188 618.2 213.997 618.2V588.2ZM211.568 586.873C212.755 587.348 214.462 588.443 215.717 590.45C216.896 592.337 216.997 593.945 216.997 594.4H186.997C186.997 598.055 187.765 602.33 190.277 606.35C192.865 610.49 196.572 613.185 200.426 614.727L211.568 586.873ZM216.997 594.4C216.997 594.591 216.964 594.933 216.827 595.343C216.69 595.754 216.512 596.047 216.397 596.2L192.397 578.2C188.85 582.93 186.997 588.488 186.997 594.4H216.997ZM215.004 597.807C217.185 595.626 219.244 593.204 221.197 590.6L197.197 572.6C195.95 574.263 194.809 575.574 193.79 576.593L215.004 597.807ZM219.956 592.052C238.494 572.968 255.938 552.799 272.286 531.546L248.508 513.254C232.856 533.601 216.166 552.898 198.438 571.148L219.956 592.052ZM272.17 531.695C288.4 511.136 303.82 490.035 318.43 468.392L293.564 451.608C279.373 472.631 264.393 493.13 248.624 513.105L272.17 531.695ZM318.348 468.512C345.74 428.767 371.526 388.477 395.704 347.642L369.89 332.358C346.068 372.59 320.654 412.3 293.646 451.488L318.348 468.512ZM395.704 347.642C419.927 306.733 442.529 264.487 463.512 220.907L436.482 207.893C415.865 250.713 393.667 292.2 369.89 332.358L395.704 347.642ZM463.633 220.65C469.622 207.583 475.852 192.951 482.324 176.771L454.47 165.629C448.142 181.449 442.105 195.617 436.361 208.15L463.633 220.65ZM482.16 177.164C489.398 160.462 495.255 143.455 499.721 126.148L470.673 118.652C466.606 134.412 461.262 149.938 454.634 165.236L482.16 177.164ZM499.637 126.461C504.711 108.421 507.397 91.5592 507.397 76H477.397C477.397 88.1741 475.283 102.246 470.757 118.339L499.637 126.461ZM507.397 76C507.397 51.8661 500.906 30.8412 483.619 18.2689L465.974 42.531C472.154 47.0255 477.397 56.4005 477.397 76H507.397ZM483.969 18.5307C468.794 6.80468 449.18 1.79998 426.797 1.79998V31.8C444.947 31.8 457.333 35.862 465.625 42.2693L483.969 18.5307ZM426.797 1.79998C398.922 1.79998 369.069 8.18138 337.396 20.4061L348.198 48.3938C377.325 37.1519 403.471 31.8 426.797 31.8V1.79998ZM337.53 20.355C306.666 31.9291 275.672 47.3064 244.548 66.4174L260.246 91.9826C289.922 73.7602 319.195 59.2709 348.064 48.4449L337.53 20.355ZM244.612 66.3782C214.286 84.7908 185.813 104.312 159.205 124.947L177.589 148.653C203.248 128.755 230.775 109.876 260.182 92.0218L244.612 66.3782ZM159.086 125.039C133.129 145.589 111.273 164.962 93.6284 183.158L115.165 204.042C131.654 187.038 152.464 168.545 177.707 148.561L159.086 125.039ZM93.5219 183.269C82.9886 194.356 71.7469 207.53 59.8021 222.733L83.3917 241.267C94.9136 226.603 105.539 214.177 115.272 203.931L93.5219 183.269ZM59.8021 222.733C47.4403 238.466 36.7644 255.324 27.7805 273.292L54.6133 286.708C62.696 270.543 72.2868 255.401 83.3917 241.267L59.8021 222.733ZM27.6945 273.467C18.892 291.658 14.1969 309.885 14.1969 328H44.1969C44.1969 315.182 47.5018 301.408 54.6993 286.533L27.6945 273.467ZM14.1969 328C14.1969 343.438 17.8835 357.9 28.1903 368.207L49.4035 346.993C46.9103 344.5 44.1969 339.228 44.1969 328H14.1969ZM28.6227 368.622C38.0691 377.342 49.7723 382.454 62.9718 384.434L67.422 354.766C59.2881 353.546 53.3913 350.658 48.9711 346.578L28.6227 368.622ZM62.9718 384.434C74.3667 386.143 85.7771 387 97.1969 387V357C87.2833 357 77.3604 356.257 67.422 354.766L62.9718 384.434ZM97.1969 387C111.518 387 126.78 385.569 142.945 382.782L137.848 353.218C123.08 355.764 109.542 357 97.1969 357V387ZM142.863 382.796C160.174 379.911 175.7 374.921 189.18 367.568L174.814 341.232C164.827 346.679 152.62 350.756 137.931 353.204L142.863 382.796ZM188.705 367.816C189.608 367.365 190.055 367.172 190.168 367.127C190.228 367.103 189.998 367.2 189.568 367.323C189.344 367.387 188.954 367.49 188.443 367.583C187.969 367.669 187.105 367.8 185.997 367.8V337.8C183.767 337.8 181.995 338.286 181.326 338.477C180.429 338.733 179.632 339.03 179.026 339.273C177.805 339.761 176.519 340.368 175.289 340.984L188.705 367.816ZM185.997 367.8C184.629 367.8 181.063 367.293 178.208 363.962C176.967 362.514 176.359 361.069 176.074 360.071C175.801 359.115 175.797 358.489 175.797 358.4H205.797C205.797 354.739 205.062 349.193 200.986 344.438C196.531 339.24 190.565 337.8 185.997 337.8V367.8ZM175.797 358.4C175.797 357.877 175.909 357.343 176.091 356.905C176.259 356.499 176.391 356.405 176.218 356.598C175.772 357.097 174.31 358.381 170.81 360.028L183.584 387.172C193.944 382.297 205.797 373.451 205.797 358.4H175.797ZM171.486 359.73C163.425 363.049 153.64 366.014 142.01 368.542L148.383 397.858C161.287 395.053 172.835 391.618 182.908 387.47L171.486 359.73ZM142.627 368.422C130.701 370.496 119.352 372.041 108.575 373.068L111.419 402.932C123.042 401.826 135.159 400.171 147.767 397.978L142.627 368.422ZM108.504 373.074C97.8137 374.143 91.0277 374.6 87.5969 374.6V404.6C92.6994 404.6 100.847 403.99 111.489 402.926L108.504 373.074ZM87.5969 374.6C78.4684 374.6 67.5568 373.635 54.7667 371.588L50.027 401.212C63.9036 403.432 76.4587 404.6 87.5969 404.6V374.6ZM55.3386 371.691C44.327 369.489 37.0169 365.366 32.1627 360.165L10.231 380.635C20.3102 391.434 33.8001 397.978 49.4551 401.109L55.3386 371.691ZM32.1888 360.193C20.8053 347.934 15.3969 334.213 15.3969 318.4H-14.6031C-14.6031 342.054 -6.14489 362.999 10.205 380.607L32.1888 360.193ZM15.3969 318.4C15.3969 300.557 21.4004 281.158 34.7002 259.976L9.29353 244.023C-6.20667 268.709 -14.6031 293.576 -14.6031 318.4H15.3969ZM34.5668 260.185C48.7101 238.465 67.5997 216.443 91.4401 194.158L70.9536 172.242C45.7274 195.823 25.1504 219.668 9.42691 243.815L34.5668 260.185ZM91.4401 194.158C115.408 171.753 142.043 150.333 171.369 129.909L154.224 105.291C123.818 126.467 96.0523 148.78 70.9536 172.242L91.4401 194.158ZM171.515 129.806C200.915 108.806 230.531 90.2018 260.363 73.9772L246.03 47.6227C215.062 64.4649 184.412 83.7269 154.078 105.394L171.515 129.806ZM260.363 73.9772C290.291 57.7011 318.206 44.6711 344.125 34.8217L333.469 6.77822C306.055 17.1955 276.903 30.8322 246.03 47.6227L260.363 73.9772ZM344.368 34.7271C370.416 24.3079 391.017 18.7509 406.555 17.3384L403.839 -12.5384C384.177 -10.751 360.511 -4.04123 333.226 6.87282L344.368 34.7271ZM408.451 17.0428C412.209 16.2077 415.918 15.8 419.597 15.8V-14.2C413.676 -14.2 407.785 -13.5411 401.943 -12.2428L408.451 17.0428ZM419.597 15.8C419.606 15.8 419.616 15.8 419.625 15.8C419.634 15.8 419.644 15.8 419.653 15.8C419.663 15.8 419.672 15.8 419.681 15.8C419.691 15.8 419.7 15.8 419.709 15.8C419.719 15.8 419.728 15.8 419.738 15.8C419.747 15.8 419.756 15.8 419.766 15.8C419.775 15.8 419.784 15.8 419.794 15.8C419.803 15.8 419.813 15.8 419.822 15.8C419.831 15.8 419.841 15.8 419.85 15.8C419.859 15.8 419.869 15.8 419.878 15.8C419.888 15.8 419.897 15.8 419.906 15.8C419.916 15.8 419.925 15.8 419.934 15.8C419.944 15.8 419.953 15.8 419.963 15.8C419.972 15.8 419.981 15.8 419.991 15.8C420 15.8 420.009 15.8 420.019 15.8C420.028 15.8 420.038 15.8 420.047 15.8C420.056 15.8 420.066 15.8 420.075 15.8C420.084 15.8 420.094 15.8 420.103 15.8C420.113 15.8 420.122 15.8 420.131 15.8C420.141 15.8 420.15 15.8 420.159 15.8C420.169 15.8 420.178 15.8 420.188 15.8C420.197 15.8 420.206 15.8 420.216 15.8C420.225 15.8 420.234 15.8 420.244 15.8C420.253 15.8 420.263 15.8 420.272 15.8C420.281 15.8 420.291 15.8 420.3 15.8C420.309 15.8 420.319 15.8 420.328 15.8C420.338 15.8 420.347 15.8 420.356 15.8C420.366 15.8 420.375 15.8 420.384 15.8C420.394 15.8 420.403 15.8 420.413 15.8C420.422 15.8 420.431 15.8 420.441 15.8C420.45 15.8 420.459 15.8 420.469 15.8C420.478 15.8 420.488 15.8 420.497 15.8C420.506 15.8 420.516 15.8 420.525 15.8C420.534 15.8 420.544 15.8 420.553 15.8C420.563 15.8 420.572 15.8 420.581 15.8C420.591 15.8 420.6 15.8 420.609 15.8C420.619 15.8 420.628 15.8 420.638 15.8C420.647 15.8 420.656 15.8 420.666 15.8C420.675 15.8 420.684 15.8 420.694 15.8C420.703 15.8 420.713 15.8 420.722 15.8C420.731 15.8 420.741 15.8 420.75 15.8C420.759 15.8 420.769 15.8 420.778 15.8C420.788 15.8 420.797 15.8 420.806 15.8C420.816 15.8 420.825 15.8 420.834 15.8C420.844 15.8 420.853 15.8 420.863 15.8C420.872 15.8 420.881 15.8 420.891 15.8C420.9 15.8 420.909 15.8 420.919 15.8C420.928 15.8 420.938 15.8 420.947 15.8C420.956 15.8 420.966 15.8 420.975 15.8C420.984 15.8 420.994 15.8 421.003 15.8C421.013 15.8 421.022 15.8 421.031 15.8C421.041 15.8 421.05 15.8 421.059 15.8C421.069 15.8 421.078 15.8 421.088 15.8C421.097 15.8 421.106 15.8 421.116 15.8C421.125 15.8 421.134 15.8 421.144 15.8C421.153 15.8 421.163 15.8 421.172 15.8C421.181 15.8 421.191 15.8 421.2 15.8C421.209 15.8 421.219 15.8 421.228 15.8C421.238 15.8 421.247 15.8 421.256 15.8C421.266 15.8 421.275 15.8 421.284 15.8C421.294 15.8 421.303 15.8 421.313 15.8C421.322 15.8 421.331 15.8 421.341 15.8C421.35 15.8 421.359 15.8 421.369 15.8C421.378 15.8 421.388 15.8 421.397 15.8C421.406 15.8 421.416 15.8 421.425 15.8C421.434 15.8 421.444 15.8 421.453 15.8C421.463 15.8 421.472 15.8 421.481 15.8C421.491 15.8 421.5 15.8 421.509 15.8C421.519 15.8 421.528 15.8 421.538 15.8C421.547 15.8 421.556 15.8 421.566 15.8C421.575 15.8 421.584 15.8 421.594 15.8C421.603 15.8 421.613 15.8 421.622 15.8C421.631 15.8 421.641 15.8 421.65 15.8C421.659 15.8 421.669 15.8 421.678 15.8C421.688 15.8 421.697 15.8 421.706 15.8C421.716 15.8 421.725 15.8 421.734 15.8C421.744 15.8 421.753 15.8 421.763 15.8C421.772 15.8 421.781 15.8 421.791 15.8C421.8 15.8 421.809 15.8 421.819 15.8C421.828 15.8 421.838 15.8 421.847 15.8C421.856 15.8 421.866 15.8 421.875 15.8C421.884 15.8 421.894 15.8 421.903 15.8C421.913 15.8 421.922 15.8 421.931 15.8C421.941 15.8 421.95 15.8 421.959 15.8C421.969 15.8 421.978 15.8 421.988 15.8C421.997 15.8 422.006 15.8 422.016 15.8C422.025 15.8 422.034 15.8 422.044 15.8C422.053 15.8 422.063 15.8 422.072 15.8C422.081 15.8 422.091 15.8 422.1 15.8C422.109 15.8 422.119 15.8 422.128 15.8C422.138 15.8 422.147 15.8 422.156 15.8C422.166 15.8 422.175 15.8 422.184 15.8C422.194 15.8 422.203 15.8 422.213 15.8C422.222 15.8 422.231 15.8 422.241 15.8C422.25 15.8 422.259 15.8 422.269 15.8C422.278 15.8 422.288 15.8 422.297 15.8C422.306 15.8 422.316 15.8 422.325 15.8C422.334 15.8 422.344 15.8 422.353 15.8C422.363 15.8 422.372 15.8 422.381 15.8C422.391 15.8 422.4 15.8 422.409 15.8C422.419 15.8 422.428 15.8 422.438 15.8C422.447 15.8 422.456 15.8 422.466 15.8C422.475 15.8 422.484 15.8 422.494 15.8C422.503 15.8 422.513 15.8 422.522 15.8C422.531 15.8 422.541 15.8 422.55 15.8C422.559 15.8 422.569 15.8 422.578 15.8C422.588 15.8 422.597 15.8 422.606 15.8C422.616 15.8 422.625 15.8 422.634 15.8C422.644 15.8 422.653 15.8 422.663 15.8C422.672 15.8 422.681 15.8 422.691 15.8C422.7 15.8 422.709 15.8 422.719 15.8C422.728 15.8 422.738 15.8 422.747 15.8C422.756 15.8 422.766 15.8 422.775 15.8C422.784 15.8 422.794 15.8 422.803 15.8C422.813 15.8 422.822 15.8 422.831 15.8C422.841 15.8 422.85 15.8 422.859 15.8C422.869 15.8 422.878 15.8 422.888 15.8C422.897 15.8 422.906 15.8 422.916 15.8C422.925 15.8 422.934 15.8 422.944 15.8C422.953 15.8 422.963 15.8 422.972 15.8C422.981 15.8 422.991 15.8 423 15.8C423.009 15.8 423.019 15.8 423.028 15.8C423.038 15.8 423.047 15.8 423.056 15.8C423.066 15.8 423.075 15.8 423.084 15.8C423.094 15.8 423.103 15.8 423.113 15.8C423.122 15.8 423.131 15.8 423.141 15.8C423.15 15.8 423.159 15.8 423.169 15.8C423.178 15.8 423.188 15.8 423.197 15.8C423.206 15.8 423.216 15.8 423.225 15.8C423.234 15.8 423.244 15.8 423.253 15.8C423.263 15.8 423.272 15.8 423.281 15.8C423.291 15.8 423.3 15.8 423.309 15.8C423.319 15.8 423.328 15.8 423.338 15.8C423.347 15.8 423.356 15.8 423.366 15.8C423.375 15.8 423.384 15.8 423.394 15.8C423.403 15.8 423.413 15.8 423.422 15.8C423.431 15.8 423.441 15.8 423.45 15.8C423.459 15.8 423.469 15.8 423.478 15.8C423.488 15.8 423.497 15.8 423.506 15.8C423.516 15.8 423.525 15.8 423.534 15.8C423.544 15.8 423.553 15.8 423.563 15.8C423.572 15.8 423.581 15.8 423.591 15.8C423.6 15.8 423.609 15.8 423.619 15.8C423.628 15.8 423.638 15.8 423.647 15.8C423.656 15.8 423.666 15.8 423.675 15.8C423.684 15.8 423.694 15.8 423.703 15.8C423.713 15.8 423.722 15.8 423.731 15.8C423.741 15.8 423.75 15.8 423.759 15.8C423.769 15.8 423.778 15.8 423.788 15.8C423.797 15.8 423.806 15.8 423.816 15.8C423.825 15.8 423.834 15.8 423.844 15.8C423.853 15.8 423.863 15.8 423.872 15.8C423.881 15.8 423.891 15.8 423.9 15.8C423.909 15.8 423.919 15.8 423.928 15.8C423.938 15.8 423.947 15.8 423.956 15.8C423.966 15.8 423.975 15.8 423.984 15.8C423.994 15.8 424.003 15.8 424.013 15.8C424.022 15.8 424.031 15.8 424.041 15.8C424.05 15.8 424.059 15.8 424.069 15.8C424.078 15.8 424.088 15.8 424.097 15.8C424.106 15.8 424.116 15.8 424.125 15.8C424.134 15.8 424.144 15.8 424.153 15.8C424.163 15.8 424.172 15.8 424.181 15.8C424.191 15.8 424.2 15.8 424.209 15.8C424.219 15.8 424.228 15.8 424.238 15.8C424.247 15.8 424.256 15.8 424.266 15.8C424.275 15.8 424.284 15.8 424.294 15.8C424.303 15.8 424.313 15.8 424.322 15.8C424.331 15.8 424.341 15.8 424.35 15.8C424.359 15.8 424.369 15.8 424.378 15.8C424.388 15.8 424.397 15.8 424.406 15.8C424.416 15.8 424.425 15.8 424.434 15.8C424.444 15.8 424.453 15.8 424.463 15.8C424.472 15.8 424.481 15.8 424.491 15.8C424.5 15.8 424.509 15.8 424.519 15.8C424.528 15.8 424.538 15.8 424.547 15.8C424.556 15.8 424.566 15.8 424.575 15.8C424.584 15.8 424.594 15.8 424.603 15.8C424.613 15.8 424.622 15.8 424.631 15.8C424.641 15.8 424.65 15.8 424.659 15.8C424.669 15.8 424.678 15.8 424.688 15.8C424.697 15.8 424.706 15.8 424.716 15.8C424.725 15.8 424.734 15.8 424.744 15.8C424.753 15.8 424.763 15.8 424.772 15.8C424.781 15.8 424.791 15.8 424.8 15.8C424.809 15.8 424.819 15.8 424.828 15.8C424.838 15.8 424.847 15.8 424.856 15.8C424.866 15.8 424.875 15.8 424.884 15.8C424.894 15.8 424.903 15.8 424.913 15.8C424.922 15.8 424.931 15.8 424.941 15.8C424.95 15.8 424.959 15.8 424.969 15.8C424.978 15.8 424.988 15.8 424.997 15.8C425.006 15.8 425.016 15.8 425.025 15.8C425.034 15.8 425.044 15.8 425.053 15.8C425.063 15.8 425.072 15.8 425.081 15.8C425.091 15.8 425.1 15.8 425.109 15.8C425.119 15.8 425.128 15.8 425.138 15.8C425.147 15.8 425.156 15.8 425.166 15.8C425.175 15.8 425.184 15.8 425.194 15.8C425.203 15.8 425.213 15.8 425.222 15.8C425.231 15.8 425.241 15.8 425.25 15.8C425.259 15.8 425.269 15.8 425.278 15.8C425.288 15.8 425.297 15.8 425.306 15.8C425.316 15.8 425.325 15.8 425.334 15.8C425.344 15.8 425.353 15.8 425.363 15.8C425.372 15.8 425.381 15.8 425.391 15.8C425.4 15.8 425.409 15.8 425.419 15.8C425.428 15.8 425.438 15.8 425.447 15.8C425.456 15.8 425.466 15.8 425.475 15.8C425.484 15.8 425.494 15.8 425.503 15.8C425.513 15.8 425.522 15.8 425.531 15.8C425.541 15.8 425.55 15.8 425.559 15.8C425.569 15.8 425.578 15.8 425.588 15.8C425.597 15.8 425.606 15.8 425.616 15.8C425.625 15.8 425.634 15.8 425.644 15.8C425.653 15.8 425.663 15.8 425.672 15.8C425.681 15.8 425.691 15.8 425.7 15.8C425.709 15.8 425.719 15.8 425.728 15.8C425.738 15.8 425.747 15.8 425.756 15.8C425.766 15.8 425.775 15.8 425.784 15.8C425.794 15.8 425.803 15.8 425.813 15.8C425.822 15.8 425.831 15.8 425.841 15.8C425.85 15.8 425.859 15.8 425.869 15.8C425.878 15.8 425.888 15.8 425.897 15.8C425.906 15.8 425.916 15.8 425.925 15.8C425.934 15.8 425.944 15.8 425.953 15.8C425.963 15.8 425.972 15.8 425.981 15.8C425.991 15.8 426 15.8 426.009 15.8C426.019 15.8 426.028 15.8 426.038 15.8C426.047 15.8 426.056 15.8 426.066 15.8C426.075 15.8 426.084 15.8 426.094 15.8C426.103 15.8 426.113 15.8 426.122 15.8C426.131 15.8 426.141 15.8 426.15 15.8C426.159 15.8 426.169 15.8 426.178 15.8C426.188 15.8 426.197 15.8 426.206 15.8C426.216 15.8 426.225 15.8 426.234 15.8C426.244 15.8 426.253 15.8 426.263 15.8C426.272 15.8 426.281 15.8 426.291 15.8C426.3 15.8 426.309 15.8 426.319 15.8C426.328 15.8 426.338 15.8 426.347 15.8C426.356 15.8 426.366 15.8 426.375 15.8C426.384 15.8 426.394 15.8 426.403 15.8C426.413 15.8 426.422 15.8 426.431 15.8C426.441 15.8 426.45 15.8 426.459 15.8C426.469 15.8 426.478 15.8 426.488 15.8C426.497 15.8 426.506 15.8 426.516 15.8C426.525 15.8 426.534 15.8 426.544 15.8C426.553 15.8 426.563 15.8 426.572 15.8C426.581 15.8 426.591 15.8 426.6 15.8C426.609 15.8 426.619 15.8 426.628 15.8C426.638 15.8 426.647 15.8 426.656 15.8C426.666 15.8 426.675 15.8 426.684 15.8C426.694 15.8 426.703 15.8 426.713 15.8C426.722 15.8 426.731 15.8 426.741 15.8C426.75 15.8 426.759 15.8 426.769 15.8C426.778 15.8 426.788 15.8 426.797 15.8C426.806 15.8 426.816 15.8 426.825 15.8C426.834 15.8 426.844 15.8 426.853 15.8C426.863 15.8 426.872 15.8 426.881 15.8C426.891 15.8 426.9 15.8 426.909 15.8C426.919 15.8 426.928 15.8 426.938 15.8C426.947 15.8 426.956 15.8 426.966 15.8C426.975 15.8 426.984 15.8 426.994 15.8C427.003 15.8 427.013 15.8 427.022 15.8C427.031 15.8 427.041 15.8 427.05 15.8C427.059 15.8 427.069 15.8 427.078 15.8C427.088 15.8 427.097 15.8 427.106 15.8C427.116 15.8 427.125 15.8 427.134 15.8C427.144 15.8 427.153 15.8 427.163 15.8C427.172 15.8 427.181 15.8 427.191 15.8C427.2 15.8 427.209 15.8 427.219 15.8C427.228 15.8 427.238 15.8 427.247 15.8C427.256 15.8 427.266 15.8 427.275 15.8C427.284 15.8 427.294 15.8 427.303 15.8C427.313 15.8 427.322 15.8 427.331 15.8C427.341 15.8 427.35 15.8 427.359 15.8C427.369 15.8 427.378 15.8 427.388 15.8C427.397 15.8 427.406 15.8 427.416 15.8C427.425 15.8 427.434 15.8 427.444 15.8C427.453 15.8 427.463 15.8 427.472 15.8C427.481 15.8 427.491 15.8 427.5 15.8C427.509 15.8 427.519 15.8 427.528 15.8C427.538 15.8 427.547 15.8 427.556 15.8C427.566 15.8 427.575 15.8 427.584 15.8C427.594 15.8 427.603 15.8 427.613 15.8C427.622 15.8 427.631 15.8 427.641 15.8C427.65 15.8 427.659 15.8 427.669 15.8C427.678 15.8 427.688 15.8 427.697 15.8C427.706 15.8 427.716 15.8 427.725 15.8C427.734 15.8 427.744 15.8 427.753 15.8C427.763 15.8 427.772 15.8 427.781 15.8C427.791 15.8 427.8 15.8 427.809 15.8C427.819 15.8 427.828 15.8 427.838 15.8C427.847 15.8 427.856 15.8 427.866 15.8C427.875 15.8 427.884 15.8 427.894 15.8C427.903 15.8 427.913 15.8 427.922 15.8C427.931 15.8 427.941 15.8 427.95 15.8C427.959 15.8 427.969 15.8 427.978 15.8C427.988 15.8 427.997 15.8 428.006 15.8C428.016 15.8 428.025 15.8 428.034 15.8C428.044 15.8 428.053 15.8 428.063 15.8C428.072 15.8 428.081 15.8 428.091 15.8C428.1 15.8 428.109 15.8 428.119 15.8C428.128 15.8 428.138 15.8 428.147 15.8C428.156 15.8 428.166 15.8 428.175 15.8C428.184 15.8 428.194 15.8 428.203 15.8C428.213 15.8 428.222 15.8 428.231 15.8C428.241 15.8 428.25 15.8 428.259 15.8C428.269 15.8 428.278 15.8 428.288 15.8C428.297 15.8 428.306 15.8 428.316 15.8C428.325 15.8 428.334 15.8 428.344 15.8C428.353 15.8 428.363 15.8 428.372 15.8C428.381 15.8 428.391 15.8 428.4 15.8C428.409 15.8 428.419 15.8 428.428 15.8C428.438 15.8 428.447 15.8 428.456 15.8C428.466 15.8 428.475 15.8 428.484 15.8C428.494 15.8 428.503 15.8 428.513 15.8C428.522 15.8 428.531 15.8 428.541 15.8C428.55 15.8 428.559 15.8 428.569 15.8C428.578 15.8 428.588 15.8 428.597 15.8C428.606 15.8 428.616 15.8 428.625 15.8C428.634 15.8 428.644 15.8 428.653 15.8C428.663 15.8 428.672 15.8 428.681 15.8C428.691 15.8 428.7 15.8 428.709 15.8C428.719 15.8 428.728 15.8 428.738 15.8C428.747 15.8 428.756 15.8 428.766 15.8C428.775 15.8 428.784 15.8 428.794 15.8C428.803 15.8 428.813 15.8 428.822 15.8C428.831 15.8 428.841 15.8 428.85 15.8C428.859 15.8 428.869 15.8 428.878 15.8C428.888 15.8 428.897 15.8 428.906 15.8C428.916 15.8 428.925 15.8 428.934 15.8C428.944 15.8 428.953 15.8 428.963 15.8C428.972 15.8 428.981 15.8 428.991 15.8C429 15.8 429.009 15.8 429.019 15.8C429.028 15.8 429.038 15.8 429.047 15.8C429.056 15.8 429.066 15.8 429.075 15.8C429.084 15.8 429.094 15.8 429.103 15.8C429.113 15.8 429.122 15.8 429.131 15.8C429.141 15.8 429.15 15.8 429.159 15.8C429.169 15.8 429.178 15.8 429.188 15.8C429.197 15.8 429.206 15.8 429.216 15.8C429.225 15.8 429.234 15.8 429.244 15.8C429.253 15.8 429.263 15.8 429.272 15.8C429.281 15.8 429.291 15.8 429.3 15.8C429.309 15.8 429.319 15.8 429.328 15.8C429.338 15.8 429.347 15.8 429.356 15.8C429.366 15.8 429.375 15.8 429.384 15.8C429.394 15.8 429.403 15.8 429.413 15.8C429.422 15.8 429.431 15.8 429.441 15.8C429.45 15.8 429.459 15.8 429.469 15.8C429.478 15.8 429.488 15.8 429.497 15.8C429.506 15.8 429.516 15.8 429.525 15.8C429.534 15.8 429.544 15.8 429.553 15.8C429.563 15.8 429.572 15.8 429.581 15.8C429.591 15.8 429.6 15.8 429.609 15.8C429.619 15.8 429.628 15.8 429.638 15.8C429.647 15.8 429.656 15.8 429.666 15.8C429.675 15.8 429.684 15.8 429.694 15.8C429.703 15.8 429.713 15.8 429.722 15.8C429.731 15.8 429.741 15.8 429.75 15.8C429.759 15.8 429.769 15.8 429.778 15.8C429.788 15.8 429.797 15.8 429.806 15.8C429.816 15.8 429.825 15.8 429.834 15.8C429.844 15.8 429.853 15.8 429.863 15.8C429.872 15.8 429.881 15.8 429.891 15.8C429.9 15.8 429.909 15.8 429.919 15.8C429.928 15.8 429.938 15.8 429.947 15.8C429.956 15.8 429.966 15.8 429.975 15.8C429.984 15.8 429.994 15.8 430.003 15.8C430.013 15.8 430.022 15.8 430.031 15.8C430.041 15.8 430.05 15.8 430.059 15.8C430.069 15.8 430.078 15.8 430.088 15.8C430.097 15.8 430.106 15.8 430.116 15.8C430.125 15.8 430.134 15.8 430.144 15.8C430.153 15.8 430.163 15.8 430.172 15.8C430.181 15.8 430.191 15.8 430.2 15.8C430.209 15.8 430.219 15.8 430.228 15.8C430.238 15.8 430.247 15.8 430.256 15.8C430.266 15.8 430.275 15.8 430.284 15.8C430.294 15.8 430.303 15.8 430.313 15.8C430.322 15.8 430.331 15.8 430.341 15.8C430.35 15.8 430.359 15.8 430.369 15.8C430.378 15.8 430.388 15.8 430.397 15.8C430.406 15.8 430.416 15.8 430.425 15.8C430.434 15.8 430.444 15.8 430.453 15.8C430.463 15.8 430.472 15.8 430.481 15.8C430.491 15.8 430.5 15.8 430.509 15.8C430.519 15.8 430.528 15.8 430.538 15.8C430.547 15.8 430.556 15.8 430.566 15.8C430.575 15.8 430.584 15.8 430.594 15.8C430.603 15.8 430.613 15.8 430.622 15.8C430.631 15.8 430.641 15.8 430.65 15.8C430.659 15.8 430.669 15.8 430.678 15.8C430.688 15.8 430.697 15.8 430.706 15.8C430.716 15.8 430.725 15.8 430.734 15.8C430.744 15.8 430.753 15.8 430.763 15.8C430.772 15.8 430.781 15.8 430.791 15.8C430.8 15.8 430.809 15.8 430.819 15.8C430.828 15.8 430.838 15.8 430.847 15.8C430.856 15.8 430.866 15.8 430.875 15.8C430.884 15.8 430.894 15.8 430.903 15.8C430.913 15.8 430.922 15.8 430.931 15.8C430.941 15.8 430.95 15.8 430.959 15.8C430.969 15.8 430.978 15.8 430.988 15.8C430.997 15.8 431.006 15.8 431.016 15.8C431.025 15.8 431.034 15.8 431.044 15.8C431.053 15.8 431.063 15.8 431.072 15.8C431.081 15.8 431.091 15.8 431.1 15.8C431.109 15.8 431.119 15.8 431.128 15.8C431.138 15.8 431.147 15.8 431.156 15.8C431.166 15.8 431.175 15.8 431.184 15.8C431.194 15.8 431.203 15.8 431.213 15.8C431.222 15.8 431.231 15.8 431.241 15.8C431.25 15.8 431.259 15.8 431.269 15.8C431.278 15.8 431.288 15.8 431.297 15.8C431.306 15.8 431.316 15.8 431.325 15.8C431.334 15.8 431.344 15.8 431.353 15.8C431.363 15.8 431.372 15.8 431.381 15.8C431.391 15.8 431.4 15.8 431.409 15.8C431.419 15.8 431.428 15.8 431.438 15.8C431.447 15.8 431.456 15.8 431.466 15.8C431.475 15.8 431.484 15.8 431.494 15.8C431.503 15.8 431.513 15.8 431.522 15.8C431.531 15.8 431.541 15.8 431.55 15.8C431.559 15.8 431.569 15.8 431.578 15.8C431.588 15.8 431.597 15.8 431.606 15.8C431.616 15.8 431.625 15.8 431.634 15.8C431.644 15.8 431.653 15.8 431.663 15.8C431.672 15.8 431.681 15.8 431.691 15.8C431.7 15.8 431.709 15.8 431.719 15.8C431.728 15.8 431.738 15.8 431.747 15.8C431.756 15.8 431.766 15.8 431.775 15.8C431.784 15.8 431.794 15.8 431.803 15.8C431.813 15.8 431.822 15.8 431.831 15.8C431.841 15.8 431.85 15.8 431.859 15.8C431.869 15.8 431.878 15.8 431.888 15.8C431.897 15.8 431.906 15.8 431.916 15.8C431.925 15.8 431.934 15.8 431.944 15.8C431.953 15.8 431.963 15.8 431.972 15.8C431.981 15.8 431.991 15.8 432 15.8C432.009 15.8 432.019 15.8 432.028 15.8C432.038 15.8 432.047 15.8 432.056 15.8C432.066 15.8 432.075 15.8 432.084 15.8C432.094 15.8 432.103 15.8 432.113 15.8C432.122 15.8 432.131 15.8 432.141 15.8C432.15 15.8 432.159 15.8 432.169 15.8C432.178 15.8 432.188 15.8 432.197 15.8C432.206 15.8 432.216 15.8 432.225 15.8C432.234 15.8 432.244 15.8 432.253 15.8C432.263 15.8 432.272 15.8 432.281 15.8C432.291 15.8 432.3 15.8 432.309 15.8C432.319 15.8 432.328 15.8 432.338 15.8C432.347 15.8 432.356 15.8 432.366 15.8C432.375 15.8 432.384 15.8 432.394 15.8C432.403 15.8 432.413 15.8 432.422 15.8C432.431 15.8 432.441 15.8 432.45 15.8C432.459 15.8 432.469 15.8 432.478 15.8C432.488 15.8 432.497 15.8 432.506 15.8C432.516 15.8 432.525 15.8 432.534 15.8C432.544 15.8 432.553 15.8 432.563 15.8C432.572 15.8 432.581 15.8 432.591 15.8C432.6 15.8 432.609 15.8 432.619 15.8C432.628 15.8 432.638 15.8 432.647 15.8C432.656 15.8 432.666 15.8 432.675 15.8C432.684 15.8 432.694 15.8 432.703 15.8C432.713 15.8 432.722 15.8 432.731 15.8C432.741 15.8 432.75 15.8 432.759 15.8C432.769 15.8 432.778 15.8 432.788 15.8C432.797 15.8 432.806 15.8 432.816 15.8C432.825 15.8 432.834 15.8 432.844 15.8C432.853 15.8 432.863 15.8 432.872 15.8C432.881 15.8 432.891 15.8 432.9 15.8C432.909 15.8 432.919 15.8 432.928 15.8C432.938 15.8 432.947 15.8 432.956 15.8C432.966 15.8 432.975 15.8 432.984 15.8C432.994 15.8 433.003 15.8 433.013 15.8C433.022 15.8 433.031 15.8 433.041 15.8C433.05 15.8 433.059 15.8 433.069 15.8C433.078 15.8 433.088 15.8 433.097 15.8C433.106 15.8 433.116 15.8 433.125 15.8C433.134 15.8 433.144 15.8 433.153 15.8C433.163 15.8 433.172 15.8 433.181 15.8C433.191 15.8 433.2 15.8 433.209 15.8C433.219 15.8 433.228 15.8 433.238 15.8C433.247 15.8 433.256 15.8 433.266 15.8C433.275 15.8 433.284 15.8 433.294 15.8C433.303 15.8 433.313 15.8 433.322 15.8C433.331 15.8 433.341 15.8 433.35 15.8C433.359 15.8 433.369 15.8 433.378 15.8C433.388 15.8 433.397 15.8 433.406 15.8C433.416 15.8 433.425 15.8 433.434 15.8C433.444 15.8 433.453 15.8 433.463 15.8C433.472 15.8 433.481 15.8 433.491 15.8C433.5 15.8 433.509 15.8 433.519 15.8C433.528 15.8 433.538 15.8 433.547 15.8C433.556 15.8 433.566 15.8 433.575 15.8C433.584 15.8 433.594 15.8 433.603 15.8C433.613 15.8 433.622 15.8 433.631 15.8C433.641 15.8 433.65 15.8 433.659 15.8C433.669 15.8 433.678 15.8 433.688 15.8C433.697 15.8 433.706 15.8 433.716 15.8C433.725 15.8 433.734 15.8 433.744 15.8C433.753 15.8 433.763 15.8 433.772 15.8C433.781 15.8 433.791 15.8 433.8 15.8C433.809 15.8 433.819 15.8 433.828 15.8C433.838 15.8 433.847 15.8 433.856 15.8C433.866 15.8 433.875 15.8 433.884 15.8C433.894 15.8 433.903 15.8 433.913 15.8C433.922 15.8 433.931 15.8 433.941 15.8C433.95 15.8 433.959 15.8 433.969 15.8C433.978 15.8 433.988 15.8 433.997 15.8V-14.2C433.988 -14.2 433.978 -14.2 433.969 -14.2C433.959 -14.2 433.95 -14.2 433.941 -14.2C433.931 -14.2 433.922 -14.2 433.913 -14.2C433.903 -14.2 433.894 -14.2 433.884 -14.2C433.875 -14.2 433.866 -14.2 433.856 -14.2C433.847 -14.2 433.838 -14.2 433.828 -14.2C433.819 -14.2 433.809 -14.2 433.8 -14.2C433.791 -14.2 433.781 -14.2 433.772 -14.2C433.763 -14.2 433.753 -14.2 433.744 -14.2C433.734 -14.2 433.725 -14.2 433.716 -14.2C433.706 -14.2 433.697 -14.2 433.688 -14.2C433.678 -14.2 433.669 -14.2 433.659 -14.2C433.65 -14.2 433.641 -14.2 433.631 -14.2C433.622 -14.2 433.613 -14.2 433.603 -14.2C433.594 -14.2 433.584 -14.2 433.575 -14.2C433.566 -14.2 433.556 -14.2 433.547 -14.2C433.538 -14.2 433.528 -14.2 433.519 -14.2C433.509 -14.2 433.5 -14.2 433.491 -14.2C433.481 -14.2 433.472 -14.2 433.463 -14.2C433.453 -14.2 433.444 -14.2 433.434 -14.2C433.425 -14.2 433.416 -14.2 433.406 -14.2C433.397 -14.2 433.388 -14.2 433.378 -14.2C433.369 -14.2 433.359 -14.2 433.35 -14.2C433.341 -14.2 433.331 -14.2 433.322 -14.2C433.313 -14.2 433.303 -14.2 433.294 -14.2C433.284 -14.2 433.275 -14.2 433.266 -14.2C433.256 -14.2 433.247 -14.2 433.238 -14.2C433.228 -14.2 433.219 -14.2 433.209 -14.2C433.2 -14.2 433.191 -14.2 433.181 -14.2C433.172 -14.2 433.163 -14.2 433.153 -14.2C433.144 -14.2 433.134 -14.2 433.125 -14.2C433.116 -14.2 433.106 -14.2 433.097 -14.2C433.088 -14.2 433.078 -14.2 433.069 -14.2C433.059 -14.2 433.05 -14.2 433.041 -14.2C433.031 -14.2 433.022 -14.2 433.013 -14.2C433.003 -14.2 432.994 -14.2 432.984 -14.2C432.975 -14.2 432.966 -14.2 432.956 -14.2C432.947 -14.2 432.938 -14.2 432.928 -14.2C432.919 -14.2 432.909 -14.2 432.9 -14.2C432.891 -14.2 432.881 -14.2 432.872 -14.2C432.863 -14.2 432.853 -14.2 432.844 -14.2C432.834 -14.2 432.825 -14.2 432.816 -14.2C432.806 -14.2 432.797 -14.2 432.788 -14.2C432.778 -14.2 432.769 -14.2 432.759 -14.2C432.75 -14.2 432.741 -14.2 432.731 -14.2C432.722 -14.2 432.713 -14.2 432.703 -14.2C432.694 -14.2 432.684 -14.2 432.675 -14.2C432.666 -14.2 432.656 -14.2 432.647 -14.2C432.638 -14.2 432.628 -14.2 432.619 -14.2C432.609 -14.2 432.6 -14.2 432.591 -14.2C432.581 -14.2 432.572 -14.2 432.563 -14.2C432.553 -14.2 432.544 -14.2 432.534 -14.2C432.525 -14.2 432.516 -14.2 432.506 -14.2C432.497 -14.2 432.488 -14.2 432.478 -14.2C432.469 -14.2 432.459 -14.2 432.45 -14.2C432.441 -14.2 432.431 -14.2 432.422 -14.2C432.413 -14.2 432.403 -14.2 432.394 -14.2C432.384 -14.2 432.375 -14.2 432.366 -14.2C432.356 -14.2 432.347 -14.2 432.338 -14.2C432.328 -14.2 432.319 -14.2 432.309 -14.2C432.3 -14.2 432.291 -14.2 432.281 -14.2C432.272 -14.2 432.263 -14.2 432.253 -14.2C432.244 -14.2 432.234 -14.2 432.225 -14.2C432.216 -14.2 432.206 -14.2 432.197 -14.2C432.188 -14.2 432.178 -14.2 432.169 -14.2C432.159 -14.2 432.15 -14.2 432.141 -14.2C432.131 -14.2 432.122 -14.2 432.113 -14.2C432.103 -14.2 432.094 -14.2 432.084 -14.2C432.075 -14.2 432.066 -14.2 432.056 -14.2C432.047 -14.2 432.038 -14.2 432.028 -14.2C432.019 -14.2 432.009 -14.2 432 -14.2C431.991 -14.2 431.981 -14.2 431.972 -14.2C431.963 -14.2 431.953 -14.2 431.944 -14.2C431.934 -14.2 431.925 -14.2 431.916 -14.2C431.906 -14.2 431.897 -14.2 431.888 -14.2C431.878 -14.2 431.869 -14.2 431.859 -14.2C431.85 -14.2 431.841 -14.2 431.831 -14.2C431.822 -14.2 431.813 -14.2 431.803 -14.2C431.794 -14.2 431.784 -14.2 431.775 -14.2C431.766 -14.2 431.756 -14.2 431.747 -14.2C431.738 -14.2 431.728 -14.2 431.719 -14.2C431.709 -14.2 431.7 -14.2 431.691 -14.2C431.681 -14.2 431.672 -14.2 431.663 -14.2C431.653 -14.2 431.644 -14.2 431.634 -14.2C431.625 -14.2 431.616 -14.2 431.606 -14.2C431.597 -14.2 431.588 -14.2 431.578 -14.2C431.569 -14.2 431.559 -14.2 431.55 -14.2C431.541 -14.2 431.531 -14.2 431.522 -14.2C431.513 -14.2 431.503 -14.2 431.494 -14.2C431.484 -14.2 431.475 -14.2 431.466 -14.2C431.456 -14.2 431.447 -14.2 431.438 -14.2C431.428 -14.2 431.419 -14.2 431.409 -14.2C431.4 -14.2 431.391 -14.2 431.381 -14.2C431.372 -14.2 431.363 -14.2 431.353 -14.2C431.344 -14.2 431.334 -14.2 431.325 -14.2C431.316 -14.2 431.306 -14.2 431.297 -14.2C431.288 -14.2 431.278 -14.2 431.269 -14.2C431.259 -14.2 431.25 -14.2 431.241 -14.2C431.231 -14.2 431.222 -14.2 431.213 -14.2C431.203 -14.2 431.194 -14.2 431.184 -14.2C431.175 -14.2 431.166 -14.2 431.156 -14.2C431.147 -14.2 431.138 -14.2 431.128 -14.2C431.119 -14.2 431.109 -14.2 431.1 -14.2C431.091 -14.2 431.081 -14.2 431.072 -14.2C431.063 -14.2 431.053 -14.2 431.044 -14.2C431.034 -14.2 431.025 -14.2 431.016 -14.2C431.006 -14.2 430.997 -14.2 430.988 -14.2C430.978 -14.2 430.969 -14.2 430.959 -14.2C430.95 -14.2 430.941 -14.2 430.931 -14.2C430.922 -14.2 430.913 -14.2 430.903 -14.2C430.894 -14.2 430.884 -14.2 430.875 -14.2C430.866 -14.2 430.856 -14.2 430.847 -14.2C430.838 -14.2 430.828 -14.2 430.819 -14.2C430.809 -14.2 430.8 -14.2 430.791 -14.2C430.781 -14.2 430.772 -14.2 430.763 -14.2C430.753 -14.2 430.744 -14.2 430.734 -14.2C430.725 -14.2 430.716 -14.2 430.706 -14.2C430.697 -14.2 430.688 -14.2 430.678 -14.2C430.669 -14.2 430.659 -14.2 430.65 -14.2C430.641 -14.2 430.631 -14.2 430.622 -14.2C430.613 -14.2 430.603 -14.2 430.594 -14.2C430.584 -14.2 430.575 -14.2 430.566 -14.2C430.556 -14.2 430.547 -14.2 430.538 -14.2C430.528 -14.2 430.519 -14.2 430.509 -14.2C430.5 -14.2 430.491 -14.2 430.481 -14.2C430.472 -14.2 430.463 -14.2 430.453 -14.2C430.444 -14.2 430.434 -14.2 430.425 -14.2C430.416 -14.2 430.406 -14.2 430.397 -14.2C430.388 -14.2 430.378 -14.2 430.369 -14.2C430.359 -14.2 430.35 -14.2 430.341 -14.2C430.331 -14.2 430.322 -14.2 430.313 -14.2C430.303 -14.2 430.294 -14.2 430.284 -14.2C430.275 -14.2 430.266 -14.2 430.256 -14.2C430.247 -14.2 430.238 -14.2 430.228 -14.2C430.219 -14.2 430.209 -14.2 430.2 -14.2C430.191 -14.2 430.181 -14.2 430.172 -14.2C430.163 -14.2 430.153 -14.2 430.144 -14.2C430.134 -14.2 430.125 -14.2 430.116 -14.2C430.106 -14.2 430.097 -14.2 430.088 -14.2C430.078 -14.2 430.069 -14.2 430.059 -14.2C430.05 -14.2 430.041 -14.2 430.031 -14.2C430.022 -14.2 430.013 -14.2 430.003 -14.2C429.994 -14.2 429.984 -14.2 429.975 -14.2C429.966 -14.2 429.956 -14.2 429.947 -14.2C429.938 -14.2 429.928 -14.2 429.919 -14.2C429.909 -14.2 429.9 -14.2 429.891 -14.2C429.881 -14.2 429.872 -14.2 429.863 -14.2C429.853 -14.2 429.844 -14.2 429.834 -14.2C429.825 -14.2 429.816 -14.2 429.806 -14.2C429.797 -14.2 429.788 -14.2 429.778 -14.2C429.769 -14.2 429.759 -14.2 429.75 -14.2C429.741 -14.2 429.731 -14.2 429.722 -14.2C429.713 -14.2 429.703 -14.2 429.694 -14.2C429.684 -14.2 429.675 -14.2 429.666 -14.2C429.656 -14.2 429.647 -14.2 429.638 -14.2C429.628 -14.2 429.619 -14.2 429.609 -14.2C429.6 -14.2 429.591 -14.2 429.581 -14.2C429.572 -14.2 429.563 -14.2 429.553 -14.2C429.544 -14.2 429.534 -14.2 429.525 -14.2C429.516 -14.2 429.506 -14.2 429.497 -14.2C429.488 -14.2 429.478 -14.2 429.469 -14.2C429.459 -14.2 429.45 -14.2 429.441 -14.2C429.431 -14.2 429.422 -14.2 429.413 -14.2C429.403 -14.2 429.394 -14.2 429.384 -14.2C429.375 -14.2 429.366 -14.2 429.356 -14.2C429.347 -14.2 429.338 -14.2 429.328 -14.2C429.319 -14.2 429.309 -14.2 429.3 -14.2C429.291 -14.2 429.281 -14.2 429.272 -14.2C429.263 -14.2 429.253 -14.2 429.244 -14.2C429.234 -14.2 429.225 -14.2 429.216 -14.2C429.206 -14.2 429.197 -14.2 429.188 -14.2C429.178 -14.2 429.169 -14.2 429.159 -14.2C429.15 -14.2 429.141 -14.2 429.131 -14.2C429.122 -14.2 429.113 -14.2 429.103 -14.2C429.094 -14.2 429.084 -14.2 429.075 -14.2C429.066 -14.2 429.056 -14.2 429.047 -14.2C429.038 -14.2 429.028 -14.2 429.019 -14.2C429.009 -14.2 429 -14.2 428.991 -14.2C428.981 -14.2 428.972 -14.2 428.963 -14.2C428.953 -14.2 428.944 -14.2 428.934 -14.2C428.925 -14.2 428.916 -14.2 428.906 -14.2C428.897 -14.2 428.888 -14.2 428.878 -14.2C428.869 -14.2 428.859 -14.2 428.85 -14.2C428.841 -14.2 428.831 -14.2 428.822 -14.2C428.813 -14.2 428.803 -14.2 428.794 -14.2C428.784 -14.2 428.775 -14.2 428.766 -14.2C428.756 -14.2 428.747 -14.2 428.738 -14.2C428.728 -14.2 428.719 -14.2 428.709 -14.2C428.7 -14.2 428.691 -14.2 428.681 -14.2C428.672 -14.2 428.663 -14.2 428.653 -14.2C428.644 -14.2 428.634 -14.2 428.625 -14.2C428.616 -14.2 428.606 -14.2 428.597 -14.2C428.588 -14.2 428.578 -14.2 428.569 -14.2C428.559 -14.2 428.55 -14.2 428.541 -14.2C428.531 -14.2 428.522 -14.2 428.513 -14.2C428.503 -14.2 428.494 -14.2 428.484 -14.2C428.475 -14.2 428.466 -14.2 428.456 -14.2C428.447 -14.2 428.438 -14.2 428.428 -14.2C428.419 -14.2 428.409 -14.2 428.4 -14.2C428.391 -14.2 428.381 -14.2 428.372 -14.2C428.363 -14.2 428.353 -14.2 428.344 -14.2C428.334 -14.2 428.325 -14.2 428.316 -14.2C428.306 -14.2 428.297 -14.2 428.288 -14.2C428.278 -14.2 428.269 -14.2 428.259 -14.2C428.25 -14.2 428.241 -14.2 428.231 -14.2C428.222 -14.2 428.213 -14.2 428.203 -14.2C428.194 -14.2 428.184 -14.2 428.175 -14.2C428.166 -14.2 428.156 -14.2 428.147 -14.2C428.138 -14.2 428.128 -14.2 428.119 -14.2C428.109 -14.2 428.1 -14.2 428.091 -14.2C428.081 -14.2 428.072 -14.2 428.063 -14.2C428.053 -14.2 428.044 -14.2 428.034 -14.2C428.025 -14.2 428.016 -14.2 428.006 -14.2C427.997 -14.2 427.988 -14.2 427.978 -14.2C427.969 -14.2 427.959 -14.2 427.95 -14.2C427.941 -14.2 427.931 -14.2 427.922 -14.2C427.913 -14.2 427.903 -14.2 427.894 -14.2C427.884 -14.2 427.875 -14.2 427.866 -14.2C427.856 -14.2 427.847 -14.2 427.838 -14.2C427.828 -14.2 427.819 -14.2 427.809 -14.2C427.8 -14.2 427.791 -14.2 427.781 -14.2C427.772 -14.2 427.763 -14.2 427.753 -14.2C427.744 -14.2 427.734 -14.2 427.725 -14.2C427.716 -14.2 427.706 -14.2 427.697 -14.2C427.688 -14.2 427.678 -14.2 427.669 -14.2C427.659 -14.2 427.65 -14.2 427.641 -14.2C427.631 -14.2 427.622 -14.2 427.613 -14.2C427.603 -14.2 427.594 -14.2 427.584 -14.2C427.575 -14.2 427.566 -14.2 427.556 -14.2C427.547 -14.2 427.538 -14.2 427.528 -14.2C427.519 -14.2 427.509 -14.2 427.5 -14.2C427.491 -14.2 427.481 -14.2 427.472 -14.2C427.463 -14.2 427.453 -14.2 427.444 -14.2C427.434 -14.2 427.425 -14.2 427.416 -14.2C427.406 -14.2 427.397 -14.2 427.388 -14.2C427.378 -14.2 427.369 -14.2 427.359 -14.2C427.35 -14.2 427.341 -14.2 427.331 -14.2C427.322 -14.2 427.313 -14.2 427.303 -14.2C427.294 -14.2 427.284 -14.2 427.275 -14.2C427.266 -14.2 427.256 -14.2 427.247 -14.2C427.238 -14.2 427.228 -14.2 427.219 -14.2C427.209 -14.2 427.2 -14.2 427.191 -14.2C427.181 -14.2 427.172 -14.2 427.163 -14.2C427.153 -14.2 427.144 -14.2 427.134 -14.2C427.125 -14.2 427.116 -14.2 427.106 -14.2C427.097 -14.2 427.088 -14.2 427.078 -14.2C427.069 -14.2 427.059 -14.2 427.05 -14.2C427.041 -14.2 427.031 -14.2 427.022 -14.2C427.013 -14.2 427.003 -14.2 426.994 -14.2C426.984 -14.2 426.975 -14.2 426.966 -14.2C426.956 -14.2 426.947 -14.2 426.938 -14.2C426.928 -14.2 426.919 -14.2 426.909 -14.2C426.9 -14.2 426.891 -14.2 426.881 -14.2C426.872 -14.2 426.863 -14.2 426.853 -14.2C426.844 -14.2 426.834 -14.2 426.825 -14.2C426.816 -14.2 426.806 -14.2 426.797 -14.2C426.788 -14.2 426.778 -14.2 426.769 -14.2C426.759 -14.2 426.75 -14.2 426.741 -14.2C426.731 -14.2 426.722 -14.2 426.713 -14.2C426.703 -14.2 426.694 -14.2 426.684 -14.2C426.675 -14.2 426.666 -14.2 426.656 -14.2C426.647 -14.2 426.638 -14.2 426.628 -14.2C426.619 -14.2 426.609 -14.2 426.6 -14.2C426.591 -14.2 426.581 -14.2 426.572 -14.2C426.563 -14.2 426.553 -14.2 426.544 -14.2C426.534 -14.2 426.525 -14.2 426.516 -14.2C426.506 -14.2 426.497 -14.2 426.488 -14.2C426.478 -14.2 426.469 -14.2 426.459 -14.2C426.45 -14.2 426.441 -14.2 426.431 -14.2C426.422 -14.2 426.413 -14.2 426.403 -14.2C426.394 -14.2 426.384 -14.2 426.375 -14.2C426.366 -14.2 426.356 -14.2 426.347 -14.2C426.338 -14.2 426.328 -14.2 426.319 -14.2C426.309 -14.2 426.3 -14.2 426.291 -14.2C426.281 -14.2 426.272 -14.2 426.263 -14.2C426.253 -14.2 426.244 -14.2 426.234 -14.2C426.225 -14.2 426.216 -14.2 426.206 -14.2C426.197 -14.2 426.188 -14.2 426.178 -14.2C426.169 -14.2 426.159 -14.2 426.15 -14.2C426.141 -14.2 426.131 -14.2 426.122 -14.2C426.113 -14.2 426.103 -14.2 426.094 -14.2C426.084 -14.2 426.075 -14.2 426.066 -14.2C426.056 -14.2 426.047 -14.2 426.038 -14.2C426.028 -14.2 426.019 -14.2 426.009 -14.2C426 -14.2 425.991 -14.2 425.981 -14.2C425.972 -14.2 425.963 -14.2 425.953 -14.2C425.944 -14.2 425.934 -14.2 425.925 -14.2C425.916 -14.2 425.906 -14.2 425.897 -14.2C425.888 -14.2 425.878 -14.2 425.869 -14.2C425.859 -14.2 425.85 -14.2 425.841 -14.2C425.831 -14.2 425.822 -14.2 425.813 -14.2C425.803 -14.2 425.794 -14.2 425.784 -14.2C425.775 -14.2 425.766 -14.2 425.756 -14.2C425.747 -14.2 425.738 -14.2 425.728 -14.2C425.719 -14.2 425.709 -14.2 425.7 -14.2C425.691 -14.2 425.681 -14.2 425.672 -14.2C425.663 -14.2 425.653 -14.2 425.644 -14.2C425.634 -14.2 425.625 -14.2 425.616 -14.2C425.606 -14.2 425.597 -14.2 425.588 -14.2C425.578 -14.2 425.569 -14.2 425.559 -14.2C425.55 -14.2 425.541 -14.2 425.531 -14.2C425.522 -14.2 425.513 -14.2 425.503 -14.2C425.494 -14.2 425.484 -14.2 425.475 -14.2C425.466 -14.2 425.456 -14.2 425.447 -14.2C425.438 -14.2 425.428 -14.2 425.419 -14.2C425.409 -14.2 425.4 -14.2 425.391 -14.2C425.381 -14.2 425.372 -14.2 425.363 -14.2C425.353 -14.2 425.344 -14.2 425.334 -14.2C425.325 -14.2 425.316 -14.2 425.306 -14.2C425.297 -14.2 425.288 -14.2 425.278 -14.2C425.269 -14.2 425.259 -14.2 425.25 -14.2C425.241 -14.2 425.231 -14.2 425.222 -14.2C425.213 -14.2 425.203 -14.2 425.194 -14.2C425.184 -14.2 425.175 -14.2 425.166 -14.2C425.156 -14.2 425.147 -14.2 425.138 -14.2C425.128 -14.2 425.119 -14.2 425.109 -14.2C425.1 -14.2 425.091 -14.2 425.081 -14.2C425.072 -14.2 425.063 -14.2 425.053 -14.2C425.044 -14.2 425.034 -14.2 425.025 -14.2C425.016 -14.2 425.006 -14.2 424.997 -14.2C424.988 -14.2 424.978 -14.2 424.969 -14.2C424.959 -14.2 424.95 -14.2 424.941 -14.2C424.931 -14.2 424.922 -14.2 424.913 -14.2C424.903 -14.2 424.894 -14.2 424.884 -14.2C424.875 -14.2 424.866 -14.2 424.856 -14.2C424.847 -14.2 424.838 -14.2 424.828 -14.2C424.819 -14.2 424.809 -14.2 424.8 -14.2C424.791 -14.2 424.781 -14.2 424.772 -14.2C424.763 -14.2 424.753 -14.2 424.744 -14.2C424.734 -14.2 424.725 -14.2 424.716 -14.2C424.706 -14.2 424.697 -14.2 424.688 -14.2C424.678 -14.2 424.669 -14.2 424.659 -14.2C424.65 -14.2 424.641 -14.2 424.631 -14.2C424.622 -14.2 424.613 -14.2 424.603 -14.2C424.594 -14.2 424.584 -14.2 424.575 -14.2C424.566 -14.2 424.556 -14.2 424.547 -14.2C424.538 -14.2 424.528 -14.2 424.519 -14.2C424.509 -14.2 424.5 -14.2 424.491 -14.2C424.481 -14.2 424.472 -14.2 424.463 -14.2C424.453 -14.2 424.444 -14.2 424.434 -14.2C424.425 -14.2 424.416 -14.2 424.406 -14.2C424.397 -14.2 424.388 -14.2 424.378 -14.2C424.369 -14.2 424.359 -14.2 424.35 -14.2C424.341 -14.2 424.331 -14.2 424.322 -14.2C424.313 -14.2 424.303 -14.2 424.294 -14.2C424.284 -14.2 424.275 -14.2 424.266 -14.2C424.256 -14.2 424.247 -14.2 424.238 -14.2C424.228 -14.2 424.219 -14.2 424.209 -14.2C424.2 -14.2 424.191 -14.2 424.181 -14.2C424.172 -14.2 424.163 -14.2 424.153 -14.2C424.144 -14.2 424.134 -14.2 424.125 -14.2C424.116 -14.2 424.106 -14.2 424.097 -14.2C424.088 -14.2 424.078 -14.2 424.069 -14.2C424.059 -14.2 424.05 -14.2 424.041 -14.2C424.031 -14.2 424.022 -14.2 424.013 -14.2C424.003 -14.2 423.994 -14.2 423.984 -14.2C423.975 -14.2 423.966 -14.2 423.956 -14.2C423.947 -14.2 423.938 -14.2 423.928 -14.2C423.919 -14.2 423.909 -14.2 423.9 -14.2C423.891 -14.2 423.881 -14.2 423.872 -14.2C423.863 -14.2 423.853 -14.2 423.844 -14.2C423.834 -14.2 423.825 -14.2 423.816 -14.2C423.806 -14.2 423.797 -14.2 423.788 -14.2C423.778 -14.2 423.769 -14.2 423.759 -14.2C423.75 -14.2 423.741 -14.2 423.731 -14.2C423.722 -14.2 423.713 -14.2 423.703 -14.2C423.694 -14.2 423.684 -14.2 423.675 -14.2C423.666 -14.2 423.656 -14.2 423.647 -14.2C423.638 -14.2 423.628 -14.2 423.619 -14.2C423.609 -14.2 423.6 -14.2 423.591 -14.2C423.581 -14.2 423.572 -14.2 423.563 -14.2C423.553 -14.2 423.544 -14.2 423.534 -14.2C423.525 -14.2 423.516 -14.2 423.506 -14.2C423.497 -14.2 423.488 -14.2 423.478 -14.2C423.469 -14.2 423.459 -14.2 423.45 -14.2C423.441 -14.2 423.431 -14.2 423.422 -14.2C423.413 -14.2 423.403 -14.2 423.394 -14.2C423.384 -14.2 423.375 -14.2 423.366 -14.2C423.356 -14.2 423.347 -14.2 423.338 -14.2C423.328 -14.2 423.319 -14.2 423.309 -14.2C423.3 -14.2 423.291 -14.2 423.281 -14.2C423.272 -14.2 423.263 -14.2 423.253 -14.2C423.244 -14.2 423.234 -14.2 423.225 -14.2C423.216 -14.2 423.206 -14.2 423.197 -14.2C423.188 -14.2 423.178 -14.2 423.169 -14.2C423.159 -14.2 423.15 -14.2 423.141 -14.2C423.131 -14.2 423.122 -14.2 423.113 -14.2C423.103 -14.2 423.094 -14.2 423.084 -14.2C423.075 -14.2 423.066 -14.2 423.056 -14.2C423.047 -14.2 423.038 -14.2 423.028 -14.2C423.019 -14.2 423.009 -14.2 423 -14.2C422.991 -14.2 422.981 -14.2 422.972 -14.2C422.963 -14.2 422.953 -14.2 422.944 -14.2C422.934 -14.2 422.925 -14.2 422.916 -14.2C422.906 -14.2 422.897 -14.2 422.888 -14.2C422.878 -14.2 422.869 -14.2 422.859 -14.2C422.85 -14.2 422.841 -14.2 422.831 -14.2C422.822 -14.2 422.813 -14.2 422.803 -14.2C422.794 -14.2 422.784 -14.2 422.775 -14.2C422.766 -14.2 422.756 -14.2 422.747 -14.2C422.738 -14.2 422.728 -14.2 422.719 -14.2C422.709 -14.2 422.7 -14.2 422.691 -14.2C422.681 -14.2 422.672 -14.2 422.663 -14.2C422.653 -14.2 422.644 -14.2 422.634 -14.2C422.625 -14.2 422.616 -14.2 422.606 -14.2C422.597 -14.2 422.588 -14.2 422.578 -14.2C422.569 -14.2 422.559 -14.2 422.55 -14.2C422.541 -14.2 422.531 -14.2 422.522 -14.2C422.513 -14.2 422.503 -14.2 422.494 -14.2C422.484 -14.2 422.475 -14.2 422.466 -14.2C422.456 -14.2 422.447 -14.2 422.438 -14.2C422.428 -14.2 422.419 -14.2 422.409 -14.2C422.4 -14.2 422.391 -14.2 422.381 -14.2C422.372 -14.2 422.363 -14.2 422.353 -14.2C422.344 -14.2 422.334 -14.2 422.325 -14.2C422.316 -14.2 422.306 -14.2 422.297 -14.2C422.288 -14.2 422.278 -14.2 422.269 -14.2C422.259 -14.2 422.25 -14.2 422.241 -14.2C422.231 -14.2 422.222 -14.2 422.213 -14.2C422.203 -14.2 422.194 -14.2 422.184 -14.2C422.175 -14.2 422.166 -14.2 422.156 -14.2C422.147 -14.2 422.138 -14.2 422.128 -14.2C422.119 -14.2 422.109 -14.2 422.1 -14.2C422.091 -14.2 422.081 -14.2 422.072 -14.2C422.063 -14.2 422.053 -14.2 422.044 -14.2C422.034 -14.2 422.025 -14.2 422.016 -14.2C422.006 -14.2 421.997 -14.2 421.988 -14.2C421.978 -14.2 421.969 -14.2 421.959 -14.2C421.95 -14.2 421.941 -14.2 421.931 -14.2C421.922 -14.2 421.913 -14.2 421.903 -14.2C421.894 -14.2 421.884 -14.2 421.875 -14.2C421.866 -14.2 421.856 -14.2 421.847 -14.2C421.838 -14.2 421.828 -14.2 421.819 -14.2C421.809 -14.2 421.8 -14.2 421.791 -14.2C421.781 -14.2 421.772 -14.2 421.763 -14.2C421.753 -14.2 421.744 -14.2 421.734 -14.2C421.725 -14.2 421.716 -14.2 421.706 -14.2C421.697 -14.2 421.688 -14.2 421.678 -14.2C421.669 -14.2 421.659 -14.2 421.65 -14.2C421.641 -14.2 421.631 -14.2 421.622 -14.2C421.613 -14.2 421.603 -14.2 421.594 -14.2C421.584 -14.2 421.575 -14.2 421.566 -14.2C421.556 -14.2 421.547 -14.2 421.538 -14.2C421.528 -14.2 421.519 -14.2 421.509 -14.2C421.5 -14.2 421.491 -14.2 421.481 -14.2C421.472 -14.2 421.463 -14.2 421.453 -14.2C421.444 -14.2 421.434 -14.2 421.425 -14.2C421.416 -14.2 421.406 -14.2 421.397 -14.2C421.388 -14.2 421.378 -14.2 421.369 -14.2C421.359 -14.2 421.35 -14.2 421.341 -14.2C421.331 -14.2 421.322 -14.2 421.313 -14.2C421.303 -14.2 421.294 -14.2 421.284 -14.2C421.275 -14.2 421.266 -14.2 421.256 -14.2C421.247 -14.2 421.238 -14.2 421.228 -14.2C421.219 -14.2 421.209 -14.2 421.2 -14.2C421.191 -14.2 421.181 -14.2 421.172 -14.2C421.163 -14.2 421.153 -14.2 421.144 -14.2C421.134 -14.2 421.125 -14.2 421.116 -14.2C421.106 -14.2 421.097 -14.2 421.088 -14.2C421.078 -14.2 421.069 -14.2 421.059 -14.2C421.05 -14.2 421.041 -14.2 421.031 -14.2C421.022 -14.2 421.013 -14.2 421.003 -14.2C420.994 -14.2 420.984 -14.2 420.975 -14.2C420.966 -14.2 420.956 -14.2 420.947 -14.2C420.938 -14.2 420.928 -14.2 420.919 -14.2C420.909 -14.2 420.9 -14.2 420.891 -14.2C420.881 -14.2 420.872 -14.2 420.863 -14.2C420.853 -14.2 420.844 -14.2 420.834 -14.2C420.825 -14.2 420.816 -14.2 420.806 -14.2C420.797 -14.2 420.788 -14.2 420.778 -14.2C420.769 -14.2 420.759 -14.2 420.75 -14.2C420.741 -14.2 420.731 -14.2 420.722 -14.2C420.713 -14.2 420.703 -14.2 420.694 -14.2C420.684 -14.2 420.675 -14.2 420.666 -14.2C420.656 -14.2 420.647 -14.2 420.638 -14.2C420.628 -14.2 420.619 -14.2 420.609 -14.2C420.6 -14.2 420.591 -14.2 420.581 -14.2C420.572 -14.2 420.563 -14.2 420.553 -14.2C420.544 -14.2 420.534 -14.2 420.525 -14.2C420.516 -14.2 420.506 -14.2 420.497 -14.2C420.488 -14.2 420.478 -14.2 420.469 -14.2C420.459 -14.2 420.45 -14.2 420.441 -14.2C420.431 -14.2 420.422 -14.2 420.413 -14.2C420.403 -14.2 420.394 -14.2 420.384 -14.2C420.375 -14.2 420.366 -14.2 420.356 -14.2C420.347 -14.2 420.338 -14.2 420.328 -14.2C420.319 -14.2 420.309 -14.2 420.3 -14.2C420.291 -14.2 420.281 -14.2 420.272 -14.2C420.263 -14.2 420.253 -14.2 420.244 -14.2C420.234 -14.2 420.225 -14.2 420.216 -14.2C420.206 -14.2 420.197 -14.2 420.188 -14.2C420.178 -14.2 420.169 -14.2 420.159 -14.2C420.15 -14.2 420.141 -14.2 420.131 -14.2C420.122 -14.2 420.113 -14.2 420.103 -14.2C420.094 -14.2 420.084 -14.2 420.075 -14.2C420.066 -14.2 420.056 -14.2 420.047 -14.2C420.038 -14.2 420.028 -14.2 420.019 -14.2C420.009 -14.2 420 -14.2 419.991 -14.2C419.981 -14.2 419.972 -14.2 419.963 -14.2C419.953 -14.2 419.944 -14.2 419.934 -14.2C419.925 -14.2 419.916 -14.2 419.906 -14.2C419.897 -14.2 419.888 -14.2 419.878 -14.2C419.869 -14.2 419.859 -14.2 419.85 -14.2C419.841 -14.2 419.831 -14.2 419.822 -14.2C419.813 -14.2 419.803 -14.2 419.794 -14.2C419.784 -14.2 419.775 -14.2 419.766 -14.2C419.756 -14.2 419.747 -14.2 419.738 -14.2C419.728 -14.2 419.719 -14.2 419.709 -14.2C419.7 -14.2 419.691 -14.2 419.681 -14.2C419.672 -14.2 419.663 -14.2 419.653 -14.2C419.644 -14.2 419.634 -14.2 419.625 -14.2C419.616 -14.2 419.606 -14.2 419.597 -14.2V15.8ZM433.997 15.8C456.619 15.8 474.38 20.226 488.065 28.1718L503.129 2.22816C483.747 -9.02597 460.441 -14.2 433.997 -14.2V15.8ZM488.243 28.2736C498.736 34.1759 506.197 46.3632 506.197 71.2H536.197C536.197 40.57 526.591 15.4241 502.951 2.12636L488.243 28.2736ZM506.197 71.2C506.197 89.6075 501.438 112.844 491.1 141.274L519.294 151.526C530.289 121.29 536.197 94.3924 536.197 71.2H506.197ZM491.1 141.274C480.688 169.906 467.095 200.517 450.268 233.12L476.926 246.88C494.232 213.35 508.372 181.561 519.294 151.526L491.1 141.274ZM450.225 233.204C433.839 265.447 416.124 297.705 397.079 329.976L422.915 345.224C442.269 312.429 460.288 279.619 476.969 246.796L450.225 233.204ZM397.135 329.883C378.009 361.759 359.699 391.213 342.203 418.251L367.39 434.549C385.095 407.187 403.585 377.441 422.859 345.317L397.135 329.883ZM342.203 418.251C324.623 445.42 309.997 467.758 298.316 485.279L323.278 501.921C335.063 484.242 349.771 461.78 367.39 434.549L342.203 418.251ZM320.64 504.919L339.04 488.919L319.354 466.281L300.954 482.281L320.64 504.919ZM339.094 488.872C361.35 469.33 382.522 448.701 402.608 426.986L380.585 406.614C361.205 427.566 340.777 447.47 319.3 466.328L339.094 488.872ZM402.733 426.849C422.471 404.978 441.942 383.373 461.146 362.034L438.847 341.966C419.652 363.294 400.19 384.889 380.461 406.751L402.733 426.849ZM461.182 361.995C483.656 336.845 505.863 311.427 527.802 285.742L504.991 266.258C483.197 291.773 461.137 317.022 438.812 342.005L461.182 361.995ZM527.686 285.878C550.197 260.15 572.174 234.153 593.617 207.886L570.377 188.914C549.153 214.914 527.397 240.65 505.108 266.122L527.686 285.878ZM593.837 207.609C596.889 203.686 601.313 198.975 607.333 193.457L587.061 171.343C580.281 177.558 574.572 183.514 570.157 189.191L593.837 207.609ZM607.803 193.007C612.285 188.525 615.349 187.8 617.197 187.8V157.8C605.178 157.8 594.909 163.475 586.59 171.793L607.803 193.007ZM617.197 187.8C617.885 187.8 618.197 187.874 618.229 187.882C618.241 187.885 618.002 187.822 617.648 187.594C617.283 187.357 616.987 187.067 616.79 186.808C616.608 186.567 616.613 186.488 616.7 186.726L644.894 176.474C642.892 170.969 639.37 165.916 633.946 162.406C628.649 158.979 622.742 157.8 617.197 157.8V187.8ZM616.7 186.726C618.336 191.224 618.997 195.085 618.997 198.4H648.997C648.997 191.048 647.525 183.709 644.894 176.474L616.7 186.726ZM618.997 198.4C618.997 204.169 618.332 209.971 616.981 215.827L646.213 222.573C648.061 214.563 648.997 206.498 648.997 198.4H618.997ZM616.981 215.827C615.546 222.047 613.622 228.309 611.197 234.615L639.197 245.385C642.105 237.825 644.448 230.22 646.213 222.573L616.981 215.827ZM611.008 235.135C604.577 253.891 597.353 275.565 589.336 300.15L617.858 309.45C625.841 284.968 633.017 263.442 639.386 244.865L611.008 235.135ZM589.274 300.344C581.677 324.762 575.166 349.452 569.739 374.414L599.055 380.786C604.295 356.681 610.583 332.838 617.92 309.256L589.274 300.344ZM569.754 374.346C564.239 399.165 561.397 422.144 561.397 443.2H591.397C591.397 424.79 593.888 404.035 599.04 380.854L569.754 374.346ZM561.397 443.2C561.397 447.514 561.699 453.3 562.241 460.35L592.153 458.05C591.628 451.233 591.397 446.353 591.397 443.2H561.397ZM562.371 461.481C563.628 469.651 565.859 477.386 569.141 484.607L596.452 472.193C594.401 467.68 592.899 462.616 592.022 456.919L562.371 461.481ZM569.38 485.108C573.85 494.047 582.033 501.4 593.997 501.4V471.4C594.202 471.4 594.586 471.431 595.071 471.583C595.562 471.736 595.989 471.961 596.315 472.194C596.947 472.645 596.77 472.805 596.213 471.692L569.38 485.108ZM593.997 501.4C607.235 501.4 616.558 492.732 622.615 483.311L597.379 467.089C595.674 469.741 594.398 470.89 593.795 471.312C593.361 471.615 593.518 471.4 593.997 471.4V501.4ZM622.859 482.917C628.477 473.554 632.944 462.685 636.42 450.521L607.574 442.279C604.649 452.515 601.116 460.846 597.135 467.483L622.859 482.917ZM636.42 450.521C639.746 438.879 642.284 427.92 643.993 417.666L614.401 412.734C612.91 421.68 610.648 431.521 607.574 442.279L636.42 450.521ZM643.875 418.29C646.035 408.029 647.397 399.265 647.397 392.8H617.397C617.397 395.935 616.625 402.105 614.519 412.11L643.875 418.29ZM647.397 392.8C647.397 385.396 646.473 375.984 640.91 369.03L617.484 387.77C616.632 386.706 616.715 386.176 616.954 387.254C617.175 388.25 617.397 390.02 617.397 392.8H647.397ZM642.613 371.692C642.096 370.657 641.859 370.004 641.764 369.69C641.664 369.354 641.797 369.64 641.797 370.4H611.797C611.797 375.932 613.756 381.059 615.781 385.108L642.613 371.692ZM641.797 370.4C641.797 371.112 641.609 374.401 638.603 377.407C635.598 380.412 632.309 380.6 631.597 380.6V350.6C627.685 350.6 621.996 351.588 617.39 356.193C612.785 360.799 611.797 366.488 611.797 370.4H641.797ZM631.597 380.6C630.795 380.6 629.792 380.431 628.773 379.971C627.774 379.519 627.13 378.957 626.805 378.607C626.509 378.288 626.528 378.204 626.73 378.608C626.931 379.009 627.238 379.743 627.574 380.921L656.42 372.679C655.014 367.76 652.752 362.461 648.789 358.193C644.413 353.481 638.447 350.6 631.597 350.6V380.6ZM627.574 380.921C629.382 387.25 630.553 394.174 631.026 401.736L660.968 399.864C660.374 390.36 658.878 381.283 656.42 372.679L627.574 380.921ZM631.113 402.661C632.189 411.273 632.597 416.262 632.597 418.4H662.597C662.597 414.138 661.938 407.394 660.881 398.939L631.113 402.661ZM632.597 418.4C632.597 425.296 631.271 435.238 628.181 448.627L657.413 455.373C660.723 441.029 662.597 428.57 662.597 418.4H632.597ZM628.067 449.167C625.72 461.37 621.547 472.167 615.643 481.705L641.151 497.495C649.113 484.633 654.54 470.363 657.527 454.833L628.067 449.167ZM615.535 481.883C611.647 488.362 607.287 490.6 601.197 490.6V520.6C618.574 520.6 632.347 512.172 641.259 497.317L615.535 481.883ZM601.197 490.6C596.453 490.6 592.177 488.967 587.804 484.593L566.59 505.807C576.084 515.3 587.808 520.6 601.197 520.6V490.6ZM588.586 485.438C583.377 479.362 579.915 473.13 577.914 466.726L549.28 475.674C552.612 486.337 558.216 496.105 565.808 504.962L588.586 485.438ZM578.02 467.079C576.094 460.34 574.639 453.323 573.665 446.018L543.928 449.982C545.088 458.677 546.833 467.126 549.174 475.321L578.02 467.079ZM573.764 447.002C573.249 439.284 572.997 432.154 572.997 425.6H542.997C542.997 432.913 543.278 440.716 543.83 448.998L573.764 447.002ZM572.997 425.6C572.997 399.02 576.064 370.993 582.275 341.49L552.919 335.31C546.33 366.607 542.997 396.713 542.997 425.6H572.997ZM582.275 341.49C588.56 311.635 596.132 283.985 604.968 258.517L576.626 248.683C567.328 275.482 559.433 304.365 552.919 335.31L582.275 341.49ZM604.894 258.726C607.097 252.666 610.081 243.98 613.827 232.743L585.367 223.257C581.646 234.42 578.763 242.8 576.7 248.474L604.894 258.726ZM613.891 232.548C617.642 220.76 620.197 210.272 620.197 202.4H590.197C590.197 205.195 589.019 211.774 585.303 223.452L613.891 232.548ZM620.197 202.4C620.197 200.567 620.047 196.96 618.213 193.292C617.19 191.246 615.454 188.81 612.617 186.919C609.688 184.966 606.488 184.2 603.597 184.2V214.2C601.239 214.2 598.506 213.567 595.976 211.881C593.54 210.257 592.137 208.221 591.38 206.708C590.653 205.254 590.398 204.048 590.301 203.466C590.197 202.843 590.197 202.451 590.197 202.4H620.197ZM603.597 184.2C597.483 184.2 593.289 187.597 591.994 188.677C590.088 190.265 588.435 192.14 587.084 193.83L610.51 212.57C611.292 211.593 611.506 211.468 611.2 211.723C611.033 211.862 610.424 212.357 609.405 212.866C608.434 213.352 606.396 214.2 603.597 214.2V184.2ZM587.084 193.83C586.046 195.127 585.249 196.107 584.674 196.797C584.385 197.143 584.185 197.378 584.058 197.522C583.89 197.715 583.966 197.617 584.19 197.394L605.404 218.606C606.669 217.341 608.614 214.941 610.51 212.57L587.084 193.83ZM583.141 198.559C540.125 251.665 496.053 302.905 450.925 352.28L473.069 372.52C518.608 322.695 563.069 271.002 606.453 217.441L583.141 198.559ZM450.985 352.214C431.256 373.544 411.259 395.14 390.995 417.004L412.998 437.396C433.268 415.526 453.272 393.923 473.008 372.586L450.985 352.214ZM390.861 417.151C371.471 438.637 351.034 459.074 329.547 478.464L349.646 500.736C371.893 480.659 393.056 459.497 413.133 437.249L390.861 417.151ZM329.631 478.389C320.031 486.922 310.431 495.456 300.831 503.989L320.762 526.411C330.362 517.878 339.962 509.344 349.562 500.811L329.631 478.389ZM300.498 504.295C290.797 513.457 281.361 522.623 272.19 531.793L293.403 553.007C302.366 544.044 311.597 535.077 321.096 526.105L300.498 504.295ZM273.035 531.011C271.897 531.986 268.573 534.836 267.435 535.811C267.422 535.822 266.048 537 266.035 537.011C266.022 537.022 264.648 538.2 264.635 538.211C264.622 538.222 263.248 539.4 263.235 539.411C263.222 539.422 261.848 540.6 261.835 540.611L281.359 563.389C282.497 562.414 285.821 559.564 286.959 558.589C286.972 558.578 288.346 557.4 288.359 557.389C288.372 557.378 289.746 556.2 289.759 556.189C289.772 556.178 291.146 555 291.159 554.989C291.172 554.978 292.546 553.8 292.559 553.789L273.035 531.011ZM260.208 542.238C257.237 545.705 254.297 548.887 251.39 551.793L272.604 573.007C276.097 569.513 279.557 565.762 282.986 561.762L260.208 542.238ZM251.39 551.793C249.257 553.927 247.124 556.06 244.99 558.193L266.203 579.407C268.337 577.273 270.47 575.14 272.603 573.007L251.39 551.793ZM243.884 559.43C241.371 562.571 239.112 565.787 237.135 569.083L262.859 584.517C264.082 582.48 265.556 580.363 267.31 578.17L243.884 559.43ZM237.342 568.747C234.462 573.272 230.322 578.153 224.661 583.343L244.933 605.457C252.072 598.913 258.065 592.061 262.652 584.853L237.342 568.747ZM224.661 583.343C220.547 587.114 217.106 588.2 213.997 588.2V618.2C225.821 618.2 236.247 613.42 244.933 605.457L224.661 583.343Z" fill="black" mask="url(#path-1-outside-1_1_134)"/>
</svg>
