<svg width="930" height="950" viewBox="0 0 930 950" fill="none" xmlns="http://www.w3.org/2000/svg">
<mask id="path-1-outside-1_1_134" maskUnits="userSpaceOnUse" x="122" y="156" width="678" height="634" fill="black">
<rect fill="white" x="122" y="156" width="678" height="634"/>
<path d="M350.997 774.2C348.33 774.2 345.664 773.4 342.997 771.8C340.33 770.733 338.997 768.6 338.997 765.4C338.997 762.733 339.797 760.333 341.397 758.2C342.997 756.6 344.597 754.733 346.197 752.6C364.33 733.933 381.397 714.2 397.397 693.4C413.397 673.133 428.597 652.333 442.997 631C470.197 591.533 495.797 551.533 519.797 511C543.797 470.467 566.197 428.6 586.997 385.4C592.864 372.6 598.997 358.2 605.397 342.2C612.33 326.2 617.93 309.933 622.197 293.4C626.997 276.333 629.397 260.867 629.397 247C629.397 225.133 623.53 209.933 611.797 201.4C600.064 192.333 584.064 187.8 563.797 187.8C538.197 187.8 510.197 193.667 479.797 205.4C449.93 216.6 419.797 231.533 389.397 250.2C359.53 268.333 331.53 287.533 305.397 307.8C279.797 328.067 258.464 347 241.397 364.6C231.264 375.267 220.33 388.067 208.597 403C196.864 417.933 186.73 433.933 178.197 451C170.197 467.533 166.197 483.533 166.197 499C166.197 512.333 169.397 522.2 175.797 528.6C182.73 535 191.53 539 202.197 540.6C212.864 542.2 223.53 543 234.197 543C247.53 543 261.93 541.667 277.397 539C293.397 536.333 307.264 531.8 318.997 525.4C321.13 524.333 322.464 523.8 322.997 523.8C326.197 523.8 327.797 525.667 327.797 529.4C327.797 535.267 323.264 540.333 314.197 544.6C305.13 548.333 294.464 551.533 282.197 554.2C269.93 556.333 258.197 557.933 246.997 559C236.33 560.067 228.864 560.6 224.597 560.6C214.464 560.6 202.73 559.533 189.397 557.4C176.064 554.733 165.664 549.4 158.197 541.4C144.33 526.467 137.397 509.133 137.397 489.4C137.397 468.067 144.597 445.933 158.997 423C173.93 400.067 193.664 377.133 218.197 354.2C242.73 331.267 269.93 309.4 299.797 288.6C329.664 267.267 359.797 248.333 390.197 231.8C420.597 215.267 449.13 201.933 475.797 191.8C502.464 181.133 524.597 175 542.197 173.4C546.997 172.333 551.797 171.8 556.597 171.8C561.397 171.8 566.197 171.8 570.997 171.8C595.53 171.8 616.064 176.6 632.597 186.2C649.664 195.8 658.197 214.467 658.197 242.2C658.197 263 652.864 288.067 642.197 317.4C631.53 346.733 617.664 377.933 600.597 411C584.064 443.533 566.197 476.067 546.997 508.6C527.797 540.6 509.397 570.2 491.797 597.4C474.197 624.6 459.53 647 447.797 664.6L466.197 648.6C488.064 629.4 508.864 609.133 528.597 587.8C548.33 565.933 567.797 544.333 586.997 523C609.397 497.933 631.53 472.6 653.397 447C675.797 421.4 697.664 395.533 718.997 369.4C722.73 364.6 727.797 359.267 734.197 353.4C740.597 347 747.264 343.8 754.197 343.8C761.13 343.8 765.664 346.733 767.797 352.6C769.93 358.467 770.997 364.067 770.997 369.4C770.997 376.333 770.197 383.267 768.597 390.2C766.997 397.133 764.864 404.067 762.197 411C755.797 429.667 748.597 451.267 740.597 475.8C733.13 499.8 726.73 524.067 721.397 548.6C716.064 572.6 713.397 594.467 713.397 614.2C713.397 617.933 713.664 623.267 714.197 630.2C715.264 637.133 717.13 643.533 719.797 649.4C722.464 654.733 726.197 657.4 730.997 657.4C736.864 657.4 742.197 653.667 746.997 646.2C751.797 638.2 755.797 628.6 758.997 617.4C762.197 606.2 764.597 595.8 766.197 586.2C768.33 576.067 769.397 568.6 769.397 563.8C769.397 556.867 768.33 552.067 766.197 549.4C764.597 546.2 763.797 543.533 763.797 541.4C763.797 538.2 765.397 536.6 768.597 536.6C773.397 536.6 776.864 540.333 778.997 547.8C781.13 555.267 782.464 563.267 782.997 571.8C784.064 580.333 784.597 586.2 784.597 589.4C784.597 597.933 782.997 609.133 779.797 623C777.13 636.867 772.33 649.4 765.397 660.6C758.997 671.267 749.93 676.6 738.197 676.6C729.13 676.6 721.13 673.133 714.197 666.2C707.797 658.733 703.264 650.733 700.597 642.2C698.464 634.733 696.864 627 695.797 619C695.264 611 694.997 603.533 694.997 596.6C694.997 568.867 698.197 539.8 704.597 509.4C710.997 479 718.73 450.733 727.797 424.6C729.93 418.733 732.864 410.2 736.597 399C740.33 387.267 742.197 378.733 742.197 373.4C742.197 371.267 741.664 370.2 740.597 370.2C739.53 370.2 737.93 371.533 735.797 374.2C733.664 376.867 732.33 378.467 731.797 379C688.597 432.333 644.33 483.8 598.997 533.4C579.264 554.733 559.264 576.333 538.997 598.2C519.264 620.067 498.464 640.867 476.597 660.6C466.997 669.133 457.397 677.667 447.797 686.2C438.197 695.267 428.864 704.333 419.797 713.4C416.064 716.6 412.33 719.8 408.597 723C405.397 726.733 402.197 730.2 398.997 733.4C396.864 735.533 394.73 737.667 392.597 739.8C390.464 742.467 388.597 745.133 386.997 747.8C383.264 753.667 378.197 759.533 371.797 765.4C365.397 771.267 358.464 774.2 350.997 774.2Z"/>
</mask>
<path d="M350.997 774.2C348.33 774.2 345.664 773.4 342.997 771.8C340.33 770.733 338.997 768.6 338.997 765.4C338.997 762.733 339.797 760.333 341.397 758.2C342.997 756.6 344.597 754.733 346.197 752.6C364.33 733.933 381.397 714.2 397.397 693.4C413.397 673.133 428.597 652.333 442.997 631C470.197 591.533 495.797 551.533 519.797 511C543.797 470.467 566.197 428.6 586.997 385.4C592.864 372.6 598.997 358.2 605.397 342.2C612.33 326.2 617.93 309.933 622.197 293.4C626.997 276.333 629.397 260.867 629.397 247C629.397 225.133 623.53 209.933 611.797 201.4C600.064 192.333 584.064 187.8 563.797 187.8C538.197 187.8 510.197 193.667 479.797 205.4C449.93 216.6 419.797 231.533 389.397 250.2C359.53 268.333 331.53 287.533 305.397 307.8C279.797 328.067 258.464 347 241.397 364.6C231.264 375.267 220.33 388.067 208.597 403C196.864 417.933 186.73 433.933 178.197 451C170.197 467.533 166.197 483.533 166.197 499C166.197 512.333 169.397 522.2 175.797 528.6C182.73 535 191.53 539 202.197 540.6C212.864 542.2 223.53 543 234.197 543C247.53 543 261.93 541.667 277.397 539C293.397 536.333 307.264 531.8 318.997 525.4C321.13 524.333 322.464 523.8 322.997 523.8C326.197 523.8 327.797 525.667 327.797 529.4C327.797 535.267 323.264 540.333 314.197 544.6C305.13 548.333 294.464 551.533 282.197 554.2C269.93 556.333 258.197 557.933 246.997 559C236.33 560.067 228.864 560.6 224.597 560.6C214.464 560.6 202.73 559.533 189.397 557.4C176.064 554.733 165.664 549.4 158.197 541.4C144.33 526.467 137.397 509.133 137.397 489.4C137.397 468.067 144.597 445.933 158.997 423C173.93 400.067 193.664 377.133 218.197 354.2C242.73 331.267 269.93 309.4 299.797 288.6C329.664 267.267 359.797 248.333 390.197 231.8C420.597 215.267 449.13 201.933 475.797 191.8C502.464 181.133 524.597 175 542.197 173.4C546.997 172.333 551.797 171.8 556.597 171.8C561.397 171.8 566.197 171.8 570.997 171.8C595.53 171.8 616.064 176.6 632.597 186.2C649.664 195.8 658.197 214.467 658.197 242.2C658.197 263 652.864 288.067 642.197 317.4C631.53 346.733 617.664 377.933 600.597 411C584.064 443.533 566.197 476.067 546.997 508.6C527.797 540.6 509.397 570.2 491.797 597.4C474.197 624.6 459.53 647 447.797 664.6L466.197 648.6C488.064 629.4 508.864 609.133 528.597 587.8C548.33 565.933 567.797 544.333 586.997 523C609.397 497.933 631.53 472.6 653.397 447C675.797 421.4 697.664 395.533 718.997 369.4C722.73 364.6 727.797 359.267 734.197 353.4C740.597 347 747.264 343.8 754.197 343.8C761.13 343.8 765.664 346.733 767.797 352.6C769.93 358.467 770.997 364.067 770.997 369.4C770.997 376.333 770.197 383.267 768.597 390.2C766.997 397.133 764.864 404.067 762.197 411C755.797 429.667 748.597 451.267 740.597 475.8C733.13 499.8 726.73 524.067 721.397 548.6C716.064 572.6 713.397 594.467 713.397 614.2C713.397 617.933 713.664 623.267 714.197 630.2C715.264 637.133 717.13 643.533 719.797 649.4C722.464 654.733 726.197 657.4 730.997 657.4C736.864 657.4 742.197 653.667 746.997 646.2C751.797 638.2 755.797 628.6 758.997 617.4C762.197 606.2 764.597 595.8 766.197 586.2C768.33 576.067 769.397 568.6 769.397 563.8C769.397 556.867 768.33 552.067 766.197 549.4C764.597 546.2 763.797 543.533 763.797 541.4C763.797 538.2 765.397 536.6 768.597 536.6C773.397 536.6 776.864 540.333 778.997 547.8C781.13 555.267 782.464 563.267 782.997 571.8C784.064 580.333 784.597 586.2 784.597 589.4C784.597 597.933 782.997 609.133 779.797 623C777.13 636.867 772.33 649.4 765.397 660.6C758.997 671.267 749.93 676.6 738.197 676.6C729.13 676.6 721.13 673.133 714.197 666.2C707.797 658.733 703.264 650.733 700.597 642.2C698.464 634.733 696.864 627 695.797 619C695.264 611 694.997 603.533 694.997 596.6C694.997 568.867 698.197 539.8 704.597 509.4C710.997 479 718.73 450.733 727.797 424.6C729.93 418.733 732.864 410.2 736.597 399C740.33 387.267 742.197 378.733 742.197 373.4C742.197 371.267 741.664 370.2 740.597 370.2C739.53 370.2 737.93 371.533 735.797 374.2C733.664 376.867 732.33 378.467 731.797 379C688.597 432.333 644.33 483.8 598.997 533.4C579.264 554.733 559.264 576.333 538.997 598.2C519.264 620.067 498.464 640.867 476.597 660.6C466.997 669.133 457.397 677.667 447.797 686.2C438.197 695.267 428.864 704.333 419.797 713.4C416.064 716.6 412.33 719.8 408.597 723C405.397 726.733 402.197 730.2 398.997 733.4C396.864 735.533 394.73 737.667 392.597 739.8C390.464 742.467 388.597 745.133 386.997 747.8C383.264 753.667 378.197 759.533 371.797 765.4C365.397 771.267 358.464 774.2 350.997 774.2Z" fill="white"/>
<path d="M342.997 771.8L350.714 758.938C350.028 758.526 349.311 758.17 348.568 757.873L342.997 771.8ZM341.397 758.2L330.79 747.593C330.288 748.095 329.823 748.632 329.397 749.2L341.397 758.2ZM346.197 752.6L335.438 742.148C334.994 742.605 334.579 743.09 334.197 743.6L346.197 752.6ZM397.397 693.4L385.624 684.105C385.585 684.155 385.546 684.204 385.508 684.254L397.397 693.4ZM442.997 631L430.646 622.488C430.619 622.528 430.591 622.568 430.564 622.608L442.997 631ZM519.797 511L506.89 503.358L506.89 503.358L519.797 511ZM586.997 385.4L600.512 391.907C600.553 391.822 600.593 391.736 600.633 391.65L586.997 385.4ZM605.397 342.2L591.634 336.236C591.577 336.366 591.522 336.497 591.47 336.629L605.397 342.2ZM622.197 293.4L607.757 289.339C607.728 289.443 607.7 289.547 607.673 289.652L622.197 293.4ZM611.797 201.4L602.625 213.269C602.74 213.358 602.857 213.445 602.974 213.531L611.797 201.4ZM479.797 205.4L485.064 219.445C485.109 219.428 485.153 219.411 485.198 219.394L479.797 205.4ZM389.397 250.2L397.182 263.022C397.203 263.009 397.224 262.996 397.246 262.983L389.397 250.2ZM305.397 307.8L296.205 295.947C296.165 295.977 296.126 296.008 296.086 296.039L305.397 307.8ZM241.397 364.6L230.628 354.158C230.593 354.195 230.557 354.232 230.522 354.269L241.397 364.6ZM208.597 403L220.392 412.267L220.392 412.267L208.597 403ZM178.197 451L164.78 444.292C164.751 444.35 164.723 444.408 164.694 444.467L178.197 451ZM175.797 528.6L165.19 539.207C165.332 539.348 165.476 539.486 165.623 539.622L175.797 528.6ZM202.197 540.6L204.422 525.766L204.422 525.766L202.197 540.6ZM277.397 539L274.931 524.204C274.903 524.209 274.876 524.213 274.848 524.218L277.397 539ZM318.997 525.4L312.289 511.984C312.129 512.063 311.971 512.146 311.814 512.232L318.997 525.4ZM314.197 544.6L319.908 558.47C320.136 558.376 320.361 558.277 320.584 558.172L314.197 544.6ZM282.197 554.2L284.767 568.978C284.973 568.942 285.179 568.902 285.383 568.858L282.197 554.2ZM246.997 559L245.575 544.068C245.551 544.07 245.528 544.072 245.504 544.074L246.997 559ZM189.397 557.4L186.455 572.109C186.645 572.147 186.836 572.181 187.027 572.212L189.397 557.4ZM158.197 541.4L147.205 551.607C147.214 551.616 147.222 551.625 147.231 551.635L158.197 541.4ZM158.997 423L146.427 414.815C146.382 414.884 146.337 414.954 146.294 415.023L158.997 423ZM218.197 354.2L207.954 343.242L207.954 343.242L218.197 354.2ZM299.797 288.6L308.369 300.909C308.418 300.875 308.467 300.841 308.515 300.806L299.797 288.6ZM475.797 191.8L481.125 205.822C481.206 205.791 481.287 205.759 481.368 205.727L475.797 191.8ZM542.197 173.4L543.555 188.338C544.193 188.28 544.826 188.182 545.451 188.043L542.197 173.4ZM632.597 186.2L625.065 199.172C625.124 199.206 625.183 199.24 625.243 199.274L632.597 186.2ZM642.197 317.4L628.1 312.274L628.1 312.274L642.197 317.4ZM600.597 411L587.268 404.12C587.253 404.148 587.239 404.176 587.225 404.204L600.597 411ZM546.997 508.6L559.859 516.317C559.878 516.286 559.897 516.255 559.915 516.224L546.997 508.6ZM447.797 664.6L435.316 656.279C431.149 662.53 432.249 670.9 437.889 675.862C443.529 680.824 451.971 680.849 457.64 675.919L447.797 664.6ZM466.197 648.6L476.04 659.919C476.058 659.903 476.076 659.887 476.094 659.872L466.197 648.6ZM528.597 587.8L539.608 597.986C539.65 597.94 539.692 597.895 539.733 597.849L528.597 587.8ZM586.997 523L598.146 533.034C598.158 533.021 598.17 533.008 598.182 532.995L586.997 523ZM653.397 447L642.108 437.122C642.069 437.167 642.03 437.212 641.991 437.258L653.397 447ZM718.997 369.4L730.617 378.886C730.691 378.794 730.765 378.702 730.837 378.609L718.997 369.4ZM734.197 353.4L744.333 364.457C744.493 364.31 744.65 364.16 744.803 364.007L734.197 353.4ZM768.597 390.2L783.213 393.573L783.213 393.573L768.597 390.2ZM762.197 411L748.197 405.615C748.131 405.787 748.068 405.961 748.008 406.135L762.197 411ZM740.597 475.8L726.336 471.15C726.315 471.214 726.294 471.279 726.274 471.344L740.597 475.8ZM721.397 548.6L736.04 551.854C736.045 551.831 736.05 551.809 736.055 551.786L721.397 548.6ZM714.197 630.2L699.241 631.35C699.27 631.729 699.314 632.106 699.371 632.481L714.197 630.2ZM719.797 649.4L706.141 655.607C706.218 655.776 706.298 655.943 706.38 656.108L719.797 649.4ZM746.997 646.2L759.615 654.311C759.698 654.181 759.78 654.05 759.859 653.917L746.997 646.2ZM758.997 617.4L744.574 613.279L744.574 613.279L758.997 617.4ZM766.197 586.2L751.519 583.11C751.475 583.317 751.436 583.525 751.401 583.734L766.197 586.2ZM766.197 549.4L752.781 556.108C753.253 557.053 753.824 557.945 754.484 558.77L766.197 549.4ZM778.997 547.8L764.574 551.921L764.574 551.921L778.997 547.8ZM782.997 571.8L768.026 572.736C768.045 573.045 768.074 573.353 768.113 573.661L782.997 571.8ZM779.797 623L765.181 619.627C765.14 619.806 765.102 619.987 765.067 620.167L779.797 623ZM765.397 660.6L752.643 652.705C752.606 652.764 752.57 652.823 752.535 652.883L765.397 660.6ZM714.197 666.2L702.808 675.962C703.058 676.253 703.319 676.535 703.59 676.807L714.197 666.2ZM700.597 642.2L686.174 646.321C686.208 646.439 686.243 646.557 686.28 646.674L700.597 642.2ZM695.797 619L680.83 619.998C680.852 620.327 680.885 620.655 680.928 620.982L695.797 619ZM704.597 509.4L689.919 506.31L689.919 506.31L704.597 509.4ZM727.797 424.6L713.7 419.474C713.675 419.544 713.65 419.613 713.626 419.683L727.797 424.6ZM736.597 399L750.827 403.743C750.849 403.678 750.87 403.613 750.891 403.548L736.597 399ZM731.797 379L721.19 368.394C720.82 368.763 720.47 369.152 720.141 369.559L731.797 379ZM598.997 533.4L610.008 543.586C610.029 543.564 610.049 543.542 610.069 543.52L598.997 533.4ZM538.997 598.2L527.995 588.004C527.95 588.052 527.905 588.101 527.861 588.151L538.997 598.2ZM476.597 660.6L486.562 671.811C486.59 671.786 486.618 671.761 486.646 671.736L476.597 660.6ZM447.797 686.2L437.831 674.989C437.719 675.089 437.607 675.191 437.498 675.295L447.797 686.2ZM419.797 713.4L429.559 724.789C429.85 724.539 430.132 724.278 430.403 724.007L419.797 713.4ZM408.597 723L398.835 711.611C398.252 712.111 397.708 712.655 397.208 713.238L408.597 723ZM398.997 733.4L409.603 744.007L409.604 744.007L398.997 733.4ZM392.597 739.8L381.99 729.193C381.599 729.585 381.23 729.997 380.884 730.43L392.597 739.8ZM386.997 747.8L399.652 755.853C399.722 755.742 399.792 755.63 399.859 755.517L386.997 747.8ZM350.997 759.2C351.083 759.2 351.16 759.207 351.222 759.216C351.283 759.225 351.313 759.234 351.307 759.233C351.297 759.23 351.102 759.17 350.714 758.938L335.279 784.662C339.885 787.426 345.188 789.2 350.997 789.2V759.2ZM348.568 757.873C349.755 758.348 351.462 759.443 352.717 761.45C353.896 763.337 353.997 764.945 353.997 765.4H323.997C323.997 769.055 324.765 773.33 327.277 777.35C329.865 781.49 333.572 784.185 337.426 785.727L348.568 757.873ZM353.997 765.4C353.997 765.591 353.964 765.933 353.827 766.343C353.69 766.754 353.512 767.047 353.397 767.2L329.397 749.2C325.85 753.93 323.997 759.488 323.997 765.4H353.997ZM352.004 768.807C354.185 766.626 356.244 764.204 358.197 761.6L334.197 743.6C332.95 745.263 331.809 746.574 330.79 747.593L352.004 768.807ZM356.956 763.052C375.494 743.968 392.938 723.799 409.286 702.546L385.508 684.254C369.856 704.601 353.166 723.898 335.438 742.148L356.956 763.052ZM409.17 702.695C425.4 682.136 440.82 661.035 455.43 639.392L430.564 622.608C416.373 643.631 401.393 664.13 385.624 684.105L409.17 702.695ZM455.348 639.512C482.74 599.767 508.526 559.477 532.704 518.642L506.89 503.358C483.068 543.59 457.654 583.3 430.646 622.488L455.348 639.512ZM532.704 518.642C556.927 477.733 579.529 435.487 600.512 391.907L573.482 378.893C552.865 421.713 530.667 463.2 506.89 503.358L532.704 518.642ZM600.633 391.65C606.622 378.583 612.852 363.951 619.324 347.771L591.47 336.629C585.142 352.449 579.105 366.617 573.361 379.15L600.633 391.65ZM619.16 348.164C626.398 331.462 632.255 314.455 636.721 297.148L607.673 289.652C603.606 305.412 598.262 320.938 591.634 336.236L619.16 348.164ZM636.637 297.461C641.711 279.421 644.397 262.559 644.397 247H614.397C614.397 259.174 612.283 273.246 607.757 289.339L636.637 297.461ZM644.397 247C644.397 222.866 637.906 201.841 620.619 189.269L602.974 213.531C609.154 218.025 614.397 227.401 614.397 247H644.397ZM620.969 189.531C605.794 177.805 586.18 172.8 563.797 172.8V202.8C581.947 202.8 594.333 206.862 602.625 213.269L620.969 189.531ZM563.797 172.8C535.922 172.8 506.069 179.181 474.396 191.406L485.198 219.394C514.325 208.152 540.471 202.8 563.797 202.8V172.8ZM474.53 191.355C443.666 202.929 412.672 218.306 381.548 237.417L397.246 262.983C426.922 244.76 456.195 230.271 485.064 219.445L474.53 191.355ZM381.612 237.378C351.286 255.791 322.813 275.312 296.205 295.947L314.589 319.653C340.248 299.755 367.775 280.876 397.182 263.022L381.612 237.378ZM296.086 296.039C270.129 316.589 248.273 335.962 230.628 354.158L252.165 375.042C268.654 358.038 289.464 339.545 314.707 319.561L296.086 296.039ZM230.522 354.269C219.989 365.356 208.747 378.53 196.802 393.733L220.392 412.267C231.914 397.603 242.539 385.177 252.272 374.931L230.522 354.269ZM196.802 393.733C184.44 409.466 173.764 426.324 164.78 444.292L191.613 457.708C199.696 441.543 209.287 426.401 220.392 412.267L196.802 393.733ZM164.694 444.467C155.892 462.658 151.197 480.885 151.197 499H181.197C181.197 486.182 184.502 472.408 191.699 457.533L164.694 444.467ZM151.197 499C151.197 514.438 154.883 528.9 165.19 539.207L186.403 517.993C183.91 515.5 181.197 510.228 181.197 499H151.197ZM165.623 539.622C175.069 548.342 186.772 553.454 199.972 555.434L204.422 525.766C196.288 524.546 190.391 521.658 185.971 517.578L165.623 539.622ZM199.972 555.434C211.367 557.143 222.777 558 234.197 558V528C224.283 528 214.36 527.257 204.422 525.766L199.972 555.434ZM234.197 558C248.518 558 263.78 556.569 279.945 553.782L274.848 524.218C260.08 526.764 246.542 528 234.197 528V558ZM279.863 553.796C297.174 550.911 312.7 545.921 326.18 538.568L311.814 512.232C301.827 517.679 289.62 521.756 274.931 524.204L279.863 553.796ZM325.705 538.816C326.608 538.365 327.055 538.172 327.168 538.127C327.228 538.103 326.998 538.2 326.568 538.323C326.344 538.387 325.954 538.49 325.443 538.583C324.969 538.669 324.105 538.8 322.997 538.8V508.8C320.767 508.8 318.995 509.286 318.326 509.477C317.429 509.733 316.632 510.03 316.026 510.273C314.805 510.761 313.519 511.368 312.289 511.984L325.705 538.816ZM322.997 538.8C321.629 538.8 318.063 538.293 315.208 534.962C313.967 533.514 313.359 532.069 313.074 531.071C312.801 530.115 312.797 529.489 312.797 529.4H342.797C342.797 525.739 342.062 520.193 337.986 515.438C333.531 510.24 327.565 508.8 322.997 508.8V538.8ZM312.797 529.4C312.797 528.877 312.909 528.343 313.091 527.905C313.259 527.499 313.391 527.405 313.218 527.598C312.772 528.097 311.31 529.381 307.81 531.028L320.584 558.172C330.944 553.297 342.797 544.451 342.797 529.4H312.797ZM308.486 530.73C300.425 534.049 290.64 537.014 279.01 539.542L285.383 568.858C298.287 566.053 309.835 562.618 319.908 558.47L308.486 530.73ZM279.627 539.422C267.701 541.496 256.352 543.041 245.575 544.068L248.419 573.932C260.042 572.826 272.159 571.171 284.767 568.978L279.627 539.422ZM245.504 544.074C234.814 545.143 228.028 545.6 224.597 545.6V575.6C229.699 575.6 237.847 574.99 248.489 573.926L245.504 544.074ZM224.597 545.6C215.468 545.6 204.557 544.635 191.767 542.588L187.027 572.212C200.904 574.432 213.459 575.6 224.597 575.6V545.6ZM192.339 542.691C181.327 540.489 174.017 536.366 169.163 531.165L147.231 551.635C157.31 562.434 170.8 568.978 186.455 572.109L192.339 542.691ZM169.189 531.193C157.805 518.934 152.397 505.213 152.397 489.4H122.397C122.397 513.054 130.855 533.999 147.205 551.607L169.189 531.193ZM152.397 489.4C152.397 471.557 158.4 452.158 171.7 430.976L146.294 415.023C130.793 439.709 122.397 464.576 122.397 489.4H152.397ZM171.567 431.185C185.71 409.465 204.6 387.443 228.44 365.158L207.954 343.242C182.727 366.823 162.15 390.668 146.427 414.815L171.567 431.185ZM228.44 365.158C252.408 342.753 279.043 321.333 308.369 300.909L291.224 276.291C260.818 297.467 233.052 319.78 207.954 343.242L228.44 365.158ZM308.515 300.806C337.915 279.806 367.531 261.202 397.363 244.977L383.03 218.623C352.062 235.465 321.412 254.727 291.078 276.394L308.515 300.806ZM397.363 244.977C427.291 228.701 455.206 215.671 481.125 205.822L470.469 177.778C443.055 188.195 413.903 201.832 383.03 218.623L397.363 244.977ZM481.368 205.727C507.416 195.308 528.017 189.751 543.555 188.338L540.839 158.462C521.177 160.249 497.511 166.959 470.226 177.873L481.368 205.727ZM545.451 188.043C549.209 187.208 552.918 186.8 556.597 186.8V156.8C550.676 156.8 544.785 157.459 538.943 158.757L545.451 188.043ZM556.597 186.8C556.606 186.8 556.616 186.8 556.625 186.8C556.634 186.8 556.644 186.8 556.653 186.8C556.663 186.8 556.672 186.8 556.681 186.8C556.691 186.8 556.7 186.8 556.709 186.8C556.719 186.8 556.728 186.8 556.738 186.8C556.747 186.8 556.756 186.8 556.766 186.8C556.775 186.8 556.784 186.8 556.794 186.8C556.803 186.8 556.813 186.8 556.822 186.8C556.831 186.8 556.841 186.8 556.85 186.8C556.859 186.8 556.869 186.8 556.878 186.8C556.888 186.8 556.897 186.8 556.906 186.8C556.916 186.8 556.925 186.8 556.934 186.8C556.944 186.8 556.953 186.8 556.963 186.8C556.972 186.8 556.981 186.8 556.991 186.8C557 186.8 557.009 186.8 557.019 186.8C557.028 186.8 557.038 186.8 557.047 186.8C557.056 186.8 557.066 186.8 557.075 186.8C557.084 186.8 557.094 186.8 557.103 186.8C557.113 186.8 557.122 186.8 557.131 186.8C557.141 186.8 557.15 186.8 557.159 186.8C557.169 186.8 557.178 186.8 557.188 186.8C557.197 186.8 557.206 186.8 557.216 186.8C557.225 186.8 557.234 186.8 557.244 186.8C557.253 186.8 557.263 186.8 557.272 186.8C557.281 186.8 557.291 186.8 557.3 186.8C557.309 186.8 557.319 186.8 557.328 186.8C557.338 186.8 557.347 186.8 557.356 186.8C557.366 186.8 557.375 186.8 557.384 186.8C557.394 186.8 557.403 186.8 557.413 186.8C557.422 186.8 557.431 186.8 557.441 186.8C557.45 186.8 557.459 186.8 557.469 186.8C557.478 186.8 557.488 186.8 557.497 186.8C557.506 186.8 557.516 186.8 557.525 186.8C557.534 186.8 557.544 186.8 557.553 186.8C557.563 186.8 557.572 186.8 557.581 186.8C557.591 186.8 557.6 186.8 557.609 186.8C557.619 186.8 557.628 186.8 557.638 186.8C557.647 186.8 557.656 186.8 557.666 186.8C557.675 186.8 557.684 186.8 557.694 186.8C557.703 186.8 557.713 186.8 557.722 186.8C557.731 186.8 557.741 186.8 557.75 186.8C557.759 186.8 557.769 186.8 557.778 186.8C557.788 186.8 557.797 186.8 557.806 186.8C557.816 186.8 557.825 186.8 557.834 186.8C557.844 186.8 557.853 186.8 557.863 186.8C557.872 186.8 557.881 186.8 557.891 186.8C557.9 186.8 557.909 186.8 557.919 186.8C557.928 186.8 557.938 186.8 557.947 186.8C557.956 186.8 557.966 186.8 557.975 186.8C557.984 186.8 557.994 186.8 558.003 186.8C558.013 186.8 558.022 186.8 558.031 186.8C558.041 186.8 558.05 186.8 558.059 186.8C558.069 186.8 558.078 186.8 558.088 186.8C558.097 186.8 558.106 186.8 558.116 186.8C558.125 186.8 558.134 186.8 558.144 186.8C558.153 186.8 558.163 186.8 558.172 186.8C558.181 186.8 558.191 186.8 558.2 186.8C558.209 186.8 558.219 186.8 558.228 186.8C558.238 186.8 558.247 186.8 558.256 186.8C558.266 186.8 558.275 186.8 558.284 186.8C558.294 186.8 558.303 186.8 558.313 186.8C558.322 186.8 558.331 186.8 558.341 186.8C558.35 186.8 558.359 186.8 558.369 186.8C558.378 186.8 558.388 186.8 558.397 186.8C558.406 186.8 558.416 186.8 558.425 186.8C558.434 186.8 558.444 186.8 558.453 186.8C558.463 186.8 558.472 186.8 558.481 186.8C558.491 186.8 558.5 186.8 558.509 186.8C558.519 186.8 558.528 186.8 558.538 186.8C558.547 186.8 558.556 186.8 558.566 186.8C558.575 186.8 558.584 186.8 558.594 186.8C558.603 186.8 558.613 186.8 558.622 186.8C558.631 186.8 558.641 186.8 558.65 186.8C558.659 186.8 558.669 186.8 558.678 186.8C558.688 186.8 558.697 186.8 558.706 186.8C558.716 186.8 558.725 186.8 558.734 186.8C558.744 186.8 558.753 186.8 558.763 186.8C558.772 186.8 558.781 186.8 558.791 186.8C558.8 186.8 558.809 186.8 558.819 186.8C558.828 186.8 558.838 186.8 558.847 186.8C558.856 186.8 558.866 186.8 558.875 186.8C558.884 186.8 558.894 186.8 558.903 186.8C558.913 186.8 558.922 186.8 558.931 186.8C558.941 186.8 558.95 186.8 558.959 186.8C558.969 186.8 558.978 186.8 558.988 186.8C558.997 186.8 559.006 186.8 559.016 186.8C559.025 186.8 559.034 186.8 559.044 186.8C559.053 186.8 559.063 186.8 559.072 186.8C559.081 186.8 559.091 186.8 559.1 186.8C559.109 186.8 559.119 186.8 559.128 186.8C559.138 186.8 559.147 186.8 559.156 186.8C559.166 186.8 559.175 186.8 559.184 186.8C559.194 186.8 559.203 186.8 559.213 186.8C559.222 186.8 559.231 186.8 559.241 186.8C559.25 186.8 559.259 186.8 559.269 186.8C559.278 186.8 559.288 186.8 559.297 186.8C559.306 186.8 559.316 186.8 559.325 186.8C559.334 186.8 559.344 186.8 559.353 186.8C559.363 186.8 559.372 186.8 559.381 186.8C559.391 186.8 559.4 186.8 559.409 186.8C559.419 186.8 559.428 186.8 559.438 186.8C559.447 186.8 559.456 186.8 559.466 186.8C559.475 186.8 559.484 186.8 559.494 186.8C559.503 186.8 559.513 186.8 559.522 186.8C559.531 186.8 559.541 186.8 559.55 186.8C559.559 186.8 559.569 186.8 559.578 186.8C559.588 186.8 559.597 186.8 559.606 186.8C559.616 186.8 559.625 186.8 559.634 186.8C559.644 186.8 559.653 186.8 559.663 186.8C559.672 186.8 559.681 186.8 559.691 186.8C559.7 186.8 559.709 186.8 559.719 186.8C559.728 186.8 559.738 186.8 559.747 186.8C559.756 186.8 559.766 186.8 559.775 186.8C559.784 186.8 559.794 186.8 559.803 186.8C559.813 186.8 559.822 186.8 559.831 186.8C559.841 186.8 559.85 186.8 559.859 186.8C559.869 186.8 559.878 186.8 559.888 186.8C559.897 186.8 559.906 186.8 559.916 186.8C559.925 186.8 559.934 186.8 559.944 186.8C559.953 186.8 559.963 186.8 559.972 186.8C559.981 186.8 559.991 186.8 560 186.8C560.009 186.8 560.019 186.8 560.028 186.8C560.038 186.8 560.047 186.8 560.056 186.8C560.066 186.8 560.075 186.8 560.084 186.8C560.094 186.8 560.103 186.8 560.113 186.8C560.122 186.8 560.131 186.8 560.141 186.8C560.15 186.8 560.159 186.8 560.169 186.8C560.178 186.8 560.188 186.8 560.197 186.8C560.206 186.8 560.216 186.8 560.225 186.8C560.234 186.8 560.244 186.8 560.253 186.8C560.263 186.8 560.272 186.8 560.281 186.8C560.291 186.8 560.3 186.8 560.309 186.8C560.319 186.8 560.328 186.8 560.338 186.8C560.347 186.8 560.356 186.8 560.366 186.8C560.375 186.8 560.384 186.8 560.394 186.8C560.403 186.8 560.413 186.8 560.422 186.8C560.431 186.8 560.441 186.8 560.45 186.8C560.459 186.8 560.469 186.8 560.478 186.8C560.488 186.8 560.497 186.8 560.506 186.8C560.516 186.8 560.525 186.8 560.534 186.8C560.544 186.8 560.553 186.8 560.563 186.8C560.572 186.8 560.581 186.8 560.591 186.8C560.6 186.8 560.609 186.8 560.619 186.8C560.628 186.8 560.638 186.8 560.647 186.8C560.656 186.8 560.666 186.8 560.675 186.8C560.684 186.8 560.694 186.8 560.703 186.8C560.713 186.8 560.722 186.8 560.731 186.8C560.741 186.8 560.75 186.8 560.759 186.8C560.769 186.8 560.778 186.8 560.788 186.8C560.797 186.8 560.806 186.8 560.816 186.8C560.825 186.8 560.834 186.8 560.844 186.8C560.853 186.8 560.863 186.8 560.872 186.8C560.881 186.8 560.891 186.8 560.9 186.8C560.909 186.8 560.919 186.8 560.928 186.8C560.938 186.8 560.947 186.8 560.956 186.8C560.966 186.8 560.975 186.8 560.984 186.8C560.994 186.8 561.003 186.8 561.013 186.8C561.022 186.8 561.031 186.8 561.041 186.8C561.05 186.8 561.059 186.8 561.069 186.8C561.078 186.8 561.088 186.8 561.097 186.8C561.106 186.8 561.116 186.8 561.125 186.8C561.134 186.8 561.144 186.8 561.153 186.8C561.163 186.8 561.172 186.8 561.181 186.8C561.191 186.8 561.2 186.8 561.209 186.8C561.219 186.8 561.228 186.8 561.238 186.8C561.247 186.8 561.256 186.8 561.266 186.8C561.275 186.8 561.284 186.8 561.294 186.8C561.303 186.8 561.313 186.8 561.322 186.8C561.331 186.8 561.341 186.8 561.35 186.8C561.359 186.8 561.369 186.8 561.378 186.8C561.388 186.8 561.397 186.8 561.406 186.8C561.416 186.8 561.425 186.8 561.434 186.8C561.444 186.8 561.453 186.8 561.463 186.8C561.472 186.8 561.481 186.8 561.491 186.8C561.5 186.8 561.509 186.8 561.519 186.8C561.528 186.8 561.538 186.8 561.547 186.8C561.556 186.8 561.566 186.8 561.575 186.8C561.584 186.8 561.594 186.8 561.603 186.8C561.613 186.8 561.622 186.8 561.631 186.8C561.641 186.8 561.65 186.8 561.659 186.8C561.669 186.8 561.678 186.8 561.688 186.8C561.697 186.8 561.706 186.8 561.716 186.8C561.725 186.8 561.734 186.8 561.744 186.8C561.753 186.8 561.763 186.8 561.772 186.8C561.781 186.8 561.791 186.8 561.8 186.8C561.809 186.8 561.819 186.8 561.828 186.8C561.838 186.8 561.847 186.8 561.856 186.8C561.866 186.8 561.875 186.8 561.884 186.8C561.894 186.8 561.903 186.8 561.913 186.8C561.922 186.8 561.931 186.8 561.941 186.8C561.95 186.8 561.959 186.8 561.969 186.8C561.978 186.8 561.988 186.8 561.997 186.8C562.006 186.8 562.016 186.8 562.025 186.8C562.034 186.8 562.044 186.8 562.053 186.8C562.063 186.8 562.072 186.8 562.081 186.8C562.091 186.8 562.1 186.8 562.109 186.8C562.119 186.8 562.128 186.8 562.138 186.8C562.147 186.8 562.156 186.8 562.166 186.8C562.175 186.8 562.184 186.8 562.194 186.8C562.203 186.8 562.213 186.8 562.222 186.8C562.231 186.8 562.241 186.8 562.25 186.8C562.259 186.8 562.269 186.8 562.278 186.8C562.288 186.8 562.297 186.8 562.306 186.8C562.316 186.8 562.325 186.8 562.334 186.8C562.344 186.8 562.353 186.8 562.363 186.8C562.372 186.8 562.381 186.8 562.391 186.8C562.4 186.8 562.409 186.8 562.419 186.8C562.428 186.8 562.438 186.8 562.447 186.8C562.456 186.8 562.466 186.8 562.475 186.8C562.484 186.8 562.494 186.8 562.503 186.8C562.513 186.8 562.522 186.8 562.531 186.8C562.541 186.8 562.55 186.8 562.559 186.8C562.569 186.8 562.578 186.8 562.588 186.8C562.597 186.8 562.606 186.8 562.616 186.8C562.625 186.8 562.634 186.8 562.644 186.8C562.653 186.8 562.663 186.8 562.672 186.8C562.681 186.8 562.691 186.8 562.7 186.8C562.709 186.8 562.719 186.8 562.728 186.8C562.738 186.8 562.747 186.8 562.756 186.8C562.766 186.8 562.775 186.8 562.784 186.8C562.794 186.8 562.803 186.8 562.813 186.8C562.822 186.8 562.831 186.8 562.841 186.8C562.85 186.8 562.859 186.8 562.869 186.8C562.878 186.8 562.888 186.8 562.897 186.8C562.906 186.8 562.916 186.8 562.925 186.8C562.934 186.8 562.944 186.8 562.953 186.8C562.963 186.8 562.972 186.8 562.981 186.8C562.991 186.8 563 186.8 563.009 186.8C563.019 186.8 563.028 186.8 563.038 186.8C563.047 186.8 563.056 186.8 563.066 186.8C563.075 186.8 563.084 186.8 563.094 186.8C563.103 186.8 563.113 186.8 563.122 186.8C563.131 186.8 563.141 186.8 563.15 186.8C563.159 186.8 563.169 186.8 563.178 186.8C563.188 186.8 563.197 186.8 563.206 186.8C563.216 186.8 563.225 186.8 563.234 186.8C563.244 186.8 563.253 186.8 563.263 186.8C563.272 186.8 563.281 186.8 563.291 186.8C563.3 186.8 563.309 186.8 563.319 186.8C563.328 186.8 563.338 186.8 563.347 186.8C563.356 186.8 563.366 186.8 563.375 186.8C563.384 186.8 563.394 186.8 563.403 186.8C563.413 186.8 563.422 186.8 563.431 186.8C563.441 186.8 563.45 186.8 563.459 186.8C563.469 186.8 563.478 186.8 563.488 186.8C563.497 186.8 563.506 186.8 563.516 186.8C563.525 186.8 563.534 186.8 563.544 186.8C563.553 186.8 563.563 186.8 563.572 186.8C563.581 186.8 563.591 186.8 563.6 186.8C563.609 186.8 563.619 186.8 563.628 186.8C563.638 186.8 563.647 186.8 563.656 186.8C563.666 186.8 563.675 186.8 563.684 186.8C563.694 186.8 563.703 186.8 563.713 186.8C563.722 186.8 563.731 186.8 563.741 186.8C563.75 186.8 563.759 186.8 563.769 186.8C563.778 186.8 563.788 186.8 563.797 186.8C563.806 186.8 563.816 186.8 563.825 186.8C563.834 186.8 563.844 186.8 563.853 186.8C563.863 186.8 563.872 186.8 563.881 186.8C563.891 186.8 563.9 186.8 563.909 186.8C563.919 186.8 563.928 186.8 563.938 186.8C563.947 186.8 563.956 186.8 563.966 186.8C563.975 186.8 563.984 186.8 563.994 186.8C564.003 186.8 564.013 186.8 564.022 186.8C564.031 186.8 564.041 186.8 564.05 186.8C564.059 186.8 564.069 186.8 564.078 186.8C564.088 186.8 564.097 186.8 564.106 186.8C564.116 186.8 564.125 186.8 564.134 186.8C564.144 186.8 564.153 186.8 564.163 186.8C564.172 186.8 564.181 186.8 564.191 186.8C564.2 186.8 564.209 186.8 564.219 186.8C564.228 186.8 564.238 186.8 564.247 186.8C564.256 186.8 564.266 186.8 564.275 186.8C564.284 186.8 564.294 186.8 564.303 186.8C564.313 186.8 564.322 186.8 564.331 186.8C564.341 186.8 564.35 186.8 564.359 186.8C564.369 186.8 564.378 186.8 564.388 186.8C564.397 186.8 564.406 186.8 564.416 186.8C564.425 186.8 564.434 186.8 564.444 186.8C564.453 186.8 564.463 186.8 564.472 186.8C564.481 186.8 564.491 186.8 564.5 186.8C564.509 186.8 564.519 186.8 564.528 186.8C564.538 186.8 564.547 186.8 564.556 186.8C564.566 186.8 564.575 186.8 564.584 186.8C564.594 186.8 564.603 186.8 564.613 186.8C564.622 186.8 564.631 186.8 564.641 186.8C564.65 186.8 564.659 186.8 564.669 186.8C564.678 186.8 564.688 186.8 564.697 186.8C564.706 186.8 564.716 186.8 564.725 186.8C564.734 186.8 564.744 186.8 564.753 186.8C564.763 186.8 564.772 186.8 564.781 186.8C564.791 186.8 564.8 186.8 564.809 186.8C564.819 186.8 564.828 186.8 564.838 186.8C564.847 186.8 564.856 186.8 564.866 186.8C564.875 186.8 564.884 186.8 564.894 186.8C564.903 186.8 564.913 186.8 564.922 186.8C564.931 186.8 564.941 186.8 564.95 186.8C564.959 186.8 564.969 186.8 564.978 186.8C564.988 186.8 564.997 186.8 565.006 186.8C565.016 186.8 565.025 186.8 565.034 186.8C565.044 186.8 565.053 186.8 565.063 186.8C565.072 186.8 565.081 186.8 565.091 186.8C565.1 186.8 565.109 186.8 565.119 186.8C565.128 186.8 565.138 186.8 565.147 186.8C565.156 186.8 565.166 186.8 565.175 186.8C565.184 186.8 565.194 186.8 565.203 186.8C565.213 186.8 565.222 186.8 565.231 186.8C565.241 186.8 565.25 186.8 565.259 186.8C565.269 186.8 565.278 186.8 565.288 186.8C565.297 186.8 565.306 186.8 565.316 186.8C565.325 186.8 565.334 186.8 565.344 186.8C565.353 186.8 565.363 186.8 565.372 186.8C565.381 186.8 565.391 186.8 565.4 186.8C565.409 186.8 565.419 186.8 565.428 186.8C565.438 186.8 565.447 186.8 565.456 186.8C565.466 186.8 565.475 186.8 565.484 186.8C565.494 186.8 565.503 186.8 565.513 186.8C565.522 186.8 565.531 186.8 565.541 186.8C565.55 186.8 565.559 186.8 565.569 186.8C565.578 186.8 565.588 186.8 565.597 186.8C565.606 186.8 565.616 186.8 565.625 186.8C565.634 186.8 565.644 186.8 565.653 186.8C565.663 186.8 565.672 186.8 565.681 186.8C565.691 186.8 565.7 186.8 565.709 186.8C565.719 186.8 565.728 186.8 565.738 186.8C565.747 186.8 565.756 186.8 565.766 186.8C565.775 186.8 565.784 186.8 565.794 186.8C565.803 186.8 565.813 186.8 565.822 186.8C565.831 186.8 565.841 186.8 565.85 186.8C565.859 186.8 565.869 186.8 565.878 186.8C565.888 186.8 565.897 186.8 565.906 186.8C565.916 186.8 565.925 186.8 565.934 186.8C565.944 186.8 565.953 186.8 565.963 186.8C565.972 186.8 565.981 186.8 565.991 186.8C566 186.8 566.009 186.8 566.019 186.8C566.028 186.8 566.038 186.8 566.047 186.8C566.056 186.8 566.066 186.8 566.075 186.8C566.084 186.8 566.094 186.8 566.103 186.8C566.113 186.8 566.122 186.8 566.131 186.8C566.141 186.8 566.15 186.8 566.159 186.8C566.169 186.8 566.178 186.8 566.188 186.8C566.197 186.8 566.206 186.8 566.216 186.8C566.225 186.8 566.234 186.8 566.244 186.8C566.253 186.8 566.263 186.8 566.272 186.8C566.281 186.8 566.291 186.8 566.3 186.8C566.309 186.8 566.319 186.8 566.328 186.8C566.338 186.8 566.347 186.8 566.356 186.8C566.366 186.8 566.375 186.8 566.384 186.8C566.394 186.8 566.403 186.8 566.413 186.8C566.422 186.8 566.431 186.8 566.441 186.8C566.45 186.8 566.459 186.8 566.469 186.8C566.478 186.8 566.488 186.8 566.497 186.8C566.506 186.8 566.516 186.8 566.525 186.8C566.534 186.8 566.544 186.8 566.553 186.8C566.563 186.8 566.572 186.8 566.581 186.8C566.591 186.8 566.6 186.8 566.609 186.8C566.619 186.8 566.628 186.8 566.638 186.8C566.647 186.8 566.656 186.8 566.666 186.8C566.675 186.8 566.684 186.8 566.694 186.8C566.703 186.8 566.713 186.8 566.722 186.8C566.731 186.8 566.741 186.8 566.75 186.8C566.759 186.8 566.769 186.8 566.778 186.8C566.788 186.8 566.797 186.8 566.806 186.8C566.816 186.8 566.825 186.8 566.834 186.8C566.844 186.8 566.853 186.8 566.863 186.8C566.872 186.8 566.881 186.8 566.891 186.8C566.9 186.8 566.909 186.8 566.919 186.8C566.928 186.8 566.938 186.8 566.947 186.8C566.956 186.8 566.966 186.8 566.975 186.8C566.984 186.8 566.994 186.8 567.003 186.8C567.013 186.8 567.022 186.8 567.031 186.8C567.041 186.8 567.05 186.8 567.059 186.8C567.069 186.8 567.078 186.8 567.088 186.8C567.097 186.8 567.106 186.8 567.116 186.8C567.125 186.8 567.134 186.8 567.144 186.8C567.153 186.8 567.163 186.8 567.172 186.8C567.181 186.8 567.191 186.8 567.2 186.8C567.209 186.8 567.219 186.8 567.228 186.8C567.238 186.8 567.247 186.8 567.256 186.8C567.266 186.8 567.275 186.8 567.284 186.8C567.294 186.8 567.303 186.8 567.313 186.8C567.322 186.8 567.331 186.8 567.341 186.8C567.35 186.8 567.359 186.8 567.369 186.8C567.378 186.8 567.388 186.8 567.397 186.8C567.406 186.8 567.416 186.8 567.425 186.8C567.434 186.8 567.444 186.8 567.453 186.8C567.463 186.8 567.472 186.8 567.481 186.8C567.491 186.8 567.5 186.8 567.509 186.8C567.519 186.8 567.528 186.8 567.538 186.8C567.547 186.8 567.556 186.8 567.566 186.8C567.575 186.8 567.584 186.8 567.594 186.8C567.603 186.8 567.613 186.8 567.622 186.8C567.631 186.8 567.641 186.8 567.65 186.8C567.659 186.8 567.669 186.8 567.678 186.8C567.688 186.8 567.697 186.8 567.706 186.8C567.716 186.8 567.725 186.8 567.734 186.8C567.744 186.8 567.753 186.8 567.763 186.8C567.772 186.8 567.781 186.8 567.791 186.8C567.8 186.8 567.809 186.8 567.819 186.8C567.828 186.8 567.838 186.8 567.847 186.8C567.856 186.8 567.866 186.8 567.875 186.8C567.884 186.8 567.894 186.8 567.903 186.8C567.913 186.8 567.922 186.8 567.931 186.8C567.941 186.8 567.95 186.8 567.959 186.8C567.969 186.8 567.978 186.8 567.988 186.8C567.997 186.8 568.006 186.8 568.016 186.8C568.025 186.8 568.034 186.8 568.044 186.8C568.053 186.8 568.063 186.8 568.072 186.8C568.081 186.8 568.091 186.8 568.1 186.8C568.109 186.8 568.119 186.8 568.128 186.8C568.138 186.8 568.147 186.8 568.156 186.8C568.166 186.8 568.175 186.8 568.184 186.8C568.194 186.8 568.203 186.8 568.213 186.8C568.222 186.8 568.231 186.8 568.241 186.8C568.25 186.8 568.259 186.8 568.269 186.8C568.278 186.8 568.288 186.8 568.297 186.8C568.306 186.8 568.316 186.8 568.325 186.8C568.334 186.8 568.344 186.8 568.353 186.8C568.363 186.8 568.372 186.8 568.381 186.8C568.391 186.8 568.4 186.8 568.409 186.8C568.419 186.8 568.428 186.8 568.438 186.8C568.447 186.8 568.456 186.8 568.466 186.8C568.475 186.8 568.484 186.8 568.494 186.8C568.503 186.8 568.513 186.8 568.522 186.8C568.531 186.8 568.541 186.8 568.55 186.8C568.559 186.8 568.569 186.8 568.578 186.8C568.588 186.8 568.597 186.8 568.606 186.8C568.616 186.8 568.625 186.8 568.634 186.8C568.644 186.8 568.653 186.8 568.663 186.8C568.672 186.8 568.681 186.8 568.691 186.8C568.7 186.8 568.709 186.8 568.719 186.8C568.728 186.8 568.738 186.8 568.747 186.8C568.756 186.8 568.766 186.8 568.775 186.8C568.784 186.8 568.794 186.8 568.803 186.8C568.813 186.8 568.822 186.8 568.831 186.8C568.841 186.8 568.85 186.8 568.859 186.8C568.869 186.8 568.878 186.8 568.888 186.8C568.897 186.8 568.906 186.8 568.916 186.8C568.925 186.8 568.934 186.8 568.944 186.8C568.953 186.8 568.963 186.8 568.972 186.8C568.981 186.8 568.991 186.8 569 186.8C569.009 186.8 569.019 186.8 569.028 186.8C569.038 186.8 569.047 186.8 569.056 186.8C569.066 186.8 569.075 186.8 569.084 186.8C569.094 186.8 569.103 186.8 569.113 186.8C569.122 186.8 569.131 186.8 569.141 186.8C569.15 186.8 569.159 186.8 569.169 186.8C569.178 186.8 569.188 186.8 569.197 186.8C569.206 186.8 569.216 186.8 569.225 186.8C569.234 186.8 569.244 186.8 569.253 186.8C569.263 186.8 569.272 186.8 569.281 186.8C569.291 186.8 569.3 186.8 569.309 186.8C569.319 186.8 569.328 186.8 569.338 186.8C569.347 186.8 569.356 186.8 569.366 186.8C569.375 186.8 569.384 186.8 569.394 186.8C569.403 186.8 569.413 186.8 569.422 186.8C569.431 186.8 569.441 186.8 569.45 186.8C569.459 186.8 569.469 186.8 569.478 186.8C569.488 186.8 569.497 186.8 569.506 186.8C569.516 186.8 569.525 186.8 569.534 186.8C569.544 186.8 569.553 186.8 569.563 186.8C569.572 186.8 569.581 186.8 569.591 186.8C569.6 186.8 569.609 186.8 569.619 186.8C569.628 186.8 569.638 186.8 569.647 186.8C569.656 186.8 569.666 186.8 569.675 186.8C569.684 186.8 569.694 186.8 569.703 186.8C569.713 186.8 569.722 186.8 569.731 186.8C569.741 186.8 569.75 186.8 569.759 186.8C569.769 186.8 569.778 186.8 569.788 186.8C569.797 186.8 569.806 186.8 569.816 186.8C569.825 186.8 569.834 186.8 569.844 186.8C569.853 186.8 569.863 186.8 569.872 186.8C569.881 186.8 569.891 186.8 569.9 186.8C569.909 186.8 569.919 186.8 569.928 186.8C569.938 186.8 569.947 186.8 569.956 186.8C569.966 186.8 569.975 186.8 569.984 186.8C569.994 186.8 570.003 186.8 570.013 186.8C570.022 186.8 570.031 186.8 570.041 186.8C570.05 186.8 570.059 186.8 570.069 186.8C570.078 186.8 570.088 186.8 570.097 186.8C570.106 186.8 570.116 186.8 570.125 186.8C570.134 186.8 570.144 186.8 570.153 186.8C570.163 186.8 570.172 186.8 570.181 186.8C570.191 186.8 570.2 186.8 570.209 186.8C570.219 186.8 570.228 186.8 570.238 186.8C570.247 186.8 570.256 186.8 570.266 186.8C570.275 186.8 570.284 186.8 570.294 186.8C570.303 186.8 570.313 186.8 570.322 186.8C570.331 186.8 570.341 186.8 570.35 186.8C570.359 186.8 570.369 186.8 570.378 186.8C570.388 186.8 570.397 186.8 570.406 186.8C570.416 186.8 570.425 186.8 570.434 186.8C570.444 186.8 570.453 186.8 570.463 186.8C570.472 186.8 570.481 186.8 570.491 186.8C570.5 186.8 570.509 186.8 570.519 186.8C570.528 186.8 570.538 186.8 570.547 186.8C570.556 186.8 570.566 186.8 570.575 186.8C570.584 186.8 570.594 186.8 570.603 186.8C570.613 186.8 570.622 186.8 570.631 186.8C570.641 186.8 570.65 186.8 570.659 186.8C570.669 186.8 570.678 186.8 570.688 186.8C570.697 186.8 570.706 186.8 570.716 186.8C570.725 186.8 570.734 186.8 570.744 186.8C570.753 186.8 570.763 186.8 570.772 186.8C570.781 186.8 570.791 186.8 570.8 186.8C570.809 186.8 570.819 186.8 570.828 186.8C570.838 186.8 570.847 186.8 570.856 186.8C570.866 186.8 570.875 186.8 570.884 186.8C570.894 186.8 570.903 186.8 570.913 186.8C570.922 186.8 570.931 186.8 570.941 186.8C570.95 186.8 570.959 186.8 570.969 186.8C570.978 186.8 570.988 186.8 570.997 186.8V156.8C570.988 156.8 570.978 156.8 570.969 156.8C570.959 156.8 570.95 156.8 570.941 156.8C570.931 156.8 570.922 156.8 570.913 156.8C570.903 156.8 570.894 156.8 570.884 156.8C570.875 156.8 570.866 156.8 570.856 156.8C570.847 156.8 570.838 156.8 570.828 156.8C570.819 156.8 570.809 156.8 570.8 156.8C570.791 156.8 570.781 156.8 570.772 156.8C570.763 156.8 570.753 156.8 570.744 156.8C570.734 156.8 570.725 156.8 570.716 156.8C570.706 156.8 570.697 156.8 570.688 156.8C570.678 156.8 570.669 156.8 570.659 156.8C570.65 156.8 570.641 156.8 570.631 156.8C570.622 156.8 570.613 156.8 570.603 156.8C570.594 156.8 570.584 156.8 570.575 156.8C570.566 156.8 570.556 156.8 570.547 156.8C570.538 156.8 570.528 156.8 570.519 156.8C570.509 156.8 570.5 156.8 570.491 156.8C570.481 156.8 570.472 156.8 570.463 156.8C570.453 156.8 570.444 156.8 570.434 156.8C570.425 156.8 570.416 156.8 570.406 156.8C570.397 156.8 570.388 156.8 570.378 156.8C570.369 156.8 570.359 156.8 570.35 156.8C570.341 156.8 570.331 156.8 570.322 156.8C570.313 156.8 570.303 156.8 570.294 156.8C570.284 156.8 570.275 156.8 570.266 156.8C570.256 156.8 570.247 156.8 570.238 156.8C570.228 156.8 570.219 156.8 570.209 156.8C570.2 156.8 570.191 156.8 570.181 156.8C570.172 156.8 570.163 156.8 570.153 156.8C570.144 156.8 570.134 156.8 570.125 156.8C570.116 156.8 570.106 156.8 570.097 156.8C570.088 156.8 570.078 156.8 570.069 156.8C570.059 156.8 570.05 156.8 570.041 156.8C570.031 156.8 570.022 156.8 570.013 156.8C570.003 156.8 569.994 156.8 569.984 156.8C569.975 156.8 569.966 156.8 569.956 156.8C569.947 156.8 569.938 156.8 569.928 156.8C569.919 156.8 569.909 156.8 569.9 156.8C569.891 156.8 569.881 156.8 569.872 156.8C569.863 156.8 569.853 156.8 569.844 156.8C569.834 156.8 569.825 156.8 569.816 156.8C569.806 156.8 569.797 156.8 569.788 156.8C569.778 156.8 569.769 156.8 569.759 156.8C569.75 156.8 569.741 156.8 569.731 156.8C569.722 156.8 569.713 156.8 569.703 156.8C569.694 156.8 569.684 156.8 569.675 156.8C569.666 156.8 569.656 156.8 569.647 156.8C569.638 156.8 569.628 156.8 569.619 156.8C569.609 156.8 569.6 156.8 569.591 156.8C569.581 156.8 569.572 156.8 569.563 156.8C569.553 156.8 569.544 156.8 569.534 156.8C569.525 156.8 569.516 156.8 569.506 156.8C569.497 156.8 569.488 156.8 569.478 156.8C569.469 156.8 569.459 156.8 569.45 156.8C569.441 156.8 569.431 156.8 569.422 156.8C569.413 156.8 569.403 156.8 569.394 156.8C569.384 156.8 569.375 156.8 569.366 156.8C569.356 156.8 569.347 156.8 569.338 156.8C569.328 156.8 569.319 156.8 569.309 156.8C569.3 156.8 569.291 156.8 569.281 156.8C569.272 156.8 569.263 156.8 569.253 156.8C569.244 156.8 569.234 156.8 569.225 156.8C569.216 156.8 569.206 156.8 569.197 156.8C569.188 156.8 569.178 156.8 569.169 156.8C569.159 156.8 569.15 156.8 569.141 156.8C569.131 156.8 569.122 156.8 569.113 156.8C569.103 156.8 569.094 156.8 569.084 156.8C569.075 156.8 569.066 156.8 569.056 156.8C569.047 156.8 569.038 156.8 569.028 156.8C569.019 156.8 569.009 156.8 569 156.8C568.991 156.8 568.981 156.8 568.972 156.8C568.963 156.8 568.953 156.8 568.944 156.8C568.934 156.8 568.925 156.8 568.916 156.8C568.906 156.8 568.897 156.8 568.888 156.8C568.878 156.8 568.869 156.8 568.859 156.8C568.85 156.8 568.841 156.8 568.831 156.8C568.822 156.8 568.813 156.8 568.803 156.8C568.794 156.8 568.784 156.8 568.775 156.8C568.766 156.8 568.756 156.8 568.747 156.8C568.738 156.8 568.728 156.8 568.719 156.8C568.709 156.8 568.7 156.8 568.691 156.8C568.681 156.8 568.672 156.8 568.663 156.8C568.653 156.8 568.644 156.8 568.634 156.8C568.625 156.8 568.616 156.8 568.606 156.8C568.597 156.8 568.588 156.8 568.578 156.8C568.569 156.8 568.559 156.8 568.55 156.8C568.541 156.8 568.531 156.8 568.522 156.8C568.513 156.8 568.503 156.8 568.494 156.8C568.484 156.8 568.475 156.8 568.466 156.8C568.456 156.8 568.447 156.8 568.438 156.8C568.428 156.8 568.419 156.8 568.409 156.8C568.4 156.8 568.391 156.8 568.381 156.8C568.372 156.8 568.363 156.8 568.353 156.8C568.344 156.8 568.334 156.8 568.325 156.8C568.316 156.8 568.306 156.8 568.297 156.8C568.288 156.8 568.278 156.8 568.269 156.8C568.259 156.8 568.25 156.8 568.241 156.8C568.231 156.8 568.222 156.8 568.213 156.8C568.203 156.8 568.194 156.8 568.184 156.8C568.175 156.8 568.166 156.8 568.156 156.8C568.147 156.8 568.138 156.8 568.128 156.8C568.119 156.8 568.109 156.8 568.1 156.8C568.091 156.8 568.081 156.8 568.072 156.8C568.063 156.8 568.053 156.8 568.044 156.8C568.034 156.8 568.025 156.8 568.016 156.8C568.006 156.8 567.997 156.8 567.988 156.8C567.978 156.8 567.969 156.8 567.959 156.8C567.95 156.8 567.941 156.8 567.931 156.8C567.922 156.8 567.913 156.8 567.903 156.8C567.894 156.8 567.884 156.8 567.875 156.8C567.866 156.8 567.856 156.8 567.847 156.8C567.838 156.8 567.828 156.8 567.819 156.8C567.809 156.8 567.8 156.8 567.791 156.8C567.781 156.8 567.772 156.8 567.763 156.8C567.753 156.8 567.744 156.8 567.734 156.8C567.725 156.8 567.716 156.8 567.706 156.8C567.697 156.8 567.688 156.8 567.678 156.8C567.669 156.8 567.659 156.8 567.65 156.8C567.641 156.8 567.631 156.8 567.622 156.8C567.613 156.8 567.603 156.8 567.594 156.8C567.584 156.8 567.575 156.8 567.566 156.8C567.556 156.8 567.547 156.8 567.538 156.8C567.528 156.8 567.519 156.8 567.509 156.8C567.5 156.8 567.491 156.8 567.481 156.8C567.472 156.8 567.463 156.8 567.453 156.8C567.444 156.8 567.434 156.8 567.425 156.8C567.416 156.8 567.406 156.8 567.397 156.8C567.388 156.8 567.378 156.8 567.369 156.8C567.359 156.8 567.35 156.8 567.341 156.8C567.331 156.8 567.322 156.8 567.313 156.8C567.303 156.8 567.294 156.8 567.284 156.8C567.275 156.8 567.266 156.8 567.256 156.8C567.247 156.8 567.238 156.8 567.228 156.8C567.219 156.8 567.209 156.8 567.2 156.8C567.191 156.8 567.181 156.8 567.172 156.8C567.163 156.8 567.153 156.8 567.144 156.8C567.134 156.8 567.125 156.8 567.116 156.8C567.106 156.8 567.097 156.8 567.088 156.8C567.078 156.8 567.069 156.8 567.059 156.8C567.05 156.8 567.041 156.8 567.031 156.8C567.022 156.8 567.013 156.8 567.003 156.8C566.994 156.8 566.984 156.8 566.975 156.8C566.966 156.8 566.956 156.8 566.947 156.8C566.938 156.8 566.928 156.8 566.919 156.8C566.909 156.8 566.9 156.8 566.891 156.8C566.881 156.8 566.872 156.8 566.863 156.8C566.853 156.8 566.844 156.8 566.834 156.8C566.825 156.8 566.816 156.8 566.806 156.8C566.797 156.8 566.788 156.8 566.778 156.8C566.769 156.8 566.759 156.8 566.75 156.8C566.741 156.8 566.731 156.8 566.722 156.8C566.713 156.8 566.703 156.8 566.694 156.8C566.684 156.8 566.675 156.8 566.666 156.8C566.656 156.8 566.647 156.8 566.638 156.8C566.628 156.8 566.619 156.8 566.609 156.8C566.6 156.8 566.591 156.8 566.581 156.8C566.572 156.8 566.563 156.8 566.553 156.8C566.544 156.8 566.534 156.8 566.525 156.8C566.516 156.8 566.506 156.8 566.497 156.8C566.488 156.8 566.478 156.8 566.469 156.8C566.459 156.8 566.45 156.8 566.441 156.8C566.431 156.8 566.422 156.8 566.413 156.8C566.403 156.8 566.394 156.8 566.384 156.8C566.375 156.8 566.366 156.8 566.356 156.8C566.347 156.8 566.338 156.8 566.328 156.8C566.319 156.8 566.309 156.8 566.3 156.8C566.291 156.8 566.281 156.8 566.272 156.8C566.263 156.8 566.253 156.8 566.244 156.8C566.234 156.8 566.225 156.8 566.216 156.8C566.206 156.8 566.197 156.8 566.188 156.8C566.178 156.8 566.169 156.8 566.159 156.8C566.15 156.8 566.141 156.8 566.131 156.8C566.122 156.8 566.113 156.8 566.103 156.8C566.094 156.8 566.084 156.8 566.075 156.8C566.066 156.8 566.056 156.8 566.047 156.8C566.038 156.8 566.028 156.8 566.019 156.8C566.009 156.8 566 156.8 565.991 156.8C565.981 156.8 565.972 156.8 565.963 156.8C565.953 156.8 565.944 156.8 565.934 156.8C565.925 156.8 565.916 156.8 565.906 156.8C565.897 156.8 565.888 156.8 565.878 156.8C565.869 156.8 565.859 156.8 565.85 156.8C565.841 156.8 565.831 156.8 565.822 156.8C565.813 156.8 565.803 156.8 565.794 156.8C565.784 156.8 565.775 156.8 565.766 156.8C565.756 156.8 565.747 156.8 565.738 156.8C565.728 156.8 565.719 156.8 565.709 156.8C565.7 156.8 565.691 156.8 565.681 156.8C565.672 156.8 565.663 156.8 565.653 156.8C565.644 156.8 565.634 156.8 565.625 156.8C565.616 156.8 565.606 156.8 565.597 156.8C565.588 156.8 565.578 156.8 565.569 156.8C565.559 156.8 565.55 156.8 565.541 156.8C565.531 156.8 565.522 156.8 565.513 156.8C565.503 156.8 565.494 156.8 565.484 156.8C565.475 156.8 565.466 156.8 565.456 156.8C565.447 156.8 565.438 156.8 565.428 156.8C565.419 156.8 565.409 156.8 565.4 156.8C565.391 156.8 565.381 156.8 565.372 156.8C565.363 156.8 565.353 156.8 565.344 156.8C565.334 156.8 565.325 156.8 565.316 156.8C565.306 156.8 565.297 156.8 565.288 156.8C565.278 156.8 565.269 156.8 565.259 156.8C565.25 156.8 565.241 156.8 565.231 156.8C565.222 156.8 565.213 156.8 565.203 156.8C565.194 156.8 565.184 156.8 565.175 156.8C565.166 156.8 565.156 156.8 565.147 156.8C565.138 156.8 565.128 156.8 565.119 156.8C565.109 156.8 565.1 156.8 565.091 156.8C565.081 156.8 565.072 156.8 565.063 156.8C565.053 156.8 565.044 156.8 565.034 156.8C565.025 156.8 565.016 156.8 565.006 156.8C564.997 156.8 564.988 156.8 564.978 156.8C564.969 156.8 564.959 156.8 564.95 156.8C564.941 156.8 564.931 156.8 564.922 156.8C564.913 156.8 564.903 156.8 564.894 156.8C564.884 156.8 564.875 156.8 564.866 156.8C564.856 156.8 564.847 156.8 564.838 156.8C564.828 156.8 564.819 156.8 564.809 156.8C564.8 156.8 564.791 156.8 564.781 156.8C564.772 156.8 564.763 156.8 564.753 156.8C564.744 156.8 564.734 156.8 564.725 156.8C564.716 156.8 564.706 156.8 564.697 156.8C564.688 156.8 564.678 156.8 564.669 156.8C564.659 156.8 564.65 156.8 564.641 156.8C564.631 156.8 564.622 156.8 564.613 156.8C564.603 156.8 564.594 156.8 564.584 156.8C564.575 156.8 564.566 156.8 564.556 156.8C564.547 156.8 564.538 156.8 564.528 156.8C564.519 156.8 564.509 156.8 564.5 156.8C564.491 156.8 564.481 156.8 564.472 156.8C564.463 156.8 564.453 156.8 564.444 156.8C564.434 156.8 564.425 156.8 564.416 156.8C564.406 156.8 564.397 156.8 564.388 156.8C564.378 156.8 564.369 156.8 564.359 156.8C564.35 156.8 564.341 156.8 564.331 156.8C564.322 156.8 564.313 156.8 564.303 156.8C564.294 156.8 564.284 156.8 564.275 156.8C564.266 156.8 564.256 156.8 564.247 156.8C564.238 156.8 564.228 156.8 564.219 156.8C564.209 156.8 564.2 156.8 564.191 156.8C564.181 156.8 564.172 156.8 564.163 156.8C564.153 156.8 564.144 156.8 564.134 156.8C564.125 156.8 564.116 156.8 564.106 156.8C564.097 156.8 564.088 156.8 564.078 156.8C564.069 156.8 564.059 156.8 564.05 156.8C564.041 156.8 564.031 156.8 564.022 156.8C564.013 156.8 564.003 156.8 563.994 156.8C563.984 156.8 563.975 156.8 563.966 156.8C563.956 156.8 563.947 156.8 563.938 156.8C563.928 156.8 563.919 156.8 563.909 156.8C563.9 156.8 563.891 156.8 563.881 156.8C563.872 156.8 563.863 156.8 563.853 156.8C563.844 156.8 563.834 156.8 563.825 156.8C563.816 156.8 563.806 156.8 563.797 156.8C563.788 156.8 563.778 156.8 563.769 156.8C563.759 156.8 563.75 156.8 563.741 156.8C563.731 156.8 563.722 156.8 563.713 156.8C563.703 156.8 563.694 156.8 563.684 156.8C563.675 156.8 563.666 156.8 563.656 156.8C563.647 156.8 563.638 156.8 563.628 156.8C563.619 156.8 563.609 156.8 563.6 156.8C563.591 156.8 563.581 156.8 563.572 156.8C563.563 156.8 563.553 156.8 563.544 156.8C563.534 156.8 563.525 156.8 563.516 156.8C563.506 156.8 563.497 156.8 563.488 156.8C563.478 156.8 563.469 156.8 563.459 156.8C563.45 156.8 563.441 156.8 563.431 156.8C563.422 156.8 563.413 156.8 563.403 156.8C563.394 156.8 563.384 156.8 563.375 156.8C563.366 156.8 563.356 156.8 563.347 156.8C563.338 156.8 563.328 156.8 563.319 156.8C563.309 156.8 563.3 156.8 563.291 156.8C563.281 156.8 563.272 156.8 563.263 156.8C563.253 156.8 563.244 156.8 563.234 156.8C563.225 156.8 563.216 156.8 563.206 156.8C563.197 156.8 563.188 156.8 563.178 156.8C563.169 156.8 563.159 156.8 563.15 156.8C563.141 156.8 563.131 156.8 563.122 156.8C563.113 156.8 563.103 156.8 563.094 156.8C563.084 156.8 563.075 156.8 563.066 156.8C563.056 156.8 563.047 156.8 563.038 156.8C563.028 156.8 563.019 156.8 563.009 156.8C563 156.8 562.991 156.8 562.981 156.8C562.972 156.8 562.963 156.8 562.953 156.8C562.944 156.8 562.934 156.8 562.925 156.8C562.916 156.8 562.906 156.8 562.897 156.8C562.888 156.8 562.878 156.8 562.869 156.8C562.859 156.8 562.85 156.8 562.841 156.8C562.831 156.8 562.822 156.8 562.813 156.8C562.803 156.8 562.794 156.8 562.784 156.8C562.775 156.8 562.766 156.8 562.756 156.8C562.747 156.8 562.738 156.8 562.728 156.8C562.719 156.8 562.709 156.8 562.7 156.8C562.691 156.8 562.681 156.8 562.672 156.8C562.663 156.8 562.653 156.8 562.644 156.8C562.634 156.8 562.625 156.8 562.616 156.8C562.606 156.8 562.597 156.8 562.588 156.8C562.578 156.8 562.569 156.8 562.559 156.8C562.55 156.8 562.541 156.8 562.531 156.8C562.522 156.8 562.513 156.8 562.503 156.8C562.494 156.8 562.484 156.8 562.475 156.8C562.466 156.8 562.456 156.8 562.447 156.8C562.438 156.8 562.428 156.8 562.419 156.8C562.409 156.8 562.4 156.8 562.391 156.8C562.381 156.8 562.372 156.8 562.363 156.8C562.353 156.8 562.344 156.8 562.334 156.8C562.325 156.8 562.316 156.8 562.306 156.8C562.297 156.8 562.288 156.8 562.278 156.8C562.269 156.8 562.259 156.8 562.25 156.8C562.241 156.8 562.231 156.8 562.222 156.8C562.213 156.8 562.203 156.8 562.194 156.8C562.184 156.8 562.175 156.8 562.166 156.8C562.156 156.8 562.147 156.8 562.138 156.8C562.128 156.8 562.119 156.8 562.109 156.8C562.1 156.8 562.091 156.8 562.081 156.8C562.072 156.8 562.063 156.8 562.053 156.8C562.044 156.8 562.034 156.8 562.025 156.8C562.016 156.8 562.006 156.8 561.997 156.8C561.988 156.8 561.978 156.8 561.969 156.8C561.959 156.8 561.95 156.8 561.941 156.8C561.931 156.8 561.922 156.8 561.913 156.8C561.903 156.8 561.894 156.8 561.884 156.8C561.875 156.8 561.866 156.8 561.856 156.8C561.847 156.8 561.838 156.8 561.828 156.8C561.819 156.8 561.809 156.8 561.8 156.8C561.791 156.8 561.781 156.8 561.772 156.8C561.763 156.8 561.753 156.8 561.744 156.8C561.734 156.8 561.725 156.8 561.716 156.8C561.706 156.8 561.697 156.8 561.688 156.8C561.678 156.8 561.669 156.8 561.659 156.8C561.65 156.8 561.641 156.8 561.631 156.8C561.622 156.8 561.613 156.8 561.603 156.8C561.594 156.8 561.584 156.8 561.575 156.8C561.566 156.8 561.556 156.8 561.547 156.8C561.538 156.8 561.528 156.8 561.519 156.8C561.509 156.8 561.5 156.8 561.491 156.8C561.481 156.8 561.472 156.8 561.463 156.8C561.453 156.8 561.444 156.8 561.434 156.8C561.425 156.8 561.416 156.8 561.406 156.8C561.397 156.8 561.388 156.8 561.378 156.8C561.369 156.8 561.359 156.8 561.35 156.8C561.341 156.8 561.331 156.8 561.322 156.8C561.313 156.8 561.303 156.8 561.294 156.8C561.284 156.8 561.275 156.8 561.266 156.8C561.256 156.8 561.247 156.8 561.238 156.8C561.228 156.8 561.219 156.8 561.209 156.8C561.2 156.8 561.191 156.8 561.181 156.8C561.172 156.8 561.163 156.8 561.153 156.8C561.144 156.8 561.134 156.8 561.125 156.8C561.116 156.8 561.106 156.8 561.097 156.8C561.088 156.8 561.078 156.8 561.069 156.8C561.059 156.8 561.05 156.8 561.041 156.8C561.031 156.8 561.022 156.8 561.013 156.8C561.003 156.8 560.994 156.8 560.984 156.8C560.975 156.8 560.966 156.8 560.956 156.8C560.947 156.8 560.938 156.8 560.928 156.8C560.919 156.8 560.909 156.8 560.9 156.8C560.891 156.8 560.881 156.8 560.872 156.8C560.863 156.8 560.853 156.8 560.844 156.8C560.834 156.8 560.825 156.8 560.816 156.8C560.806 156.8 560.797 156.8 560.788 156.8C560.778 156.8 560.769 156.8 560.759 156.8C560.75 156.8 560.741 156.8 560.731 156.8C560.722 156.8 560.713 156.8 560.703 156.8C560.694 156.8 560.684 156.8 560.675 156.8C560.666 156.8 560.656 156.8 560.647 156.8C560.638 156.8 560.628 156.8 560.619 156.8C560.609 156.8 560.6 156.8 560.591 156.8C560.581 156.8 560.572 156.8 560.563 156.8C560.553 156.8 560.544 156.8 560.534 156.8C560.525 156.8 560.516 156.8 560.506 156.8C560.497 156.8 560.488 156.8 560.478 156.8C560.469 156.8 560.459 156.8 560.45 156.8C560.441 156.8 560.431 156.8 560.422 156.8C560.413 156.8 560.403 156.8 560.394 156.8C560.384 156.8 560.375 156.8 560.366 156.8C560.356 156.8 560.347 156.8 560.338 156.8C560.328 156.8 560.319 156.8 560.309 156.8C560.3 156.8 560.291 156.8 560.281 156.8C560.272 156.8 560.263 156.8 560.253 156.8C560.244 156.8 560.234 156.8 560.225 156.8C560.216 156.8 560.206 156.8 560.197 156.8C560.188 156.8 560.178 156.8 560.169 156.8C560.159 156.8 560.15 156.8 560.141 156.8C560.131 156.8 560.122 156.8 560.113 156.8C560.103 156.8 560.094 156.8 560.084 156.8C560.075 156.8 560.066 156.8 560.056 156.8C560.047 156.8 560.038 156.8 560.028 156.8C560.019 156.8 560.009 156.8 560 156.8C559.991 156.8 559.981 156.8 559.972 156.8C559.963 156.8 559.953 156.8 559.944 156.8C559.934 156.8 559.925 156.8 559.916 156.8C559.906 156.8 559.897 156.8 559.888 156.8C559.878 156.8 559.869 156.8 559.859 156.8C559.85 156.8 559.841 156.8 559.831 156.8C559.822 156.8 559.813 156.8 559.803 156.8C559.794 156.8 559.784 156.8 559.775 156.8C559.766 156.8 559.756 156.8 559.747 156.8C559.738 156.8 559.728 156.8 559.719 156.8C559.709 156.8 559.7 156.8 559.691 156.8C559.681 156.8 559.672 156.8 559.663 156.8C559.653 156.8 559.644 156.8 559.634 156.8C559.625 156.8 559.616 156.8 559.606 156.8C559.597 156.8 559.588 156.8 559.578 156.8C559.569 156.8 559.559 156.8 559.55 156.8C559.541 156.8 559.531 156.8 559.522 156.8C559.513 156.8 559.503 156.8 559.494 156.8C559.484 156.8 559.475 156.8 559.466 156.8C559.456 156.8 559.447 156.8 559.438 156.8C559.428 156.8 559.419 156.8 559.409 156.8C559.4 156.8 559.391 156.8 559.381 156.8C559.372 156.8 559.363 156.8 559.353 156.8C559.344 156.8 559.334 156.8 559.325 156.8C559.316 156.8 559.306 156.8 559.297 156.8C559.288 156.8 559.278 156.8 559.269 156.8C559.259 156.8 559.25 156.8 559.241 156.8C559.231 156.8 559.222 156.8 559.213 156.8C559.203 156.8 559.194 156.8 559.184 156.8C559.175 156.8 559.166 156.8 559.156 156.8C559.147 156.8 559.138 156.8 559.128 156.8C559.119 156.8 559.109 156.8 559.1 156.8C559.091 156.8 559.081 156.8 559.072 156.8C559.063 156.8 559.053 156.8 559.044 156.8C559.034 156.8 559.025 156.8 559.016 156.8C559.006 156.8 558.997 156.8 558.988 156.8C558.978 156.8 558.969 156.8 558.959 156.8C558.95 156.8 558.941 156.8 558.931 156.8C558.922 156.8 558.913 156.8 558.903 156.8C558.894 156.8 558.884 156.8 558.875 156.8C558.866 156.8 558.856 156.8 558.847 156.8C558.838 156.8 558.828 156.8 558.819 156.8C558.809 156.8 558.8 156.8 558.791 156.8C558.781 156.8 558.772 156.8 558.763 156.8C558.753 156.8 558.744 156.8 558.734 156.8C558.725 156.8 558.716 156.8 558.706 156.8C558.697 156.8 558.688 156.8 558.678 156.8C558.669 156.8 558.659 156.8 558.65 156.8C558.641 156.8 558.631 156.8 558.622 156.8C558.613 156.8 558.603 156.8 558.594 156.8C558.584 156.8 558.575 156.8 558.566 156.8C558.556 156.8 558.547 156.8 558.538 156.8C558.528 156.8 558.519 156.8 558.509 156.8C558.5 156.8 558.491 156.8 558.481 156.8C558.472 156.8 558.463 156.8 558.453 156.8C558.444 156.8 558.434 156.8 558.425 156.8C558.416 156.8 558.406 156.8 558.397 156.8C558.388 156.8 558.378 156.8 558.369 156.8C558.359 156.8 558.35 156.8 558.341 156.8C558.331 156.8 558.322 156.8 558.313 156.8C558.303 156.8 558.294 156.8 558.284 156.8C558.275 156.8 558.266 156.8 558.256 156.8C558.247 156.8 558.238 156.8 558.228 156.8C558.219 156.8 558.209 156.8 558.2 156.8C558.191 156.8 558.181 156.8 558.172 156.8C558.163 156.8 558.153 156.8 558.144 156.8C558.134 156.8 558.125 156.8 558.116 156.8C558.106 156.8 558.097 156.8 558.088 156.8C558.078 156.8 558.069 156.8 558.059 156.8C558.05 156.8 558.041 156.8 558.031 156.8C558.022 156.8 558.013 156.8 558.003 156.8C557.994 156.8 557.984 156.8 557.975 156.8C557.966 156.8 557.956 156.8 557.947 156.8C557.938 156.8 557.928 156.8 557.919 156.8C557.909 156.8 557.9 156.8 557.891 156.8C557.881 156.8 557.872 156.8 557.863 156.8C557.853 156.8 557.844 156.8 557.834 156.8C557.825 156.8 557.816 156.8 557.806 156.8C557.797 156.8 557.788 156.8 557.778 156.8C557.769 156.8 557.759 156.8 557.75 156.8C557.741 156.8 557.731 156.8 557.722 156.8C557.713 156.8 557.703 156.8 557.694 156.8C557.684 156.8 557.675 156.8 557.666 156.8C557.656 156.8 557.647 156.8 557.638 156.8C557.628 156.8 557.619 156.8 557.609 156.8C557.6 156.8 557.591 156.8 557.581 156.8C557.572 156.8 557.563 156.8 557.553 156.8C557.544 156.8 557.534 156.8 557.525 156.8C557.516 156.8 557.506 156.8 557.497 156.8C557.488 156.8 557.478 156.8 557.469 156.8C557.459 156.8 557.45 156.8 557.441 156.8C557.431 156.8 557.422 156.8 557.413 156.8C557.403 156.8 557.394 156.8 557.384 156.8C557.375 156.8 557.366 156.8 557.356 156.8C557.347 156.8 557.338 156.8 557.328 156.8C557.319 156.8 557.309 156.8 557.3 156.8C557.291 156.8 557.281 156.8 557.272 156.8C557.263 156.8 557.253 156.8 557.244 156.8C557.234 156.8 557.225 156.8 557.216 156.8C557.206 156.8 557.197 156.8 557.188 156.8C557.178 156.8 557.169 156.8 557.159 156.8C557.15 156.8 557.141 156.8 557.131 156.8C557.122 156.8 557.113 156.8 557.103 156.8C557.094 156.8 557.084 156.8 557.075 156.8C557.066 156.8 557.056 156.8 557.047 156.8C557.038 156.8 557.028 156.8 557.019 156.8C557.009 156.8 557 156.8 556.991 156.8C556.981 156.8 556.972 156.8 556.963 156.8C556.953 156.8 556.944 156.8 556.934 156.8C556.925 156.8 556.916 156.8 556.906 156.8C556.897 156.8 556.888 156.8 556.878 156.8C556.869 156.8 556.859 156.8 556.85 156.8C556.841 156.8 556.831 156.8 556.822 156.8C556.813 156.8 556.803 156.8 556.794 156.8C556.784 156.8 556.775 156.8 556.766 156.8C556.756 156.8 556.747 156.8 556.738 156.8C556.728 156.8 556.719 156.8 556.709 156.8C556.7 156.8 556.691 156.8 556.681 156.8C556.672 156.8 556.663 156.8 556.653 156.8C556.644 156.8 556.634 156.8 556.625 156.8C556.616 156.8 556.606 156.8 556.597 156.8V186.8ZM570.997 186.8C593.619 186.8 611.38 191.226 625.065 199.172L640.129 173.228C620.747 161.974 597.441 156.8 570.997 156.8V186.8ZM625.243 199.274C635.736 205.176 643.197 217.363 643.197 242.2H673.197C673.197 211.57 663.591 186.424 639.951 173.126L625.243 199.274ZM643.197 242.2C643.197 260.608 638.438 283.844 628.1 312.274L656.294 322.526C667.289 292.29 673.197 265.392 673.197 242.2H643.197ZM628.1 312.274C617.688 340.906 604.095 371.517 587.268 404.12L613.926 417.88C631.232 384.35 645.372 352.561 656.294 322.526L628.1 312.274ZM587.225 404.204C570.839 436.447 553.124 468.705 534.079 500.976L559.915 516.224C579.269 483.429 597.288 450.619 613.969 417.796L587.225 404.204ZM534.135 500.883C515.009 532.759 496.699 562.213 479.203 589.251L504.39 605.549C522.095 578.187 540.585 548.441 559.859 516.317L534.135 500.883ZM479.203 589.251C461.623 616.42 446.997 638.758 435.316 656.279L460.278 672.921C472.063 655.242 486.771 632.78 504.39 605.549L479.203 589.251ZM457.64 675.919L476.04 659.919L456.354 637.281L437.954 653.281L457.64 675.919ZM476.094 659.872C498.35 640.33 519.522 619.701 539.608 597.986L517.585 577.614C498.205 598.566 477.777 618.47 456.3 637.328L476.094 659.872ZM539.733 597.849C559.471 575.978 578.942 554.373 598.146 533.034L575.847 512.966C556.652 534.294 537.19 555.889 517.461 577.751L539.733 597.849ZM598.182 532.995C620.656 507.845 642.863 482.427 664.802 456.742L641.991 437.258C620.197 462.773 598.137 488.022 575.812 513.005L598.182 532.995ZM664.686 456.878C687.197 431.15 709.174 405.153 730.617 378.886L707.377 359.914C686.153 385.914 664.397 411.65 642.108 437.122L664.686 456.878ZM730.837 378.609C733.889 374.686 738.313 369.975 744.333 364.457L724.061 342.343C717.281 348.558 711.572 354.514 707.157 360.191L730.837 378.609ZM744.803 364.007C749.285 359.525 752.349 358.8 754.197 358.8V328.8C742.178 328.8 731.909 334.475 723.59 342.793L744.803 364.007ZM754.197 358.8C754.885 358.8 755.197 358.874 755.229 358.882C755.241 358.885 755.002 358.822 754.648 358.594C754.283 358.357 753.987 358.067 753.79 357.808C753.608 357.567 753.613 357.488 753.7 357.726L781.894 347.474C779.892 341.969 776.37 336.916 770.946 333.406C765.649 329.979 759.742 328.8 754.197 328.8V358.8ZM753.7 357.726C755.336 362.224 755.997 366.085 755.997 369.4H785.997C785.997 362.048 784.525 354.709 781.894 347.474L753.7 357.726ZM755.997 369.4C755.997 375.169 755.332 380.971 753.981 386.827L783.213 393.573C785.061 385.563 785.997 377.498 785.997 369.4H755.997ZM753.981 386.827C752.546 393.047 750.622 399.309 748.197 405.615L776.197 416.385C779.105 408.825 781.448 401.22 783.213 393.573L753.981 386.827ZM748.008 406.135C741.577 424.891 734.353 446.565 726.336 471.15L754.858 480.45C762.841 455.968 770.017 434.442 776.386 415.865L748.008 406.135ZM726.274 471.344C718.677 495.762 712.166 520.452 706.739 545.414L736.055 551.786C741.295 527.681 747.583 503.838 754.92 480.256L726.274 471.344ZM706.754 545.346C701.239 570.165 698.397 593.144 698.397 614.2H728.397C728.397 595.79 730.888 575.035 736.04 551.854L706.754 545.346ZM698.397 614.2C698.397 618.514 698.699 624.3 699.241 631.35L729.153 629.05C728.628 622.233 728.397 617.353 728.397 614.2H698.397ZM699.371 632.481C700.628 640.651 702.859 648.386 706.141 655.607L733.452 643.193C731.401 638.68 729.899 633.616 729.022 627.919L699.371 632.481ZM706.38 656.108C710.85 665.047 719.033 672.4 730.997 672.4V642.4C731.202 642.4 731.586 642.431 732.071 642.583C732.562 642.736 732.989 642.961 733.315 643.194C733.947 643.645 733.77 643.805 733.213 642.692L706.38 656.108ZM730.997 672.4C744.235 672.4 753.558 663.732 759.615 654.311L734.379 638.089C732.674 640.741 731.398 641.89 730.795 642.312C730.361 642.615 730.518 642.4 730.997 642.4V672.4ZM759.859 653.917C765.477 644.554 769.944 633.685 773.42 621.521L744.574 613.279C741.649 623.515 738.116 631.846 734.135 638.483L759.859 653.917ZM773.42 621.521C776.746 609.879 779.284 598.92 780.993 588.666L751.401 583.734C749.91 592.68 747.648 602.521 744.574 613.279L773.42 621.521ZM780.875 589.29C783.035 579.029 784.397 570.265 784.397 563.8H754.397C754.397 566.935 753.625 573.105 751.519 583.11L780.875 589.29ZM784.397 563.8C784.397 556.396 783.473 546.984 777.91 540.03L754.484 558.77C753.632 557.706 753.715 557.176 753.954 558.254C754.175 559.25 754.397 561.02 754.397 563.8H784.397ZM779.613 542.692C779.096 541.657 778.859 541.004 778.764 540.69C778.664 540.354 778.797 540.64 778.797 541.4H748.797C748.797 546.932 750.756 552.059 752.781 556.108L779.613 542.692ZM778.797 541.4C778.797 542.112 778.609 545.401 775.603 548.407C772.598 551.412 769.309 551.6 768.597 551.6V521.6C764.685 521.6 758.996 522.588 754.39 527.193C749.785 531.799 748.797 537.488 748.797 541.4H778.797ZM768.597 551.6C767.795 551.6 766.792 551.431 765.773 550.971C764.774 550.519 764.13 549.957 763.805 549.607C763.509 549.288 763.528 549.204 763.73 549.608C763.931 550.009 764.238 550.743 764.574 551.921L793.42 543.679C792.014 538.76 789.752 533.461 785.789 529.193C781.413 524.481 775.447 521.6 768.597 521.6V551.6ZM764.574 551.921C766.382 558.25 767.553 565.174 768.026 572.736L797.968 570.864C797.374 561.36 795.878 552.283 793.42 543.679L764.574 551.921ZM768.113 573.661C769.189 582.273 769.597 587.262 769.597 589.4H799.597C799.597 585.138 798.938 578.394 797.881 569.939L768.113 573.661ZM769.597 589.4C769.597 596.296 768.271 606.238 765.181 619.627L794.413 626.373C797.723 612.029 799.597 599.57 799.597 589.4H769.597ZM765.067 620.167C762.72 632.37 758.547 643.167 752.643 652.705L778.151 668.495C786.113 655.633 791.54 641.363 794.527 625.833L765.067 620.167ZM752.535 652.883C748.647 659.362 744.287 661.6 738.197 661.6V691.6C755.574 691.6 769.347 683.172 778.259 668.317L752.535 652.883ZM738.197 661.6C733.453 661.6 729.177 659.967 724.804 655.593L703.59 676.807C713.084 686.3 724.808 691.6 738.197 691.6V661.6ZM725.586 656.438C720.377 650.362 716.915 644.13 714.914 637.726L686.28 646.674C689.612 657.337 695.216 667.105 702.808 675.962L725.586 656.438ZM715.02 638.079C713.094 631.34 711.639 624.323 710.665 617.018L680.928 620.982C682.088 629.677 683.833 638.126 686.174 646.321L715.02 638.079ZM710.764 618.002C710.249 610.284 709.997 603.154 709.997 596.6H679.997C679.997 603.913 680.278 611.716 680.83 619.998L710.764 618.002ZM709.997 596.6C709.997 570.02 713.064 541.993 719.275 512.49L689.919 506.31C683.33 537.607 679.997 567.713 679.997 596.6H709.997ZM719.275 512.49C725.56 482.635 733.132 454.985 741.968 429.517L713.626 419.683C704.328 446.482 696.433 475.365 689.919 506.31L719.275 512.49ZM741.894 429.726C744.097 423.666 747.081 414.98 750.827 403.743L722.367 394.257C718.646 405.42 715.763 413.8 713.7 419.474L741.894 429.726ZM750.891 403.548C754.642 391.76 757.197 381.272 757.197 373.4H727.197C727.197 376.195 726.019 382.774 722.303 394.452L750.891 403.548ZM757.197 373.4C757.197 371.567 757.047 367.96 755.213 364.292C754.19 362.246 752.454 359.81 749.617 357.919C746.688 355.966 743.488 355.2 740.597 355.2V385.2C738.239 385.2 735.506 384.567 732.976 382.881C730.54 381.257 729.137 379.221 728.38 377.708C727.653 376.254 727.398 375.048 727.301 374.466C727.197 373.843 727.197 373.451 727.197 373.4H757.197ZM740.597 355.2C734.483 355.2 730.289 358.597 728.994 359.677C727.088 361.265 725.435 363.14 724.084 364.83L747.51 383.57C748.292 382.593 748.506 382.468 748.2 382.723C748.033 382.862 747.424 383.357 746.405 383.866C745.434 384.352 743.396 385.2 740.597 385.2V355.2ZM724.084 364.83C723.046 366.127 722.249 367.107 721.674 367.797C721.385 368.143 721.185 368.378 721.058 368.522C720.89 368.715 720.966 368.617 721.19 368.394L742.404 389.606C743.669 388.341 745.614 385.941 747.51 383.57L724.084 364.83ZM720.141 369.559C677.125 422.665 633.053 473.905 587.925 523.28L610.069 543.52C655.608 493.695 700.069 442.002 743.453 388.441L720.141 369.559ZM587.985 523.214C568.256 544.544 548.259 566.14 527.995 588.004L549.998 608.396C570.268 586.526 590.272 564.923 610.008 543.586L587.985 523.214ZM527.861 588.151C508.471 609.637 488.034 630.074 466.547 649.464L486.646 671.736C508.893 651.659 530.056 630.497 550.133 608.249L527.861 588.151ZM466.631 649.389C457.031 657.922 447.431 666.456 437.831 674.989L457.762 697.411C467.362 688.878 476.962 680.344 486.562 671.811L466.631 649.389ZM437.498 675.295C427.797 684.457 418.361 693.623 409.19 702.793L430.403 724.007C439.366 715.044 448.597 706.077 458.096 697.105L437.498 675.295ZM410.035 702.011C408.897 702.986 405.573 705.836 404.435 706.811C404.422 706.822 403.048 708 403.035 708.011C403.022 708.022 401.648 709.2 401.635 709.211C401.622 709.222 400.248 710.4 400.235 710.411C400.222 710.422 398.848 711.6 398.835 711.611L418.359 734.389C419.497 733.414 422.821 730.564 423.959 729.589C423.972 729.578 425.346 728.4 425.359 728.389C425.372 728.378 426.746 727.2 426.759 727.189C426.772 727.178 428.146 726 428.159 725.989C428.172 725.978 429.546 724.8 429.559 724.789L410.035 702.011ZM397.208 713.238C394.237 716.705 391.297 719.887 388.39 722.793L409.604 744.007C413.097 740.513 416.557 736.762 419.986 732.762L397.208 713.238ZM388.39 722.793C386.257 724.927 384.124 727.06 381.99 729.193L403.203 750.407C405.337 748.273 407.47 746.14 409.603 744.007L388.39 722.793ZM380.884 730.43C378.371 733.571 376.112 736.787 374.135 740.083L399.859 755.517C401.082 753.48 402.556 751.363 404.31 749.17L380.884 730.43ZM374.342 739.747C371.462 744.272 367.322 749.153 361.661 754.343L381.933 776.457C389.072 769.913 395.065 763.061 399.652 755.853L374.342 739.747ZM361.661 754.343C357.547 758.114 354.106 759.2 350.997 759.2V789.2C362.821 789.2 373.247 784.42 381.933 776.457L361.661 754.343Z" fill="black" mask="url(#path-1-outside-1_1_134)"/>
</svg>
