<svg width="478" height="448" viewBox="0 0 478 448" fill="none" xmlns="http://www.w3.org/2000/svg">
<path d="M230.903 235.885C230.983 235.928 231.063 235.973 231.143 236.019C231.222 236.068 231.3 236.118 231.378 236.169C231.455 236.222 231.531 236.277 231.607 236.333C231.682 236.392 231.757 236.451 231.831 236.512C231.904 236.575 231.976 236.64 232.047 236.705C232.118 236.773 232.187 236.842 232.256 236.912C232.324 236.985 232.391 237.058 232.457 237.133C232.522 237.21 232.586 237.288 232.649 237.367C232.71 237.449 232.771 237.531 232.831 237.615C232.889 237.7 232.947 237.787 233.003 237.875C233.058 237.965 233.112 238.055 233.164 238.147C233.215 238.241 233.265 238.336 233.314 238.431C233.361 238.529 233.407 238.628 233.452 238.727C233.495 238.828 233.536 238.931 233.577 239.034C233.615 239.139 233.653 239.244 233.689 239.351C233.723 239.459 233.756 239.568 233.787 239.678C233.816 239.79 233.844 239.902 233.871 240.015C233.895 240.129 233.918 240.244 233.94 240.36C233.96 240.477 233.978 240.595 233.994 240.714C234.008 240.834 234.021 240.954 234.033 241.075C234.041 241.197 234.049 241.32 234.055 241.443C234.058 241.568 234.06 241.693 234.061 241.818C234.058 241.944 234.055 242.071 234.049 242.198C234.041 242.326 234.032 242.455 234.021 242.584C234.007 242.713 233.992 242.843 233.975 242.973C233.955 243.104 233.934 243.235 233.911 243.367C233.885 243.499 233.858 243.631 233.829 243.763C233.797 243.896 233.764 244.028 233.729 244.161C233.691 244.294 233.651 244.428 233.61 244.561C233.566 244.694 233.52 244.828 233.472 244.961C233.422 245.095 233.37 245.228 233.316 245.361C233.259 245.495 233.2 245.628 233.14 245.761C233.077 245.893 233.012 246.026 232.946 246.158C232.876 246.29 232.805 246.422 232.732 246.553C232.656 246.684 232.578 246.814 232.498 246.945C232.416 247.074 232.332 247.203 232.246 247.332C232.157 247.46 232.067 247.588 231.975 247.715C231.879 247.841 231.783 247.966 231.684 248.092C231.583 248.216 231.479 248.339 231.375 248.462C231.267 248.583 231.157 248.704 231.046 248.825C230.932 248.944 230.816 249.062 230.699 249.179C230.579 249.295 230.457 249.411 230.334 249.525C230.207 249.638 230.079 249.75 229.95 249.861C229.818 249.971 229.684 250.079 229.548 250.187C229.41 250.292 229.27 250.397 229.129 250.501C228.985 250.602 228.839 250.703 228.692 250.803C228.542 250.9 228.391 250.996 228.239 251.092C228.083 251.185 227.926 251.276 227.768 251.367C227.608 251.455 227.445 251.542 227.282 251.628C227.116 251.711 226.949 251.793 226.78 251.874C226.609 251.952 226.436 252.029 226.263 252.104C226.087 252.177 225.909 252.248 225.731 252.318C225.55 252.384 225.368 252.45 225.185 252.514C224.999 252.575 224.813 252.634 224.625 252.692C224.435 252.747 224.244 252.8 224.053 252.852C223.859 252.901 223.664 252.948 223.468 252.993C223.27 253.035 223.071 253.075 222.871 253.114C222.67 253.149 222.467 253.183 222.264 253.215C222.059 253.243 221.853 253.269 221.646 253.294C221.438 253.316 221.229 253.335 221.019 253.353C220.808 253.367 220.596 253.379 220.383 253.389C220.169 253.395 219.954 253.4 219.739 253.403C219.523 253.402 219.306 253.399 219.088 253.394C218.869 253.385 218.65 253.374 218.431 253.362C218.21 253.345 217.989 253.326 217.768 253.306C217.546 253.281 217.323 253.254 217.1 253.226C216.877 253.193 216.653 253.158 216.429 253.121C216.205 253.08 215.98 253.037 215.755 252.992C215.53 252.943 215.305 252.891 215.079 252.838C214.854 252.78 214.628 252.721 214.403 252.659C214.177 252.592 213.951 252.524 213.726 252.454C213.5 252.379 213.275 252.302 213.05 252.223C212.825 252.14 212.6 252.055 212.376 251.967C212.152 251.875 211.928 251.781 211.704 251.685C211.482 251.585 211.259 251.482 211.037 251.377C210.816 251.268 210.595 251.157 210.375 251.043C210.155 250.925 209.936 250.805 209.718 250.683C209.501 250.557 209.284 250.428 209.068 250.297C208.854 250.162 208.64 250.025 208.426 249.886C208.215 249.742 208.004 249.596 207.793 249.448C207.585 249.296 207.377 249.142 207.17 248.985C206.965 248.824 206.761 248.662 206.558 248.497C206.357 248.328 206.157 248.156 205.958 247.983C205.761 247.806 205.565 247.626 205.37 247.445C205.178 247.259 204.987 247.071 204.797 246.881C204.609 246.688 204.423 246.492 204.238 246.294C204.056 246.092 203.875 245.888 203.695 245.683C203.519 245.473 203.343 245.261 203.17 245.048C202.999 244.831 202.829 244.611 202.661 244.39C202.497 244.165 202.334 243.938 202.172 243.71C202.014 243.477 201.857 243.243 201.702 243.007C201.551 242.768 201.401 242.526 201.253 242.283C201.109 242.037 200.967 241.788 200.826 241.538C200.689 241.285 200.554 241.03 200.421 240.773C200.292 240.513 200.164 240.252 200.039 239.989C199.918 239.722 199.799 239.455 199.681 239.185C199.568 238.913 199.458 238.639 199.349 238.363C199.244 238.085 199.142 237.805 199.042 237.524C198.946 237.24 198.853 236.955 198.761 236.668C198.675 236.379 198.59 236.089 198.508 235.797C198.431 235.503 198.356 235.207 198.283 234.91C198.215 234.611 198.15 234.311 198.087 234.01C198.029 233.706 197.973 233.402 197.92 233.096C197.872 232.788 197.826 232.48 197.783 232.17C197.745 231.859 197.71 231.546 197.677 231.233C197.649 230.918 197.624 230.602 197.602 230.286C197.585 229.968 197.57 229.649 197.559 229.329C197.552 229.008 197.549 228.687 197.548 228.364C197.552 228.041 197.56 227.717 197.57 227.393C197.585 227.067 197.603 226.741 197.625 226.415C197.651 226.088 197.681 225.76 197.713 225.432C197.751 225.104 197.792 224.775 197.836 224.446C197.885 224.116 197.938 223.786 197.993 223.456C198.054 223.126 198.118 222.796 198.184 222.466C198.257 222.135 198.332 221.805 198.411 221.475C198.495 221.145 198.582 220.815 198.672 220.485C198.768 220.155 198.867 219.826 198.969 219.497C199.076 219.168 199.187 218.84 199.301 218.512C199.42 218.185 199.542 217.858 199.668 217.532C199.799 217.207 199.933 216.882 200.071 216.558C200.214 216.235 200.36 215.912 200.509 215.59C200.664 215.27 200.821 214.95 200.982 214.631C201.149 214.314 201.319 213.997 201.491 213.682C201.669 213.368 201.851 213.055 202.035 212.743C202.225 212.433 202.418 212.124 202.614 211.816C202.816 211.51 203.02 211.205 203.228 210.902C203.441 210.601 203.657 210.301 203.876 210.003C204.1 209.707 204.328 209.412 204.558 209.119C204.794 208.829 205.032 208.54 205.274 208.252C205.521 207.968 205.771 207.685 206.023 207.404C206.281 207.126 206.542 206.85 206.805 206.575C207.074 206.304 207.346 206.034 207.62 205.766C207.9 205.502 208.182 205.24 208.467 204.98C208.757 204.723 209.049 204.468 209.344 204.216C209.645 203.967 209.947 203.721 210.253 203.476C210.563 203.236 210.876 202.998 211.191 202.762C211.511 202.53 211.834 202.301 212.159 202.074C212.488 201.852 212.82 201.631 213.155 201.414C213.494 201.201 213.835 200.99 214.178 200.782C214.526 200.579 214.877 200.378 215.229 200.18C215.586 199.987 215.944 199.796 216.305 199.608C216.671 199.426 217.038 199.246 217.407 199.069C217.78 198.897 218.155 198.728 218.532 198.562C218.913 198.401 219.296 198.244 219.681 198.089C220.069 197.94 220.46 197.793 220.852 197.65C221.247 197.513 221.644 197.379 222.043 197.247C222.445 197.122 222.849 197 223.255 196.881C223.663 196.768 224.073 196.658 224.485 196.551C224.899 196.451 225.315 196.354 225.732 196.26C226.152 196.172 226.573 196.088 226.996 196.007C227.421 195.933 227.847 195.862 228.275 195.794C228.704 195.733 229.135 195.675 229.567 195.621C230.001 195.574 230.436 195.53 230.872 195.489C231.31 195.455 231.749 195.425 232.188 195.398C232.63 195.379 233.072 195.362 233.514 195.35C233.958 195.344 234.403 195.342 234.849 195.344C235.295 195.352 235.742 195.365 236.19 195.38C236.638 195.404 237.087 195.43 237.537 195.461C237.987 195.498 238.437 195.54 238.888 195.585C239.339 195.637 239.79 195.693 240.241 195.753C240.693 195.82 241.144 195.891 241.596 195.965C242.048 196.047 242.499 196.133 242.95 196.222C243.401 196.319 243.852 196.42 244.303 196.524C244.753 196.636 245.203 196.752 245.652 196.871C246.101 196.998 246.549 197.129 246.996 197.263C247.443 197.405 247.889 197.551 248.334 197.7C248.778 197.857 249.222 198.018 249.664 198.182C250.105 198.354 250.545 198.53 250.984 198.71C251.422 198.897 251.858 199.087 252.294 199.282C252.727 199.483 253.159 199.689 253.59 199.898C254.019 200.115 254.446 200.335 254.873 200.559C255.296 200.791 255.718 201.026 256.139 201.265C256.557 201.511 256.973 201.761 257.388 202.014C257.8 202.275 258.21 202.539 258.619 202.807C259.024 203.082 259.427 203.36 259.829 203.643C260.226 203.932 260.622 204.225 261.016 204.521C261.407 204.824 261.795 205.131 262.181 205.441C262.563 205.759 262.943 206.079 263.32 206.403C263.694 206.734 264.065 207.068 264.433 207.406C264.798 207.75 265.159 208.098 265.519 208.448C265.873 208.806 266.225 209.167 266.574 209.53C266.918 209.901 267.26 210.274 267.599 210.651C267.933 211.034 268.263 211.42 268.592 211.809C268.914 212.205 269.234 212.603 269.55 213.004C269.861 213.412 270.169 213.822 270.474 214.235C270.773 214.654 271.069 215.076 271.362 215.501C271.648 215.931 271.932 216.364 272.212 216.8C272.485 217.242 272.756 217.686 273.023 218.132C273.283 218.584 273.54 219.039 273.793 219.496C274.04 219.958 274.283 220.423 274.523 220.89C274.755 221.362 274.984 221.837 275.21 222.313C275.428 222.795 275.642 223.278 275.853 223.764C276.056 224.255 276.255 224.747 276.451 225.242C276.639 225.741 276.823 226.242 277.003 226.745C277.176 227.252 277.344 227.761 277.509 228.272C277.666 228.786 277.818 229.302 277.967 229.821C278.107 230.342 278.243 230.866 278.376 231.391C278.5 231.919 278.619 232.449 278.735 232.98C278.842 233.514 278.945 234.05 279.044 234.587C279.134 235.127 279.22 235.668 279.301 236.211C279.374 236.756 279.442 237.302 279.507 237.849C279.562 238.398 279.613 238.949 279.659 239.5C279.697 240.054 279.73 240.608 279.759 241.163C279.779 241.72 279.794 242.277 279.804 242.835C279.806 243.395 279.803 243.955 279.796 244.516C279.779 245.078 279.758 245.64 279.732 246.202C279.697 246.766 279.657 247.33 279.613 247.894C279.559 248.458 279.501 249.023 279.438 249.588C279.366 250.153 279.289 250.718 279.208 251.283C279.117 251.848 279.021 252.412 278.921 252.977C278.811 253.541 278.697 254.105 278.578 254.669C278.45 255.231 278.316 255.794 278.179 256.356C278.031 256.916 277.879 257.477 277.723 258.036C277.556 258.595 277.386 259.152 277.21 259.709C277.025 260.264 276.836 260.818 276.641 261.372C276.438 261.923 276.229 262.473 276.016 263.022C275.794 263.569 275.567 264.115 275.335 264.659C275.094 265.201 274.848 265.742 274.598 266.281C274.338 266.817 274.074 267.352 273.805 267.885C273.527 268.415 273.245 268.943 272.957 269.469C272.661 269.992 272.36 270.514 272.055 271.033C271.741 271.549 271.422 272.062 271.099 272.574C270.766 273.081 270.43 273.586 270.088 274.089C269.739 274.588 269.384 275.085 269.025 275.579C268.658 276.068 268.286 276.555 267.91 277.04C267.525 277.519 267.137 277.996 266.743 278.47C266.342 278.94 265.936 279.406 265.526 279.869C265.108 280.327 264.685 280.782 264.259 281.235C263.824 281.681 263.385 282.124 262.943 282.564C262.492 282.999 262.037 283.43 261.579 283.857C261.113 284.279 260.642 284.697 260.168 285.111C259.687 285.519 259.201 285.924 258.712 286.325C258.215 286.719 257.715 287.11 257.211 287.497C256.7 287.877 256.185 288.253 255.667 288.626C255.142 288.99 254.613 289.352 254.081 289.709C253.543 290.058 253 290.404 252.455 290.746C251.903 291.08 251.348 291.409 250.789 291.735C250.225 292.052 249.657 292.365 249.086 292.674C248.509 292.975 247.929 293.271 247.346 293.563C246.758 293.846 246.166 294.125 245.572 294.4C244.972 294.666 244.37 294.927 243.765 295.183C243.154 295.431 242.542 295.674 241.926 295.912C241.306 296.141 240.683 296.366 240.058 296.585C239.428 296.796 238.796 297.001 238.161 297.202C237.522 297.393 236.882 297.579 236.239 297.76C235.591 297.932 234.942 298.098 234.292 298.26C233.637 298.411 232.98 298.558 232.322 298.699C231.66 298.83 230.997 298.957 230.332 299.078C229.664 299.189 228.994 299.294 228.323 299.395C227.649 299.485 226.974 299.57 226.298 299.649C225.619 299.719 224.938 299.782 224.257 299.841C223.574 299.889 222.89 299.931 222.204 299.968C221.517 299.995 220.829 300.016 220.141 300.032C219.451 300.036 218.76 300.036 218.069 300.03C217.376 300.013 216.683 299.99 215.99 299.963C215.296 299.924 214.602 299.879 213.907 299.829C213.212 299.769 212.517 299.702 211.822 299.63C211.127 299.547 210.432 299.459 209.737 299.364C209.042 299.259 208.348 299.149 207.654 299.032C206.961 298.905 206.268 298.772 205.576 298.633C204.884 298.483 204.194 298.328 203.504 298.167C202.815 297.995 202.127 297.818 201.44 297.635C200.755 297.44 200.071 297.241 199.388 297.035C198.707 296.819 198.028 296.597 197.349 296.369C196.673 296.131 195.999 295.887 195.326 295.637C194.655 295.376 193.987 295.11 193.32 294.839C192.656 294.556 191.994 294.268 191.333 293.975C190.677 293.671 190.022 293.361 189.369 293.046C188.721 292.72 188.074 292.389 187.43 292.052C186.789 291.705 186.152 291.352 185.516 290.994C184.885 290.626 184.257 290.252 183.631 289.873C183.011 289.483 182.393 289.089 181.777 288.689C181.167 288.279 180.56 287.863 179.956 287.443C179.358 287.012 178.762 286.577 178.17 286.136C177.583 285.686 177 285.23 176.421 284.769C175.847 284.299 175.277 283.823 174.711 283.343C174.151 282.853 173.595 282.359 173.042 281.859C172.496 281.35 171.954 280.837 171.416 280.318C170.886 279.791 170.359 279.259 169.836 278.722C169.321 278.176 168.81 277.626 168.303 277.071C167.804 276.508 167.309 275.94 166.818 275.368C166.336 274.787 165.858 274.202 165.385 273.612C164.92 273.015 164.46 272.413 164.004 271.807C163.558 271.193 163.115 270.575 162.678 269.953C162.25 269.324 161.827 268.69 161.408 268.053C160.999 267.408 160.595 266.759 160.196 266.107C159.807 265.447 159.422 264.784 159.043 264.117C158.674 263.444 158.31 262.766 157.952 262.086C157.603 261.399 157.26 260.708 156.923 260.015C156.596 259.315 156.274 258.612 155.958 257.906C155.653 257.193 155.353 256.478 155.058 255.76C154.775 255.037 154.498 254.31 154.226 253.581C153.965 252.846 153.711 252.109 153.462 251.369C153.224 250.625 152.992 249.877 152.766 249.128C152.552 248.374 152.344 247.617 152.142 246.858C151.952 246.095 151.767 245.33 151.589 244.563C151.423 243.792 151.263 243.019 151.109 242.245C150.967 241.466 150.831 240.686 150.702 239.905C150.585 239.12 150.474 238.334 150.369 237.546C150.277 236.755 150.192 235.964 150.112 235.17C150.046 234.375 149.985 233.578 149.931 232.781C149.89 231.981 149.855 231.18 149.827 230.379C149.811 229.576 149.802 228.772 149.799 227.968C149.81 227.162 149.827 226.356 149.85 225.549C149.886 224.742 149.929 223.934 149.979 223.126C150.041 222.318 150.11 221.509 150.186 220.701C150.274 219.892 150.37 219.084 150.471 218.276C150.587 217.468 150.708 216.661 150.836 215.854C150.978 215.047 151.126 214.242 151.28 213.437C151.448 212.633 151.622 211.83 151.803 211.028C151.997 210.227 152.198 209.427 152.405 208.629C152.625 207.832 152.852 207.037 153.086 206.243C153.332 205.451 153.586 204.661 153.845 203.872C154.118 203.087 154.397 202.302 154.683 201.52C154.982 200.741 155.287 199.963 155.599 199.188C155.923 198.416 156.254 197.646 156.592 196.879C156.942 196.115 157.299 195.354 157.662 194.595C158.038 193.841 158.42 193.089 158.808 192.339C159.209 191.595 159.617 190.853 160.03 190.114C160.456 189.38 160.888 188.65 161.327 187.922C161.777 187.2 162.234 186.481 162.697 185.765C163.172 185.055 163.653 184.349 164.14 183.646C164.639 182.949 165.144 182.256 165.655 181.567C166.178 180.884 166.706 180.205 167.241 179.53C167.787 178.862 168.338 178.199 168.896 177.539C169.465 176.886 170.039 176.238 170.619 175.594C171.21 174.958 171.807 174.327 172.409 173.699C173.022 173.081 173.641 172.466 174.264 171.856C174.899 171.255 175.538 170.659 176.183 170.067C176.839 169.484 177.499 168.906 178.165 168.333C178.84 167.77 179.521 167.212 180.206 166.658C180.902 166.115 181.602 165.576 182.307 165.043C183.021 164.52 183.74 164.002 184.464 163.49C185.197 162.988 185.935 162.492 186.677 162.001C187.427 161.521 188.183 161.047 188.942 160.578C189.71 160.121 190.482 159.669 191.259 159.223C192.043 158.788 192.832 158.36 193.624 157.937C194.425 157.526 195.229 157.122 196.037 156.723C196.852 156.336 197.671 155.956 198.494 155.581C199.324 155.219 200.157 154.864 200.993 154.514C201.837 154.178 202.683 153.847 203.533 153.523C204.389 153.212 205.248 152.908 206.11 152.61C206.978 152.325 207.849 152.046 208.723 151.775C209.602 151.516 210.483 151.265 211.368 151.02C212.257 150.789 213.149 150.564 214.043 150.346C214.942 150.143 215.843 149.945 216.746 149.755C217.654 149.579 218.563 149.41 219.474 149.248C220.39 149.099 221.306 148.958 222.225 148.824C223.147 148.705 224.07 148.592 224.995 148.486C225.923 148.395 226.852 148.311 227.783 148.235C228.715 148.172 229.649 148.117 230.584 148.07C231.521 148.036 232.459 148.011 233.397 147.992C234.337 147.988 235.278 147.992 236.219 148.003C237.161 148.028 238.104 148.061 239.046 148.102C239.99 148.157 240.933 148.219 241.877 148.289C242.821 148.374 243.764 148.467 244.708 148.566C245.651 148.681 246.593 148.803 247.535 148.933C248.477 149.077 249.417 149.229 250.357 149.388C251.296 149.563 252.234 149.744 253.171 149.933C254.106 150.138 255.04 150.349 255.973 150.568C256.904 150.802 257.833 151.043 258.761 151.292C259.686 151.555 260.609 151.826 261.531 152.104C262.449 152.397 263.366 152.698 264.281 153.005C265.192 153.328 266.101 153.657 267.008 153.994C267.91 154.346 268.81 154.705 269.708 155.071C270.602 155.452 271.492 155.84 272.38 156.235C273.263 156.644 274.143 157.061 275.02 157.485C275.892 157.922 276.76 158.367 277.626 158.82C278.485 159.286 279.341 159.759 280.193 160.239C281.039 160.733 281.882 161.234 282.721 161.742C283.553 162.263 284.381 162.792 285.205 163.327C286.022 163.876 286.835 164.431 287.644 164.993C288.445 165.569 289.242 166.151 290.034 166.739C290.818 167.341 291.598 167.949 292.373 168.564C293.139 169.191 293.901 169.825 294.658 170.465C295.406 171.118 296.148 171.777 296.886 172.442C297.615 173.12 298.338 173.803 299.056 174.493C299.764 175.195 300.466 175.902 301.164 176.616C301.851 177.341 302.532 178.072 303.208 178.809C303.873 179.557 304.532 180.311 305.186 181.07C305.828 181.841 306.464 182.617 307.094 183.398C307.713 184.191 308.326 184.988 308.932 185.791C309.527 186.604 310.115 187.422 310.697 188.245C311.267 189.079 311.83 189.917 312.386 190.76C312.93 191.613 313.468 192.471 313.998 193.333C314.516 194.205 315.027 195.081 315.531 195.961C316.021 196.851 316.505 197.745 316.982 198.643C317.445 199.549 317.901 200.46 318.349 201.375C318.784 202.298 319.212 203.224 319.632 204.155C320.038 205.093 320.437 206.035 320.828 206.981C321.204 207.934 321.574 208.89 321.935 209.85C322.282 210.816 322.621 211.786 322.953 212.759C323.269 213.738 323.577 214.72 323.878 215.705C324.164 216.696 324.441 217.69 324.711 218.686C324.966 219.688 325.212 220.692 325.45 221.699C325.673 222.711 325.887 223.725 326.094 224.741C326.284 225.761 326.467 226.784 326.641 227.809C326.799 228.837 326.949 229.867 327.09 230.899C327.216 231.935 327.333 232.972 327.441 234.01C327.534 235.051 327.618 236.094 327.693 237.138C327.752 238.184 327.803 239.231 327.845 240.279C327.871 241.329 327.888 242.379 327.897 243.431C327.889 244.483 327.872 245.537 327.847 246.59C327.805 247.645 327.755 248.699 327.696 249.754C327.62 250.809 327.536 251.864 327.443 252.919C327.333 253.974 327.214 255.028 327.087 256.082C326.944 257.135 326.791 258.188 326.63 259.24C326.452 260.29 326.265 261.34 326.07 262.389C325.858 263.436 325.638 264.482 325.409 265.526C325.163 266.569 324.908 267.609 324.645 268.649C324.365 269.685 324.076 270.72 323.78 271.753C323.466 272.783 323.144 273.811 322.813 274.836C322.466 275.858 322.11 276.877 321.746 277.895C321.365 278.907 320.976 279.917 320.578 280.925C320.164 281.928 319.742 282.928 319.311 283.925C318.865 284.916 318.409 285.904 317.946 286.89C317.467 287.869 316.979 288.845 316.483 289.818C315.971 290.784 315.451 291.746 314.924 292.705C314.38 293.657 313.828 294.605 313.268 295.549C312.693 296.485 312.11 297.418 311.519 298.346C310.913 299.266 310.299 300.182 309.677 301.094C309.04 301.996 308.396 302.895 307.744 303.788C307.076 304.673 306.402 305.552 305.72 306.427C305.023 307.292 304.32 308.152 303.608 309.008C302.883 309.852 302.15 310.692 301.41 311.526C300.656 312.35 299.895 313.168 299.127 313.981C298.345 314.782 297.557 315.578 296.762 316.368C295.953 317.147 295.137 317.919 294.315 318.686C293.48 319.44 292.638 320.189 291.79 320.931C290.929 321.661 290.062 322.384 289.189 323.101C288.303 323.805 287.411 324.503 286.513 325.194C285.603 325.871 284.688 326.542 283.766 327.206C282.833 327.857 281.894 328.5 280.949 329.136C279.994 329.759 279.033 330.374 278.066 330.982C277.089 331.575 276.107 332.161 275.119 332.74C274.121 333.304 273.118 333.86 272.11 334.409C271.092 334.943 270.07 335.469 269.042 335.987C268.006 336.49 266.965 336.985 265.919 337.472C264.865 337.943 263.806 338.406 262.743 338.862C261.672 339.301 260.596 339.732 259.517 340.154C258.43 340.561 257.339 340.959 256.244 341.348C255.142 341.721 254.036 342.086 252.927 342.442C251.811 342.781 250.692 343.112 249.57 343.434C248.441 343.739 247.309 344.035 246.175 344.323C245.034 344.593 243.891 344.854 242.746 345.107C241.595 345.342 240.442 345.568 239.286 345.785C238.126 345.984 236.963 346.175 235.799 346.356C234.63 346.519 233.46 346.674 232.287 346.819C231.112 346.946 229.934 347.064 228.755 347.173C227.574 347.264 226.391 347.345 225.206 347.418C224.02 347.472 222.832 347.516 221.644 347.552C220.453 347.568 219.262 347.576 218.071 347.574C216.878 347.554 215.685 347.524 214.491 347.485C213.297 347.428 212.103 347.361 210.909 347.285C209.715 347.19 208.521 347.085 207.327 346.972C206.135 346.839 204.942 346.697 203.75 346.546C202.559 346.376 201.37 346.197 200.181 346.008C198.993 345.801 197.808 345.584 196.623 345.358C195.44 345.113 194.259 344.859 193.08 344.595C191.903 344.313 190.729 344.022 189.556 343.721C188.387 343.401 187.219 343.073 186.054 342.735C184.893 342.379 183.735 342.013 182.579 341.638C181.427 341.245 180.279 340.842 179.133 340.431C177.992 340.001 176.855 339.562 175.72 339.114C174.592 338.648 173.467 338.173 172.344 337.689C171.229 337.187 170.117 336.676 169.009 336.156C167.908 335.618 166.811 335.071 165.718 334.516C164.632 333.943 163.551 333.361 162.474 332.771C161.405 332.163 160.341 331.547 159.281 330.922C158.23 330.28 157.183 329.629 156.142 328.97C155.11 328.294 154.083 327.61 153.061 326.918C152.049 326.208 151.042 325.491 150.041 324.765C149.05 324.024 148.065 323.274 147.085 322.516C146.116 321.742 145.154 320.96 144.197 320.17C143.252 319.365 142.312 318.552 141.379 317.731C140.458 316.895 139.544 316.051 138.636 315.2C137.74 314.334 136.851 313.46 135.969 312.579C135.1 311.684 134.238 310.781 133.382 309.871C132.541 308.947 131.706 308.017 130.879 307.079C130.065 306.127 129.259 305.169 128.461 304.204C127.677 303.225 126.9 302.24 126.131 301.249C125.377 300.244 124.631 299.233 123.893 298.216C123.17 297.187 122.455 296.151 121.748 295.11C121.057 294.056 120.374 292.997 119.7 291.932C119.041 290.855 118.392 289.773 117.75 288.685C117.125 287.586 116.509 286.482 115.902 285.372C115.311 284.252 114.73 283.127 114.157 281.997C113.601 280.857 113.055 279.712 112.517 278.562C111.998 277.403 111.487 276.24 110.986 275.071C110.502 273.894 110.028 272.713 109.564 271.527C109.117 270.334 108.68 269.136 108.253 267.934C107.844 266.724 107.445 265.511 107.055 264.294C106.685 263.07 106.324 261.843 105.973 260.612C105.641 259.374 105.319 258.134 105.006 256.89C104.714 255.641 104.431 254.388 104.158 253.133C103.905 251.873 103.662 250.61 103.429 249.344C103.216 248.074 103.013 246.801 102.82 245.527C102.647 244.248 102.485 242.968 102.332 241.685C102.2 240.399 102.079 239.112 101.967 237.823C101.876 236.531 101.795 235.237 101.725 233.943C101.675 232.646 101.636 231.349 101.607 230.051C101.599 228.751 101.601 227.45 101.614 226.149C101.647 224.847 101.691 223.544 101.745 222.242C101.82 220.939 101.906 219.636 102.002 218.333C102.119 217.031 102.246 215.728 102.384 214.427C102.543 213.126 102.712 211.826 102.892 210.527C103.093 209.23 103.304 207.933 103.526 206.638C103.768 205.345 104.022 204.053 104.285 202.763C104.569 201.476 104.864 200.19 105.169 198.906C105.495 197.626 105.832 196.348 106.178 195.071C106.546 193.8 106.923 192.53 107.312 191.263C107.72 190.001 108.139 188.742 108.568 187.485C109.018 186.234 109.478 184.986 109.948 183.74C110.438 182.502 110.939 181.266 111.449 180.034C111.98 178.809 112.521 177.587 113.071 176.369C113.642 175.159 114.223 173.953 114.813 172.75C115.423 171.556 116.043 170.366 116.673 169.18C117.322 168.004 117.981 166.831 118.65 165.664C119.338 164.506 120.035 163.352 120.742 162.204C121.468 161.066 122.203 159.933 122.948 158.805C123.711 157.688 124.484 156.576 125.266 155.47C126.066 154.375 126.875 153.286 127.693 152.203C128.53 151.132 129.375 150.066 130.229 149.007C131.101 147.96 131.981 146.92 132.87 145.886C133.777 144.865 134.692 143.851 135.615 142.843C136.555 141.849 137.504 140.862 138.461 139.882C139.434 138.916 140.416 137.957 141.405 137.006C142.411 136.069 143.424 135.139 144.446 134.217C145.483 133.311 146.527 132.412 147.58 131.52C148.647 130.645 149.722 129.777 150.804 128.917C151.901 128.074 153.005 127.238 154.116 126.411C155.241 125.601 156.374 124.799 157.513 124.006C158.665 123.229 159.825 122.462 160.991 121.703C162.17 120.961 163.355 120.229 164.547 119.505C165.752 118.799 166.962 118.103 168.179 117.415C169.407 116.746 170.641 116.087 171.882 115.437C173.133 114.805 174.39 114.183 175.653 113.571C176.926 112.977 178.205 112.394 179.489 111.82C180.783 111.265 182.082 110.721 183.386 110.186C184.699 109.672 186.017 109.167 187.34 108.672C188.672 108.198 190.008 107.734 191.348 107.28C192.696 106.846 194.049 106.423 195.405 106.011C196.77 105.619 198.137 105.237 199.509 104.866C200.887 104.516 202.269 104.177 203.654 103.848C205.046 103.541 206.44 103.244 207.837 102.959C209.241 102.694 210.646 102.441 212.055 102.198C213.468 101.977 214.883 101.767 216.301 101.568C217.723 101.391 219.148 101.225 220.574 101.07C222.003 100.937 223.435 100.815 224.867 100.704C226.303 100.616 227.74 100.538 229.178 100.472C230.618 100.428 232.06 100.396 233.502 100.374C234.945 100.375 236.39 100.387 237.834 100.411C239.279 100.457 240.725 100.514 242.171 100.583C243.616 100.674 245.062 100.776 246.507 100.89C247.952 101.026 249.396 101.174 250.839 101.333C252.281 101.515 253.722 101.708 255.162 101.912C256.6 102.138 258.037 102.377 259.473 102.626C260.905 102.898 262.336 103.181 263.765 103.475C265.191 103.792 266.614 104.121 268.036 104.46C269.453 104.822 270.868 105.195 272.28 105.579C273.688 105.985 275.092 106.403 276.494 106.831C277.89 107.282 279.283 107.744 280.673 108.217C282.057 108.712 283.437 109.218 284.813 109.734C286.182 110.273 287.548 110.823 288.909 111.383C290.263 111.965 291.613 112.558 292.958 113.161C294.295 113.786 295.627 114.422 296.955 115.068C298.273 115.735 299.586 116.413 300.895 117.102C302.193 117.811 303.487 118.53 304.775 119.26C306.052 120.011 307.324 120.772 308.591 121.543C309.846 122.334 311.095 123.136 312.338 123.947C313.569 124.779 314.794 125.62 316.013 126.471C317.219 127.342 318.418 128.223 319.611 129.113C320.791 130.022 321.963 130.941 323.129 131.87C324.281 132.817 325.426 133.774 326.564 134.74C327.687 135.724 328.802 136.718 329.91 137.72C331.003 138.741 332.088 139.771 333.165 140.809C334.227 141.865 335.28 142.929 336.325 144.002C337.354 145.093 338.375 146.191 339.387 147.298C340.382 148.422 341.369 149.554 342.347 150.693C343.307 151.849 344.259 153.013 345.201 154.185C346.126 155.372 347.041 156.567 347.948 157.769C348.835 158.987 349.714 160.212 350.583 161.444C351.432 162.69 352.272 163.944 353.103 165.205C353.914 166.479 354.715 167.76 355.506 169.048C356.277 170.35 357.038 171.657 357.789 172.972C358.519 174.298 359.239 175.631 359.949 176.97C360.637 178.322 361.316 179.678 361.983 181.041C362.629 182.415 363.265 183.795 363.89 185.18C364.493 186.576 365.085 187.977 365.666 189.383C366.225 190.8 366.773 192.221 367.31 193.647C367.825 195.082 368.328 196.522 368.82 197.966C369.289 199.419 369.746 200.877 370.193 202.338C370.616 203.807 371.027 205.28 371.427 206.757C371.804 208.241 372.169 209.729 372.522 211.22C372.852 212.718 373.169 214.218 373.475 215.722C373.757 217.232 374.028 218.744 374.286 220.259C374.52 221.779 374.742 223.301 374.952 224.826C375.137 226.355 375.311 227.886 375.472 229.419C375.609 230.956 375.734 232.494 375.847 234.034C375.935 235.576 376.011 237.12 376.074 238.665C376.113 240.212 376.139 241.76 376.153 243.309C376.143 244.859 376.12 246.409 376.084 247.96C376.024 249.512 375.951 251.063 375.866 252.615C375.756 254.166 375.634 255.717 375.499 257.267C375.34 258.817 375.167 260.366 374.983 261.914C374.773 263.46 374.552 265.005 374.317 266.549C374.058 268.091 373.787 269.631 373.503 271.169C373.194 272.704 372.873 274.238 372.54 275.769C372.181 277.296 371.811 278.821 371.428 280.344C371.021 281.861 370.601 283.376 370.169 284.889C369.713 286.395 369.244 287.899 368.764 289.399C368.259 290.893 367.741 292.384 367.212 293.871C366.659 295.351 366.093 296.827 365.516 298.3C364.915 299.764 364.301 301.224 363.676 302.68C363.028 304.127 362.367 305.57 361.695 307.008C360.999 308.436 360.291 309.86 359.572 311.278C358.83 312.687 358.076 314.09 357.311 315.488C356.523 316.874 355.724 318.255 354.913 319.631C354.08 320.994 353.235 322.352 352.38 323.704C351.502 325.043 350.613 326.376 349.713 327.702C348.792 329.015 347.859 330.322 346.916 331.622C345.952 332.907 344.977 334.186 343.991 335.458C342.984 336.715 341.967 337.965 340.94 339.208C339.892 340.435 338.834 341.654 337.766 342.866C336.677 344.062 335.579 345.25 334.471 346.429C333.343 347.592 332.206 348.747 331.059 349.894C329.893 351.023 328.717 352.144 327.532 353.255C326.329 354.35 325.116 355.435 323.895 356.511C322.655 357.569 321.407 358.617 320.149 359.656C318.874 360.677 317.591 361.687 316.299 362.688C314.99 363.67 313.673 364.642 312.348 365.604C311.006 366.545 309.657 367.477 308.299 368.399C306.926 369.3 305.546 370.19 304.157 371.071C302.754 371.93 301.344 372.778 299.926 373.616C298.493 374.433 297.054 375.238 295.608 376.033C294.148 376.805 292.682 377.567 291.209 378.317C289.723 379.045 288.231 379.761 286.732 380.467C285.221 381.149 283.704 381.82 282.182 382.479C280.648 383.115 279.108 383.739 277.562 384.352C276.006 384.94 274.445 385.517 272.879 386.082C271.302 386.623 269.721 387.152 268.135 387.669C266.539 388.161 264.939 388.641 263.335 389.109C261.722 389.552 260.106 389.983 258.485 390.401C256.856 390.795 255.224 391.175 253.588 391.544C251.945 391.887 250.299 392.217 248.65 392.535C246.994 392.827 245.336 393.106 243.675 393.373C242.008 393.614 240.34 393.842 238.668 394.057C236.992 394.246 235.314 394.422 233.635 394.585C231.951 394.723 230.266 394.847 228.579 394.958C226.889 395.043 225.199 395.114 223.507 395.173C221.812 395.205 220.118 395.224 218.422 395.23C216.725 395.21 215.028 395.176 213.331 395.129C211.633 395.056 209.935 394.97 208.237 394.87C206.54 394.744 204.844 394.604 203.147 394.451C201.453 394.272 199.759 394.079 198.066 393.874C196.375 393.641 194.686 393.396 192.998 393.137C191.313 392.852 189.629 392.554 187.948 392.242C186.27 391.904 184.595 391.553 182.922 391.189C181.254 390.798 179.588 390.395 177.925 389.978C176.267 389.535 174.613 389.079 172.961 388.61C171.316 388.115 169.675 387.607 168.037 387.087C166.406 386.54 164.779 385.98 163.156 385.408C161.541 384.81 159.93 384.199 158.324 383.576C156.727 382.927 155.134 382.265 153.546 381.591C151.968 380.892 150.395 380.18 148.827 379.456C147.27 378.707 145.718 377.945 144.172 377.171C142.637 376.373 141.108 375.562 139.585 374.74C138.074 373.893 136.57 373.034 135.071 372.163C133.586 371.268 132.108 370.361 130.636 369.443C129.178 368.501 127.727 367.547 126.283 366.582C124.854 365.594 123.432 364.594 122.018 363.583C120.619 362.55 119.227 361.505 117.844 360.448C116.477 359.37 115.117 358.281 113.766 357.181C112.432 356.059 111.107 354.926 109.789 353.783C108.49 352.618 107.199 351.443 105.917 350.258C104.654 349.052 103.399 347.835 102.154 346.609C100.928 345.362 99.7114 344.106 98.5043 342.839C97.3168 341.553 96.1391 340.258 94.9714 338.953C93.8238 337.628 92.6865 336.295 91.5594 334.952C90.4531 333.591 89.3573 332.221 88.272 330.842C87.2082 329.445 86.1552 328.039 85.113 326.625C84.0928 325.193 83.0837 323.754 82.0858 322.306C81.1104 320.841 80.1464 319.369 79.1938 317.888C78.2643 316.392 77.3465 314.888 76.4404 313.377C75.5578 311.85 74.6872 310.316 73.8285 308.775C72.994 307.22 72.1716 305.657 71.3614 304.088C70.5758 302.505 69.8025 300.916 69.0417 299.32C68.306 297.711 67.5829 296.096 66.8724 294.475C66.1874 292.842 65.5152 291.203 64.8559 289.558C64.2224 287.902 63.602 286.24 62.9946 284.574C62.4135 282.896 61.8457 281.214 61.291 279.527C60.763 277.83 60.2484 276.128 59.7472 274.422C59.2729 272.707 58.8122 270.988 58.365 269.265C57.9451 267.534 57.5389 265.799 57.1465 264.06C56.7815 262.314 56.4304 260.565 56.0931 258.812C55.7836 257.054 55.4881 255.292 55.2066 253.527C54.953 251.757 54.7135 249.985 54.4881 248.21C54.2909 246.43 54.1078 244.648 53.9389 242.865C53.7984 241.078 53.6721 239.289 53.5601 237.498C53.4766 235.705 53.4074 233.91 53.3524 232.115C53.3261 230.317 53.3142 228.519 53.3166 226.72C53.3477 224.92 53.3933 223.12 53.4532 221.32C53.5418 219.519 53.6449 217.719 53.7624 215.919C53.9087 214.119 54.0694 212.321 54.2446 210.522C54.4485 208.726 54.6668 206.931 54.8996 205.136C55.1611 203.345 55.437 201.555 55.7273 199.766C56.0463 197.981 56.3797 196.198 56.7274 194.417C57.1037 192.64 57.4944 190.866 57.8993 189.094C58.3328 187.327 58.7804 185.563 59.2424 183.803C59.7326 182.048 60.2371 180.297 60.7557 178.549C61.3024 176.808 61.8633 175.07 62.4382 173.337C63.0411 171.612 63.6579 169.89 64.2887 168.173C64.9473 166.465 65.6197 164.762 66.3059 163.063C67.0196 161.374 67.747 159.69 68.4881 158.011C69.2565 156.342 70.0383 154.68 70.8337 153.022C71.656 151.376 72.4917 149.736 73.3407 148.102C74.2164 146.481 75.1051 144.865 76.0071 143.256C76.9353 141.66 77.8765 140.071 78.8307 138.489C79.8107 136.921 80.8035 135.36 81.809 133.806C82.84 132.266 83.8835 130.735 84.9396 129.211C86.0206 127.702 87.1139 126.202 88.2196 124.71C89.3498 123.234 90.492 121.766 91.6463 120.307C92.8246 118.865 94.0147 117.431 95.2166 116.007C96.442 114.6 97.6789 113.203 98.9274 111.814C100.199 110.445 101.481 109.085 102.775 107.734C104.091 106.403 105.419 105.081 106.757 103.77C108.117 102.478 109.487 101.197 110.868 99.9262C112.271 98.676 113.683 97.4364 115.106 96.2074C116.55 94.9999 118.003 93.8032 119.466 92.6175C120.95 91.4538 122.442 90.3014 123.945 89.1603C125.467 88.0418 126.998 86.935 128.538 85.8396C130.097 84.7676 131.664 83.7075 133.241 82.6591C134.835 81.6348 136.438 80.6226 138.049 79.6224C139.677 78.6469 141.314 77.6837 142.958 76.7329C144.619 75.8072 146.288 74.8942 147.964 73.9939C149.656 73.1191 151.355 72.2573 153.062 71.4084C154.783 70.5856 156.511 69.7759 158.246 68.9794C159.995 68.2095 161.75 67.453 163.512 66.7099C165.287 65.9938 167.068 65.2913 168.855 64.6025C170.655 63.941 172.46 63.2934 174.27 62.6596C176.092 62.0537 177.919 61.4617 179.752 60.8838C181.594 60.3341 183.442 59.7985 185.294 59.2771C187.156 58.7843 189.022 58.3059 190.893 57.8417C192.772 57.4065 194.655 56.9857 196.542 56.5795C198.436 56.2024 200.334 55.8399 202.235 55.492C204.143 55.1736 206.054 54.8699 207.969 54.581C209.888 54.3217 211.811 54.0772 213.736 53.8477C215.665 53.6479 217.597 53.4631 219.531 53.2933C221.468 53.1535 223.407 53.0287 225.348 52.9189C227.292 52.8393 229.236 52.7748 231.182 52.7253C233.13 52.7061 235.078 52.7021 237.027 52.7132C238.977 52.7546 240.927 52.8113 242.877 52.883C244.828 52.9852 246.777 53.1026 248.727 53.2351C250.675 53.3981 252.623 53.5763 254.57 53.7696C256.514 53.9934 258.458 54.2323 260.4 54.4864C262.339 54.7709 264.277 55.0705 266.212 55.3853C268.144 55.7304 270.073 56.0906 272 56.4659C273.922 56.8713 275.842 57.2919 277.758 57.7274C279.669 58.1931 281.577 58.6737 283.481 59.1693C285.378 59.6948 287.272 60.2351 289.162 60.7904C291.044 61.3753 292.922 61.9751 294.795 62.5896C296.66 63.2336 298.52 63.8923 300.376 64.5657C302.222 65.2682 304.062 65.9853 305.898 66.717C307.722 67.4775 309.541 68.2525 311.355 69.0418C313.157 69.8598 314.953 70.692 316.742 71.5384C318.52 72.4131 320.29 73.3019 322.054 74.2047C323.805 75.1354 325.548 76.0799 327.285 77.0383C329.007 78.0242 330.722 79.0238 332.429 80.037C334.121 81.0773 335.806 82.131 337.482 83.1982C339.142 84.292 340.794 85.3989 342.437 86.5191C344.064 87.6654 345.682 88.8246 347.291 89.9968C348.882 91.1946 350.464 92.4051 352.037 93.6283C353.591 94.8765 355.135 96.1372 356.67 97.4103C358.186 98.7079 359.691 100.018 361.186 101.339C362.662 102.685 364.126 104.043 365.581 105.412C367.014 106.805 368.436 108.209 369.848 109.625C371.238 111.063 372.617 112.513 373.984 113.973C375.329 115.456 376.663 116.95 377.985 118.454C379.284 119.98 380.57 121.516 381.845 123.063C383.096 124.63 384.335 126.208 385.561 127.795C386.763 129.403 387.952 131.02 389.129 132.647C390.28 134.293 391.419 135.948 392.545 137.613C393.644 139.296 394.731 140.988 395.804 142.689C396.851 144.408 397.884 146.135 398.904 147.871C399.896 149.623 400.875 151.384 401.84 153.153C402.778 154.938 403.701 156.73 404.61 158.53C405.491 160.345 406.358 162.168 407.211 163.998C408.034 165.842 408.844 167.693 409.638 169.55C410.404 171.421 411.154 173.299 411.89 175.183C412.597 177.079 413.288 178.981 413.964 180.889C414.61 182.809 415.241 184.734 415.857 186.665C416.443 188.606 417.013 190.552 417.567 192.503C418.091 194.464 418.6 196.429 419.092 198.399C419.554 200.378 420 202.36 420.43 204.347C420.829 206.342 421.212 208.339 421.579 210.341C421.914 212.349 422.233 214.361 422.537 216.375C422.808 218.395 423.063 220.418 423.303 222.443C423.51 224.473 423.701 226.506 423.876 228.54C424.018 230.578 424.144 232.618 424.254 234.659C424.331 236.703 424.393 238.748 424.437 240.794C424.45 242.842 424.445 244.89 424.425 246.939C424.372 248.989 424.302 251.039 424.216 253.088C424.097 255.138 423.962 257.187 423.811 259.236C423.627 261.283 423.426 263.329 423.209 265.375C422.959 267.418 422.693 269.459 422.41 271.499C422.095 273.536 421.764 275.571 421.416 277.604C421.035 279.632 420.639 281.658 420.226 283.682C419.78 285.7 419.318 287.715 418.84 289.727C418.33 291.732 417.804 293.734 417.261 295.733C416.686 297.724 416.096 299.711 415.489 301.694C414.85 303.669 414.195 305.639 413.525 307.605C412.823 309.561 412.105 311.512 411.371 313.458C410.606 315.394 409.825 317.324 409.028 319.249C408.201 321.162 407.358 323.07 406.499 324.971C405.61 326.86 404.705 328.742 403.786 330.618C402.835 332.481 401.87 334.336 400.89 336.185C399.879 338.019 398.854 339.846 397.814 341.665C396.744 343.469 395.66 345.266 394.561 347.054C393.433 348.826 392.291 350.59 391.134 352.345C389.948 354.083 388.749 355.813 387.535 357.533C386.293 359.236 385.038 360.929 383.768 362.613C382.471 364.278 381.161 365.934 379.837 367.58C378.486 369.205 377.121 370.821 375.744 372.427C374.34 374.012 372.923 375.586 371.493 377.15C370.038 378.692 368.569 380.224 367.089 381.744C365.583 383.242 364.065 384.729 362.534 386.205C360.98 387.657 359.413 389.098 357.835 390.526C356.233 391.931 354.619 393.324 352.994 394.705C351.346 396.061 349.686 397.404 348.016 398.735C346.324 400.041 344.62 401.334 342.906 402.614C341.171 403.868 339.425 405.109 337.669 406.336C335.892 407.537 334.106 408.724 332.309 409.898C330.493 411.044 328.667 412.177 326.832 413.295C324.978 414.386 323.115 415.462 321.243 416.524C319.353 417.558 317.454 418.577 315.547 419.582C313.622 420.557 311.69 421.518 309.749 422.464C307.792 423.38 305.828 424.282 303.856 425.168C301.868 426.024 299.874 426.865 297.872 427.69C295.856 428.485 293.833 429.264 291.803 430.028C289.76 430.761 287.711 431.477 285.656 432.179C283.588 432.848 281.515 433.502 279.436 434.139C277.346 434.745 275.25 435.334 273.149 435.908C271.038 436.449 268.922 436.973 266.802 437.482C264.672 437.957 262.538 438.416 260.4 438.859C258.254 439.269 256.104 439.662 253.95 440.038C251.789 440.381 249.625 440.708 247.458 441.018C245.285 441.294 243.109 441.553 240.93 441.796C238.747 442.004 236.561 442.196 234.373 442.371C232.182 442.512 229.989 442.636 227.794 442.743C225.596 442.815 223.398 442.871 221.198 442.91C218.997 442.914 216.795 442.902 214.593 442.872C212.39 442.808 210.187 442.727 207.984 442.628C205.782 442.496 203.58 442.346 201.379 442.179C199.18 441.978 196.982 441.76 194.784 441.524C192.59 441.254 190.397 440.967 188.206 440.663C186.019 440.325 183.834 439.97 181.651 439.597C179.473 439.191 177.298 438.767 175.126 438.327C172.959 437.852 170.796 437.361 168.637 436.852C166.484 436.31 164.335 435.751 162.19 435.175C160.054 434.566 157.922 433.939 155.794 433.296C153.675 432.62 151.562 431.927 149.453 431.217C147.355 430.474 145.262 429.715 143.174 428.939C141.098 428.131 139.029 427.306 136.965 426.465C134.913 425.591 132.868 424.701 130.83 423.795C128.805 422.857 126.787 421.903 124.776 420.933C122.78 419.931 120.792 418.914 118.81 417.881C116.845 416.817 114.888 415.737 112.938 414.641C111.005 413.515 109.081 412.374 107.166 411.217C105.268 410.03 103.379 408.828 101.499 407.61C99.6375 406.364 97.7858 405.102 95.9435 403.826C94.1209 402.52 92.3082 401.2 90.5056 399.866C88.7234 398.502 86.9518 397.125 85.1906 395.734C83.4509 394.314 81.7221 392.881 80.0043 391.434C78.3088 389.96 76.6247 388.472 74.9519 386.97C73.3025 385.442 71.6648 383.901 70.039 382.347C68.4372 380.766 66.8478 379.173 65.2706 377.567C63.7183 375.936 62.1787 374.292 60.6518 372.636C59.1506 370.956 57.6626 369.263 56.1876 367.559C54.7391 365.83 53.3042 364.091 51.8827 362.339C50.4885 360.565 49.1082 358.779 47.7418 356.982C46.4034 355.163 45.0793 353.334 43.7693 351.493C42.4882 349.632 41.2217 347.76 39.9697 345.877C38.7472 343.975 37.5397 342.062 36.347 340.14C35.1845 338.198 34.0373 336.247 32.9053 334.286C31.8041 332.307 30.7185 330.319 29.6484 328.321C28.6097 326.307 27.5868 324.284 26.5798 322.252C25.6048 320.204 24.646 318.148 23.7032 316.083C22.793 314.004 21.8992 311.916 21.0218 309.821C20.1775 307.712 19.3497 305.596 18.5387 303.472C17.7611 301.335 17.0005 299.192 16.2567 297.042C15.547 294.88 14.8543 292.711 14.1787 290.537C13.5375 288.351 12.9137 286.16 12.3071 283.963C11.7353 281.756 11.181 279.544 10.6442 277.328C10.1425 275.101 9.65852 272.871 9.19217 270.636C8.76127 268.393 8.34819 266.146 7.9529 263.895C7.59336 261.637 7.25176 259.376 6.9281 257.112C6.64042 254.841 6.37079 252.568 6.11922 250.292C5.90385 248.012 5.70664 245.729 5.52757 243.444C5.38489 241.155 5.26043 238.865 5.15421 236.573C5.08451 234.278 5.03312 231.983 5 229.686C5.00351 227.388 5.02534 225.089 5.06552 222.79C5.1424 220.491 5.23766 218.192 5.35126 215.893C5.50159 213.594 5.67028 211.297 5.85735 209C6.08114 206.705 6.32327 204.411 6.58377 202.119C6.88095 199.829 7.19648 197.542 7.53032 195.256C7.90077 192.974 8.28948 190.695 8.69648 188.419C9.13998 186.147 9.6017 183.879 10.0816 181.614C10.5979 179.355 11.1323 177.1 11.6848 174.848C12.2735 172.604 12.8802 170.364 13.5049 168.128C14.1656 165.901 14.8441 163.678 15.5406 161.461C16.2728 159.253 17.0227 157.05 17.7903 154.853C18.5934 152.666 19.414 150.486 20.2523 148.311C21.1256 146.148 22.0163 143.992 22.9245 141.842C23.8674 139.706 24.8275 137.576 25.8048 135.453C26.8164 133.344 27.845 131.243 28.8907 129.149C29.9702 127.071 31.0665 125 32.1796 122.938C33.3261 120.892 34.4891 118.854 35.6687 116.825C36.8811 114.814 38.1099 112.811 39.3549 110.818C40.6323 108.843 41.9256 106.878 43.235 104.922C44.5761 102.985 45.933 101.059 47.3055 99.1429C48.7092 97.2472 50.1283 95.362 51.5629 93.4873C53.0279 91.6342 54.508 89.7921 56.0032 87.961C57.5282 86.1524 59.0679 84.3553 60.6224 82.5696C62.206 80.8074 63.804 79.0572 65.4163 77.3189C67.0571 75.6049 68.7118 73.9034 70.3806 72.2143C72.077 70.5504 73.787 68.8994 75.5106 67.2612C77.2611 65.6492 79.0247 64.0504 80.8016 62.465C82.6045 60.9065 84.4202 59.3617 86.2487 57.8306C88.1024 56.3273 89.9684 54.8381 91.8468 53.363C93.7495 51.9165 95.6641 50.4846 97.5907 49.0671C99.5406 47.679 101.502 46.3058 103.475 44.9474C105.47 43.6192 107.477 42.3063 109.494 41.0085C111.533 39.7416 113.582 38.4903 115.642 37.2546C117.722 36.0505 119.813 34.8622 121.913 33.6899C124.033 32.5498 126.163 31.4259 128.302 30.3183C130.459 29.2435 132.626 28.1852 134.802 27.1435C136.995 26.1352 139.196 25.1437 141.406 24.1691C143.633 23.2285 145.867 22.3049 148.109 21.3985C150.367 20.5266 152.632 19.6721 154.905 18.835C157.192 18.0328 159.485 17.2482 161.786 16.4813C164.099 15.7499 166.419 15.0362 168.746 14.3404C171.084 13.6805 173.428 13.0387 175.778 12.4149C178.138 11.8273 180.504 11.258 182.875 10.707C185.256 10.1925 187.641 9.69651 190.031 9.21889C192.429 8.77823 194.831 8.35614 197.238 7.95259C199.651 7.58629 202.068 7.23869 204.489 6.90977C206.916 6.61835 209.345 6.34573 211.778 6.09193C214.215 5.87583 216.655 5.67864 219.096 5.50035C221.542 5.35995 223.989 5.23852 226.438 5.13608C228.889 5.07167 231.342 5.02633 233.795 5C236.25 5.0118 238.705 5.04268 241.16 5.09265C243.616 5.18082 246.071 5.28809 248.527 5.41446C250.981 5.57905 253.434 5.76274 255.887 5.96555C258.337 6.20656 260.786 6.46667 263.233 6.74586C265.677 7.06322 268.119 7.39962 270.558 7.75509C272.993 8.14862 275.426 8.56116 277.856 8.9927C280.279 9.46218 282.7 9.95059 285.117 10.4579C287.527 11.003 289.933 11.567 292.336 12.1498C294.729 12.7701 297.119 13.4092 299.504 14.0671C301.879 14.7622 304.25 15.4759 306.615 16.2083C308.969 16.9777 311.318 17.7656 313.661 18.5719C315.992 19.4149 318.317 20.2762 320.636 21.1558C322.941 22.0718 325.24 23.0059 327.532 23.958C329.809 24.9462 332.079 25.9522 334.342 26.9762C336.589 28.0357 338.828 29.1129 341.059 30.2078C343.273 31.3377 345.479 32.4851 347.676 33.6499C349.856 34.8494 352.026 36.066 354.188 37.2997C356.33 38.5676 358.463 39.8523 360.586 41.1539C362.689 42.4891 364.781 43.8408 366.864 45.2091C368.926 46.6103 370.976 48.0279 373.016 49.4617C375.034 50.9277 377.041 52.4098 379.036 53.9078C381.008 55.4374 382.968 56.9826 384.917 58.5434C386.841 60.1351 388.753 61.7421 390.653 63.3643C392.527 65.0167 394.389 66.6839 396.238 68.3661C398.06 70.0776 399.87 71.8036 401.666 73.5441C403.435 75.3132 405.19 77.0964 406.932 78.8936C408.645 80.7186 410.344 82.5573 412.029 84.4097C413.685 86.2889 415.327 88.1813 416.953 90.087C418.55 92.0187 420.132 93.9632 421.699 95.9204C423.235 97.9028 424.756 99.8974 426.261 101.904C427.734 103.936 429.192 105.978 430.634 108.033C432.043 110.111 433.437 112.201 434.813 114.301C436.157 116.424 437.485 118.558 438.795 120.702C440.072 122.868 441.332 125.044 442.575 127.231C443.783 129.437 444.974 131.653 446.148 133.88C447.286 136.125 448.407 138.379 449.51 140.643C450.578 142.925 451.627 145.215 452.659 147.514C453.654 149.831 454.631 152.155 455.59 154.487C456.511 156.835 457.414 159.191 458.299 161.555C459.146 163.933 459.975 166.318 460.785 168.71C461.556 171.115 462.309 173.527 463.043 175.946C463.738 178.377 464.414 180.813 465.071 183.256C465.69 185.709 466.288 188.168 466.868 190.632C467.408 193.106 467.928 195.585 468.429 198.068C468.891 200.561 469.332 203.057 469.754 205.557C470.137 208.064 470.499 210.575 470.841 213.09C471.143 215.611 471.426 218.134 471.688 220.661C471.91 223.192 472.112 225.726 472.294 228.261C472.435 230.801 472.556 233.342 472.657 235.885" stroke="black" stroke-width="9" stroke-linecap="round"/>
</svg>
