<svg width="578" height="543" viewBox="0 0 578 543" fill="none" xmlns="http://www.w3.org/2000/svg">
<path d="M292 289C292.092 289.169 292.184 289.339 292.274 289.51C292.362 289.684 292.449 289.858 292.535 290.034C292.618 290.212 292.7 290.391 292.782 290.571C292.86 290.754 292.938 290.937 293.014 291.122C293.088 291.309 293.161 291.496 293.232 291.685C293.301 291.876 293.369 292.068 293.435 292.26C293.499 292.455 293.561 292.651 293.622 292.848C293.681 293.046 293.738 293.246 293.793 293.446C293.846 293.649 293.898 293.852 293.948 294.056C293.995 294.262 294.041 294.469 294.085 294.676C294.126 294.886 294.166 295.096 294.205 295.307C294.24 295.519 294.274 295.733 294.307 295.947C294.336 296.162 294.364 296.379 294.39 296.596C294.414 296.814 294.435 297.033 294.455 297.253C294.472 297.474 294.487 297.696 294.501 297.919C294.512 298.142 294.52 298.367 294.528 298.592C294.531 298.818 294.534 299.044 294.534 299.272C294.531 299.5 294.527 299.729 294.521 299.958C294.511 300.188 294.5 300.419 294.487 300.65C294.47 300.882 294.452 301.114 294.432 301.347C294.409 301.58 294.384 301.814 294.357 302.049C294.326 302.283 294.294 302.519 294.26 302.754C294.222 302.99 294.183 303.226 294.141 303.463C294.096 303.7 294.05 303.937 294.001 304.175C293.949 304.412 293.895 304.65 293.839 304.888C293.78 305.126 293.718 305.365 293.655 305.603C293.588 305.841 293.519 306.08 293.449 306.319C293.374 306.557 293.298 306.796 293.22 307.034C293.138 307.272 293.054 307.511 292.968 307.749C292.879 307.987 292.787 308.225 292.694 308.463C292.597 308.7 292.498 308.937 292.397 309.174C292.293 309.411 292.186 309.647 292.078 309.883C291.965 310.118 291.851 310.353 291.735 310.588C291.615 310.822 291.493 311.056 291.37 311.289C291.242 311.522 291.113 311.754 290.981 311.986C290.846 312.216 290.709 312.447 290.57 312.676C290.427 312.905 290.283 313.133 290.136 313.361C289.986 313.587 289.833 313.813 289.679 314.038C289.521 314.262 289.361 314.485 289.199 314.708C289.034 314.929 288.867 315.15 288.697 315.369C288.524 315.588 288.349 315.805 288.173 316.021C287.992 316.236 287.81 316.451 287.626 316.664C287.438 316.875 287.248 317.086 287.056 317.296C286.861 317.503 286.664 317.71 286.465 317.916C286.263 318.12 286.058 318.323 285.852 318.524C285.643 318.724 285.431 318.923 285.218 319.12C285.001 319.316 284.783 319.51 284.562 319.703C284.338 319.893 284.113 320.083 283.885 320.271C283.655 320.457 283.422 320.641 283.188 320.824C282.95 321.005 282.711 321.184 282.47 321.362C282.226 321.538 281.98 321.712 281.732 321.884C281.481 322.054 281.229 322.223 280.975 322.389C280.717 322.553 280.459 322.716 280.198 322.877C279.934 323.035 279.669 323.192 279.402 323.347C279.132 323.498 278.861 323.649 278.588 323.797C278.312 323.943 278.035 324.086 277.756 324.229C277.474 324.367 277.191 324.504 276.906 324.64C276.618 324.772 276.33 324.902 276.039 325.031C275.746 325.155 275.452 325.279 275.156 325.4C274.857 325.518 274.557 325.634 274.256 325.748C273.953 325.858 273.648 325.966 273.341 326.073C273.033 326.176 272.723 326.276 272.411 326.375C272.098 326.47 271.783 326.563 271.467 326.654C271.149 326.741 270.83 326.826 270.509 326.909C270.186 326.987 269.863 327.064 269.538 327.139C269.211 327.209 268.883 327.278 268.554 327.344C268.223 327.406 267.891 327.466 267.559 327.524C267.224 327.577 266.888 327.628 266.552 327.677C266.214 327.722 265.875 327.764 265.535 327.804C265.193 327.84 264.851 327.874 264.508 327.905C264.163 327.931 263.817 327.956 263.471 327.978C263.124 327.995 262.776 328.01 262.427 328.023C262.077 328.031 261.726 328.037 261.375 328.04C261.022 328.039 260.669 328.035 260.315 328.029C259.961 328.018 259.606 328.005 259.25 327.989C258.894 327.969 258.537 327.946 258.18 327.92C257.822 327.89 257.463 327.857 257.105 327.822C256.745 327.782 256.386 327.739 256.026 327.694C255.665 327.644 255.305 327.592 254.944 327.536C254.583 327.476 254.222 327.414 253.86 327.349C253.499 327.278 253.137 327.206 252.775 327.13C252.413 327.05 252.051 326.967 251.69 326.882C251.328 326.791 250.966 326.698 250.604 326.602C250.243 326.502 249.882 326.398 249.521 326.292C249.16 326.181 248.799 326.068 248.439 325.951C248.079 325.83 247.72 325.706 247.36 325.579C247.002 325.448 246.643 325.313 246.286 325.177C245.928 325.034 245.572 324.89 245.216 324.743C244.86 324.59 244.506 324.435 244.151 324.277C243.798 324.115 243.446 323.949 243.094 323.781C242.743 323.608 242.393 323.432 242.043 323.254C241.695 323.071 241.348 322.885 241.001 322.696C240.656 322.502 240.312 322.306 239.969 322.107C239.627 321.903 239.286 321.696 238.946 321.487C238.608 321.273 238.271 321.056 237.934 320.837C237.6 320.612 237.267 320.385 236.935 320.156C236.605 319.921 236.276 319.684 235.948 319.445C235.623 319.2 235.298 318.953 234.975 318.704C234.654 318.449 234.335 318.192 234.017 317.933C233.701 317.668 233.387 317.402 233.074 317.132C232.763 316.858 232.454 316.582 232.147 316.303C231.842 316.019 231.539 315.733 231.238 315.444C230.939 315.151 230.642 314.855 230.346 314.557C230.054 314.254 229.763 313.949 229.474 313.641C229.188 313.329 228.904 313.015 228.622 312.698C228.343 312.377 228.066 312.054 227.79 311.728C227.518 311.397 227.248 311.065 226.98 310.73C226.716 310.391 226.453 310.05 226.192 309.706C225.935 309.359 225.681 309.009 225.428 308.657C225.179 308.3 224.932 307.942 224.687 307.581C224.446 307.217 224.208 306.85 223.971 306.481C223.739 306.108 223.509 305.733 223.281 305.357C223.057 304.976 222.836 304.593 222.617 304.208C222.403 303.82 222.19 303.429 221.98 303.037C221.775 302.641 221.572 302.243 221.371 301.843C221.175 301.44 220.982 301.035 220.791 300.628C220.605 300.217 220.421 299.805 220.24 299.391C220.064 298.974 219.89 298.555 219.719 298.134C219.553 297.71 219.389 297.284 219.228 296.857C219.073 296.427 218.92 295.995 218.769 295.561C218.624 295.125 218.482 294.687 218.342 294.248C218.208 293.805 218.076 293.362 217.948 292.916C217.824 292.468 217.704 292.019 217.586 291.569C217.474 291.115 217.365 290.661 217.259 290.205C217.158 289.747 217.06 289.288 216.965 288.827C216.876 288.364 216.79 287.9 216.707 287.435C216.63 286.967 216.555 286.499 216.484 286.029C216.418 285.558 216.356 285.085 216.297 284.612C216.243 284.136 216.193 283.66 216.146 283.183C216.105 282.704 216.067 282.224 216.032 281.744C216.003 281.261 215.978 280.779 215.955 280.295C215.939 279.81 215.926 279.324 215.916 278.838C215.913 278.35 215.912 277.862 215.915 277.373C215.924 276.884 215.937 276.393 215.952 275.902C215.975 275.411 216 274.919 216.028 274.426C216.063 273.933 216.102 273.439 216.143 272.945C216.191 272.451 216.243 271.956 216.298 271.461C216.359 270.966 216.423 270.47 216.491 269.975C216.566 269.479 216.644 268.983 216.725 268.487C216.812 267.991 216.903 267.495 216.998 266.999C217.099 266.503 217.203 266.007 217.311 265.511C217.426 265.016 217.544 264.521 217.665 264.026C217.793 263.532 217.924 263.038 218.058 262.544C218.2 262.051 218.345 261.558 218.493 261.066C218.647 260.574 218.806 260.083 218.967 259.592C219.135 259.103 219.307 258.614 219.482 258.126C219.664 257.639 219.849 257.152 220.037 256.666C220.233 256.182 220.431 255.698 220.633 255.215C220.842 254.734 221.054 254.254 221.269 253.774C221.491 253.296 221.716 252.819 221.945 252.343C222.18 251.869 222.419 251.397 222.661 250.925C222.91 250.455 223.162 249.986 223.417 249.519C223.679 249.054 223.944 248.59 224.212 248.127C224.487 247.667 224.766 247.208 225.047 246.75C225.335 246.295 225.627 245.842 225.921 245.39C226.223 244.941 226.527 244.493 226.834 244.047C227.148 243.604 227.466 243.162 227.786 242.722C228.113 242.286 228.442 241.851 228.776 241.417C229.115 240.987 229.457 240.559 229.803 240.133C230.155 239.71 230.51 239.289 230.868 238.87C231.232 238.455 231.599 238.042 231.97 237.63C232.346 237.223 232.725 236.818 233.108 236.414C233.496 236.015 233.888 235.618 234.282 235.223C234.682 234.832 235.085 234.444 235.492 234.058C235.903 233.676 236.318 233.297 236.736 232.92C237.159 232.547 237.586 232.177 238.015 231.809C238.449 231.446 238.887 231.086 239.327 230.728C239.773 230.375 240.221 230.025 240.672 229.677C241.129 229.334 241.588 228.994 242.05 228.656C242.517 228.324 242.987 227.995 243.459 227.668C243.937 227.347 244.417 227.028 244.899 226.712C245.387 226.402 245.877 226.095 246.369 225.791C246.867 225.492 247.366 225.196 247.869 224.904C248.376 224.617 248.885 224.333 249.396 224.052C249.913 223.777 250.431 223.506 250.952 223.237C251.477 222.975 252.005 222.716 252.534 222.459C253.068 222.21 253.604 221.963 254.142 221.72C254.685 221.483 255.229 221.25 255.775 221.019C256.326 220.796 256.878 220.576 257.432 220.359C257.991 220.148 258.551 219.942 259.112 219.738C259.678 219.542 260.245 219.349 260.814 219.159C261.387 218.977 261.961 218.798 262.538 218.622C263.117 218.454 263.698 218.289 264.281 218.128C264.866 217.974 265.454 217.824 266.042 217.677C266.634 217.537 267.227 217.402 267.822 217.27C268.42 217.145 269.018 217.024 269.619 216.907C270.221 216.798 270.825 216.692 271.431 216.59C272.038 216.495 272.647 216.405 273.257 216.318C273.869 216.239 274.483 216.164 275.097 216.093C275.713 216.029 276.331 215.97 276.949 215.914C277.569 215.866 278.19 215.823 278.812 215.783C279.435 215.751 280.06 215.723 280.685 215.699C281.311 215.683 281.938 215.671 282.566 215.663C283.195 215.663 283.824 215.667 284.454 215.676C285.085 215.692 285.717 215.713 286.348 215.737C286.981 215.77 287.614 215.807 288.248 215.848C288.882 215.897 289.516 215.95 290.15 216.008C290.785 216.073 291.42 216.143 292.055 216.217C292.69 216.299 293.326 216.386 293.961 216.476C294.596 216.575 295.231 216.678 295.866 216.786C296.501 216.901 297.136 217.021 297.77 217.145C298.404 217.277 299.037 217.414 299.671 217.555C300.303 217.704 300.935 217.857 301.567 218.014C302.197 218.18 302.828 218.35 303.457 218.525C304.086 218.707 304.714 218.894 305.341 219.085C305.967 219.285 306.592 219.489 307.216 219.696C307.839 219.913 308.46 220.133 309.081 220.358C309.7 220.591 310.319 220.828 310.936 221.069C311.551 221.319 312.165 221.572 312.778 221.83C313.388 222.097 313.998 222.367 314.606 222.641C315.212 222.924 315.816 223.211 316.419 223.502C317.019 223.802 317.618 224.105 318.216 224.412C318.81 224.728 319.403 225.048 319.995 225.372C320.583 225.704 321.169 226.04 321.754 226.38C322.336 226.728 322.916 227.08 323.494 227.436C324.068 227.8 324.64 228.168 325.211 228.54C325.778 228.921 326.343 229.304 326.906 229.692C327.464 230.088 328.021 230.488 328.576 230.892C329.126 231.303 329.674 231.718 330.22 232.137C330.761 232.564 331.3 232.995 331.837 233.429C332.369 233.871 332.899 234.317 333.426 234.766C333.949 235.223 334.469 235.684 334.986 236.149C335.498 236.62 336.008 237.096 336.515 237.575C337.016 238.061 337.515 238.551 338.011 239.045C338.502 239.546 338.99 240.05 339.475 240.558C339.954 241.073 340.43 241.591 340.904 242.113C341.371 242.642 341.836 243.174 342.297 243.709C342.752 244.252 343.204 244.797 343.653 245.346C344.096 245.902 344.535 246.46 344.972 247.023C345.401 247.591 345.828 248.163 346.251 248.738C346.667 249.319 347.08 249.904 347.49 250.491C347.893 251.085 348.292 251.681 348.688 252.281C349.076 252.887 349.461 253.496 349.843 254.107C350.217 254.725 350.588 255.345 350.954 255.968C351.314 256.597 351.67 257.229 352.022 257.863C352.366 258.503 352.706 259.146 353.043 259.791C353.372 260.442 353.697 261.095 354.018 261.751C354.331 262.411 354.641 263.075 354.946 263.741C355.243 264.411 355.536 265.085 355.825 265.76C356.106 266.441 356.383 267.123 356.655 267.808C356.919 268.498 357.179 269.189 357.435 269.883C357.682 270.581 357.925 271.282 358.164 271.984C358.394 272.691 358.619 273.399 358.841 274.11C359.053 274.824 359.261 275.54 359.465 276.258C359.66 276.98 359.85 277.704 360.036 278.429C360.213 279.158 360.386 279.889 360.553 280.621C360.712 281.356 360.866 282.093 361.016 282.832C361.156 283.573 361.292 284.316 361.423 285.06C361.544 285.808 361.661 286.556 361.774 287.306C361.877 288.058 361.975 288.812 362.068 289.566C362.152 290.324 362.231 291.082 362.306 291.841C362.37 292.602 362.43 293.364 362.485 294.127C362.531 294.892 362.571 295.658 362.607 296.425C362.633 297.193 362.654 297.962 362.67 298.732C362.677 299.503 362.678 300.274 362.675 301.046C362.661 301.82 362.643 302.593 362.62 303.367C362.587 304.142 362.549 304.918 362.505 305.693C362.452 306.469 362.394 307.246 362.331 308.022C362.258 308.799 362.18 309.576 362.097 310.353C362.004 311.13 361.905 311.907 361.802 312.684C361.689 313.461 361.57 314.238 361.447 315.014C361.314 315.79 361.175 316.566 361.031 317.341C360.878 318.116 360.719 318.89 360.555 319.663C360.381 320.436 360.202 321.208 360.018 321.98C359.824 322.75 359.625 323.519 359.421 324.288C359.206 325.056 358.987 325.822 358.763 326.588C358.528 327.351 358.288 328.114 358.044 328.876C357.789 329.636 357.529 330.395 357.265 331.152C356.99 331.907 356.71 332.661 356.425 333.414C356.131 334.164 355.831 334.913 355.526 335.661C355.212 336.405 354.892 337.148 354.567 337.89C354.233 338.628 353.893 339.365 353.549 340.1C353.194 340.832 352.835 341.562 352.471 342.29C352.097 343.015 351.719 343.737 351.335 344.458C350.942 345.175 350.543 345.89 350.14 346.602C349.728 347.311 349.31 348.018 348.888 348.722C348.456 349.422 348.02 350.119 347.578 350.814C347.128 351.505 346.672 352.193 346.212 352.879C345.742 353.56 345.268 354.238 344.789 354.914C344.301 355.584 343.808 356.252 343.311 356.917C342.805 357.577 342.294 358.234 341.778 358.888C341.254 359.536 340.724 360.182 340.191 360.824C339.648 361.461 339.102 362.094 338.55 362.725C337.99 363.349 337.426 363.97 336.857 364.588C336.28 365.2 335.698 365.808 335.112 366.413C334.518 367.012 333.919 367.606 333.317 368.198C332.706 368.783 332.09 369.364 331.471 369.941C330.843 370.512 330.212 371.078 329.576 371.642C328.933 372.197 328.285 372.749 327.634 373.298C326.974 373.838 326.311 374.375 325.644 374.908C324.969 375.433 324.291 375.955 323.608 376.472C322.919 376.981 322.225 377.486 321.528 377.987C320.823 378.48 320.115 378.969 319.404 379.453C318.685 379.929 317.963 380.401 317.237 380.869C316.505 381.327 315.769 381.782 315.029 382.232C314.283 382.673 313.534 383.11 312.782 383.542C312.023 383.966 311.26 384.384 310.495 384.798C309.723 385.203 308.949 385.603 308.171 385.999C307.387 386.385 306.6 386.766 305.811 387.143C305.015 387.51 304.217 387.872 303.416 388.23C302.609 388.577 301.8 388.92 300.987 389.258C300.17 389.586 299.35 389.909 298.527 390.226C297.7 390.534 296.869 390.837 296.037 391.135C295.199 391.422 294.359 391.704 293.517 391.981C292.671 392.248 291.822 392.509 290.97 392.766C290.115 393.011 289.257 393.252 288.398 393.487C287.534 393.711 286.668 393.931 285.8 394.144C284.929 394.347 284.056 394.545 283.181 394.737C282.302 394.918 281.422 395.094 280.54 395.264C279.654 395.423 278.768 395.577 277.879 395.725C276.988 395.862 276.095 395.994 275.201 396.119C274.304 396.234 273.406 396.343 272.507 396.446C271.605 396.538 270.702 396.625 269.798 396.705C268.892 396.774 267.985 396.838 267.077 396.896C266.167 396.942 265.256 396.983 264.344 397.017C263.431 397.041 262.517 397.058 261.603 397.07C260.687 397.07 259.77 397.064 258.854 397.052C257.936 397.029 257.017 397 256.099 396.964C255.18 396.918 254.26 396.865 253.34 396.806C252.42 396.736 251.5 396.66 250.579 396.578C249.659 396.484 248.739 396.384 247.818 396.278C246.898 396.161 245.979 396.037 245.059 395.908C244.14 395.767 243.221 395.619 242.303 395.466C241.385 395.301 240.469 395.13 239.552 394.954C238.637 394.765 237.722 394.57 236.808 394.37C235.896 394.157 234.984 393.939 234.073 393.715C233.164 393.478 232.256 393.236 231.349 392.988C230.444 392.729 229.54 392.463 228.638 392.191C227.737 391.908 226.838 391.619 225.94 391.324C225.045 391.017 224.152 390.704 223.26 390.385C222.37 390.055 221.483 389.718 220.597 389.376C219.714 389.023 218.833 388.663 217.954 388.298C217.079 387.921 216.205 387.538 215.333 387.15C214.466 386.749 213.6 386.344 212.736 385.932C211.877 385.509 211.019 385.08 210.164 384.646C209.314 384.2 208.466 383.749 207.62 383.292C206.779 382.823 205.94 382.349 205.104 381.87C204.274 381.379 203.446 380.883 202.62 380.381C201.8 379.868 200.983 379.35 200.168 378.826C199.359 378.291 198.554 377.75 197.751 377.205C196.954 376.648 196.16 376.086 195.37 375.519C194.585 374.941 193.804 374.357 193.026 373.769C192.255 373.17 191.487 372.565 190.723 371.956C189.965 371.336 189.211 370.71 188.461 370.08C187.717 369.439 186.978 368.794 186.242 368.143C185.513 367.482 184.788 366.816 184.067 366.146C183.354 365.465 182.645 364.779 181.939 364.089C181.242 363.388 180.548 362.683 179.859 361.973C179.178 361.254 178.501 360.53 177.829 359.801C177.164 359.063 176.505 358.32 175.849 357.572C175.202 356.816 174.56 356.055 173.922 355.289C173.294 354.514 172.669 353.735 172.05 352.952C171.439 352.16 170.834 351.363 170.233 350.562C169.641 349.753 169.055 348.94 168.473 348.122C167.901 347.296 167.334 346.466 166.772 345.632C166.22 344.79 165.673 343.944 165.13 343.093C164.599 342.236 164.072 341.374 163.55 340.508C163.039 339.635 162.533 338.758 162.033 337.878C161.543 336.99 161.058 336.098 160.579 335.203C160.111 334.301 159.648 333.396 159.191 332.487C158.744 331.571 158.304 330.652 157.869 329.729C157.445 328.8 157.026 327.868 156.614 326.933C156.213 325.991 155.817 325.047 155.428 324.099C155.05 323.146 154.678 322.189 154.311 321.23C153.957 320.265 153.608 319.297 153.266 318.326C152.935 317.35 152.61 316.372 152.292 315.391C151.985 314.404 151.685 313.416 151.391 312.424C151.109 311.428 150.833 310.43 150.563 309.43C150.306 308.424 150.055 307.417 149.81 306.408C149.578 305.394 149.352 304.379 149.133 303.361C148.926 302.34 148.725 301.316 148.531 300.291C148.35 299.263 148.175 298.232 148.007 297.2C147.851 296.165 147.702 295.128 147.56 294.09C147.43 293.049 147.307 292.006 147.191 290.963C147.087 289.916 146.991 288.869 146.9 287.82C146.824 286.769 146.753 285.717 146.69 284.664C146.639 283.609 146.596 282.553 146.559 281.496C146.535 280.438 146.518 279.379 146.508 278.319C146.511 277.258 146.521 276.197 146.538 275.135C146.568 274.072 146.605 273.009 146.648 271.945C146.706 270.881 146.77 269.817 146.84 268.753C146.925 267.688 147.016 266.624 147.114 265.559C147.225 264.495 147.344 263.43 147.469 262.366C147.608 261.303 147.753 260.24 147.906 259.177C148.072 258.115 148.245 257.053 148.424 255.992C148.618 254.932 148.818 253.873 149.025 252.815C149.246 251.758 149.473 250.702 149.707 249.647C149.955 248.594 150.21 247.542 150.471 246.491C150.747 245.442 151.028 244.394 151.317 243.348C151.619 242.304 151.928 241.262 152.244 240.221C152.573 239.183 152.909 238.146 153.252 237.111C153.608 236.08 153.971 235.05 154.341 234.022C154.724 232.998 155.114 231.975 155.51 230.955C155.92 229.938 156.337 228.924 156.76 227.912C157.196 226.904 157.639 225.898 158.089 224.895C158.551 223.896 159.021 222.9 159.497 221.906C159.986 220.917 160.481 219.931 160.983 218.947C161.498 217.969 162.019 216.994 162.547 216.021C163.088 215.055 163.635 214.091 164.188 213.13C164.755 212.175 165.327 211.223 165.906 210.275C166.497 209.333 167.095 208.394 167.699 207.458C168.315 206.529 168.938 205.604 169.567 204.682C170.208 203.767 170.855 202.856 171.508 201.949C172.174 201.049 172.845 200.152 173.523 199.26C174.212 198.375 174.908 197.494 175.609 196.617C176.322 195.748 177.041 194.883 177.766 194.022C178.503 193.17 179.245 192.322 179.993 191.478C180.752 190.643 181.517 189.812 182.288 188.986C183.07 188.168 183.857 187.356 184.65 186.547C185.454 185.748 186.264 184.954 187.079 184.165C187.905 183.385 188.736 182.61 189.572 181.84C190.419 181.079 191.271 180.324 192.128 179.574C192.996 178.833 193.869 178.098 194.747 177.369C195.635 176.649 196.528 175.935 197.426 175.226C198.334 174.528 199.246 173.835 200.164 173.148C201.091 172.472 202.023 171.801 202.959 171.136C203.905 170.482 204.855 169.834 205.81 169.191C206.774 168.56 207.743 167.935 208.716 167.315C209.697 166.708 210.683 166.106 211.674 165.51C212.672 164.926 213.675 164.348 214.683 163.777C215.698 163.217 216.717 162.664 217.741 162.117C218.772 161.582 219.807 161.054 220.846 160.532C221.892 160.022 222.943 159.519 223.997 159.023C225.058 158.539 226.123 158.062 227.191 157.591C228.266 157.133 229.345 156.682 230.427 156.238C231.516 155.807 232.608 155.382 233.703 154.965C234.804 154.56 235.909 154.163 237.016 153.772C238.13 153.395 239.246 153.025 240.366 152.662C241.491 152.313 242.618 151.97 243.749 151.635C244.885 151.313 246.023 150.999 247.164 150.692C248.31 150.399 249.458 150.113 250.608 149.834C251.763 149.569 252.921 149.312 254.08 149.062C255.244 148.826 256.41 148.597 257.577 148.376C258.749 148.17 259.923 147.97 261.098 147.779C262.277 147.601 263.457 147.432 264.639 147.269C265.824 147.121 267.011 146.981 268.199 146.849C269.39 146.731 270.582 146.621 271.776 146.518C272.972 146.43 274.169 146.35 275.367 146.277C276.567 146.219 277.768 146.169 278.97 146.127C280.173 146.1 281.377 146.08 282.582 146.068C283.788 146.071 284.995 146.082 286.202 146.1C287.41 146.134 288.618 146.176 289.827 146.225C291.036 146.289 292.245 146.361 293.455 146.441C294.664 146.536 295.873 146.639 297.083 146.75C298.291 146.876 299.5 147.01 300.708 147.151C301.916 147.308 303.123 147.473 304.33 147.645C305.536 147.833 306.741 148.028 307.945 148.232C309.148 148.45 310.35 148.676 311.551 148.911C312.75 149.16 313.948 149.417 315.145 149.682C316.34 149.962 317.534 150.25 318.726 150.546C319.915 150.857 321.104 151.176 322.29 151.502C323.474 151.844 324.656 152.193 325.836 152.55C327.013 152.922 328.188 153.302 329.361 153.689C330.53 154.092 331.697 154.502 332.862 154.92C334.023 155.353 335.182 155.793 336.338 156.241C337.49 156.704 338.639 157.174 339.786 157.652C340.928 158.145 342.067 158.645 343.203 159.153C344.334 159.676 345.462 160.206 346.588 160.743C347.707 161.295 348.824 161.855 349.938 162.421C351.045 163.003 352.149 163.591 353.25 164.187C354.344 164.797 355.435 165.415 356.523 166.039C357.603 166.678 358.68 167.324 359.754 167.978C360.82 168.645 361.882 169.319 362.94 170.001C363.991 170.696 365.038 171.398 366.081 172.108C367.116 172.831 368.146 173.561 369.173 174.297C370.191 175.048 371.204 175.805 372.214 176.569C373.214 177.346 374.21 178.13 375.202 178.921C376.184 179.725 377.162 180.535 378.135 181.352C379.099 182.182 380.057 183.019 381.011 183.862C381.955 184.717 382.894 185.579 383.828 186.448C384.752 187.328 385.67 188.216 386.584 189.109C387.486 190.015 388.384 190.926 389.276 191.844C390.157 192.774 391.033 193.71 391.903 194.652C392.762 195.605 393.615 196.565 394.463 197.53C395.299 198.507 396.13 199.489 396.954 200.477C397.767 201.477 398.573 202.482 399.374 203.492C400.163 204.514 400.945 205.541 401.721 206.573C402.485 207.616 403.243 208.665 403.994 209.718C404.732 210.782 405.465 211.851 406.19 212.925C406.903 214.01 407.609 215.099 408.309 216.193C408.995 217.297 409.675 218.406 410.348 219.519C411.007 220.642 411.659 221.77 412.305 222.902C412.937 224.043 413.562 225.189 414.18 226.339C414.784 227.498 415.381 228.662 415.97 229.829C416.546 231.005 417.114 232.185 417.675 233.369C418.222 234.562 418.761 235.758 419.293 236.958C419.81 238.166 420.32 239.378 420.822 240.593C421.309 241.816 421.789 243.042 422.261 244.272C422.718 245.509 423.167 246.749 423.609 247.993C424.036 249.243 424.454 250.497 424.865 251.753C425.26 253.016 425.648 254.282 426.028 255.551C426.391 256.826 426.747 258.103 427.096 259.384C427.428 260.669 427.752 261.958 428.068 263.249C428.368 264.545 428.66 265.843 428.944 267.144C429.212 268.45 429.471 269.758 429.723 271.067C429.958 272.382 430.184 273.698 430.403 275.016C430.605 276.338 430.799 277.662 430.984 278.988C431.153 280.317 431.314 281.647 431.466 282.979C431.601 284.315 431.729 285.651 431.847 286.989C431.949 288.33 432.042 289.671 432.127 291.014C432.196 292.359 432.255 293.705 432.306 295.052C432.34 296.401 432.366 297.75 432.383 299.101C432.383 300.452 432.374 301.804 432.357 303.156C432.323 304.51 432.28 305.864 432.229 307.217C432.16 308.572 432.083 309.926 431.998 311.281C431.895 312.636 431.783 313.99 431.663 315.344C431.526 316.698 431.38 318.052 431.225 319.405C431.053 320.757 430.873 322.109 430.684 323.46C430.477 324.81 430.263 326.159 430.039 327.507C429.798 328.854 429.549 330.199 429.291 331.544C429.016 332.886 428.732 334.227 428.44 335.567C428.13 336.904 427.812 338.24 427.485 339.574C427.141 340.905 426.789 342.235 426.428 343.563C426.05 344.887 425.664 346.21 425.268 347.53C424.856 348.847 424.436 350.161 424.007 351.474C423.561 352.782 423.107 354.088 422.644 355.391C422.164 356.689 421.676 357.985 421.18 359.279C420.666 360.567 420.145 361.852 419.615 363.135C419.068 364.412 418.514 365.686 417.951 366.957C417.371 368.222 416.783 369.483 416.187 370.742C415.575 371.994 414.954 373.242 414.326 374.487C413.681 375.725 413.028 376.96 412.367 378.191C411.689 379.414 411.004 380.634 410.311 381.85C409.602 383.058 408.885 384.262 408.161 385.462C407.42 386.653 406.672 387.841 405.915 389.024C405.144 390.199 404.364 391.369 403.577 392.534C402.775 393.691 401.965 394.843 401.147 395.99C400.314 397.128 399.474 398.261 398.626 399.389C397.763 400.508 396.893 401.621 396.016 402.729C395.123 403.827 394.224 404.92 393.317 406.007C392.396 407.084 391.468 408.156 390.532 409.222C389.583 410.277 388.626 411.326 387.662 412.37C386.685 413.402 385.7 414.429 384.709 415.45C383.704 416.459 382.692 417.462 381.673 418.459C380.642 419.443 379.603 420.422 378.558 421.395C377.5 422.355 376.435 423.309 375.364 424.256C374.28 425.191 373.19 426.119 372.093 427.04C370.984 427.949 369.869 428.851 368.748 429.746C367.615 430.627 366.475 431.502 365.33 432.37C364.173 433.224 363.01 434.071 361.841 434.911C360.66 435.737 359.474 436.555 358.283 437.367C357.08 438.164 355.872 438.954 354.658 439.736C353.434 440.504 352.204 441.264 350.969 442.017C349.723 442.754 348.472 443.484 347.217 444.207C345.951 444.914 344.68 445.613 343.405 446.305C342.119 446.981 340.829 447.649 339.534 448.31C338.23 448.954 336.921 449.59 335.608 450.219C334.286 450.831 332.96 451.435 331.629 452.031C330.29 452.611 328.946 453.182 327.599 453.745C326.243 454.291 324.883 454.83 323.52 455.359C322.148 455.872 320.773 456.376 319.395 456.872C318.009 457.351 316.619 457.821 315.226 458.283C313.826 458.727 312.423 459.163 311.017 459.59C309.604 460 308.188 460.4 306.769 460.792C305.344 461.167 303.916 461.532 302.485 461.888C301.049 462.227 299.61 462.557 298.168 462.878C296.721 463.181 295.272 463.474 293.82 463.759C292.364 464.026 290.906 464.283 289.445 464.532C287.98 464.762 286.514 464.983 285.045 465.194C283.572 465.388 282.098 465.572 280.622 465.747C279.143 465.903 277.662 466.05 276.18 466.188C274.695 466.307 273.208 466.417 271.721 466.517C270.231 466.599 268.74 466.671 267.248 466.734C265.754 466.778 264.259 466.813 262.764 466.838C261.267 466.845 259.77 466.842 258.272 466.829C256.773 466.798 255.274 466.757 253.774 466.706C252.274 466.637 250.774 466.558 249.274 466.47C247.774 466.362 246.274 466.245 244.774 466.119C243.275 465.973 241.776 465.818 240.278 465.654C238.781 465.47 237.284 465.277 235.788 465.075C234.293 464.853 232.8 464.622 231.307 464.381C229.816 464.121 228.326 463.852 226.838 463.573C225.352 463.275 223.867 462.968 222.384 462.651C220.903 462.316 219.424 461.97 217.947 461.616C216.474 461.242 215.002 460.859 213.532 460.467C212.066 460.055 210.602 459.635 209.14 459.205C207.682 458.756 206.227 458.297 204.774 457.83C203.327 457.344 201.881 456.848 200.439 456.343C199.001 455.82 197.567 455.287 196.135 454.745C194.709 454.184 193.286 453.615 191.867 453.036C190.453 452.439 189.043 451.832 187.636 451.217C186.236 450.583 184.84 449.94 183.447 449.289C182.061 448.619 180.679 447.94 179.301 447.252C177.931 446.546 176.564 445.832 175.202 445.108C173.848 444.367 172.498 443.617 171.152 442.858C169.815 442.082 168.482 441.297 167.154 440.503C165.835 439.692 164.521 438.873 163.211 438.044C161.911 437.199 160.615 436.345 159.325 435.483C158.045 434.603 156.77 433.716 155.5 432.82C154.24 431.907 152.986 430.986 151.737 430.057C150.499 429.111 149.266 428.158 148.039 427.196C146.824 426.218 145.614 425.232 144.41 424.238C143.218 423.228 142.031 422.21 140.851 421.184C139.683 420.143 138.521 419.094 137.365 418.037C136.222 416.965 135.085 415.886 133.954 414.798C132.837 413.696 131.726 412.587 130.622 411.47C129.531 410.338 128.447 409.199 127.369 408.053C126.306 406.892 125.249 405.724 124.2 404.549C123.164 403.36 122.136 402.165 121.115 400.962C120.108 399.745 119.109 398.522 118.117 397.292C117.14 396.049 116.17 394.799 115.208 393.542C114.261 392.273 113.322 390.997 112.391 389.715C111.475 388.42 110.567 387.119 109.667 385.811C108.783 384.492 107.907 383.166 107.039 381.835C106.187 380.491 105.344 379.142 104.508 377.787C103.689 376.42 102.879 375.048 102.077 373.671C101.292 372.282 100.515 370.888 99.7468 369.488C98.9958 368.078 98.2535 366.662 97.5198 365.242C96.8036 363.811 96.0962 362.375 95.3976 360.934C94.7167 359.484 94.0448 358.028 93.3818 356.568C92.7368 355.099 92.1009 353.625 91.474 352.146C90.8655 350.659 90.2661 349.167 89.6759 347.671C89.1042 346.166 88.5419 344.658 87.9888 343.145C87.4546 341.624 86.9297 340.1 86.4143 338.571C85.9178 337.035 85.4309 335.496 84.9535 333.953C84.4953 332.402 84.0467 330.849 83.6078 329.292C83.1883 327.728 82.7785 326.161 82.3784 324.592C81.9979 323.016 81.6272 321.437 81.2664 319.855C80.9253 318.268 80.5941 316.678 80.2729 315.085C79.9715 313.488 79.6801 311.887 79.3988 310.285C79.1375 308.678 78.8862 307.068 78.645 305.457C78.424 303.841 78.2132 302.224 78.0125 300.605C77.832 298.982 77.6618 297.357 77.5018 295.731C77.3622 294.101 77.2329 292.471 77.1138 290.839C77.0152 289.204 76.9269 287.568 76.849 285.931C76.7916 284.292 76.7446 282.652 76.7079 281.012C76.6919 279.369 76.6862 277.727 76.6909 276.083C76.7164 274.439 76.7523 272.794 76.7986 271.149C76.8656 269.503 76.9431 267.857 77.031 266.211C77.1397 264.566 77.2589 262.92 77.3885 261.275C77.5389 259.63 77.6998 257.985 77.8711 256.341C78.0633 254.699 78.2659 253.056 78.4789 251.415C78.7128 249.775 78.9572 248.136 79.2119 246.498C79.4875 244.863 79.7735 243.228 80.0699 241.595C80.3872 239.964 80.7148 238.335 81.0528 236.708C81.4116 235.084 81.7808 233.461 82.1603 231.84C82.5605 230.223 82.9711 228.608 83.392 226.995C83.8335 225.387 84.2853 223.78 84.7474 222.176C85.2301 220.577 85.723 218.98 86.2261 217.386C86.7497 215.798 87.2835 214.212 87.8275 212.628C88.3918 211.051 88.9662 209.477 89.5508 207.906C90.1555 206.341 90.7704 204.78 91.3953 203.222C92.0403 201.671 92.6952 200.123 93.3601 198.579C94.045 197.043 94.7398 195.51 95.4444 193.981C96.1688 192.46 96.9031 190.944 97.6471 189.431C98.4107 187.927 99.1841 186.427 99.9672 184.931C100.77 183.445 101.582 181.963 102.403 180.486C103.244 179.018 104.095 177.555 104.955 176.097C105.833 174.649 106.722 173.206 107.619 171.768C108.536 170.34 109.461 168.918 110.396 167.502C111.35 166.096 112.312 164.695 113.284 163.301C114.274 161.918 115.273 160.54 116.281 159.169C117.307 157.809 118.342 156.455 119.386 155.108C120.447 153.772 121.517 152.443 122.596 151.121C123.692 149.811 124.797 148.508 125.91 147.211C127.041 145.927 128.18 144.651 129.327 143.381C130.491 142.124 131.664 140.875 132.844 139.633C134.042 138.405 135.247 137.184 136.46 135.97C137.689 134.77 138.927 133.579 140.172 132.394C141.433 131.225 142.702 130.063 143.978 128.909C145.27 127.77 146.569 126.639 147.876 125.516C149.198 124.408 150.527 123.309 151.864 122.218C153.215 121.143 154.574 120.076 155.94 119.017C157.319 117.975 158.706 116.941 160.1 115.916C161.508 114.907 162.922 113.908 164.343 112.917C165.778 111.943 167.219 110.978 168.667 110.021C170.127 109.083 171.594 108.153 173.068 107.232C174.553 106.33 176.045 105.436 177.544 104.552C179.054 103.686 180.57 102.829 182.092 101.982C183.625 101.153 185.165 100.333 186.71 99.5235C188.266 98.7326 189.827 97.9513 191.395 97.1796C192.972 96.4272 194.555 95.6845 196.143 94.9516C197.742 94.2383 199.345 93.5348 200.953 92.8413C202.571 92.1676 204.194 91.5039 205.821 90.8503C207.458 90.2168 209.099 89.5935 210.745 88.9803C212.399 88.3875 214.058 87.8049 215.72 87.2327C217.391 86.6811 219.066 86.1399 220.745 85.609C222.432 85.0991 224.122 84.5996 225.816 84.1106C227.517 83.6428 229.222 83.1855 230.93 82.7388C232.645 82.3134 234.363 81.8988 236.084 81.4948C237.811 81.1123 239.541 80.7406 241.274 80.3797C243.013 80.0404 244.754 79.712 246.498 79.3945C248.247 79.0989 249.998 78.8141 251.752 78.5404C253.51 78.2886 255.27 78.0478 257.033 77.818C258.799 77.6104 260.567 77.4138 262.337 77.2284C264.11 77.0651 265.885 76.913 267.661 76.7721C269.44 76.6535 271.221 76.546 273.003 76.4498C274.787 76.376 276.572 76.3135 278.357 76.2621C280.145 76.2333 281.933 76.2158 283.722 76.2095C285.512 76.2258 287.303 76.2534 289.094 76.2924C290.885 76.3539 292.677 76.4268 294.469 76.5109C296.26 76.6178 298.052 76.736 299.843 76.8655C301.634 77.0177 303.424 77.1812 305.214 77.3561C307.003 77.5537 308.791 77.7626 310.578 77.9829C312.363 78.2259 314.148 78.4801 315.931 78.7458C317.712 79.034 319.492 79.3337 321.271 79.6446C323.046 79.9781 324.82 80.323 326.592 80.6791C328.361 81.0578 330.128 81.4478 331.893 81.8491C333.654 82.2728 335.413 82.7078 337.17 83.154C338.922 83.6227 340.672 84.1025 342.419 84.5936C344.161 85.1069 345.9 85.6314 347.636 86.167C349.367 86.7249 351.095 87.2938 352.819 87.8738C354.537 88.4759 356.252 89.089 357.964 89.7131C359.669 90.3592 361.37 91.0162 363.067 91.6841C364.757 92.3739 366.444 93.0745 368.126 93.7859C369.8 94.519 371.47 95.2629 373.136 96.0175C374.794 96.7936 376.447 97.5804 378.095 98.3778C379.734 99.1965 381.369 100.026 382.999 100.866C384.619 101.726 386.235 102.598 387.845 103.48C389.445 104.382 391.04 105.295 392.629 106.218C394.208 107.162 395.782 108.116 397.349 109.081C398.906 110.065 400.457 111.06 402.002 112.065C403.535 113.09 405.062 114.125 406.583 115.17C408.092 116.234 409.594 117.309 411.09 118.393C412.573 119.497 414.05 120.61 415.52 121.733C416.977 122.875 418.427 124.027 419.87 125.188C421.3 126.368 422.722 127.558 424.137 128.756C425.538 129.974 426.932 131.2 428.318 132.436C429.69 133.69 431.054 134.953 432.41 136.224C433.751 137.514 435.085 138.812 436.41 140.12C437.72 141.444 439.022 142.778 440.316 144.12C441.593 145.479 442.863 146.846 444.124 148.222C445.368 149.615 446.604 151.016 447.832 152.425C449.043 153.85 450.244 155.283 451.438 156.725C452.613 158.182 453.78 159.647 454.938 161.12C456.078 162.608 457.209 164.104 458.331 165.607C459.434 167.126 460.528 168.651 461.613 170.185C462.679 171.732 463.736 173.287 464.783 174.849C465.811 176.425 466.83 178.008 467.838 179.598C468.828 181.202 469.807 182.812 470.776 184.429C471.726 186.059 472.666 187.695 473.595 189.338C474.505 190.993 475.404 192.655 476.293 194.323C477.161 196.003 478.019 197.688 478.867 199.38C479.694 201.084 480.51 202.793 481.316 204.507C482.1 206.233 482.874 207.965 483.637 209.701C484.379 211.449 485.11 213.201 485.83 214.958C486.528 216.726 487.216 218.498 487.892 220.276C488.546 222.063 489.19 223.854 489.822 225.65C490.431 227.455 491.03 229.264 491.617 231.078C492.182 232.9 492.736 234.726 493.278 236.556C493.797 238.394 494.305 240.236 494.801 242.081C495.274 243.934 495.736 245.79 496.186 247.65C496.613 249.516 497.029 251.386 497.432 253.259C497.813 255.138 498.181 257.019 498.538 258.904C498.871 260.794 499.193 262.687 499.502 264.582C499.788 266.482 500.062 268.385 500.324 270.29C500.562 272.199 500.788 274.11 501.002 276.023C501.192 277.94 501.37 279.859 501.536 281.779C501.678 283.703 501.808 285.628 501.925 287.554C502.019 289.483 502.1 291.412 502.169 293.343C502.214 295.276 502.247 297.21 502.267 299.144C502.263 301.08 502.247 303.016 502.219 304.953C502.166 306.89 502.101 308.828 502.024 310.766C501.922 312.703 501.808 314.641 501.682 316.578C501.531 318.515 501.368 320.452 501.193 322.388C500.993 324.323 500.781 326.257 500.556 328.19C500.308 330.121 500.046 332.052 499.773 333.981C499.475 335.908 499.165 337.834 498.843 339.758C498.496 341.679 498.137 343.598 497.766 345.516C497.371 347.43 496.963 349.342 496.543 351.252C496.099 353.158 495.643 355.062 495.174 356.963C494.682 358.859 494.177 360.753 493.66 362.644C493.119 364.529 492.566 366.412 492.001 368.291C491.412 370.165 490.811 372.035 490.198 373.902C489.561 375.762 488.913 377.619 488.252 379.472C487.568 381.318 486.871 383.16 486.163 384.998C485.432 386.828 484.689 388.654 483.934 390.476C483.155 392.289 482.365 394.098 481.564 395.903C480.739 397.698 479.902 399.488 479.054 401.274C478.184 403.05 477.301 404.821 476.408 406.587C475.491 408.342 474.563 410.092 473.624 411.837C472.663 413.571 471.69 415.299 470.706 417.022C469.7 418.733 468.683 420.438 467.655 422.138C466.604 423.825 465.543 425.506 464.471 427.181C463.378 428.843 462.273 430.499 461.158 432.148C460.021 433.784 458.874 435.413 457.716 437.036C456.537 438.644 455.348 440.246 454.148 441.841C452.928 443.421 451.697 444.994 450.456 446.56C449.195 448.111 447.923 449.654 446.642 451.19C445.34 452.71 444.028 454.223 442.707 455.727C441.366 457.216 440.015 458.697 438.654 460.17C437.274 461.626 435.885 463.074 434.486 464.513C433.068 465.936 431.641 467.35 430.205 468.756C428.75 470.144 427.286 471.523 425.813 472.893C424.322 474.246 422.822 475.589 421.313 476.924C419.786 478.24 418.251 479.547 416.707 480.844C415.146 482.123 413.576 483.392 411.998 484.651C410.404 485.892 408.801 487.122 407.19 488.343C405.562 489.544 403.927 490.736 402.284 491.917C400.625 493.078 398.958 494.229 397.284 495.369C395.594 496.49 393.897 497.599 392.192 498.699C390.473 499.777 388.746 500.845 387.012 501.903C385.264 502.939 383.509 503.964 381.747 504.978C379.971 505.971 378.189 506.953 376.4 507.924C374.598 508.872 372.789 509.81 370.974 510.736C369.147 511.64 367.313 512.533 365.473 513.415C363.621 514.273 361.763 515.121 359.899 515.956C358.024 516.769 356.143 517.57 354.257 518.36C352.36 519.126 350.457 519.88 348.549 520.622C346.631 521.341 344.708 522.048 342.78 522.743C340.842 523.414 338.899 524.073 336.952 524.72C334.995 525.342 333.035 525.953 331.069 526.551C329.096 527.125 327.118 527.686 325.136 528.235C323.146 528.76 321.152 529.272 319.155 529.771C317.15 530.246 315.142 530.708 313.13 531.158C311.112 531.582 309.09 531.994 307.066 532.393C305.035 532.767 303.001 533.128 300.965 533.476C298.923 533.799 296.879 534.109 294.832 534.407C292.78 534.678 290.726 534.937 288.67 535.183C286.61 535.403 284.548 535.61 282.484 535.804C280.417 535.973 278.348 536.128 276.277 536.27C274.204 536.387 272.129 536.49 270.054 536.58C267.976 536.644 265.897 536.695 263.817 536.733C261.736 536.744 259.654 536.743 257.571 536.728C255.488 536.687 253.405 536.633 251.321 536.566C249.237 536.473 247.153 536.366 245.07 536.246C242.986 536.1 240.904 535.941 238.821 535.769C236.74 535.57 234.66 535.358 232.58 535.133C230.502 534.881 228.425 534.616 226.35 534.339C224.276 534.034 222.205 533.717 220.134 533.387C218.067 533.03 216.002 532.66 213.938 532.277C211.878 531.868 209.82 531.446 207.765 531.011C205.714 530.549 203.665 530.075 201.619 529.587C199.577 529.074 197.539 528.547 195.503 528.008C193.474 527.442 191.447 526.864 189.423 526.272C187.406 525.655 185.392 525.025 183.382 524.382C181.379 523.714 179.379 523.033 177.384 522.338C175.396 521.619 173.412 520.887 171.432 520.142C169.461 519.371 167.494 518.588 165.531 517.793C163.578 516.972 161.629 516.139 159.685 515.293C157.751 514.422 155.821 513.539 153.897 512.644C151.983 511.724 150.075 510.791 148.172 509.847C146.279 508.878 144.393 507.896 142.512 506.903C140.643 505.885 138.78 504.856 136.922 503.814C135.077 502.748 133.239 501.671 131.406 500.582C129.587 499.469 127.774 498.344 125.968 497.207C124.175 496.048 122.389 494.876 120.61 493.693C118.845 492.487 117.087 491.27 115.336 490.041C113.6 488.79 111.872 487.527 110.151 486.254C108.445 484.957 106.747 483.65 105.057 482.332C103.382 480.992 101.716 479.641 100.058 478.279C98.4159 476.895 96.7824 475.501 95.1572 474.096C93.549 472.67 91.9494 471.234 90.3584 469.787C88.7849 468.319 87.2203 466.841 85.6646 465.353C84.1269 463.844 82.5984 462.326 81.079 460.797C79.5782 459.249 78.0868 457.691 76.6048 456.123C75.1419 454.535 73.6887 452.938 72.2451 451.331C70.8211 449.706 69.4071 448.071 68.003 446.426C66.6189 444.763 65.245 443.091 63.8813 441.41C62.5381 439.711 61.2054 438.003 59.883 436.287C58.5817 434.553 57.291 432.81 56.0109 431.058C54.7524 429.29 53.5046 427.513 52.2678 425.728C51.0529 423.927 49.849 422.117 48.6563 420.299C47.4859 418.466 46.3268 416.625 45.179 414.776C44.0539 412.911 42.9404 411.039 41.8384 409.16C40.7595 407.266 39.6924 405.364 38.6369 403.455C37.605 401.533 36.585 399.603 35.5769 397.666C34.5928 395.716 33.6207 393.759 32.6607 391.795C31.725 389.818 30.8016 387.835 29.8904 385.846C29.0039 383.844 28.1297 381.836 27.268 379.822C26.4313 377.797 25.6072 375.765 24.7957 373.728C24.0095 371.68 23.236 369.626 22.4752 367.567C21.7401 365.497 21.0178 363.423 20.3084 361.343C19.6249 359.253 18.9545 357.158 18.297 355.059C17.6658 352.951 17.0476 350.838 16.4427 348.72C15.8641 346.594 15.2988 344.464 14.7468 342.329C14.2215 340.187 13.7095 338.041 13.2109 335.891C12.7392 333.734 12.281 331.574 11.8363 329.41C11.4186 327.239 11.0146 325.065 10.6241 322.888C10.261 320.706 9.91145 318.52 9.57562 316.332C9.26723 314.138 8.97259 311.942 8.69171 309.744C8.43843 307.541 8.19898 305.336 7.97336 303.128C7.77546 300.917 7.59144 298.705 7.42133 296.49C7.27905 294.273 7.15072 292.054 7.03635 289.833C6.94991 287.61 6.87748 285.387 6.81903 283.162C6.78861 280.935 6.7722 278.708 6.76984 276.48C6.79556 274.25 6.83532 272.021 6.88916 269.791C6.97113 267.561 7.06718 265.331 7.17731 263.101C7.31559 260.872 7.46797 258.642 7.63443 256.413C7.82906 254.186 8.03778 251.959 8.26059 249.732C8.51156 247.508 8.7766 245.284 9.05573 243.062C9.36299 240.842 9.68432 238.624 10.0197 236.407C10.3832 234.193 10.7607 231.981 11.1523 229.771C11.5719 227.565 12.0055 225.361 12.4531 223.16C12.9286 220.962 13.4181 218.768 13.9216 216.576C14.4529 214.389 14.9981 212.205 15.5573 210.024C16.1441 207.849 16.7448 205.677 17.3593 203.509C18.0015 201.347 18.6574 199.189 19.3271 197.035C20.0242 194.888 20.7351 192.744 21.4596 190.605C22.2114 188.474 22.9768 186.347 23.7558 184.225C24.5619 182.111 25.3815 180.002 26.2146 177.898C27.0746 175.803 27.948 173.713 28.8347 171.629C29.7482 169.554 30.6749 167.485 31.6149 165.421C32.5814 163.368 33.561 161.32 34.5537 159.278C35.5726 157.248 36.6046 155.224 37.6495 153.206C38.7204 151.2 39.8041 149.2 40.9007 147.207C42.0229 145.227 43.1579 143.253 44.3055 141.286C45.4785 139.333 46.664 137.386 47.8621 135.447C49.0852 133.522 50.3207 131.604 51.5686 129.693C52.8411 127.797 54.1258 125.909 55.4228 124.029C56.744 122.164 58.0773 120.306 59.4226 118.457C60.7918 116.624 62.1728 114.8 63.5658 112.983C64.9822 111.183 66.4102 109.392 67.8499 107.609C69.3128 105.844 70.787 104.087 72.2727 102.34C73.7811 100.61 75.3007 98.8897 76.8315 97.1783C78.3845 95.4854 79.9486 93.802 81.5237 92.128C83.1205 90.4732 84.7282 88.828 86.3466 87.1926C87.9863 85.5768 89.6365 83.9711 91.2973 82.3753C92.9789 80.7998 94.6708 79.2345 96.373 77.6795C98.0956 76.1453 99.8282 74.6216 101.571 73.1084C103.333 71.6166 105.105 70.1355 106.887 68.6653C108.689 67.2168 110.5 65.7795 112.32 64.3531C114.159 62.9491 116.007 61.5564 117.865 60.1749C119.741 58.8163 121.625 57.4693 123.519 56.1337C125.43 54.8215 127.35 53.521 129.279 52.2323C131.225 50.9674 133.179 49.7144 135.142 48.4734C137.121 47.2567 139.108 46.0522 141.103 44.8598C143.114 43.6922 145.133 42.5369 147.16 41.3941C149.202 40.2763 151.251 39.1712 153.308 38.0787C155.379 37.0116 157.458 35.9574 159.544 34.916C161.644 33.9005 163.751 32.898 165.864 31.9085C167.991 30.9453 170.125 29.9952 172.265 29.0583C174.417 28.148 176.576 27.2511 178.741 26.3676C180.918 25.511 183.101 24.6679 185.29 23.8383C187.491 23.0361 189.696 22.2475 191.908 21.4726C194.13 20.7252 196.357 19.9917 198.589 19.272C200.831 18.5802 203.079 17.9024 205.331 17.2385C207.592 16.6027 209.858 15.9811 212.128 15.3736C214.407 14.7944 216.69 14.2295 218.977 13.6789C221.272 13.1568 223.571 12.6491 225.874 12.1557C228.183 11.6912 230.496 11.2411 232.813 10.8055C235.136 10.3989 237.462 10.0068 239.791 9.6293C242.126 9.28101 244.464 8.94737 246.804 8.62836C249.149 8.33871 251.497 8.06377 253.847 7.80356C256.201 7.57286 258.557 7.35694 260.915 7.15582C263.277 6.98434 265.64 6.8277 268.005 6.68591C270.372 6.57387 272.741 6.47675 275.111 6.3945C277.483 6.34209 279.855 6.30461 282.229 6.28207C284.604 6.28945 286.979 6.31178 289.355 6.34909C291.731 6.41636 294.107 6.49861 296.483 6.59586C298.86 6.72309 301.235 6.86534 303.611 7.02258C305.985 7.20983 308.359 7.41208 310.732 7.62933C313.104 7.87659 315.474 8.13883 317.843 8.41608C320.21 8.7233 322.575 9.04548 324.939 9.38266C327.3 9.74977 329.658 10.1319 332.015 10.5289C334.368 10.9558 336.719 11.3975 339.067 11.8542C341.411 12.3408 343.752 12.8421 346.09 13.3584C348.423 13.9043 350.753 14.465 353.08 15.0406C355.401 15.6457 357.718 16.2656 360.032 16.9002C362.339 17.5643 364.643 18.243 366.942 18.9364C369.234 19.659 371.522 20.3963 373.805 21.1481C376.08 21.9291 378.351 22.7245 380.617 23.5344C382.874 24.3732 385.126 25.2264 387.373 26.0941C389.61 26.9903 391.842 27.9009 394.069 28.8257C396.285 29.779 398.496 30.7465 400.701 31.7281C402.894 32.7379 405.082 33.7617 407.263 34.7996C409.433 35.8653 411.596 36.945 413.753 38.0386C415.897 39.1597 418.034 40.2946 420.165 41.4433C422.282 42.6193 424.392 43.8088 426.495 45.012C428.584 46.2421 430.666 47.4856 432.74 48.7426C434.799 50.0262 436.851 51.323 438.894 52.6331C440.923 53.9695 442.943 55.3189 444.955 56.6814C446.951 58.0697 448.938 59.471 450.917 60.8851C452.879 62.3247 454.833 63.7769 456.777 65.2418C458.704 66.7318 460.622 68.2343 462.531 69.7492C464.422 71.2888 466.303 72.8406 468.175 74.4046C470.029 75.9928 471.872 77.593 473.706 79.2053C475.52 80.8413 477.324 82.489 479.119 84.1485C480.893 85.8313 482.657 87.5256 484.41 89.2314C486.143 90.9601 487.866 92.6999 489.577 94.4511C491.268 96.2245 492.947 98.0089 494.616 99.8044C496.263 101.622 497.898 103.449 499.523 105.288C501.125 107.148 502.715 109.018 504.295 110.899C505.851 112.801 507.395 114.712 508.928 116.634C510.437 118.576 511.934 120.528 513.42 122.489C514.881 124.471 516.33 126.461 517.766 128.462C519.179 130.481 520.578 132.51 521.966 134.548C523.328 136.604 524.677 138.669 526.014 140.743C527.325 142.835 528.623 144.935 529.908 147.045C531.168 149.171 532.414 151.305 533.647 153.448C534.853 155.608 536.046 157.775 537.226 159.95C538.378 162.142 539.517 164.34 540.643 166.547C541.741 168.768 542.826 170.997 543.896 173.234C544.939 175.484 545.968 177.742 546.983 180.007C547.97 182.285 548.942 184.57 549.901 186.862C550.831 189.166 551.746 191.477 552.648 193.795C553.52 196.124 554.378 198.46 555.221 200.801C556.035 203.154 556.835 205.513 557.62 207.877C558.375 210.252 559.116 212.632 559.842 215.018C560.538 217.413 561.219 219.814 561.885 222.219C562.521 224.633 563.142 227.053 563.747 229.476C564.323 231.908 564.883 234.344 565.428 236.785C565.943 239.233 566.442 241.685 566.926 244.14C567.379 246.603 567.817 249.069 568.239 251.538C568.631 254.014 569.007 256.493 569.367 258.974C569.696 261.461 570.01 263.951 570.308 266.443C570.574 268.94 570.825 271.439 571.06 273.94C571.264 276.445 571.452 278.952 571.625 281.46C571.766 283.972 571.891 286.485 572 289" stroke="black" stroke-width="12" stroke-linecap="round"/>
</svg>
